<?xml version="1.0" encoding="UTF-8" standalone="no"?>
<!-- Created with Inkscape (http://www.inkscape.org/) -->

<svg
   width="91.114586mm"
   height="90.750748mm"
   viewBox="0 0 91.114586 90.750748"
   version="1.1"
   id="svg1"
   xml:space="preserve"
   inkscape:version="1.3 (0e150ed6c4, 2023-07-21)"
   sodipodi:docname="logo-hsrm.svg"
   xmlns:inkscape="http://www.inkscape.org/namespaces/inkscape"
   xmlns:sodipodi="http://sodipodi.sourceforge.net/DTD/sodipodi-0.dtd"
   xmlns="http://www.w3.org/2000/svg"
   xmlns:svg="http://www.w3.org/2000/svg"><sodipodi:namedview
     id="namedview1"
     pagecolor="#ffffff"
     bordercolor="#000000"
     borderopacity="0.25"
     inkscape:showpageshadow="2"
     inkscape:pageopacity="0.0"
     inkscape:pagecheckerboard="0"
     inkscape:deskcolor="#d1d1d1"
     inkscape:document-units="mm"
     inkscape:zoom="1.4324567"
     inkscape:cx="320.42854"
     inkscape:cy="209.77947"
     inkscape:window-width="2560"
     inkscape:window-height="1351"
     inkscape:window-x="2551"
     inkscape:window-y="-9"
     inkscape:window-maximized="1"
     inkscape:current-layer="layer1" /><defs
     id="defs1" /><g
     inkscape:label="Layer 1"
     inkscape:groupmode="layer"
     id="layer1"
     transform="translate(-43.810739,-111.04178)"><path
       style="fill:#e30512;fill-opacity:1"
       d="m 57.221759,201.29566 c -0.99149,-0.60461 -3.81671,-5.3031 -3.99626,-6.64596 -0.13577,-1.01555 0.0874,-1.51184 2.67661,-5.95313 0.84838,-1.45521 2.67477,-4.61036 4.05865,-7.01146 1.38387,-2.40109 3.65022,-6.33015 5.03632,-8.73125 4.4985,-7.79259 5.07629,-8.80576 5.07629,-8.9015 0,-0.0519 -4.73274,-0.0969 -10.51719,-0.10014 -12.90525,-0.007 -11.93566,0.24743 -14.19852,-3.72779 -2.02733,-3.56147 -2.03826,-4.02403 -0.17213,-7.28466 2.44403,-4.27038 1.22127,-3.91844 13.92472,-4.00788 6.02972,-0.0425 10.96312,-0.12322 10.96312,-0.17948 0,-0.0563 -0.40451,-0.79543 -0.8989,-1.6426 -11.53882,-19.77252 -15.82774,-27.39542 -15.94657,-28.34264 -0.10465,-0.8342 0.12425,-1.40921 1.54831,-3.88935 2.12624,-3.70306 2.35382,-3.83548 6.59293,-3.83604 2.75831,-3.7e-4 3.16092,0.0609 3.96875,0.60378 0.90964,0.61133 3.04967,4.16429 13.66011,22.67914 2.12656,3.71078 3.91365,6.80463 3.97131,6.87521 0.181,0.22159 0.9436,-0.95319 3.22502,-4.96812 1.2162,-2.14031 2.57471,-4.27842 3.01893,-4.75136 0.80766,-0.8599 0.80766,-0.8599 4.53335,-0.8599 2.94462,0 3.84902,0.0864 4.31402,0.41209 0.73644,0.51582 3.501581,5.17686 3.765591,6.34744 0.24674,1.09401 -0.0169,1.6889 -3.137821,7.08114 -1.33171,2.30086 -2.42128,4.23229 -2.42128,4.29207 0,0.0598 7.729531,0.14178 17.176741,0.18224 19.69571,0.0844 17.58944,-0.24844 19.55965,3.09039 2.41052,4.085 2.43988,4.39248 0.72068,7.54639 -1.57685,2.89279 -2.33931,3.77811 -3.54127,4.11194 -0.61683,0.17132 -7.02744,0.27139 -17.44549,0.27233 -9.05867,8.1e-4 -16.470311,0.0566 -16.470311,0.12407 0,0.0674 0.84771,1.58547 1.8838,3.37343 4.502311,7.76956 4.388001,7.1993 2.212981,11.04071 -2.121861,3.7475 -2.073731,3.71951 -6.394561,3.71951 -2.52264,0 -3.75627,-0.10701 -4.26473,-0.36994 -0.4978,-0.25742 -1.47963,-1.70462 -3.228,-4.75799 -2.65874,-4.64325 -3.40713,-5.7526 -3.59107,-5.32311 -0.0623,0.14552 -1.7334,3.06255 -3.71351,6.48229 -4.88879,8.44318 -9.40822,16.28235 -11.13521,19.31458 -0.78736,1.38245 -1.84012,2.9005 -2.33946,3.37344 -0.90789,0.8599 -0.90789,0.8599 -4.28521,0.85891 -2.83478,-8.3e-4 -3.50794,-0.0806 -4.19039,-0.4968 z"
       id="path2" /></g></svg>
