<?xml version="1.0" encoding="UTF-8" standalone="no"?>
<!-- Created with Inkscape (http://www.inkscape.org/) -->

<svg
   width="160.09988mm"
   height="253.3mm"
   viewBox="0 0 160.09989 253.3"
   version="1.1"
   id="svg1"
   inkscape:version="1.3 (0e150ed6c4, 2023-07-21)"
   sodipodi:docname="sample_stage_-_exploded_section.svg"
   xmlns:inkscape="http://www.inkscape.org/namespaces/inkscape"
   xmlns:sodipodi="http://sodipodi.sourceforge.net/DTD/sodipodi-0.dtd"
   xmlns="http://www.w3.org/2000/svg"
   xmlns:svg="http://www.w3.org/2000/svg">
  <sodipodi:namedview
     id="namedview1"
     pagecolor="#ffffff"
     bordercolor="#000000"
     borderopacity="0.25"
     inkscape:showpageshadow="2"
     inkscape:pageopacity="0.0"
     inkscape:pagecheckerboard="0"
     inkscape:deskcolor="#d1d1d1"
     inkscape:document-units="mm"
     inkscape:zoom="1.0128998"
     inkscape:cx="232.00715"
     inkscape:cy="445.7499"
     inkscape:window-width="2560"
     inkscape:window-height="1351"
     inkscape:window-x="2551"
     inkscape:window-y="-9"
     inkscape:window-maximized="1"
     inkscape:current-layer="layer1" />
  <defs
     id="defs1" />
  <g
     inkscape:label="Layer 1"
     inkscape:groupmode="layer"
     id="layer1"
     transform="translate(-13.743708,-0.24973664)">
    <g
       id="g3">
      <g
         id="g2">
        <path
           id="path27-43"
           d="M 120.01795,102.29971 V 96.299666"
           style="fill:none;stroke:#000000;stroke-width:0.1;stroke-linecap:round;stroke-linejoin:round;stroke-miterlimit:10;stroke-dasharray:3.52941, 0.705881, 0.705881, 0.705881, 0.705881, 0.705881;stroke-dashoffset:0;stroke-opacity:1" />
        <path
           id="path28-9"
           d="M 120.01795,75.299725 V 35.299666"
           style="fill:none;stroke:#000000;stroke-width:0.1;stroke-linecap:round;stroke-linejoin:round;stroke-miterlimit:10;stroke-dasharray:3.52941, 0.705881, 0.705881, 0.705881, 0.705881, 0.705881;stroke-dashoffset:1.23666;stroke-opacity:1" />
        <path
           id="path29-7"
           d="M 67.569512,102.29971 V 32.299783"
           style="fill:none;stroke:#000000;stroke-width:0.1;stroke-linecap:round;stroke-linejoin:round;stroke-miterlimit:10;stroke-dasharray:3.52941, 0.705881, 0.705881, 0.705881, 0.705881, 0.705881;stroke-dashoffset:-0.0417647;stroke-opacity:1" />
        <path
           id="path30-3"
           d="m 105.79373,211.89972 v 9.99984"
           style="fill:none;stroke:#000000;stroke-width:0.1;stroke-linecap:round;stroke-linejoin:round;stroke-miterlimit:10;stroke-dasharray:3.52941, 0.705881, 0.705881, 0.705881, 0.705881, 0.705881;stroke-dashoffset:2.51509;stroke-opacity:1" />
        <path
           id="path31-6"
           d="m 105.79373,141.89972 v 69.99993"
           style="fill:none;stroke:#000000;stroke-width:0.1;stroke-linecap:round;stroke-linejoin:round;stroke-miterlimit:10;stroke-dasharray:3.52941, 0.705881, 0.705881, 0.705881, 0.705881, 0.705881;stroke-dashoffset:-0.0417647;stroke-opacity:1" />
        <path
           id="path32-8"
           d="m 93.793716,214.49973 v 5.39997"
           style="fill:none;stroke:#000000;stroke-width:0.1;stroke-linecap:round;stroke-linejoin:round;stroke-miterlimit:10;stroke-dasharray:3.52941, 0.705881, 0.705881, 0.705881, 0.705881, 0.705881;stroke-dashoffset:0;stroke-opacity:1" />
        <path
           id="path33-4"
           d="m 81.793724,211.89972 v 9.99984"
           style="fill:none;stroke:#000000;stroke-width:0.1;stroke-linecap:round;stroke-linejoin:round;stroke-miterlimit:10;stroke-dasharray:3.52941, 0.705881, 0.705881, 0.705881, 0.705881, 0.705881;stroke-dashoffset:2.51509;stroke-opacity:1" />
        <path
           id="path34-9"
           d="m 81.793724,141.89972 v 69.99993"
           style="fill:none;stroke:#000000;stroke-width:0.1;stroke-linecap:round;stroke-linejoin:round;stroke-miterlimit:10;stroke-dasharray:3.52941, 0.705881, 0.705881, 0.705881, 0.705881, 0.705881;stroke-dashoffset:-0.0417647;stroke-opacity:1" />
        <path
           id="path35-0"
           d="m 93.793716,134.3997 v 69.99993"
           style="fill:none;stroke:#000000;stroke-width:0.1;stroke-linecap:round;stroke-linejoin:round;stroke-miterlimit:10;stroke-dasharray:3.52941, 0.705881, 0.705881, 0.705881, 0.705881, 0.705881;stroke-dashoffset:-0.0417647;stroke-opacity:1" />
        <path
           id="path36-4"
           d="m 134.68914,178.49971 v 5.80002"
           style="fill:none;stroke:#000000;stroke-width:0.1;stroke-linecap:round;stroke-linejoin:round;stroke-miterlimit:10;stroke-dasharray:3.52941, 0.705881, 0.705881, 0.705881, 0.705881, 0.705881;stroke-dashoffset:0;stroke-opacity:1" />
        <path
           id="path37-8"
           d="m 134.68914,185.29972 v 9.99984"
           style="fill:none;stroke:#000000;stroke-width:0.1;stroke-linecap:round;stroke-linejoin:round;stroke-miterlimit:10;stroke-dasharray:3.52941, 0.705881, 0.705881, 0.705881, 0.705881, 0.705881;stroke-dashoffset:2.51509;stroke-opacity:1" />
        <path
           id="path38-4"
           d="m 134.68914,201.2997 v 9.99984"
           style="fill:none;stroke:#000000;stroke-width:0.1;stroke-linecap:round;stroke-linejoin:round;stroke-miterlimit:10;stroke-dasharray:3.52941, 0.705881, 0.705881, 0.705881, 0.705881, 0.705881;stroke-dashoffset:2.51509;stroke-opacity:1" />
        <path
           id="path40-7"
           d="m 134.68914,138.49972 v 33.79999"
           style="display:inline;fill:none;stroke:#000000;stroke-width:0.1;stroke-linecap:round;stroke-linejoin:round;stroke-miterlimit:10;stroke-dasharray:3.52941, 0.705881, 0.705881, 0.705881, 0.705881, 0.705881;stroke-dashoffset:-0.569607;stroke-opacity:1" />
        <path
           id="path42-9"
           d="M 105.79373,47.799709 V 27.799679"
           style="fill:none;stroke:#000000;stroke-width:0.1;stroke-linecap:round;stroke-linejoin:round;stroke-miterlimit:10;stroke-dasharray:3.52941, 0.705881, 0.705881, 0.705881, 0.705881, 0.705881;stroke-dashoffset:-0.263921;stroke-opacity:1" />
        <path
           id="path43-6"
           d="M 105.79373,117.79971 V 47.799783"
           style="fill:none;stroke:#000000;stroke-width:0.1;stroke-linecap:round;stroke-linejoin:round;stroke-miterlimit:10;stroke-dasharray:3.52941, 0.705881, 0.705881, 0.705881, 0.705881, 0.705881;stroke-dashoffset:-0.0417647;stroke-opacity:1" />
        <path
           id="path44-2"
           d="M 93.793716,117.79971 V 62.299654"
           style="fill:none;stroke:#000000;stroke-width:0.1;stroke-linecap:round;stroke-linejoin:round;stroke-miterlimit:10;stroke-dasharray:3.52941, 0.705881, 0.705881, 0.705881, 0.705881, 0.705881;stroke-dashoffset:0.458626;stroke-opacity:1" />
        <path
           id="path45-7"
           d="M 81.793724,47.799709 V 27.799679"
           style="fill:none;stroke:#000000;stroke-width:0.1;stroke-linecap:round;stroke-linejoin:round;stroke-miterlimit:10;stroke-dasharray:3.52941, 0.705881, 0.705881, 0.705881, 0.705881, 0.705881;stroke-dashoffset:-0.263921;stroke-opacity:1" />
        <path
           id="path46-0"
           d="M 81.793724,117.79971 V 47.799783"
           style="fill:none;stroke:#000000;stroke-width:0.1;stroke-linecap:round;stroke-linejoin:round;stroke-miterlimit:10;stroke-dasharray:3.52941, 0.705881, 0.705881, 0.705881, 0.705881, 0.705881;stroke-dashoffset:-0.0417647;stroke-opacity:1" />
      </g>
      <g
         id="g1"
         style="stroke-width:0.1;stroke-dasharray:none">
        <path
           id="path25-3"
           d="m 86.754211,62.299722 -2.210505,-2.210505 m 5.250038,0.759883 -5.250038,-5.250039 m 5.250038,0.759884 -5.250038,-5.250039 m 5.68078,1.190978 -5.68078,-5.681133 M 100.22468,62.299722 97.793685,59.86873 M 94.714641,52.299884 84.543706,42.128595 M 103.04372,60.628614 97.793685,55.378575 M 103.04372,56.138458 84.543706,37.63844 M 103.04372,51.648303 84.543706,33.148285 M 103.04372,47.158148 84.543706,28.658129 M 103.04372,42.668345 85.675417,25.299685 M 103.04372,38.17819 86.793722,21.928188 M 103.04372,33.688035 86.874508,17.518819 M 103.04372,29.197879 91.145589,17.299744 m 9.648121,5.157963 -5.157966,-5.157963 m 5.157966,0.667808 -0.66781,-0.667808 m -22.352,44.999978 -3.980038,-3.980391 m 5.249685,0.759883 -5.249685,-5.250039 m 5.249685,0.759883 -5.249685,-5.250038 m 5.249685,0.759883 -5.249685,-5.249686 m -13.05948,-17.549635 -1.940631,-1.94063 m 20.249796,20.250149 -5.249685,-5.250039 m -8.569325,-13.05948 -6.430786,-6.430786 m 20.249796,20.250149 -5.249685,-5.250038 m -4.07917,-8.569325 -9.999838,-9.999838 M 79.043547,36.62879 73.793862,31.378751 M 79.043547,32.138635 64.205009,17.299744 M 79.043547,27.648479 68.695165,17.299744 m 8.098719,3.608563 -3.608917,-3.608563 m 36.020023,44.999978 -0.66111,-0.661106 m 4.90044,0.410281 -4.90044,-4.900436 m 5.24969,0.759883 -5.24969,-5.250038 m 5.24969,0.759883 -5.24969,-5.250039 m 5.24969,0.759884 -5.24969,-5.250039 m 5.24969,0.759883 -5.24969,-5.250038 m 5.24969,0.759883 -5.24969,-5.250038 m 5.24969,0.759883 -5.24969,-5.250039 m 5.24969,0.759883 -5.24969,-5.250038 m 7.24994,2.760133 -5.00027,-5.000272 m 8.3125,3.822347 -8.3125,-8.312149 m 12.80265,8.312149 -9.99983,-9.999838 m 14.48999,9.999838 -9.99984,-9.999838 m 10.70716,6.217002 -6.217,-6.217002 m 6.217,1.7272 -1.7272,-1.7272 m -54.922913,185.942806 0.942975,-0.94297 m -4.503561,4.50356 1.303514,-1.30352 m -1.303514,5.79367 8.993717,-8.99371 m -7.709958,12.20011 9.176807,-9.17716 m -0.08678,4.57729 0.08678,-0.0871 m -4.686652,4.68701 3.386666,-3.38702 m 12.150019,-12.15002 4.663369,-4.66302 m -10.013243,10.01325 2.012949,-2.0133 m -2.012949,6.50345 13.150143,-13.15014 M 85.843692,211.9932 97.693849,200.14305 m -9.866841,14.35664 12.200112,-12.20011 m -7.709957,12.20011 10.726557,-10.72656 m -6.236401,10.72656 6.236401,-6.23641 m -1.74625,6.23641 0.44627,-0.44626 m 6.80014,-11.28995 0.46355,-0.4639 m -0.46355,4.95405 4.95371,-4.95405 m -3.65372,8.14422 5.59999,-5.59999 m -5.16608,9.65588 8.72667,-8.72666 m -4.23651,8.72666 4.23651,-4.23651 m -50.21086,-21.63127 1.610077,-1.61008 m -0.2921,4.78225 0.2921,-0.2921 m -0.787752,0.78776 0.127705,-0.12771 m 47.74,-2.8388 1.31022,-1.30986 m -46.317956,1.4164 1.317978,-1.31763 m 39.999708,0.41099 1.65029,-1.64994 m -0.92674,5.41655 0.92674,-0.9264 M 68.79359,40.457487 69.67377,39.577659 m -0.88018,5.369983 1.610077,-1.609725 m 46.780093,-1.878894 1.61008,-1.610078 m -0.96061,5.45077 0.96061,-0.960614 m -3.22756,-1.262592 1.49754,-1.497894 M 73.793862,44.849217 72.143567,43.198923 M 73.793862,40.359062 72.73447,39.29967 m 41.92093,6.000045 -0.86183,-0.861837 m 1.5875,-2.902655 -1.5875,-1.5875 m 8.62859,134.351887 -3.62832,-3.62832 m 4.94982,0.46002 -4.83164,-4.83165 m 8.00029,7.99995 -2.00025,-1.9999 m -1.1684,-5.65856 -2.54987,-2.54987 m 2.54987,-1.94028 -2.54987,-2.54988 m 2.54987,-1.94028 -2.54987,-2.54988 m 2.54987,-1.94027 -2.54987,-2.54988 m 2.54987,-1.94028 -2.54987,-2.54988 m 2.54987,-1.94027 -2.54987,-2.54988 m -57.143297,32.65911 -2.00025,-1.9999 m 5.366808,0.87665 -3.573286,-3.57329 m 4.949825,0.45967 -4.949825,-4.94982 m 2.549878,-1.94028 -2.549878,-2.54988 m 2.549878,-1.94027 -2.549878,-2.54988 m 2.549878,-1.94028 -2.549878,-2.54988 m 2.549878,-1.94027 -2.549878,-2.54988 m 2.549878,-1.94028 -2.549878,-2.54988 m 2.549878,-1.94027 -1.4224,-1.42205 m -18.881372,34.99979 -1.999897,-1.9999 m 6.490053,1.9999 -1.999897,-1.9999 m 5.463469,0.97366 -0.973314,-0.97366 m 82.821985,1.9999 -1.99989,-1.9999 m 6.49005,1.9999 -1.9999,-1.9999 m 5.41126,0.9211 -0.9211,-0.9211 M 66.493831,78.678841 69.763023,75.409296 m -3.269192,7.759347 3.359856,-3.359855 m -3.359856,7.85001 3.359856,-3.359855 m -3.359856,7.850011 3.359856,-3.359856 m -2.94005,7.430206 2.94005,-2.94005 m 47.880053,-16.449322 1.53035,-1.53035 m -1.53035,6.020506 3.35986,-3.359856 m -3.35986,7.850011 3.35986,-3.359855 m -3.35986,7.85001 3.35986,-3.359855 m -3.35986,7.850011 3.35986,-3.359856 m -22.976065,144.209552 1.140531,-1.14053 m 3.290004,1.20015 0.49565,-0.49565 m 8.48466,0.49565 1.20015,-1.20015 M 101.54371,3.2175611 103.59335,1.1679223 m 4.40055,0.089606 0.95779,-0.95779166 m -5.65785,5.65784976 2.18123,-2.1812249 m 2.95698,1.5331721 1.61184,-1.6118416 m -6.75005,6.750049 5.0098,-5.0097963 m -5.0098,9.4999523 4.99992,-4.9999192 m -4.99992,9.4900742 4.99992,-4.999919 m -4.99992,9.490074 4.99992,-4.999919 m -4.99992,9.490075 4.99992,-4.99992 m -4.99992,9.490075 4.99992,-4.999919 m -4.99992,9.490074 4.99992,-5.000272 m -4.99992,9.490428 4.99992,-5.000272 m -4.99992,9.490074 4.99992,-4.999919 m -4.99992,9.490074 4.99992,-4.999919 m -4.75297,9.24313 4.75297,-4.752974 m -0.46073,4.95053 0.46073,-0.460375 M 77.543889,4.766961 79.756864,2.5536333 m -0.463197,4.9533526 6.748286,-6.7482858 m -0.0508,4.5409553 0.05256,-0.052564 m -6.75005,6.7500496 4.999919,-4.9999191 m -4.999919,9.4900751 4.999919,-4.99992 m -4.999919,9.490075 4.999919,-4.999919 m -4.999919,9.490074 4.999919,-4.999919 m -4.999919,9.490075 4.999919,-5.000272 m -4.999919,9.490427 4.999919,-5.000272 m -4.999919,9.490427 4.999919,-5.000272 m -4.999919,9.490075 4.999919,-4.999919 m -4.999919,9.490074 4.999919,-4.999919 m -4.999919,9.490074 4.999919,-4.999919 m -3.40113,7.891286 3.40113,-3.40113 m 23.600128,169.475497 1.47426,-1.47426 m -30.940729,4.00015 1.266472,-1.26683 m 4.199819,0.29034 1.900061,-1.90006 m -26.90001,-107.80395 3.919714,-3.91971 m -3.919714,8.40987 4.900083,-4.89973 m -4.900083,9.38988 4.900083,-4.90008 m -4.900083,9.39024 4.900083,-4.90009 m -4.900083,9.39024 4.900083,-4.90008 m -1.529644,6.0198 1.529644,-1.52965 m -20.000029,-20.41101 1.059392,-1.05939 m -16.05915,16.0595 3.058936,-3.05929 m 11.940822,-7.45067 5.549547,-5.54954 m -20.549305,20.5493 7.549092,-7.54909 m 7.450666,-2.96051 10.039702,-10.0397 m -23.000051,23.00005 9.999838,-9.99984 m -5.509683,9.99984 19.370321,-19.37032 m -14.880166,19.37032 14.880166,-14.88017 m -10.390363,14.88017 10.390363,-10.39001 m -5.900208,10.39001 5.900208,-5.89986 m -1.410053,5.89986 1.410053,-1.4097 m 78.199896,-19.82858 1.76177,-1.76177 m -1.76177,6.25192 6.25193,-6.25192 m -6.25193,10.74208 10.57099,-10.57099 m -10.57099,15.06115 10.90013,-10.89978 m -10.90013,15.38993 10.90013,-10.90013 m -9.68763,14.17779 10.09368,-10.09368 m -5.60353,10.09368 9.99984,-9.99984 m -5.50968,9.99984 9.99984,-9.99984 m -5.50969,9.99984 9.99984,-9.99984 m -5.50968,9.99984 6.72677,-6.72712 m -2.23661,6.72712 2.23661,-2.23696 m -34.99979,-18.88138 1.88136,-1.88171 m -1.88136,6.37187 4.90008,-4.90008 m -4.90008,9.39023 4.90008,-4.90008 m -4.90008,9.39024 4.90008,-4.90008 m -4.90008,9.39024 4.90008,-4.90009 m -3.56799,8.0578 3.56799,-3.56764 m 5.06025,-19.43241 -0.21026,-0.21026 m 4.70041,0.21026 -4.50003,-4.50004 m 8.99019,4.50004 -6.94055,-6.94055 m 11.4307,6.94055 -9.99984,-9.999841 m 14.49,9.999841 -9.99984,-9.999841 m 14.48999,9.999841 -9.99984,-9.999841 m 12.58853,8.098721 -8.09872,-8.098721 m 8.09872,3.608561 -3.60857,-3.608561 m -30.41085,9.999841 -0.98037,-0.98002 m 4.24991,-0.24024 -4.24991,-4.24991 m 1.9999,-2.49026 -1.76954,-1.769889 m -62.111817,9.730319 -2.36855,-2.3682 m 4.249913,-0.24024 -1.999897,-1.9999 m 1.999897,-2.49026 -1.999897,-1.99989 m -31.312554,9.09849 -1.687336,-1.68734 m 6.177492,1.68734 -6.177492,-6.17749 M 39.46153,109.2996 29.461692,99.299759 M 43.951685,109.2996 33.951494,99.299759 M 48.441841,109.2996 38.44165,99.299759 M 52.931996,109.2996 42.931805,99.299759 m 8.861777,4.371621 -4.371622,-4.371621 m 6.621639,6.621641 -1.121481,-1.12184 m 93.832182,17.50025 -2.96051,-2.96051 m 1.50001,-2.99014 -1.50001,-1.50002 m 7.45066,7.45067 -1.50001,-1.50001 m -4.45064,-8.9408 -1.50001,-1.50001 m 11.94082,11.94082 -1.50001,-1.50001 m -5.51004,-10.00019 -1.50001,-1.50001 m 11.569,11.56934 -0.0688,-0.0691 m -5.51003,-10.00019 -1.50001,-1.50001 m 5.99016,1.50001 -1.50001,-1.50001 m -126.193893,13.00021 -1.217084,-1.21744 m 5.707239,1.21744 -1.500011,-1.50001 m 5.990166,1.50001 -1.500011,-1.50001 M 31.98123,110.79961 30.481219,109.2996 m 13.000214,13.00021 -1.500011,-1.50001 m -5.510036,-10.00019 -1.500011,-1.50001 m 8.822266,8.82226 -1.500011,-1.50001 m -1.332089,-5.82224 -1.500011,-1.50001 m 4.332111,4.33246 -1.500011,-1.50001 m 103.04991,-0.0501 1.28235,-1.28235 m -1.28235,5.7725 5.7725,-5.7725 m -5.51003,10.00019 10.00019,-10.00019 m -5.51004,10.00019 10.00019,-10.00019 m -5.51003,10.00019 10.00019,-10.00019 m -5.51004,10.00019 10.0002,-10.00019 m -5.51004,10.00019 9.86367,-9.86367 m -5.37352,9.86367 5.73688,-5.73687 m -1.24672,5.73687 1.24672,-1.24672 m -159.999887,-6.1348 2.618317,-2.61867 m -2.618317,7.10882 7.108472,-7.10882 m -5.509683,10.0002 9.999838,-10.00019 m -5.509683,10.00019 9.999839,-10.00019 m -5.509684,10.00019 9.999839,-10.00019 m -5.510036,10.00019 10.000191,-10.00019 m -5.510036,10.00019 8.890705,-8.89071 m -4.400549,8.89071 4.400549,-4.4009 M 118.79384,30.868987 120.363,29.299832 m -1.3896,5.879394 2.1202,-2.120194 m -54.599769,0.718255 2.299759,-2.299758"
           style="fill:none;stroke:#000000;stroke-width:0.1;stroke-linecap:round;stroke-linejoin:round;stroke-miterlimit:10;stroke-dasharray:none;stroke-opacity:1" />
        <path
           id="path26-2"
           d="m 110.7642,247.69972 h 2.82822 m 5.44336,-3.35104 0.10901,-0.1912 0.10936,-0.19121 M 88.188893,234.7997 v 0.89993 m 0.299861,-1.1998 -0.299861,0.29987 m -12.622036,-94.99988 -0.499886,-0.50024 m 0.499886,27.0002 v -26.49996 m 32.435803,0 v 26.49996 m 0.49988,-27.0002 -0.49988,0.50024 m 36.18653,61.19989 v -5.39997 m -18.99991,0 v 5.39997 m 18.99991,-5.39997 -0.006,-0.0586 -0.0173,-0.0561 -0.0275,-0.0522 -0.0374,-0.0452 -0.0455,-0.0374 -0.0519,-0.0279 -0.0565,-0.0169 -0.0582,-0.006 m -18.40019,0 -0.0586,0.006 -0.0561,0.0169 -0.0519,0.0279 -0.0455,0.0374 -0.0374,0.0452 -0.0279,0.0522 -0.0169,0.0561 -0.006,0.0586 m 18.70005,5.69983 0.0582,-0.006 0.0565,-0.0169 0.0519,-0.0279 0.0455,-0.0374 0.0374,-0.0455 0.0275,-0.0519 0.0173,-0.0561 0.006,-0.0586 m -18.99991,0 0.006,0.0586 0.0169,0.0561 0.0279,0.0519 0.0374,0.0455 0.0455,0.0374 0.0519,0.0279 0.0561,0.0169 0.0586,0.006 m 18.70005,15.70002 v -5.39997 m -18.99991,0 v 5.39997 m 18.99991,-5.39997 -0.006,-0.0586 -0.0173,-0.0561 -0.0275,-0.0519 -0.0374,-0.0455 -0.0455,-0.0374 -0.0519,-0.0275 -0.0565,-0.0173 -0.0582,-0.006 m -18.40019,0 -0.0586,0.006 -0.0561,0.0173 -0.0519,0.0275 -0.0455,0.0374 -0.0374,0.0455 -0.0279,0.0519 -0.0169,0.0561 -0.006,0.0586 m 18.70005,5.70018 0.0582,-0.006 0.0565,-0.0169 0.0519,-0.0279 0.0455,-0.037 0.0374,-0.0455 0.0275,-0.0519 0.0173,-0.0564 0.006,-0.0586 m -18.99991,0 0.006,0.0586 0.0169,0.0564 0.0279,0.0519 0.0374,0.0455 0.0455,0.037 0.0519,0.0279 0.0561,0.0169 0.0586,0.006 m 14.20001,-32.00012 v -1.00012 m -9.99983,0 v 1.00012 m 9.99983,43.20011 v -1.00012 m -9.99983,0 v 1.00012 M 89.543559,0.799738 v 4.5000331 m 8.500181,0 V 0.799738 m -7.999942,-0.49988609 -0.09772,0.009525 -0.09384,0.028575 -0.08643,0.0462139 -0.07549,0.0620889 -0.06244,0.0758472 -0.04621,0.0864306 -0.02822,0.0934861 -0.0099,0.0977194 m 8.500181,0 -0.0095,-0.0977194 -0.02858,-0.0934861 -0.04621,-0.0864306 -0.06209,-0.0758472 -0.07585,-0.0620889 -0.08643,-0.0462139 -0.09384,-0.028575 -0.09737,-0.009525 m -1.250244,5.19994419 0.0039,-0.039158 0.01129,-0.037394 0.0187,-0.034572 0.02469,-0.030339 0.03034,-0.025047 0.03457,-0.018345 0.03775,-0.011289 0.03881,-0.00388 m -5.399969,0 0.03916,0.00388 0.0374,0.011289 0.03457,0.018345 0.03034,0.025047 0.02505,0.030339 0.01834,0.034572 0.01129,0.037394 0.0039,0.039158 m 0,0 V 17.299859 m 4.999919,0 V 5.4997961 M 138.93915,252.99985 v -4.50003 m -8.49983,0 v 4.50003 m 7.99994,0.49989 0.0974,-0.01 0.0938,-0.0286 0.0864,-0.0462 0.0759,-0.0621 0.0621,-0.0759 0.0462,-0.0864 0.0286,-0.0938 0.01,-0.0974 m -8.49983,0 0.01,0.0974 0.0282,0.0938 0.0462,0.0864 0.0624,0.0759 0.0755,0.0621 0.0864,0.0462 0.0938,0.0286 0.0977,0.01 m 1.24989,-5.19995 -0.004,0.0388 -0.0113,0.0377 -0.0183,0.0346 -0.025,0.0303 -0.0303,0.0247 -0.0346,0.0187 -0.0374,0.0113 -0.0392,0.004 m 5.39997,0 -0.0388,-0.004 -0.0378,-0.0113 -0.0346,-0.0187 -0.0303,-0.0247 -0.0247,-0.0303 -0.0183,-0.0346 -0.0116,-0.0377 -0.004,-0.0388 m 0,0 v -19.8 m 0,-1.00012 v -3.55495 m -4.99992,0 v 3.55495 m 0,1.00012 v 19.8 m 4.99992,-24.35507 -0.44485,-0.44485 m -4.10987,0 -0.4452,0.44485 m -42.395421,-4.04495 -0.618772,0.35737 m 0,3.28542 0.618772,0.35701 m 8.618713,-3.64243 -0.618772,-0.35737 m 0,3.9998 0.618772,-0.35701 m -26.268537,-35.4016 -0.0628,0.0166 -0.201436,0.0797 m 0,2.12479 0.08255,0.0377 0.181681,0.0586 m -0.5969,-146.96827 0.494241,-0.10795 0.102659,-0.05292 m 0,-2.058811 -0.429331,-0.149225 -0.504472,0.03634 -0.444147,0.242711 -0.303389,0.404989 -0.107245,0.494594 m 0,0 0.02258,0.232481 0.06809,0.223308 0.110067,0.206022 0.148167,0.18027 0.180622,0.148166 0.206022,0.110067 0.223661,0.06738 0.232481,0.02258 m 43.896844,146.977798 0.26599,-0.0857 0.024,-0.0113 m 0,-2.14206 -0.28998,-0.0974 m 0.81103,2.35867 0.49424,-0.10795 0.40499,-0.30339 0.24201,-0.4445 0.036,-0.50482 -0.17709,-0.47378 -0.35807,-0.35772 -0.47413,-0.17674 -0.50483,0.0363 -0.44415,0.24271 -0.03,0.0268 m 0,1.74519 0.14922,0.11783 0.20602,0.10971 0.22331,0.0677 0.23248,0.0226 m -0.53834,-147.000018 0.4946,-0.10795 0.0473,-0.02293 m 0,-2.118783 -0.37394,-0.119239 -0.44062,0.0194 m 0,2.318103 0.0402,0.0088 0.23248,0.02258 m -44.372734,147.000017 0.494594,-0.10795 0.305506,-0.20179 m 0,-1.76141 -0.158045,-0.12101 -0.474133,-0.17674 -0.504825,0.0363 -0.443794,0.24271 -0.303389,0.40499 -0.107598,0.49459 m 0,0 0.02293,0.23213 0.06809,0.22366 0.110067,0.20602 0.148166,0.18027 0.180623,0.14817 0.206022,0.10971 0.223308,0.0677 0.232481,0.0226 M 66.993652,29.299595 66.493766,29.799834 m 1.799872,-0.500239 h -1.299986 m 1.800225,0.500239 -0.500239,-0.500239 m 0.500239,0.500239 v 5.199944 m -0.300214,0.299861 0.300214,-0.299861 m -0.300214,0.299861 h -1.700036 m -0.299861,-0.299861 0.299861,0.299861 m -0.299861,-5.499805 v 5.199944 m 2.354086,-5.199944 -0.526697,-0.500239 m 0.526697,0.500239 h -0.0127 -0.01094 -0.0092 -0.0078 -0.006 -0.0042 -0.0025 -7.06e-4 m -0.500239,-0.500239 h 3.53e-4 0.0014 0.0021 0.0032 0.0035 0.0049 0.0056 0.0063 m 0.472722,5.700183 h 7.06e-4 0.0025 0.0042 0.006 0.0078 0.0092 0.01094 0.0127 m 0,0 -0.317147,0.299861 m 0,0 h -0.0088 -0.0074 -0.0063 -0.0053 -0.0039 -0.0028 -0.0018 -7.06e-4 m 0.354189,-0.299861 v -5.199944 m 49.945916,5.199944 0.29987,0.299861 m -0.29987,-0.299861 v -5.199944 m 0.49989,-0.500239 -0.49989,0.500239 m 1.79988,-0.500239 h -1.29999 m 1.80023,0.500239 -0.50024,-0.500239 m 0.50024,5.700183 v -5.199944 m -0.30022,5.499805 0.30022,-0.299861 m -0.30022,0.299861 h -1.70003 m -0.29987,-5.499805 h -0.0148 -0.0444 -0.0737 -0.10337 -0.13264 -0.16193 -0.19085 -0.21943 m 0,0 0.61207,-0.500239 m 0,0 h 0.19368 0.16792 0.14252 0.11677 0.091 0.0653 0.0388 0.0131 m -1.4411,5.700183 0.3683,0.299861 m -0.3683,-0.299861 h 0.21943 0.19085 0.16193 0.13264 0.10337 0.0737 0.0444 0.0148 m 0.29987,0.299861 h -0.0138 -0.0409 -0.0684 -0.096 -0.12312 -0.14993 -0.17674 -0.20391 m -0.3683,-5.499805 v 5.199944 m 3.24133,-4.700058 h 0.38417 m 0,1.20015 v -1.20015 m -0.38417,1.584678 0.38417,-0.384528 m 0.38382,-1.20015 v 0.8001 m -0.38382,-0.8001 h 0.38382 m 0,0.8001 -0.38382,0.40005 M 13.793708,120.29968 v -9.00007 m 159.999882,0 v 9.00007 m -159.499996,-9.49996 -0.499886,0.49989 m 159.999882,0 -0.49988,-0.49989 m 0,9.99984 0.49988,-0.49988 m -159.999882,0 0.499886,0.49988 m 27.950229,0 v -9.99984 m 103.100007,0 v 9.99984 M 42.243823,110.79972 H 14.293594 m 27.950229,9.99984 H 14.293594 m 159.000116,-9.99984 h -27.94988 m 27.94988,9.99984 H 145.34383 M 28.793818,110.79972 v -1.50001 m 130.000012,0 v 1.50001 M 28.793818,122.29957 v -1.50001 m 130.000012,0 v 1.50001 M 42.293565,120.79956 v -9.99984 m 103.000165,0 v 9.99984 M 43.793576,109.29971 v 12.99986 m 100.000144,0 v -12.99986 m -114.999902,0 h 14.999758 m -14.999758,11.49985 h 13.499747 m 1.500011,1.50001 H 28.793818 M 42.293565,110.79972 H 28.793818 m 114.999902,-1.50001 h 15.00011 m -13.5001,11.49985 h 13.5001 m 0,1.50001 h -15.00011 m 15.00011,-11.49985 h -13.5001 M 28.793818,108.79983 v -9.000069 m 130.000012,0 v 9.000069 M 29.293704,99.299875 28.793818,99.799761 m 130.000012,0 -0.50024,-0.499886 m 0,9.999835 0.50024,-0.49988 m -130.000012,0 0.499886,0.49988 m 34.000015,0 0.499886,-0.49988 m 0,0 h 0.176036 0.525639 0.868892 1.202266 1.521531 1.822803 2.102908 2.358319 2.586214 2.783416 2.947811 3.078339 3.17253 3.229328 3.248378 3.229327 3.172178 3.07834 2.94816 2.78342 2.58586 2.35832 2.10291 1.8228 1.52153 1.20262 0.86889 0.52564 0.17568 m 0,0 0.50024,0.49988 m 0,0 h -0.17886 -0.53445 -0.88336 -1.22237 -1.54693 -1.8535 -2.13783 -2.39748 -2.62925 -2.82963 -2.9972 -3.12985 -3.225092 -3.283302 -3.302353 -3.28295 -3.225447 -3.129491 -2.9972 -2.829983 -2.6289 -2.397478 -2.138186 -1.853141 -1.546931 -1.222375 -0.883708 -0.534106 -0.178858 m 61.000211,-9.999835 -0.50024,0.499886 m 0,0 h -0.17568 -0.52564 -0.86889 -1.20262 -1.52153 -1.8228 -2.10291 -2.35832 -2.58586 -2.78342 -2.94816 -3.07834 -3.172178 -3.229327 -3.248378 -3.229328 -3.17253 H 82.68944 79.741629 76.958213 74.371999 72.01368 69.910772 68.087969 66.566438 65.364172 64.49528 63.969641 63.793605 m 0,0 -0.499886,-0.499886 m 0,0 h 0.178858 0.534106 0.883708 1.222375 1.546931 1.853141 2.138186 2.397478 2.6289 2.829983 2.9972 3.129491 3.225447 3.28295 3.302353 3.283302 3.225092 3.12985 2.9972 2.82963 2.62925 2.39748 2.13783 1.8535 1.54693 1.22237 0.88336 0.53445 0.17886 m -60.500325,9.499955 v -9.000069 m 60.000085,0 v 9.000069 m 9.9501,-4.00015 -0.20002,0.20002 m 2.25001,-0.20002 h -2.04999 m 2.04999,-5.300133 v 5.300133 m 0.20003,-5.499805 -0.20003,0.199672 m -2.25001,9.600143 0.20002,0.20002 m -0.20002,-4.30001 v 4.09999 m 24.74982,0.20002 h -24.5498 m 24.5498,-9.999835 h -22.29978 m -76.250094,5.499805 -0.200025,0.20002 m 2.250017,-0.20002 h -2.049992 m 2.049992,-5.300133 v 5.300133 m 0.200025,-5.499805 -0.200025,0.199672 m -2.250017,9.600143 0.200025,0.20002 m -0.200025,-4.30001 v 4.09999 m 3.750028,0.20002 h -3.550003 m 3.550003,-9.999835 h -1.299986 m -8.149872,9.999835 0.200025,-0.20002 m 0,0 h 0.209197 0.596195 0.892175 1.052336 1.052336 0.892175 0.596194 0.209197 m -5.69983,-4.30001 h 0.1778 0.512234 0.78493 0.962731 1.024466 0.962731 0.78493 0.512233 0.1778 m -0.200025,0.20002 H 59.334494 58.7383 57.846125 56.793789 55.741453 54.849278 54.253083 54.043886 m 0,0 -0.200025,-0.20002 m 0.200025,4.30001 V 104.9997 M 51.79387,99.499547 51.593845,99.299875 m 0.200025,5.499805 v -5.300133 m 2.049991,5.300133 H 51.79387 m 2.049991,4.50003 H 29.293704 M 51.593845,99.299875 H 29.293704 m 96.499886,0.199672 -0.20002,-0.199672 m 0.20002,5.499805 v -5.300133 m 2.04999,5.300133 h -2.04999 m 2.25002,0.20002 -0.20003,-0.20002 m 0.20003,4.30001 v -4.09999 m -0.20003,4.30001 0.20003,-0.20002 m -0.20003,0.20002 h -3.54965 m 1.29964,-9.999835 h -1.29964 M 61.793708,99.499547 H 61.591214 60.999958 60.067919 58.870944 57.505342 56.082236 54.716633 53.519306 52.58762 51.996364 51.79387 m -0.200025,-0.199672 h 0.177094 0.519642 0.826205 1.077031 1.254125 1.345847 1.345847 1.254125 1.07703 0.826206 0.519642 0.177094 m 73.800047,0.199672 h -0.20249 -0.59126 -0.93204 -1.19732 -1.36525 -1.42311 -1.3656 -1.19733 -0.93204 -0.59125 -0.2025 m -0.20002,-0.199672 h 0.17744 0.51929 0.82656 1.07703 1.25413 1.34584 1.34585 1.25412 1.07668 0.82656 0.51964 0.1771 m -2.45004,5.699825 h -0.2092 -0.5962 -0.89217 -1.05234 -1.05269 -0.89182 -0.59619 -0.20955 m -0.20003,-0.20002 h 0.17816 0.51223 0.78493 0.96273 1.02447 0.96273 0.78457 0.51259 0.1778 m -5.70018,4.30001 h 0.20955 0.59619 0.89182 1.05269 1.05234 0.89217 0.5962 0.2092 M 28.793818,131.79988 v -9.00007 m 130.000012,0 v 9.00007 m -129.500126,-9.50031 -0.499886,0.50024 m 130.000012,0 -0.50024,-0.50024 m 0,10.00019 0.50024,-0.49988 m -130.000012,0 0.499886,0.49988 m 13.999986,-10.00019 0.499886,-0.49988 m 100.000144,0 0.49989,0.49988 m -99.999796,-12.99986 -0.500238,0.49989 m 100.000144,0 -0.49988,-0.49989 M 43.793576,121.79969 V 109.7996 m 100.000144,0 v 12.00009 m -19.49979,-12.49998 -0.50024,0.49989 m 0,0 h -0.17568 -0.52564 -0.86889 -1.20262 -1.52153 -1.8228 -2.10291 -2.35832 -2.58586 -2.78342 -2.94816 -3.07834 -3.172178 -3.229327 -3.248378 -3.229328 -3.17253 H 82.68944 79.741629 76.958213 74.371999 72.01368 69.910772 68.087969 66.566438 65.364172 64.49528 63.969641 63.793605 m 0,0 -0.499886,-0.49989 m 0,0 h 0.178858 0.534106 0.883708 1.222375 1.546931 1.853141 2.138186 2.397478 2.6289 2.829983 2.9972 3.129491 3.225447 3.28295 3.302353 3.283302 3.225092 3.12985 2.9972 2.82963 2.62925 2.39748 2.13783 1.8535 1.54693 1.22237 0.88336 0.53445 0.17886 m -61.000211,23.00005 0.499886,-0.49988 m 0,0 h 0.176036 0.525639 0.868892 1.202266 1.521531 1.822803 2.102908 2.358319 2.586214 2.783416 2.947811 3.078339 3.17253 3.229328 3.248378 3.229327 3.172178 3.07834 2.94816 2.78342 2.58586 2.35832 2.10291 1.8228 1.52153 1.20262 0.86889 0.52564 0.17568 m 0,0 0.50024,0.49988 m 0,0 h -0.17886 -0.53445 -0.88336 -1.22237 -1.54693 -1.8535 -2.13783 -2.39748 -2.62925 -2.82963 -2.9972 -3.12985 -3.225092 -3.283302 -3.302353 -3.28295 -3.225447 -3.129491 -2.9972 -2.829983 -2.6289 -2.397478 -2.138186 -1.853141 -1.546931 -1.222375 -0.883708 -0.534106 -0.178858 m 0.499886,-0.49988 V 109.7996 m 60.000085,0 v 22.00028 m -69.099987,-22.30014 -0.200025,-0.20003 m 0.200025,22.80003 v -22.6 m -0.200025,22.80002 0.200025,-0.20002 M 54.493678,109.29971 H 44.293814 M 43.29369,122.29957 H 29.293704 m 25.199974,10.00019 H 29.293704 m 103.599896,-0.20002 0.20002,0.20002 m -0.20002,-22.80002 v 22.6 m 0.20002,-22.80003 -0.20002,0.20003 m 10.40024,-0.20003 h -10.20022 m 25.19997,12.99986 h -13.99998 m 13.99998,10.00019 h -25.19997 m -4.39984,-22.80002 -0.20003,-0.20003 m 0.20003,22.80003 v -22.6 m -0.20003,22.80002 0.20003,-0.20002 m -0.20003,-22.80003 h -4.19982 m 4.19982,23.00005 h -4.19982 m -65.400055,-0.20002 0.200025,0.20002 m -0.200025,-22.80002 v 22.6 m 0.200025,-22.80003 -0.200025,0.20003 m 4.399844,-0.20003 H 59.0939 m 4.199819,23.00005 H 59.0939 m -4.400197,-0.20002 h 0.159808 0.455436 0.681214 0.803628 0.803628 0.681213 0.455437 0.159808 m 0.200025,0.20002 h -0.175331 -0.498475 -0.746125 -0.88018 -0.880181 -0.746125 -0.498827 -0.174978 m 4.400197,-22.80002 H 58.734067 58.27863 57.597417 56.793789 55.990161 55.308947 54.853511 54.693703 m -0.200025,-0.20003 h 0.174978 0.498827 0.746125 0.880181 0.88018 0.746125 0.498475 0.175331 m 69.59988,22.80003 h 0.15981 0.45508 0.68157 0.80362 0.80363 0.68121 0.45509 0.15981 m 0.20002,0.20002 h -0.17498 -0.49847 -0.74613 -0.88018 -0.88018 -0.74612 -0.49883 -0.17498 m 4.39985,-22.80002 h -0.15981 -0.45509 -0.68121 -0.80363 -0.80362 -0.68157 -0.45508 -0.15981 m -0.20003,-0.20003 h 0.17498 0.49883 0.74612 0.88018 0.88018 0.74613 0.49847 0.17498 m -49.199796,111.02516 0.424744,-0.4251 m -0.424744,0.4251 H 83.734015 83.278579 82.597365 81.793738 80.99011 80.308896 79.85346 79.693652 m -0.425098,-0.4251 0.425098,0.4251 m 4.624916,-0.4251 h -0.191911 -0.547511 -0.81915 -0.966258 -0.966259 -0.81915 -0.547511 -0.192264 m 0.425098,3.9751 -0.02505,0.0247 m 4.22522,-0.0247 H 83.734015 83.278579 82.597365 81.793738 80.99011 80.308896 79.85346 79.693652 m 4.225219,0.0247 -0.02505,-0.0247 m 0.02505,0.0247 H 83.756946 83.296218 82.60689 81.793738 80.980585 80.291257 79.830529 79.668604 m 4.22522,-0.0247 v -3.55 m -4.200172,0 v 3.55 m -1.900061,0.0247 v -3.9998 m 1.875013,3.9998 h -1.875013 m 1.474963,-3.9998 h -1.474963 m 8.000294,0 v 3.9998 m 0,0 h -1.875014 m 1.875014,-3.9998 h -1.475317 m 23.575082,0.4251 0.42509,-0.4251 m -0.42509,0.4251 h -0.15981 -0.45508 -0.68157 -0.80328 -0.80398 -0.68121 -0.45508 -0.15981 m -0.4251,-0.4251 0.4251,0.4251 m 4.62491,-0.4251 h -0.19226 -0.54716 -0.81915 -0.96626 -0.96661 -0.81915 -0.54716 -0.19226 m 0.4251,3.9751 -0.0251,0.0247 m 4.22487,-0.0247 h -0.15981 -0.45508 -0.68157 -0.80328 -0.80398 -0.68121 -0.45508 -0.15981 m 4.22486,0.0247 -0.025,-0.0247 m 0.025,0.0247 h -0.16157 -0.46073 -0.68932 -0.81316 -0.8135 -0.68933 -0.46073 -0.16157 m 4.22487,-0.0247 v -3.55 m -4.19982,0 v 3.55 m -1.90006,0.0247 v -3.9998 m 1.87501,3.9998 h -1.87501 m 1.47496,-3.9998 h -1.47496 m 7.99994,0 v 3.9998 m 0,0 h -1.87502 m 1.87502,-3.9998 h -1.47497 M 79.293602,5.4997961 V 54.854816 m 0,-49.3550199 -0.0039,-0.039158 -0.01129,-0.037394 -0.01834,-0.034572 -0.02505,-0.030339 -0.03034,-0.025047 -0.03457,-0.018345 -0.03739,-0.011289 -0.03916,-0.00388 m -1.549753,0 h 1.549753 M 77.543824,0.799738 v 4.5000331 m 0.499886,-4.99991919 -0.09737,0.009525 -0.09384,0.028575 -0.08643,0.0462139 -0.07585,0.0620889 -0.06209,0.0758472 -0.04621,0.0864306 -0.02858,0.0934861 -0.0095,0.0977194 m 2.212959,-0.4998861 H 78.04371 m 1.713089,0 V 2.7996351 m 0.02681,0 h -0.02681 m 0.02681,0 2.010128,1.1606388 m 0,0 2.010127,-1.1606388 m 0.02681,0 h -0.02681 m 0.02681,-2.49978319 V 2.7996351 m 1.713089,-2.49978319 h -1.713089 m 2.212975,0.49988609 -0.0095,-0.0977194 -0.02858,-0.0934861 -0.04621,-0.0864306 -0.06209,-0.0758472 -0.07585,-0.0620889 -0.08643,-0.0462139 -0.09384,-0.028575 -0.09737,-0.009525 m 0.499872,4.9999192 V 0.799738 m -1.549752,4.5000331 h 1.549752 m -1.549752,0 -0.03916,0.00388 -0.03739,0.011289 -0.03457,0.018345 -0.03034,0.025047 -0.02505,0.030339 -0.01834,0.034572 -0.01129,0.037394 -0.0039,0.039158 m 0,49.3550199 V 5.4997961 m 0,49.3550199 -0.445206,0.444853 m -4.109861,0 h 4.109861 m -4.109861,0 -0.445205,-0.444853 M 81.083596,2.7996351 h -0.239536 -0.222956 -0.2032 -0.179564 -0.152752 -0.123825 -0.09208 -0.05962 m 3.256845,0 h -0.213784 -0.232128 -0.245886 -0.256116 -0.261761 -0.26282 -0.259292 -0.25153 m 2.720269,0 h -0.01235 -0.03669 -0.06068 -0.08396 -0.106186 -0.126647 -0.146403 -0.164041 m -3.256845,0 h -0.006 -0.0053 -0.0046 -0.0039 -0.0028 -0.0021 -0.0011 -7.05e-4 m 0.214136,0 V 0.29985191 m 0,0 h -0.24089 M 82.169093,2.7996351 V 0.29985191 m -2.171347,0 h 2.171347 m 1.661583,0 H 82.169093 M 103.29378,5.4997961 V 54.854816 m 0,-49.3550199 -0.004,-0.039158 -0.0113,-0.037394 -0.0187,-0.034572 -0.0247,-0.030339 -0.0303,-0.025047 -0.0346,-0.018345 -0.0374,-0.011289 -0.0392,-0.00388 m -1.5501,0 h 1.5501 m -1.5501,-4.5000331 v 4.5000331 m 0.50024,-4.99991919 -0.0977,0.009525 -0.0938,0.028575 -0.0864,0.0462139 -0.0759,0.0620889 -0.0621,0.0758472 -0.0462,0.0864306 -0.0282,0.0934861 -0.01,0.0977194 m 2.04999,-0.49988609 h -1.54975 m 1.54975,0 V 2.7996351 m 0.19015,0 h -0.19015 m 0.19015,0 2.01012,1.1606388 m 0,0 2.00978,-1.1606388 m 0.19015,0 h -0.19015 m 0.19015,-2.49978319 V 2.7996351 m 1.54975,-2.49978319 h -1.54975 m 2.04999,0.49988609 -0.01,-0.0977194 -0.0282,-0.0934861 -0.0462,-0.0864306 -0.0621,-0.0758472 -0.0759,-0.0620889 -0.0864,-0.0462139 -0.0938,-0.028575 -0.0977,-0.009525 m 0.50024,4.9999192 V 0.799738 m -1.55011,4.5000331 h 1.55011 m -1.55011,0 -0.0392,0.00388 -0.0374,0.011289 -0.0346,0.018345 -0.0303,0.025047 -0.0247,0.030339 -0.0187,0.034572 -0.0113,0.037394 -0.004,0.039158 m 0,49.3550199 V 5.4997961 m 0,49.3550199 -0.44486,0.444853 m -4.11021,0 h 4.11021 m -4.11021,0 -0.44485,-0.444853 m 2.28988,-52.0551809 h -0.25929 -0.25083 -0.23883 -0.22225 -0.20214 -0.17851 -0.15204 -0.12242 m 3.46252,0 h -0.16828 -0.19297 -0.21449 -0.23283 -0.24659 -0.25647 -0.26176 -0.26282 m 2.22003,0 h -0.006 -0.0187 -0.0307 -0.043 -0.0547 -0.066 -0.0772 -0.0875 m -3.46252,0 h -0.0402 -0.0349 -0.03 -0.0247 -0.019 -0.0138 -0.008 -0.003 m 0.64558,0 V 0.29985191 m 0,0 h -0.83573 M 106.7371,2.7996351 V 0.29985191 m 1.25625,0 h -1.25625 m -2.30822,0 h 2.30822 M 118.91125,235.69963 118.14854,234.7997 m 0.76271,0.89993 h -3.14537 m -2.29623,-0.89993 v 0.89993 m 4.67889,-0.89993 h -4.67889 m 2.29623,0.89993 h -2.29623 M 98.117823,234.7997 h -8.46455 m 0,0 0.21202,-0.29987 m 8.676569,0 -0.424039,0.29987 m -8.25253,-0.29987 h 8.676569 m -8.888589,0.29987 v 0.89993 m 8.46455,0 v -0.89993 m 0,0.89993 h -8.46455 m 19.190407,-1.1998 -0.29986,0.29987 m 0,0 h -0.20955 -0.59584 -0.89218 -1.05234 -1.05268 -0.89218 -0.59584 -0.20955 m 0,0 -0.29986,-0.29987 m 0,0 h 0.18379 0.52988 0.81139 0.99518 1.05939 0.99519 0.81139 0.52987 0.1838 m -0.29986,0.29987 v 0.89993 m -5.50016,0 v -0.89993 m 0,0.89993 h 0.20955 0.59584 0.89218 1.05268 1.05234 0.89218 0.59584 0.20955 m -5.80002,-1.1998 h -4.201938 m 4.501798,1.1998 h -4.925837 m 15.351827,-0.89993 -0.42404,-0.29987 m 0,0 h -4.20193 m 4.62597,1.1998 h -4.92583 m 9.27946,-1.1998 0.32526,0.29987 m -5.10293,-0.29987 h 4.77767 m -2.0574,1.1998 1.79741,2.27295 m 0,0 -0.25118,0.0173 -0.248,0.018 m 0,0 -0.23742,-0.30798 m 0,0 -1.66794,-2.00025 m -16.517052,2.27295 -2.551994,-2.27295 m 21.473586,2.27295 -0.2466,2.04752 -0.37853,1.85914 -0.53834,1.65841 -0.71472,1.41464 -0.92075,1.1624 -1.12536,0.86184 -1.33703,0.53798 -1.53529,0.18521 -1.66158,-0.18097 -1.7526,-0.53799 -1.7586,-0.86431 -1.71803,-1.16346 -1.60655,-1.42063 -1.44992,-1.657 -1.225545,-1.8542 -0.952147,-2.04858 m 22.154792,0.24659 -1.88524,-2.51954 m -5.31883,11.99938 0.006,7.1e-4 1.7092,-0.22966 1.50002,-0.6731 1.26047,-1.08303 1.01424,-1.44815 0.77964,-1.77094 0.56691,-2.05458 0.36759,-2.22109 m -4.04812,-0.51929 0.31574,0.30798 m -0.31574,-0.30798 h -0.8188 -1.17334 -1.50812 -1.81963 -2.10185 -2.3502 -2.56117 -2.73121 -2.857144 m -0.0028,0.30798 0.0028,-0.30798 m -0.371122,0 0.3683,0.30798 m -2.624667,-2.30823 2.256367,2.00025 m 0.185914,0.2727 0.182386,0.0353 m 0.0028,-0.30798 0.901347,1.99813 1.169809,1.81046 2.92735,3.00602 1.64571,1.13665 1.68416,0.84526 1.67464,0.52634 1.58291,0.17709 1.45733,-0.18132 1.26224,-0.52635 1.05621,-0.84243 0.85655,-1.13595 1.14829,-3.00178 0.33867,-1.8154 0.21625,-1.99672 m 4.13314,0.79975 -0.14816,0.95497 -0.50871,2.17946 -0.73166,1.88172 -0.26388,0.4138 m 1.65241,-5.42995 -0.0409,-0.14041 -0.0219,-0.0699 -0.0222,-0.0702 M 89.653273,234.7997 h -0.621947 -0.462139 -0.284339 -0.09596 m 1.46438,0.89993 h -0.621947 -0.462139 -0.284339 -0.09596 m 0.299861,-1.1998 h 0.09031 0.267406 0.434269 0.584553 M 117.9337,75.299698 l -0.20002,0.200025 m 0,0 h -0.18874 -0.56338 -0.92887 -1.28023 -1.61078 -1.91629 -2.19181 -2.43205 -2.63454 -2.79541 -2.911832 -2.982736 -3.006372 -2.982736 -2.912181 -2.795058 -2.634544 -2.432403 -2.191455 -1.916289 -1.611136 -1.279878 -0.929216 -0.563386 -0.188736 m 0,0 -0.200025,-0.200025 m 0,0 h 0.176036 0.525638 0.867128 1.19627 1.508125 1.797755 2.06128 2.29482 2.494844 2.658181 2.783063 2.867378 2.909711 2.909711 2.867377 2.783066 2.65818 2.49449 2.29482 2.06128 1.79776 1.50812 1.19627 0.86748 0.52529 0.17603 M 69.853622,96.299853 v -20.80013 m 47.880058,0 v 20.80013 m 0,0 h -0.18874 -0.56338 -0.92887 -1.28023 -1.61078 -1.91629 -2.19181 -2.43205 -2.63454 -2.79541 -2.911832 -2.982736 -3.006372 -2.982736 -2.912181 -2.795058 -2.634544 -2.432403 -2.191455 -1.916289 -1.611136 -1.279878 -0.929216 -0.563386 -0.188736 m -3.359856,-0.500239 0.499886,0.500239 M 66.493766,75.799584 v 20.00003 m 0.499886,-20.499916 -0.499886,0.499886 m 3.359856,20.500269 h -2.85997 m 0,-21.000155 h 2.659945 m 51.440293,0.499886 -0.50024,-0.499886 m 0.50024,20.499916 v -20.00003 m -0.50024,20.500269 0.50024,-0.500239 m -0.50024,0.500239 h -2.85997 m 0.20002,-21.000155 h 2.65995 M 43.793576,172.29982 v 1.9999 m 100.000144,0 v -1.9999 m -79.95002,-32.5 v 32.5 m 59.8999,0 v -32.5 m -59.400014,-0.50024 -0.499886,0.50024 m 59.8999,0 -0.49989,-0.50024 m -56.949969,35.00014 2.500136,-2.50014 m 0,0 h 0.182033 0.544337 0.898172 1.238955 1.561747 1.861961 2.134659 2.376311 2.583744 2.752725 2.882194 2.969683 3.013428 3.013427 2.969331 2.882196 2.75308 2.58339 2.37666 2.13466 1.86161 1.5621 1.23895 0.89818 0.54398 0.18238 m 0,0 2.49979,2.50014 m -54.999819,0 h 0.185914 0.555272 0.917222 1.266825 1.598789 1.909586 2.194631 2.450041 2.671586 2.857853 3.005313 3.1115 3.176411 3.197931 3.176411 3.111854 3.00496 2.85785 2.67194 2.44969 2.19463 1.90959 1.59914 1.26647 0.91722 0.55527 0.18592 m -52.499683,-2.50014 v -5.4998 m 0.108303,0 h -0.0254 -0.02187 -0.0187 -0.01517 -0.01199 -0.0085 -0.0053 -0.0014 m 0.108303,-26.49996 v 26.49996 M 75.40808,139.79982 H 74.091541 72.905502 71.857752 70.954994 70.20393 69.608794 69.174172 68.90218 m 6.505927,26.49996 v -26.49996 m 7.955844,26.49996 h -1.11125 -1.083027 -1.051984 -1.018469 -0.982839 -0.944033 -0.903464 -0.860778 m 7.955844,-26.49996 v 26.49996 m 15.907808,-26.49996 h -2.001661 -2.024944 -2.034117 -2.030589 -2.01295 -1.982611 -1.938513 -1.882423 m 15.907808,26.49996 v -26.49996 m 8.983841,26.49996 h -1.02659 -1.05974 -1.08973 -1.11725 -1.14265 -1.16416 -1.18392 -1.199801 m 8.983841,-26.49996 v 26.49996 m 9.40152,-26.49996 h -0.68509 -0.83855 -0.98637 -1.12783 -1.26189 -1.38747 -1.50424 -1.61008 m 9.40152,26.49996 v -26.49996 m 1.13665,26.49996 h -0.018 -0.0536 -0.0893 -0.12489 -0.16051 -0.19509 -0.23036 -0.26494 m 1.13665,0 v 5.4998 m 14.77504,2.50014 -0.025,-0.0251 m 0,0 v -1.9498 m 0,0 0.025,-0.025 m 10.22491,0 h -10.22491 m 0,1.9999 h 10.22491 m -89.749834,-1.97485 v 1.9498 m 0,0 -0.02505,0.0251 m 0,-1.9999 0.02505,0.025 m -0.02505,-0.025 h -10.22522 m 0,1.9999 h 10.225263 m 5.524852,-0.0251 v -1.9498 m 0,0 0.02505,-0.025 m 6.824838,-32.5 -0.499886,-0.50024 m 0.499886,0.50024 v 26.49996 m 2.4003,0 h -2.4003 m -6.824838,7.99994 -0.02505,-0.0251 m 6.35,-34.97509 H 64.343586 M 63.8437,172.29982 h -4.274961 m 0,1.9999 h 6.725002 m 54.899979,-7.99994 h -2.39995 m 2.39995,0 v -26.49996 m 0.49989,-0.50024 -0.49989,0.50024 m 6.82519,32.5 0.0247,0.025 m 0,0 v 1.9498 m 0,0 -0.0247,0.0251 m -4.7752,-35.00014 h -1.5501 m 6.3253,33.00024 h -4.27531 m -2.45004,1.9999 h 6.72535 m -68.475219,-0.0251 H 59.334494 58.7383 57.846125 56.793789 55.741453 54.849278 54.253083 54.043886 m 5.524853,0.0251 H 59.357425 58.755939 57.85565 56.793789 55.731928 54.831639 54.2298 54.018839 m 5.524852,-1.97485 H 59.334494 58.7383 57.846125 56.793789 55.741453 54.849278 54.253083 54.043886 m 5.524853,-0.025 H 59.357425 58.755939 57.85565 56.793789 55.731928 54.831639 54.2298 54.018839 m 79.524931,1.97485 h -0.2092 -0.5962 -0.89217 -1.05234 -1.05269 -0.89182 -0.59619 -0.20955 m 5.5252,0.0251 h -0.21131 -0.60149 -0.90029 -1.06186 -1.06221 -0.90029 -0.60149 -0.21096 m 5.52486,-1.97485 h -0.2092 -0.5962 -0.89217 -1.05234 -1.05269 -0.89182 -0.59619 -0.20955 m 5.5252,-0.025 h -0.21131 -0.60149 -0.90029 -1.06186 -1.06221 -0.90029 -0.60149 -0.21096 m -62.017974,-33.00024 0.459669,0.50024 m 0,0 h -0.01587 -0.01341 -0.01164 -0.0092 -0.0074 -0.0053 -0.0032 -0.0011 m -0.499886,-0.50024 h 0.0018 0.0049 0.0085 0.01164 0.01517 0.01834 0.02187 0.02505 m 55.192781,0.50024 h -0.0166 -0.0501 -0.0833 -0.11677 -0.14958 -0.18238 -0.2152 -0.24765 m 0,0 0.33867,-0.50024 m 0,0 h 0.28504 0.24765 0.21026 0.17251 0.13441 0.0959 0.0579 0.0191 m -55.233002,27.0002 v -26.49996 m 54.241692,0.19509 h 0.10372 0.0914 0.0794 0.067 0.0547 0.0423 0.03 0.0176 m -0.48613,2.30469 v -2.30469 m 0,2.30469 h 0.10372 0.0914 0.0794 0.067 0.0547 0.0423 0.03 0.0176 m 0,-2.30469 v 2.30469 m -1.05622,24.00018 v -26.49996 m 0.92216,0.49989 -10e-4,-0.002 m -0.35066,-0.30303 0.35066,0.30303 m 0.13547,0.002 h -0.0476 -0.0864 m -52.756495,-1.00013 -0.03493,0.50024 m 0,0 h -1.802342 m -0.459669,-0.50024 h 2.296936 m -0.03493,27.0002 v -26.49996 m 0.639233,0 h -0.02187 -0.04304 -0.06315 -0.08079 -0.09525 -0.106186 -0.112889 -0.116063 m 0.141463,-0.50024 0.49777,0.50024 m -0.604308,-0.50024 h 0.0194 0.0187 0.01799 0.01588 0.01341 0.01058 0.0071 0.0035 m 6.636103,0 0.367594,0.50024 m -7.003697,-0.50024 h 0.277284 0.443441 0.606778 0.766233 0.92075 1.068564 1.210028 1.343025 m 46.012447,0.99836 v 2.00166 m -2.65782,-2.49978 v 26.49996 m 1.73707,-26.49996 h -1.73707 m -0.13759,-0.50024 0.13759,0.50024 m -0.13759,-0.50024 h 2.21333 m -2.07574,0.50024 h -0.11395 -0.11571 -0.1136 -0.10689 -0.096 -0.0822 -0.0646 -0.0452 m 0.47731,-0.50024 -0.47731,0.50024 m 0.47731,-0.50024 h 0.007 0.0109 0.0138 0.0159 0.018 0.0187 0.0194 0.019 m -9.71267,0 -0.28928,0.50024 m 0.28928,-0.50024 h 1.64253 1.53388 1.41534 1.28693 1.15076 1.00613 0.85513 0.69885 m -18.75331,0 -0.109361,0.50024 m -16.116299,-0.50024 0.208491,0.50024 m -0.208491,-0.50024 h 1.919816 1.97732 2.022122 2.053519 2.071158 2.075039 2.065161 2.041525 m -23.814263,0.50024 h -0.0081 -0.02999 -0.0508 -0.06985 m -0.367594,-0.50024 h 0.01164 0.0085 0.0049 0.0014 m 6.947605,0 -0.232127,0.50024 m 0,0 h -1.06292 -1.037872 -1.011061 -0.982133 -0.951795 -0.918986 -0.250825 m -0.499886,-0.50024 h 0.23495 1.025878 1.0668 1.104547 1.139825 1.172633 1.202972 m -6.148916,0.69533 h 0.444147 0.451909 0.459669 0.467078 0.474486 0.481189 0.488244 0.494947 m -3.761669,2.30469 v -2.30469 m 0,2.30469 h 0.444147 0.451909 0.459669 0.467078 0.474486 0.481189 0.488244 0.494947 m 0,-2.30469 v 2.30469 m 2.15512,24.00018 v -26.49996 m 26.220209,0 h -0.92499 -1.05798 -1.08126 -1.10243 -1.12184 -1.13841 -1.15323 m -0.36548,-0.50024 0.36548,0.50024 m -0.36548,-0.50024 h 1.30034 1.28305 1.26224 1.23896 1.21285 1.18357 0.96449 m -5.7284,0.69533 h 0.54786 0.54328 0.53904 0.53411 0.52881 0.52388 0.51823 0.51258 m -4.24779,2.30469 v -2.30469 m 0,2.30469 h 0.54786 0.54328 0.53904 0.53411 0.52881 0.52388 0.51823 0.51258 m 0,-2.30469 v 2.30469 m -6.59941,24.00018 v -26.49996 m 7.83308,0 h -0.0878 -0.0713 -0.0526 -0.0318 -0.01 m 0.49988,-0.50024 h 0.002 0.005 0.008 0.012 0.0148 m -32.679218,0.69533 0.03528,0.30303 m 0,0 v 2.00166 m 3.726391,-2.30469 -0.415219,0.30303 m 0,0 -7.06e-4,0.002 m 0,0 h -0.433211 -0.427566 -0.422628 -0.416983 -0.411339 -0.405695 -0.40005 -0.394052 m 2.943577,1.99989 v -1.99989 m 3.730978,26.00007 V 139.8002 m 0.789516,0 h -0.109361 -0.114652 -0.115712 -0.112536 -0.104775 -0.09313 -0.07867 -0.06068 m 0.449439,-0.50024 -0.449439,0.50024 m 0.449439,-0.50024 h 0.01023 0.01305 0.01552 0.01729 0.01905 0.01905 0.01905 0.01835 m 20.005322,1.00013 -7e-4,-0.002 m -0.38594,-0.30303 0.38594,0.30303 m 3.86185,-0.30303 -0.12276,0.30303 m 7e-4,0.002 h -0.45332 -0.4579 -0.46179 -0.46567 -0.4699 -0.47342 -0.47696 -0.48013 M 82.573143,139.8002 h -0.791986 m 0.232127,-0.50024 h 1.009298 m -3.811764,3.00002 v -2.00166 m 24.184682,2.00166 v -1.99989 m 3.50238,1.99989 v -2.00166 m -6.914096,-0.49812 h -0.03845 -0.05927 -0.0769 -0.09243 -0.10407 -0.11183 -0.115711 -0.114653 m 0.713317,0 v 26.49996 m -0.48507,-27.0002 0.48507,0.50024 m -0.603956,-0.50024 h 0.01905 0.0194 0.0187 0.01729 0.01552 0.0127 0.0099 0.0063 m 0.922509,0.50024 h -0.437439 m -0.48507,-0.50024 h 0.557029 m 3.10304,0.99836 v 2.00166 M 72.143855,43.133422 v 2.106436 m 43.299945,0 v -2.106436 m -43.299945,0 0.144639,-0.179564 0.107244,-0.203905 0.06632,-0.220839 0.02223,-0.229306 -0.02223,-0.229658 -0.06632,-0.220486 -0.107244,-0.203906 -0.144639,-0.179564 m 43.299945,0 -0.14464,0.179564 -0.1076,0.203906 -0.066,0.220486 -0.0222,0.229658 0.0222,0.229306 0.066,0.220839 0.1076,0.203905 0.14464,0.179564 m -43.299945,2.106436 0.0011,0.01164 0.0035,0.01129 0.0053,0.01023 0.0078,0.0092 0.0088,0.0074 0.01058,0.0056 0.01094,0.0032 0.01199,0.0014 m 43.179995,0 0.0117,-0.0014 0.0113,-0.0032 0.0102,-0.0056 0.009,-0.0074 0.007,-0.0092 0.006,-0.01023 0.004,-0.01129 10e-4,-0.01164 m -43.239975,-5.940072 -0.01199,0.0011 -0.01094,0.0035 -0.01058,0.0056 -0.0088,0.0074 -0.0078,0.0088 -0.0053,0.01058 -0.0035,0.01129 -0.0011,0.01164 m 43.299945,0 -10e-4,-0.01164 -0.004,-0.01129 -0.006,-0.01058 -0.007,-0.0088 -0.009,-0.0074 -0.0102,-0.0056 -0.0113,-0.0035 -0.0117,-0.0011 m -43.239965,0.05997 v 2.106436 m 43.299945,0 v -2.106436 m -41.650004,0.239889 -0.006,-0.05856 -0.01693,-0.05609 -0.02787,-0.05186 -0.03704,-0.04551 -0.04551,-0.03739 -0.05186,-0.02752 -0.05644,-0.01729 -0.05856,-0.0056 m 40.600134,0 -0.0586,0.0056 -0.0561,0.01729 -0.0519,0.02752 -0.0455,0.03739 -0.0374,0.04551 -0.0279,0.05186 -0.0169,0.05609 -0.006,0.05856 m 0,-0.299861 h 0.10865 0.19121 m -40.600134,0 h 0.185914 0.1143 m -0.300214,6.000044 0.05856,-0.006 0.05644,-0.01693 0.05186,-0.02787 0.04551,-0.03704 0.03704,-0.04551 0.02787,-0.05186 0.01693,-0.05644 0.006,-0.05856 m 40.000064,0 0.006,0.05856 0.0169,0.05644 0.0279,0.05186 0.0374,0.04551 0.0455,0.03704 0.0519,0.02787 0.0561,0.01693 0.0586,0.006 m -40.600138,0 h 0.185914 0.1143 m 40.000064,0 h 0.10865 0.19121 M 73.793796,39.599647 v 5.399969 m 40.000064,0 V 39.599647 M 73.493582,39.299786 h -1.289755 m 0,6.000044 h 1.289755 m 41.890238,-6.000044 h -1.2901 m 0,6.000044 h 1.2901 m 1.96321,-3.000022 -0.0808,-0.405694 -0.22966,-0.343606 -0.34396,-0.230011 -0.40534,-0.08043 -0.4057,0.08043 -0.34395,0.230011 -0.22966,0.343606 -0.0804,0.405694 0.0804,0.405342 0.22966,0.343958 0.34395,0.229658 0.4057,0.08079 0.40534,-0.08079 0.34396,-0.229658 0.22966,-0.343958 0.0808,-0.405342 M 68.793877,39.599647 v 5.399969 m 49.999893,0 v -5.399969 m -49.700032,-0.299861 -0.05856,0.0056 -0.05609,0.01729 -0.05221,0.02752 -0.04515,0.03739 -0.0374,0.04551 -0.02787,0.05186 -0.01693,0.05609 -0.0056,0.05856 m 49.999892,0 -0.006,-0.05856 -0.0173,-0.05609 -0.0275,-0.05186 -0.0374,-0.04551 -0.0455,-0.03739 -0.0519,-0.02752 -0.0564,-0.01729 -0.0582,-0.0056 m -49.700032,5.69983 0.0056,0.05856 0.01693,0.05644 0.02787,0.05186 0.0374,0.04551 0.04515,0.03704 0.05221,0.02787 0.05609,0.01693 0.05856,0.006 m 49.400172,0 0.0582,-0.006 0.0564,-0.01693 0.0519,-0.02787 0.0455,-0.03704 0.0374,-0.04551 0.0275,-0.05186 0.0173,-0.05644 0.006,-0.05856 m -48.940148,0.210256 h 0.177447 0.529519 0.873478 0.709789 m -2.290233,-0.360186 -0.06879,0.01376 -0.05856,0.03916 -0.03881,0.05821 -0.01376,0.06879 0.01376,0.06915 0.03881,0.05821 0.05856,0.03916 0.06879,0.01376 m 0,-0.360186 h 0.177447 0.529519 0.873478 0.709789 m 43.299945,0 h 0.53975 0.96696 0.58667 0.1965 m 0,0.360186 0.0688,-0.01376 0.0586,-0.03916 0.0392,-0.05821 0.0134,-0.06915 -0.0134,-0.06879 -0.0392,-0.05821 -0.0586,-0.03916 -0.0688,-0.01376 m -2.28988,0.360186 h 0.53975 0.96696 0.58667 0.1965 M 69.853622,39.749578 h 0.177447 0.529519 0.873478 0.709789 m -2.290233,-0.359834 -0.06879,0.01376 -0.05856,0.0388 -0.03881,0.05856 -0.01376,0.06879 0.01376,0.06879 0.03881,0.05856 0.05856,0.03916 0.06879,0.01341 m 0,-0.359834 h 0.177447 0.529519 0.873478 0.709789 m 43.299945,0 h 0.53975 0.96696 0.58667 0.1965 m 0,0.359834 0.0688,-0.01341 0.0586,-0.03916 0.0392,-0.05856 0.0134,-0.06879 -0.0134,-0.06879 -0.0392,-0.05856 -0.0586,-0.0388 -0.0688,-0.01376 m -2.28988,0.359834 h 0.53975 0.96696 0.58667 0.1965 m -47.880058,5.460294 v 0.08996 m 47.880058,0 v -0.08996 m -47.880058,0.08996 h 0.177447 0.529519 0.873478 0.769761 m 43.179993,0 h 0.59973 0.96696 0.58667 0.1965 M 69.853622,39.299786 v 0.08996 m 47.880058,0 v -0.08996 m -2.34986,0 h 0.59973 0.96696 0.58667 0.1965 m -47.880058,0 h 0.177447 0.529519 0.873478 0.769761 m -1.800225,5.452886 -0.54998,0.09701 m 0.54998,-0.09701 h 0.213783 0.637823 0.888647 m 43.299945,0 h 0.03 0.94474 0.57327 0.19191 m 0.54998,0.09701 -0.54998,-0.09701 m 0,-4.90608 0.54998,-0.09701 m -2.28988,0.09701 h 0.03 0.94474 0.57327 0.19191 m -46.780098,0 h 0.213783 0.637823 0.888647 m -2.290233,-0.09701 0.54998,0.09701 m 0,3.243791 h 0.213783 0.0381 m -0.251883,-1.581503 -0.128058,0.17392 -0.09454,0.194028 -0.05821,0.207786 -0.0194,0.215194 0.0194,0.214842 0.05821,0.208139 0.09454,0.194027 0.128058,0.173567 m 0,-1.581503 h 0.213783 0.0381 m 46.337355,0 h 0.19086 m 0,1.581503 0.12806,-0.173567 0.0949,-0.194027 0.0579,-0.208139 0.0198,-0.214842 -0.0198,-0.215194 -0.0579,-0.207786 -0.0949,-0.194028 -0.12806,-0.17392 m -0.19086,1.581503 h 0.19086 M 70.403602,39.846592 v 1.662288 m 46.780098,0 v -1.662288 m -46.780098,3.243791 v 1.662289 m 46.780098,0 V 43.090383 M 69.093738,45.29983 h 0.759884 m 0,-6.000044 h -0.759884 m 48.639942,6.000044 h 0.76023 m 0,-6.000044 h -0.76023 m -45.589825,150.833304 0.144639,-0.17921 0.107244,-0.2039 0.06632,-0.22084 0.02223,-0.22931 -0.02223,-0.22966 -0.06632,-0.22048 -0.107244,-0.20426 -0.144639,-0.17921 m 43.299945,0 -0.14464,0.17921 -0.1076,0.20426 -0.066,0.22048 -0.0222,0.22966 0.0222,0.22931 0.066,0.22084 0.1076,0.2039 0.14464,0.17921 m -43.299945,0 v 2.10679 m 43.299945,0 v -2.10679 m -43.299945,2.10679 0.0011,0.0116 0.0035,0.0113 0.0053,0.0102 0.0078,0.009 0.0088,0.007 0.01058,0.006 0.01094,0.003 0.01199,0.001 m 43.179995,0 0.0117,-0.001 0.0113,-0.003 0.0102,-0.006 0.009,-0.007 0.007,-0.009 0.006,-0.0102 0.004,-0.0113 10e-4,-0.0116 m -43.299947,-5.8801 v 2.10644 m 43.299947,0 v -2.10644 m -43.239975,-0.06 -0.01199,0.001 -0.01094,0.004 -0.01058,0.005 -0.0088,0.008 -0.0078,0.009 -0.0053,0.0106 -0.0035,0.0113 -0.0011,0.0116 m 43.299945,0 -10e-4,-0.0116 -0.004,-0.0113 -0.006,-0.0106 -0.007,-0.009 -0.009,-0.008 -0.0102,-0.005 -0.0113,-0.004 -0.0117,-0.001 m -15.35006,0.29986 h 2.57739 2.40665 2.18969 1.92935 1.63265 1.30352 0.94967 0.5775 0.19368 m -40.000064,0 h 0.181681 0.541514 0.891469 1.22555 1.537053 1.820686 2.071511 2.284589 2.456038 2.583039 2.663119 2.694517 2.677583 2.611615 m -26.239964,0 -0.006,-0.0586 -0.01693,-0.0561 -0.02787,-0.0519 -0.03704,-0.0455 -0.04551,-0.0374 -0.05186,-0.0279 -0.05644,-0.0169 -0.05856,-0.006 m 40.600134,0 -0.0586,0.006 -0.0561,0.0169 -0.0519,0.0279 -0.0455,0.0374 -0.0374,0.0455 -0.0279,0.0519 -0.0169,0.0561 -0.006,0.0586 m -13.66662,-0.29986 h 2.6162 2.44299 2.22215 1.95862 1.657 1.32327 0.96379 0.58596 0.1965 m -40.600134,0 h 0.184503 0.549628 0.904875 1.243894 1.560336 1.848203 2.102555 2.318809 2.492727 2.621845 2.702983 2.735086 2.717447 2.650763 m -26.633654,6.00004 0.05856,-0.006 0.05644,-0.0169 0.05186,-0.0279 0.04551,-0.037 0.03704,-0.0455 0.02787,-0.0519 0.01693,-0.0565 0.006,-0.0586 m 0,0 h 0.181681 0.541514 0.891469 1.22555 1.537053 1.820686 2.071511 2.284589 2.456038 2.583039 2.663119 2.694517 2.677583 2.611615 m 0,0 h 2.57739 2.40665 2.18969 1.92935 1.63265 1.30352 0.94967 0.5775 0.19368 m 0,0 0.006,0.0586 0.0169,0.0565 0.0279,0.0519 0.0374,0.0455 0.0455,0.037 0.0519,0.0279 0.0561,0.0169 0.0586,0.006 m -40.600138,0 h 0.184503 0.549628 0.904875 1.243894 1.560336 1.848203 2.102555 2.318809 2.492727 2.621845 2.702983 2.735086 2.717447 2.650767 m 0,0 h 2.6162 2.44299 2.22215 1.95862 1.657 1.32327 0.96379 0.58596 0.1965 m -40.299924,-5.70018 v 5.39997 m 40.000064,0 v -5.39997 m -40.300278,-0.29986 h -1.289755 m 0,6.00004 h 1.289755 m 41.890238,-6.00004 h -1.2901 m 0,6.00004 h 1.2901 m -46.589943,-5.70018 v 5.39997 m 49.999893,0 v -5.39997 m -49.700032,-0.29986 -0.05856,0.006 -0.05609,0.0169 -0.05221,0.0279 -0.04515,0.0374 -0.0374,0.0455 -0.02787,0.0519 -0.01693,0.0561 -0.0056,0.0586 m 49.999892,0 -0.006,-0.0586 -0.0173,-0.0561 -0.0275,-0.0519 -0.0374,-0.0455 -0.0455,-0.0374 -0.0519,-0.0279 -0.0564,-0.0169 -0.0582,-0.006 m -49.700032,5.69983 0.0056,0.0586 0.01693,0.0565 0.02787,0.0519 0.0374,0.0455 0.04515,0.037 0.05221,0.0279 0.05609,0.0169 0.05856,0.006 m 49.400172,0 0.0582,-0.006 0.0564,-0.0169 0.0519,-0.0279 0.0455,-0.037 0.0374,-0.0455 0.0275,-0.0519 0.0173,-0.0565 0.006,-0.0586 m -48.940148,0.21026 h 0.189441 0.56515 0.932039 0.603603 m -2.290233,-0.36019 -0.06879,0.0138 -0.05856,0.0388 -0.03881,0.0586 -0.01376,0.0688 0.01376,0.0691 0.03881,0.0582 0.05856,0.0392 0.06879,0.0138 m 0,-0.36019 h 0.189441 0.56515 0.932039 0.603603 m 43.299945,0 h 0.61701 0.92463 0.56056 0.18768 m 0,0.36019 0.0688,-0.0138 0.0586,-0.0392 0.0392,-0.0582 0.0134,-0.0691 -0.0134,-0.0688 -0.0392,-0.0586 -0.0586,-0.0388 -0.0688,-0.0138 m -2.28988,0.36019 h 0.61701 0.92463 0.56056 0.18768 m -47.880058,-5.4603 h 0.189441 0.56515 0.932039 0.603603 m -2.290233,-0.35983 -0.06879,0.0138 -0.05856,0.0388 -0.03881,0.0586 -0.01376,0.0688 0.01376,0.0688 0.03881,0.0586 0.05856,0.0388 0.06879,0.0138 m 0,-0.35983 h 0.189441 0.56515 0.932039 0.603603 m 43.299945,0 h 0.61701 0.92463 0.56056 0.18768 m 0,0.35983 0.0688,-0.0138 0.0586,-0.0388 0.0392,-0.0586 0.0134,-0.0688 -0.0134,-0.0688 -0.0392,-0.0586 -0.0586,-0.0388 -0.0688,-0.0138 m -2.28988,0.35983 h 0.61701 0.92463 0.56056 0.18768 m -47.880058,5.4603 v 0.0899 m 47.880058,0 v -0.0899 m -47.880058,0.0899 h 0.189441 0.56515 0.932039 0.663575 m 43.179993,0 h 0.67699 0.92463 0.56056 0.18768 m -47.880058,-6.00004 v 0.09 m 47.880058,0 v -0.09 m -2.34986,0 h 0.67699 0.92463 0.56056 0.18768 m -47.880058,0 h 0.189441 0.56515 0.932039 0.663575 m -1.800225,5.45289 -0.54998,0.097 m 0.54998,-0.097 h 0.185208 0.552098 0.910872 0.09208 m 43.29994,0 h 0.10548 0.90311 0.54786 0.18345 m 0.54998,0.097 -0.54998,-0.097 m 0,-4.90609 0.54998,-0.097 m -2.28988,0.097 h 0.10548 0.90311 0.54786 0.18345 m -46.780093,0 h 0.185208 0.552098 0.910872 0.09208 m -2.290233,-0.097 0.54998,0.097 m 0,3.2438 h 0.04904 m -0.04904,-1.58151 -0.128058,0.17392 -0.09454,0.19403 -0.05821,0.20779 -0.0194,0.21519 0.0194,0.21484 0.05821,0.20814 0.09454,0.19403 0.128058,0.17357 m 0,-1.58151 h 0.04904 m 46.690838,0 h 0.0402 m 0,1.58151 0.12806,-0.17357 0.0949,-0.19403 0.0579,-0.20814 0.0198,-0.21484 -0.0198,-0.21519 -0.0579,-0.20779 -0.0949,-0.19403 -0.12806,-0.17392 m -0.0402,1.58151 h 0.0402 m -46.780094,-3.2438 v 1.66229 m 46.780094,0 v -1.66229 m -46.780094,3.2438 v 1.66229 m 46.780094,0 v -1.66229 m -47.330074,-3.7906 h -0.759884 m 0,6.00004 h 0.759884 m 48.640284,-6.00004 h -0.76023 m 0,6.00004 h 0.76023 m -46.350051,13.19989 v -3.20005 m 43.299941,0 v 3.20005 m -17.750012,-4.39985 1.199797,1.1998 m 4.150075,0 v 7.2002 m 0,0.39969 v -0.39969 m -1.29999,0.39969 h 1.29999 m -1.29999,0 v 4.30001 m -0.29986,0.30022 0.29986,-0.30022 m -15.90004,0 0.300214,0.30022 m -0.300214,-0.30022 v -4.30001 m -1.299986,0 h 1.299986 m -1.299986,-0.39969 v 0.39969 m 0,-0.39969 v -7.2002 m 4.150078,0 1.20015,-1.1998 m 0,0 v -6.20006 m 0.599722,-0.60008 -0.599722,0.60008 m 7.199841,-0.60008 H 90.49359 m 7.200194,0.60008 -0.600075,-0.60008 m 0.600075,0.60008 v 6.20006 m 5.349876,1.1998 h -4.150079 m -10.199863,0 H 84.54364 m 1.6002,12.20012 h 15.29997 M 79.043835,209.8995 v -0.39969 m -1.299986,0.39969 h 1.299986 m -1.299986,0 v 4.30001 m -0.300214,0.30022 0.300214,-0.30022 m -9.160933,0.30022 v -9.00007 m 10.460919,-3.20005 v 7.2002 m 0,-7.2002 h -6.89998 m -3.560939,3.20005 h 3.560939 m -3.560939,9.00007 h 8.860719 m 41.560745,-9.00007 v 9.00007 m -9.16058,-0.30022 0.29986,0.30022 m -0.29986,-0.30022 v -4.30001 m -1.29998,0 h 1.29998 m -1.29998,-0.39969 v 0.39969 m 0,-0.39969 v -7.2002 m 6.89998,0 h -6.89998 m 6.89998,3.20005 h 3.56058 m -8.86072,9.00007 h 8.86072 m -37.210642,-4.99992 h -0.536575 -0.515761 -0.475545 -0.41663 -0.341842 -0.254353 -0.156633 -0.05256 m 5.499805,0 h -0.05292 -0.156281 -0.254 -0.342194 -0.416631 -0.475544 -0.515761 -0.536575 m -2.749903,-7.2002 h 0.209197 0.596195 0.892175 1.052336 1.052336 0.892175 0.596194 0.209197 m 21.25027,7.2002 h -0.53657 -0.51611 -0.4752 -0.41698 -0.34184 -0.254 -0.15663 -0.0529 m 5.50016,0 h -0.0529 -0.15663 -0.254 -0.34184 -0.41699 -0.47519 -0.51611 -0.53623 m -2.75025,-7.2002 h 0.20955 0.59584 0.89218 1.05268 1.05234 0.89218 0.59584 0.20955 m -30.799971,11.8999 h 4.049889 m 0,0.30022 h -4.350103 m 4.350103,-0.30022 h 4.049888 m 0.300214,0.30022 h -4.350102 m 19.949932,-0.30022 h 4.05024 m 0,0.30022 h -4.3501 m 4.3501,-0.30022 h 4.04989 m 0.29986,0.30022 h -4.34975 m -21.25027,-4.80025 h -5.499805 m 23.999825,0 h 5.50016 M 58.793686,26.799812 V 17.59972 m 69.999924,0 v 9.200092 M 59.0939,17.299859 58.793686,17.59972 m 69.999924,0 -0.29986,-0.299861 m -0.20002,9.999839 0.49988,-0.499886 m -69.999924,0 0.499886,0.499886 M 73.793796,61.699763 V 29.299595 m 40.000064,0 V 61.699763 M 76.793818,17.59972 76.493605,17.299859 m 0.300213,0.299861 v 7.700081 m 2.250017,0 h -2.250017 m 2.250017,0.40005 v -0.40005 m 0,0.40005 v 36.299773 m -0.300214,0.300214 0.300214,-0.300214 m -0.300214,0.300214 h -4.34975 m -0.600075,-0.600075 0.600075,0.600075 M 73.793796,29.299595 h -1.999897 m 0,0 V 27.299698 M 59.0939,17.299859 h 17.399705 m -4.699706,9.999839 H 59.293572 m 53.900208,35.00014 0.60008,-0.600075 m -11.05006,0.600075 0.29986,-0.300214 m -5.25004,-0.999772 1.299986,1.299986 M 97.79362,60.999852 v -8.700205 m -7.999941,0 h 7.999941 m -7.999941,0 v 8.700205 m -1.299986,1.299986 1.299986,-1.299986 m -5.250039,0.999772 0.300214,0.300214 M 84.54364,61.999624 V 25.699851 m 0,-0.40005 v 0.40005 m 2.250017,-0.40005 H 84.54364 m 2.250017,0 V 17.59972 m 0.300214,-0.299861 -0.300214,0.299861 m 13.999983,0 -0.29986,-0.299861 m 0.29986,0.299861 v 7.700081 m 2.25002,0 h -2.25002 m 2.25002,0.40005 v -0.40005 m 0,0.40005 v 36.299773 m -14.549967,0.300214 h -3.649839 m 17.899946,0 H 99.093606 M 87.093871,17.299859 H 100.49378 M 86.793657,17.59972 h -0.202495 -0.591255 -0.931686 -0.774347 m -5.000272,0 h -0.773995 -0.932039 -0.591255 -0.202495 m -0.300213,-0.299861 h 0.180622 0.529519 0.842433 1.097492 0.149931 m 5.000272,0 h 0.14993 1.097492 0.842433 0.529519 0.180623 m -8.050036,44.699765 h 0.209197 0.596195 0.892175 1.052336 1.052336 0.892175 0.596194 0.209197 m 0.300214,0.300214 h -0.18415 -0.529519 -0.811389 -0.995539 -1.059039 -0.995539 -0.811389 -0.529519 -0.18415 M 84.54364,25.699851 h -0.05292 -0.156281 -0.04057 m -5.000272,0 h -0.04057 -0.156633 -0.05256 m 10.749844,35.300001 h 0.195791 0.568325 0.884767 1.115131 1.236133 1.236133 1.114778 0.885119 0.567972 0.195792 m 1.299986,1.299986 h -0.180622 -0.529167 -0.842433 -1.097492 -1.278466 -1.3716 -1.371953 -1.278114 -1.097844 -0.842081 -0.529519 -0.180622 m 27.300058,-35.00014 v 1.999897 m -7.24993,32.700029 0.29986,0.300214 m -0.29986,-0.300214 V 25.699851 m 0,-0.40005 v 0.40005 m 2.25001,-0.40005 h -2.25001 m 2.25001,0 V 17.59972 m 0.29986,-0.299861 -0.29986,0.299861 m 2.39995,44.700118 h -4.3501 m 6.95007,-33.000243 h -1.99989 m -2.70017,-11.999736 h 17.40006 m -0.20002,9.999839 h -12.49998 m -4.99992,-9.699978 h -0.20249 -0.59126 -0.93204 -0.77434 m -4.99992,0 h -0.77435 -0.93204 -0.59125 -0.2025 m -0.29986,-0.299861 h 0.18062 0.52952 0.84208 1.09785 0.14993 m 4.99992,0 h 0.14993 1.09784 0.84208 0.52952 0.18062 m -8.05003,44.699765 h 0.20955 0.59584 0.89218 1.05268 1.05234 0.89218 0.59584 0.20955 m 0.29986,0.300214 h -0.1838 -0.52987 -0.81139 -0.99519 -1.05939 -0.99518 -0.81139 -0.52988 -0.18379 m 5.80002,-36.599987 h -0.0529 -0.15663 -0.0406 m -4.99992,0 h -0.0406 -0.15663 -0.0529 M 79.043835,25.499826 h 0.249767 m 5.000272,0 h 0.249766 m 24.00018,0 h -0.25012 m -4.99992,0 h -0.25012 m 40.84567,169.800054 h -0.0409 -0.34501 -0.68369 -0.99624 -1.27035 -1.49578 -1.66335 -1.76777 -1.8034 -1.77024 -1.66863 -1.50354 -1.28023 -1.00789 -0.69674 -0.35842 -0.048 m 18.40019,5.99969 h -0.0409 -0.34501 -0.68369 -0.99624 -1.27035 -1.49578 -1.66335 -1.76777 -1.8034 -1.77024 -1.66863 -1.50354 -1.28023 -1.00789 -0.69674 -0.35842 -0.048 m 18.40019,10.00019 h -0.10831 -0.44908 -0.78105 -1.08338 -1.34373 -1.55258 -1.7018 -1.78541 -1.80093 -1.7466 -1.6256 -1.44216 -1.20261 -0.91758 -0.59725 -0.25365 -0.008 m 18.40019,6.00004 h -0.10831 -0.44908 -0.78105 -1.08338 -1.34373 -1.55258 -1.7018 -1.78541 -1.80093 -1.7466 -1.6256 -1.44216 -1.20261 -0.91758 -0.59725 -0.25365 -0.008 m 5.15479,-33.00024 h -0.64276 -0.29527 -0.0166 m 9.99983,0 h -0.007 -0.25894 -0.60996 -0.91545 -1.15394 -1.30598 -1.36137 -1.31622 -1.17298 -0.94298 m 0,1.00012 h -0.64276 -0.29527 -0.0166 m 9.99983,0 h -0.007 -0.25894 -0.60996 -0.91545 -1.15394 -1.30598 -1.36137 -1.31622 -1.17298 -0.94298 m 0,42.19999 h -0.64276 -0.29527 -0.0166 m 9.99983,0 h -0.007 -0.25894 -0.60996 -0.91545 -1.15394 -1.30598 -1.36137 -1.31622 -1.17298 -0.94298 m 0,1.00012 h -0.64276 -0.29527 -0.0166 m 9.99983,0 h -0.007 -0.25894 -0.60996 -0.91545 -1.15394 -1.30598 -1.36137 -1.31622 -1.17298 -0.94298 M 89.543559,5.2997711 h 0.06844 0.409575 0.744714 1.013531 1.192741 1.265414 1.226256 1.077736 0.833261 0.515408 0.153106 M 90.043798,0.29985191 h 0.183445 0.532694 0.829733 1.045281 1.158875 1.158875 1.04528 0.829734 0.532341 0.183797 v 0 M 131.25071,248.49982 h -0.58349 -0.22613 -0.002 m 8.49983,0 h -0.0303 -0.3369 -0.68228 -0.96625 -1.16488 -1.26012 -1.24283 -1.11549 -0.88935 m 0.40464,4.99992 h -0.5327 -0.18344 m 7.50005,0 h -0.18379 -0.53235 -0.82973 -1.04528 -1.15888 -1.15887 -1.04528 -0.82973 m 1.01141,-29.55502 h -0.40852 -0.0691 m 4.99992,0 h -0.0307 -0.33761 -0.66217 -0.88582 -0.97473 -0.9151 -0.71614 m 0.35983,-0.44485 h -0.33549 -0.0568 m 4.10987,0 h -0.0254 -0.27729 -0.54433 -0.72814 -0.80151 -0.75212 -0.58879 m -39.232764,0.3997 0.164042,-0.002 2.145241,-0.35524 m -4.618919,0 2.309636,0.35701 m -2.309636,-3.64243 v 3.28542 m 2.309636,-3.64279 -0.164042,0.002 -2.145594,0.3556 m 4.618919,0 -2.309283,-0.35737 m 2.309283,0.35737 v 3.28542 m -4.618919,-3.28542 -1.154642,-0.35737 m 3.464278,0 h -0.522111 -0.513292 -0.4953 -0.469547 -0.434975 -0.393347 -0.345017 -0.290689 m 6.928203,0 h -0.02011 l -1.134533,0.35737 m 1.154642,-0.35737 h -0.290689 -0.345017 -0.393347 -0.434975 -0.469194 -0.495653 -0.512939 -0.522111 m 2.309283,3.64279 1.154642,0.35701 m 0,0 h -0.290689 -0.345017 -0.393347 -0.434975 -0.469194 -0.495653 -0.512939 -0.522111 m -3.464278,0 0.0822,-0.002 1.072445,-0.35524 m 2.309636,0.35701 h -0.522111 -0.513292 -0.4953 -0.469547 -0.434975 -0.393347 -0.345017 -0.290689 m -1.154641,-0.35701 1.154641,0.35701 m -1.154641,-3.64243 v 3.28542 m 1.154641,-3.64279 -0.08184,0.002 -1.072797,0.3556 m 8.082844,3.64243 h 0.02011 l 1.134533,-0.35701 m 0,-3.28542 -1.154641,-0.35737 m 1.154641,0.35737 v 3.28542 m -8.082844,-3.64279 h -0.231422 -0.167922 -0.102306 -0.03422 m 0.535869,3.9998 h -0.231422 -0.167922 -0.102306 -0.03422 m 7.999941,-3.9998 h -0.03422 -0.101953 -0.168275 -0.231422 m 0.535869,3.9998 h -0.03422 -0.101953 -0.168275 -0.231422 m 46.931435,-22.89986 h -0.0423 -0.3563 -0.70591 -1.0287 -1.31163 -1.54446 -1.71767 -1.82528 -1.86231 -1.82774 -1.72332 -1.55258 -1.32185 -1.0407 -0.71931 -0.37042 -0.0494 m 14.01057,-5.39997 h -1.71767 -1.82528 -1.86231 -1.82774 -1.72332 -1.55258 -1.32185 -1.0407 -0.71931 -0.37042 -0.0494 m 18.99991,0 h -0.0423 -0.3563 -0.70591 -1.0287 -1.31163 -1.54446 m 4.98934,21.39985 h -0.11148 -0.4639 -0.80645 -1.11866 -1.38748 -1.60337 -1.75719 -1.84397 -1.85949 -1.80375 -1.67852 -1.48872 -1.24213 -0.94756 -0.61666 -0.26211 -0.008 m 11.75138,-5.39997 h -1.84397 -1.85949 -1.80375 -1.67852 -1.48872 -1.24213 -0.94756 -0.61666 -0.26211 -0.008 m 18.99991,0 h -0.11148 -0.4639 -0.80645 -1.11866 -1.38748 -1.60337 -1.75719 M 98.04374,0.799738 h -0.153106 -0.515408 -0.833261 -1.077736 -1.226256 -1.265414 -1.192741 -1.013531 -0.744714 -0.409575 -0.06844 m 2.227792,4.7000581 h -0.408517 -0.06914 m 4.999919,0 H 96.262917 95.925309 95.263145 94.37732 93.402595 92.48749 91.771351 M 131.25071,252.99985 h 0.88935 1.11549 1.24283 1.26012 1.16488 0.96625 0.68228 0.3369 0.0303 m -8.49983,0 h 0.002 0.22613 0.58349 m 0.93839,-4.70006 h 0.0691 0.40852 0.71614 0.9151 0.97473 0.88582 0.66217 0.33761 0.0307"
           style="fill:none;stroke:#000000;stroke-width:0.1;stroke-linecap:round;stroke-linejoin:round;stroke-miterlimit:10;stroke-dasharray:none;stroke-opacity:1" />
        <path
           id="path39-5"
           d="m 134.68914,217.29969 v 6.20007"
           style="fill:none;stroke:#000000;stroke-width:0.1;stroke-linecap:round;stroke-linejoin:round;stroke-miterlimit:10;stroke-dasharray:none;stroke-dashoffset:0;stroke-opacity:1" />
        <path
           id="path41-5"
           d="m 134.68914,174.29972 v 4.20017"
           style="fill:none;stroke:#000000;stroke-width:0.1;stroke-linecap:round;stroke-linejoin:round;stroke-miterlimit:10;stroke-dasharray:none;stroke-dashoffset:0;stroke-opacity:1" />
        <text
           id="text60"
           xml:space="preserve"
           x="141.87498"
           y="16.222607"
           style="font-size:4.23333px;stroke-width:0.1;stroke-dasharray:none"><tspan
             style="font-variant:normal;font-weight:normal;font-stretch:normal;font-size:6.66665px;font-family:'Century Gothic';writing-mode:lr-tb;fill:#000000;fill-opacity:1;fill-rule:nonzero;stroke:none;stroke-width:0.1;stroke-dasharray:none"
             x="141.87498"
             y="16.222607"
             id="tspan61">2</tspan><tspan
             style="font-variant:normal;font-weight:normal;font-stretch:normal;font-size:6.66665px;font-family:'Century Gothic';writing-mode:lr-tb;fill:#000000;fill-opacity:1;fill-rule:nonzero;stroke:none;stroke-width:0.1;stroke-dasharray:none"
             x="144.76831"
             y="32.915905"
             id="tspan62">3</tspan><tspan
             style="font-variant:normal;font-weight:normal;font-stretch:normal;font-size:6.66665px;font-family:'Century Gothic';writing-mode:lr-tb;fill:#000000;fill-opacity:1;fill-rule:nonzero;stroke:none;stroke-width:0.1;stroke-dasharray:none"
             x="137.08167"
             y="47.96254"
             id="tspan63">4</tspan><tspan
             style="font-variant:normal;font-weight:normal;font-stretch:normal;font-size:6.66665px;font-family:'Century Gothic';writing-mode:lr-tb;fill:#000000;fill-opacity:1;fill-rule:nonzero;stroke:none;stroke-width:0.1;stroke-dasharray:none"
             x="137.08167"
             y="82.849136"
             id="tspan64">5</tspan><tspan
             style="font-variant:normal;font-weight:normal;font-stretch:normal;font-size:6.66665px;font-family:'Century Gothic';writing-mode:lr-tb;fill:#000000;fill-opacity:1;fill-rule:nonzero;stroke:none;stroke-width:0.1;stroke-dasharray:none"
             x="169.7816"
             y="90.269119"
             id="tspan65">6</tspan><tspan
             style="font-variant:normal;font-weight:normal;font-stretch:normal;font-size:6.66665px;font-family:'Century Gothic';writing-mode:lr-tb;fill:#000000;fill-opacity:1;fill-rule:nonzero;stroke:none;stroke-width:0.1;stroke-dasharray:none"
             x="42.801865"
             y="149.44899"
             id="tspan66">7</tspan><tspan
             style="font-variant:normal;font-weight:normal;font-stretch:normal;font-size:6.66665px;font-family:'Century Gothic';writing-mode:lr-tb;fill:#000000;fill-opacity:1;fill-rule:nonzero;stroke:none;stroke-width:0.1;stroke-dasharray:none"
             x="158.51495"
             y="195.00891"
             id="tspan67">9</tspan><tspan
             style="font-variant:normal;font-weight:normal;font-stretch:normal;font-size:6.66665px;font-family:'Century Gothic';writing-mode:lr-tb;fill:#000000;fill-opacity:1;fill-rule:nonzero;stroke:none;stroke-width:0.1;stroke-dasharray:none"
             x="161.18161"
             y="212.24887"
             id="tspan68">9</tspan><tspan
             style="font-variant:normal;font-weight:normal;font-stretch:normal;font-size:6.66665px;font-family:'Century Gothic';writing-mode:lr-tb;fill:#000000;fill-opacity:1;fill-rule:nonzero;stroke:none;stroke-width:0.1;stroke-dasharray:none"
             x="49.34185 53.036285"
             y="197.64891"
             sodipodi:role="line"
             id="tspan69">15</tspan><tspan
             style="font-variant:normal;font-weight:normal;font-stretch:normal;font-size:6.66665px;font-family:'Century Gothic';writing-mode:lr-tb;fill:#000000;fill-opacity:1;fill-rule:nonzero;stroke:none;stroke-width:0.1;stroke-dasharray:none"
             x="49.375183 53.069614"
             y="213.19554"
             sodipodi:role="line"
             id="tspan70">14</tspan><tspan
             style="font-variant:normal;font-weight:normal;font-stretch:normal;font-size:6.66665px;font-family:'Century Gothic';writing-mode:lr-tb;fill:#000000;fill-opacity:1;fill-rule:nonzero;stroke:none;stroke-width:0.1;stroke-dasharray:none"
             x="66.241814 69.936249"
             y="250.1288"
             sodipodi:role="line"
             id="tspan71">12</tspan><tspan
             style="font-variant:normal;font-weight:normal;font-stretch:normal;font-size:6.66665px;font-family:'Century Gothic';writing-mode:lr-tb;fill:#000000;fill-opacity:1;fill-rule:nonzero;stroke:none;stroke-width:0.1;stroke-dasharray:none"
             x="148.50832"
             y="183.36226"
             id="tspan72">8</tspan><tspan
             style="font-variant:normal;font-weight:normal;font-stretch:normal;font-size:6.66665px;font-family:'Century Gothic';writing-mode:lr-tb;fill:#000000;fill-opacity:1;fill-rule:nonzero;stroke:none;stroke-width:0.1;stroke-dasharray:none"
             x="150.76164 154.45607"
             y="227.00217"
             sodipodi:role="line"
             id="tspan73">10</tspan><tspan
             style="font-variant:normal;font-weight:normal;font-stretch:normal;font-size:6.66665px;font-family:'Century Gothic';writing-mode:lr-tb;fill:#000000;fill-opacity:1;fill-rule:nonzero;stroke:none;stroke-width:0.1;stroke-dasharray:none"
             x="58.528492 62.222935"
             y="230.27551"
             sodipodi:role="line"
             id="tspan74">13</tspan><tspan
             style="font-variant:normal;font-weight:normal;font-stretch:normal;font-size:6.66665px;font-family:'Century Gothic';writing-mode:lr-tb;fill:#000000;fill-opacity:1;fill-rule:nonzero;stroke:none;stroke-width:0.1;stroke-dasharray:none"
             x="125.73502"
             y="6.5492926"
             id="tspan75">1</tspan><tspan
             style="font-variant:normal;font-weight:normal;font-stretch:normal;font-size:6.66665px;font-family:'Century Gothic';writing-mode:lr-tb;fill:#000000;fill-opacity:1;fill-rule:nonzero;stroke:none;stroke-width:0.1;stroke-dasharray:none"
             x="154.10829 157.80273"
             y="243.16214"
             sodipodi:role="line"
             id="tspan76">11</tspan></text>
        <path
           id="path77-0"
           d="m 121.4839,17.299707 2.35726,-2.642305 0.68545,0.830791 -3.04271,1.811514 m 0,0 2.5146,-2.047522 2.04611,-1.514828 1.68487,-0.962025 1.42381,-0.424391 1.25871,0.06138 1.18216,0.458611 1.18992,0.732367 1.27529,0.844902 1.43263,0.761295 1.21779,0.377119 1.36913,0.0882 1.54517,-0.324203 1.74307,-0.870656 m -20.27343,18.308461 2.55658,-2.450395 0.61842,0.881592 -3.175,1.568803 m 0,0 2.31246,-1.609725 1.97379,-1.303514 1.68486,-0.977195 1.44675,-0.644172 1.64182,-0.35313 1.41852,0.176036 1.30599,0.613128 1.3021,0.916869 1.40335,1.045986 1.60831,0.957792 1.10526,0.427213 1.23613,0.240948 1.38783,-0.01411 1.56069,-0.341842 1.75295,-0.7493 m -25.44092,11.031361 3.04059,-1.815395 0.40499,0.997656 -3.44558,0.817739 m 0,0 2.63207,-1.049162 2.10256,-0.727074 1.6577,-0.357364 1.44427,0.05856 1.12995,0.524227 0.95885,0.918987 0.9398,1.194152 1.08056,1.301045 1.39029,1.19133 1.18569,0.604308 1.45591,0.347839 1.78224,-0.0092 m -15.45978,36.757326 2.32339,-2.672292 0.69568,0.821973 -3.01907,1.850319 m 0,0 2.00236,-1.673578 1.6309,-1.240013 1.34443,-0.789517 1.26859,-0.365831 1.11125,0.128411 1.05022,0.517878 1.07527,0.756356 1.17863,0.798689 1.35078,0.599722 1.02588,0.149225 1.14476,-0.162278 1.27671,-0.578908 m 21.98581,18.445338 0.58632,-3.492147 1.0227,0.337608 -1.60902,3.154539 m -3.5e-4,0 0.87171,-2.583039 0.77541,-1.992489 0.76059,-1.429103 0.67451,-0.802569 0.72849,-0.474133 0.7941,-0.195086 0.85866,0.02505 1.22273,0.254705 1.25447,0.330906 1.18851,0.185208 0.98849,-0.214489 0.36759,-0.345016 0.25047,-0.554214 M 63.843542,153.9704 l -2.995083,-1.88913 0.706261,-0.81315 2.288822,2.70228 m 0,0 -2.043995,-1.75331 -1.719791,-1.34761 -1.484842,-0.93169 -1.332441,-0.5401 -1.258359,-0.20849 -1.256594,0.0293 -1.030111,0.10619 -1.101372,0.0956 -1.20015,-0.006 -1.325386,-0.21308 -1.475317,-0.53798 -1.646414,-0.99378 m 97.22026,51.52425 1.63054,-3.1436 0.8696,0.63535 -2.50014,2.50825 m 0,0 1.55787,-2.10361 1.29716,-1.5935 1.12183,-1.08797 1.01918,-0.61454 0.97578,-0.19931 0.97861,0.13017 1.54234,0.55951 1.67675,0.54857 0.8883,0.0787 0.91299,-0.17074 0.92604,-0.51964 0.92357,-0.9779 m -13.82042,21.10493 2.09938,-2.85221 0.75988,0.76306 -2.85926,2.08915 m 0,0 2.01965,-1.9872 1.65488,-1.48519 1.38501,-0.97402 1.19874,-0.48401 1.08937,-0.0455 1.0474,0.30974 1.61819,0.87453 1.8161,0.89959 1.02094,0.25611 1.1109,-3.5e-4 1.20932,-0.36477 1.31269,-0.84702 m -91.878501,-21.60552 -2.448983,2.55764 -0.655461,-0.85443 3.104444,-1.70321 m 0,0 -1.549752,1.17827 -1.299281,0.92675 -1.090789,0.66322 -1.072091,0.44733 -0.897114,0.11394 -0.972256,-0.24729 -0.871361,-0.51682 -0.667808,-0.43568 -0.689681,-0.29845 -0.554213,-0.0265 -0.591961,0.24236 -0.637823,0.60783 -0.68968,1.07915 m 11.372849,18.04105 -3.240616,1.42734 -0.279047,-1.04034 3.519663,-0.387 m 0,0 -2.618316,0.67487 -1.940278,0.3489 -1.124655,0.0127 -0.84067,-0.20955 -0.765175,-0.52564 -0.560916,-0.67769 -0.400403,-0.49989 -0.454731,-0.32314 -0.433211,-0.0261 -0.553155,0.2533 -0.71367,0.62547 -0.916516,1.09891 m 30.927673,23.82555 -1.700742,3.10621 -0.855133,-0.65476 2.555875,-2.45145 m 0,0 -1.525058,1.97344 -1.299281,1.57868 -1.130652,1.18568 -1.182512,0.91723 -1.084086,0.45578 -1.177925,0.0773 -1.170163,-0.21061 -1.190625,-0.2547 -1.214261,-10e-4 -0.8128,0.31221 -0.801159,0.69885 -0.771877,1.21461 -0.72002,1.87008 M 139.689,184.8654 l 1.52999,-3.1937 0.889,0.60748 -2.41899,2.58622 m 0,0 1.00153,-1.44639 0.83679,-1.09749 0.72778,-0.75142 0.56304,-0.37959 0.53939,-0.16827 1.06857,0.16933 1.10137,0.54963 1.1176,0.45684 0.70732,-0.0413 0.62053,-0.56233 m -8.28392,46.4319 2.02071,-2.90794 0.78069,0.74189 -2.8014,2.16605 m 0,0 1.5568,-1.61713 1.27706,-1.21179 1.06821,-0.79975 0.91863,-0.40428 0.8188,-0.0494 0.75742,0.2413 0.91051,0.58067 0.89183,0.67346 0.69426,0.40922 0.68016,0.12523 0.496,-0.20814 0.46708,-0.56867 m -72.431974,-2.3368 -2.645481,2.35408 -0.585258,-0.90417 3.230739,-1.44991 m 0,0 -2.289528,1.44991 -1.744133,0.9331 -1.073503,0.36583 -0.877006,0.0765 -0.919691,-0.21837 -0.798336,-0.38346 -0.605367,-0.23848 -0.633589,-0.002 -0.588786,0.33126 -0.660047,0.78282 -0.581025,1.03117 -0.646642,1.48554 M 110.04367,3.0721799 l 2.79082,-2.18016652 0.526,0.93979992 -3.31682,1.2403666 m 0,0 2.16888,-1.1966221 1.74413,-0.8590139 1.39665,-0.49036105 1.25271,-0.10442222 1.02235,0.33549165 0.90382,0.69991112 0.89782,0.9457971 1.00541,1.0304639 1.22626,0.9105194 0.99695,0.4205111 1.18039,0.1749777 1.39771,-0.1633361 m 13.70224,245.6162235 1.44357,-3.23356 0.90523,0.58314 -2.3488,2.65042 m 0,0 1.73143,-2.64936 1.45133,-2.01366 1.27212,-1.38535 1.31586,-0.85478 1.27564,-0.20356 1.2887,0.30621 1.32468,0.62724 1.35149,0.71367 1.33774,0.51929 0.64276,0.0861 0.60995,-0.0885 0.56374,-0.3115 0.50094,-0.58561"
           style="fill:none;stroke:#000000;stroke-width:0.1;stroke-linecap:butt;stroke-linejoin:miter;stroke-miterlimit:10;stroke-dasharray:none;stroke-opacity:1" />
        <path
           id="path82-0"
           d="m 121.4839,17.299707 2.35726,-2.642305 0.68545,0.830791 m -3.43288,17.300222 2.55658,-2.450395 0.61842,0.881592 m -5.47511,10.985147 3.04059,-1.815395 0.40499,0.997656 m -1.14547,41.572742 2.32339,-2.672292 0.69568,0.821973 m 34.42652,18.435813 0.58632,-3.492147 1.0227,0.337608 m -96.304798,57.579683 -2.995083,-1.88913 0.706261,-0.81315 m 82.63431,47.92521 1.63054,-3.1436 0.8696,0.63535 m -2.50014,17.66288 2.09938,-2.85221 0.75988,0.76306 m -78.254571,-23.36447 -2.448983,2.55764 -0.655461,-0.85443 m 2.893483,20.07199 -3.240616,1.42734 -0.279047,-1.04034 m 23.12564,24.19068 -1.700742,3.10621 -0.855133,-0.65476 m 54.05614,-52.83411 1.52999,-3.1937 0.889,0.60748 m -2.41899,45.74716 2.02071,-2.90794 0.78069,0.74189 m -64.696614,-3.00002 -2.645481,2.35408 -0.585258,-0.90417 M 110.04367,3.0721799 l 2.79082,-2.18016652 0.526,0.93979992 m 25.5785,248.5605067 1.44357,-3.23356 0.90523,0.58314"
           style="fill:#000000;fill-opacity:1;fill-rule:nonzero;stroke:none;stroke-width:0.1;stroke-dasharray:none" />
      </g>
    </g>
  </g>
</svg>
