<?xml version="1.0" encoding="UTF-8" standalone="no"?>
<!-- Created with Inkscape (http://www.inkscape.org/) -->

<svg
   width="87.43895mm"
   height="89.178864mm"
   viewBox="0 0 87.43895 89.178864"
   version="1.1"
   id="svg1"
   xml:space="preserve"
   inkscape:version="1.3 (0e150ed6c4, 2023-07-21)"
   sodipodi:docname="sample drive dimetric.svg"
   xmlns:inkscape="http://www.inkscape.org/namespaces/inkscape"
   xmlns:sodipodi="http://sodipodi.sourceforge.net/DTD/sodipodi-0.dtd"
   xmlns="http://www.w3.org/2000/svg"
   xmlns:svg="http://www.w3.org/2000/svg"><sodipodi:namedview
     id="namedview1"
     pagecolor="#ffffff"
     bordercolor="#000000"
     borderopacity="0.25"
     inkscape:showpageshadow="2"
     inkscape:pageopacity="0.0"
     inkscape:pagecheckerboard="0"
     inkscape:deskcolor="#d1d1d1"
     inkscape:document-units="mm"
     inkscape:zoom="0.71622834"
     inkscape:cx="339.27728"
     inkscape:cy="321.82474"
     inkscape:window-width="2560"
     inkscape:window-height="1351"
     inkscape:window-x="2551"
     inkscape:window-y="-9"
     inkscape:window-maximized="1"
     inkscape:current-layer="g1"><inkscape:page
       x="-1.9436027e-05"
       y="5.8425821e-06"
       width="87.43895"
       height="89.178864"
       id="page2"
       margin="0"
       bleed="0" /></sodipodi:namedview><defs
     id="defs1" /><g
     inkscape:label="Layer 1"
     inkscape:groupmode="layer"
     id="layer1"
     transform="translate(-272.27854,-94.013547)" /><g
     id="g1"
     inkscape:groupmode="layer"
     inkscape:label="1"
     transform="matrix(0.26458333,0,0,0.26458335,-52.27853,-94.013547)"><path
       id="path1"
       d="m 0,0 -0.057,0.01 -2.156,0.131 -2.159,-0.105 -2.096,-0.341 -1.971,-0.568 -1.696,-0.741 -0.42,-0.231 m 0,0 -0.824,-0.527 -1.328,-1.143 -0.976,-1.319 -0.521,-1.271 -0.116,-0.962 m -0.058,-0.345 v -0.469 m 97.3,195.047 -0.201,0.116 m -29.679,-0.002 -0.2,-0.116 m 36.302,-26.262 -0.002,17.592 m -42.519,-0.003 0.001,-17.593 m 6.221,-8.672 0.201,-0.116 m 29.678,0.002 0.201,0.116 m -11.799,-22.012 -0.002,18.491 m -6.483,0 0.002,-18.491 m 11.495,0.974 -0.002,18.348 m -16.506,0 10e-4,-18.349 m 20.753,1.82 -0.002,17.936 m -24.997,0 0.001,-17.936 m -8.76,6.592 v -2.315 m 42.52,0.004 v 2.315 m -36.299,-10.991 0.201,-0.115 m 29.678,0.002 0.201,0.116 m 0.521,6.879 -0.002,17.044 m -31.125,-0.001 0.002,-17.043 m 32.707,2.912 -0.001,15.237 m -34.289,-0.003 0.002,-15.234 m 34.289,2.853 -0.002,12.384 m -9.727,-57.918 0.019,0.092 -0.178,1.107 -0.534,1.008 -0.866,0.902 -1.187,0.772 -1.455,0.594 -1.634,0.378 -1.726,0.147 -1.736,-0.089 -1.664,-0.322 -1.513,-0.546 -0.637,-0.329 m 0,0 -0.65,-0.425 -0.998,-0.952 -0.576,-0.984 -0.236,-1.154 0.022,-0.138 m -0.022,0.081 v -6.25 m 15.591,0.002 -0.001,6.25 m 62.477,35.514 0.019,0.092 -0.178,1.107 -0.534,1.008 -0.866,0.902 -1.187,0.773 -1.455,0.593 -1.634,0.378 -1.726,0.147 -1.736,-0.089 -1.664,-0.322 -1.513,-0.546 -0.637,-0.329 m 0,0 -0.651,-0.425 -0.997,-0.951 -0.576,-0.984 -0.236,-1.155 0.022,-0.138 m -0.022,0.082 v -6.251 m 15.591,0.002 -0.001,6.25 m -124.289,0.265 0.018,0.092 -0.178,1.107 -0.534,1.008 -0.865,0.902 -1.187,0.773 -1.456,0.594 -1.633,0.377 -1.727,0.147 -1.736,-0.089 -1.663,-0.322 -1.514,-0.546 -0.637,-0.329 m 0,0 -0.65,-0.425 -0.997,-0.951 -0.577,-0.984 -0.235,-1.155 0.022,-0.138 m -0.023,0.082 10e-4,-6.25 m 15.59,0.001 v 6.25 m -17.716,-6.252 v -1.157 m 19.842,0.002 v 1.157 m 104.428,-0.411 v -1.157 m 19.843,0.002 v 1.157 M 57.605,89.619 v -1.157 m 19.843,10e-4 v 1.158 m 88.888,-96.319 0.042,-0.034 1.293,-0.551 1.403,-0.191 1.491,0.155 1.565,0.503 1.596,0.851 1.566,1.171 1.472,1.443 1.335,1.662 1.157,1.829 0.945,1.939 0.704,1.99 0.436,1.984 0.147,1.924 -0.163,1.809 -0.489,1.631 -0.713,1.24 -1.048,1.057 -0.381,0.21 m -0.109,0.116 -8.967,5.236 m -12.149,-20.808 8.968,-5.235 m -4.207,24.612 -5.709,3.334 m -7.146,-12.24 5.709,-3.334 m -82.188,174.853 -1.003,0.579 m -8.021,-0.001 -1.003,-0.579 m 12.105,-61.113 v 6.318 m -14.173,-0.001 v -6.316 m 38.218,3.935 -0.004,0.994 -0.398,2.082 -0.776,2.029 -1.147,1.962 -1.51,1.876 -1.859,1.765 -2.186,1.629 -2.2,1.304 m -42.677,-0.306 -1.3,-0.787 -2.243,-1.621 -1.929,-1.776 -1.583,-1.907 -1.209,-2.012 -0.817,-2.081 -0.416,-2.113 -0.015,-1.749 m 62.319,-4.491 v 5.093 m -62.363,-0.006 10e-4,-5.093 m 41.512,5.168 -0.107,-0.854 -0.417,-0.858 -0.714,-0.842 -1.099,-0.857 -1.396,-0.747 -1.647,-0.601 -1.841,-0.425 -1.966,-0.226 -2.014,-0.015 -1.982,0.199 -1.87,0.401 -1.681,0.582 -1.426,0.727 -1.12,0.827 -0.787,0.871 -0.457,0.866 -0.152,0.855 m -61.665,3.099 -0.018,-0.01 M 191.684,9.752 191.682,35.311 M -55.891,35.357 -55.889,9.73 m 204.695,-10.532 5.836,3.372 m 10.014,17.152 0.164,16.212 M 10.958,36.358 10.732,33.824 10.079,28.99 9.131,24.109 7.861,19.075 6.239,13.831 4.509,9.145 2.669,4.944 0.707,1.156 -1.372,-2.245 -3.25,-4.861 l -1.787,-2.075 -1.762,-1.647 -1.497,-1.089 -1.306,-0.679 -1.093,-0.327 -0.925,-0.029 -0.824,0.274 -0.616,0.475 -0.682,0.86 -0.622,1.177 -0.556,1.541 -0.446,1.908 -0.299,2.26 -0.135,2.642 m 205.679,41.243 -0.262,0.582 -0.456,1.038 -0.325,0.759 -0.211,0.504 -0.16,0.389 -0.033,0.081 m -202.81,-52.438 0.003,0.166 0.007,0.116 m 10.335,4.544 2.175,-0.336 m -2.175,0.336 -4.653,-2.685 m 1.703,-3.668 -1.703,3.668 m 4.653,-0.499 v 3.184 m 57.085,189.871 -2.002,-1.338 -1.643,-1.492 -1.25,-1.613 -0.828,-1.702 -0.391,-1.753 0.055,-1.767 0.501,-1.744 0.936,-1.683 1.35,-1.586 1.735,-1.456 2.085,-1.295 2.389,-1.106 2.643,-0.893 2.839,-0.661 2.977,-0.416 3.049,-0.161 3.058,0.097 3.001,0.352 2.88,0.602 2.697,0.836 2.458,1.055 2.166,1.25 1.827,1.418 1.45,1.557 1.042,1.662 0.612,1.732 0.168,1.765 -0.279,1.76 -0.72,1.718 -1.146,1.639 -1.547,1.525 -1.916,1.379 -2.242,1.204 -2.523,1.002 -2.748,0.779 -2.916,0.54 -3.021,0.289 -3.062,0.033 -3.037,-0.226 -2.949,-0.478 -2.796,-0.721 -2.585,-0.948 -2.317,-1.155 m 29.87,-0.119 1.981,-1.32 1.64,-1.473 1.26,-1.592 0.854,-1.68 0.431,-1.733 v -1.751 l -0.432,-1.733 -0.855,-1.68 -1.26,-1.592 -1.64,-1.473 -1.987,-1.323 -2.293,-1.147 -2.552,-0.946 -2.759,-0.728 -2.91,-0.493 -3.003,-0.249 h -3.033 l -3.003,0.249 -2.91,0.493 -2.759,0.728 -2.552,0.946 -2.292,1.147 -1.986,1.323 -1.64,1.473 -1.26,1.592 -0.854,1.68 -0.431,1.733 v 1.751 l 0.432,1.733 0.855,1.68 1.26,1.592 1.641,1.473 1.986,1.323 v 0 m -6.227,-26.271 0.054,-0.874 0.432,-1.733 0.854,-1.679 1.26,-1.593 1.639,-1.473 1.987,-1.323 2.292,-1.146 2.552,-0.947 2.759,-0.727 2.91,-0.494 3.002,-0.249 h 3.034 l 3.002,0.249 2.911,0.494 2.759,0.727 2.552,0.947 2.293,1.146 1.986,1.323 1.64,1.473 1.261,1.593 0.855,1.679 0.432,1.733 0.054,0.878 m -26.472,20.83 1.46,0.653 1.695,0.424 1.825,0.167 1.839,-0.101 1.738,-0.361 1.528,-0.599 1.222,-0.8 0.838,-0.95 0.403,-1.041 -0.058,-1.066 -0.516,-1.024 -0.94,-0.917 -1.307,-0.754 -1.59,-0.543 -1.774,-0.298 -1.847,-0.033 -1.803,0.233 -1.646,0.484 -1.385,0.705 -1.039,0.882 -0.625,1.003 -0.174,1.061 0.289,1.054 0.734,0.978 1.133,0.843 m 20.052,-29.62 -1.131,-0.607 -2.458,-1.054 -2.698,-0.837 -2.879,-0.601 -3.001,-0.353 -3.058,-0.097 -3.05,0.161 -2.976,0.416 -2.84,0.662 -2.642,0.893 -2.389,1.105 -0.556,0.31 m 9.826,29.275 -1.089,-0.811 -0.705,-0.94 -0.278,-1.013 0.167,-1.021 0.601,-0.965 0.998,-0.847 0.304,-0.187 m 10.026,0.001 0.586,0.384 0.904,0.882 0.496,0.985 0.056,1.024 -0.387,1.001 -0.807,0.913 -1.174,0.77 -1.469,0.576 -1.672,0.347 -1.768,0.097 -1.755,-0.161 -1.63,-0.407 -1.404,-0.628 m 7.899,-51.411 -0.044,-0.004 -0.044,-0.004 -0.044,-0.004 -0.044,-0.004 -0.045,-0.004 -0.044,-0.004 -0.044,-0.004 -0.044,-0.004 m -5.067,0 -0.044,0.004 -0.045,0.004 -0.044,0.004 -0.044,0.004 -0.044,0.004 -0.044,0.004 -0.045,0.004 -0.044,0.004 m 5.421,-0.032 -0.084,-0.002 -0.082,0.007 -0.079,0.016 -0.071,0.025 -0.062,0.032 -0.049,0.039 -0.036,0.043 -0.02,0.047 m -4.101,0 -0.02,-0.047 -0.036,-0.043 -0.05,-0.039 -0.061,-0.032 -0.072,-0.025 -0.078,-0.016 -0.083,-0.007 -0.083,0.002 m 5.775,0.274 v -0.007 l -0.011,-0.047 -0.026,-0.046 -0.042,-0.042 -0.055,-0.036 -0.066,-0.029 -0.074,-0.022 -0.081,-0.013 m -5.774,0 -0.08,0.013 -0.075,0.022 -0.066,0.029 -0.054,0.036 -0.042,0.042 -0.026,0.046 -0.011,0.047 v 0.007 m 5.292,-0.067 -0.049,0.15 -0.071,0.146 -0.09,0.143 -0.111,0.138 -0.13,0.133 -0.149,0.126 -0.165,0.118 -0.182,0.11 m -2.207,0 -0.182,-0.11 -0.165,-0.118 -0.149,-0.126 -0.13,-0.133 -0.111,-0.138 -0.091,-0.143 -0.07,-0.146 -0.049,-0.15 m 5.617,1.29 -0.114,-0.138 -0.094,-0.142 -0.074,-0.146 -0.043,-0.117 m -6.483,0.001 -0.043,0.116 -0.074,0.146 -0.094,0.142 -0.114,0.138 m 4.67,-0.226 -0.239,0.11 -0.27,0.081 -0.291,0.05 -0.303,0.017 -0.303,-0.017 -0.292,-0.05 -0.27,-0.081 -0.239,-0.11 m 8.809,-0.335 -0.078,-0.017 -0.082,-0.008 -0.083,0.002 -0.081,0.01 -0.076,0.02 -0.068,0.028 -0.057,0.035 -0.045,0.041 m -14.271,0 -0.045,-0.041 -0.057,-0.035 -0.068,-0.028 -0.076,-0.02 -0.081,-0.01 -0.083,-0.002 -0.082,0.008 -0.078,0.017 m 15.73,0.094 -0.039,-0.012 -0.04,-0.012 -0.04,-0.012 -0.04,-0.011 -0.04,-0.012 -0.04,-0.012 -0.04,-0.011 -0.04,-0.012 m -15.411,0 -0.04,0.012 -0.04,0.011 -0.04,0.012 -0.04,0.012 -0.04,0.011 -0.04,0.012 -0.04,0.012 -0.039,0.012 m 16.278,0.218 -0.003,-0.027 -0.017,-0.047 -0.032,-0.044 -0.047,-0.04 -0.06,-0.034 -0.07,-0.026 m -16.049,0 -0.07,0.026 -0.06,0.034 -0.047,0.04 -0.032,0.044 -0.017,0.047 -0.003,0.026 m 15.389,-0.2 -0.127,0.133 -0.145,0.127 -0.163,0.12 -0.179,0.112 -0.195,0.102 -0.208,0.094 -0.221,0.083 -0.232,0.072 m -11.33,0 -0.232,-0.072 -0.222,-0.083 -0.208,-0.094 -0.195,-0.102 -0.179,-0.112 -0.163,-0.12 -0.145,-0.127 -0.127,-0.133 m 12.801,0.843 -0.286,0.062 -0.3,0.029 -0.304,-0.005 -0.297,-0.038 -0.28,-0.07 -0.25,-0.1 -0.214,-0.125 -0.168,-0.146 m -7.133,0 -0.168,0.146 -0.213,0.125 -0.251,0.1 -0.279,0.07 -0.298,0.038 -0.304,0.005 -0.3,-0.029 -0.285,-0.062 m 15.337,1.402 -0.304,0.008 -0.301,-0.026 -0.287,-0.059 -0.262,-0.089 -0.228,-0.116 -0.037,-0.024 m -16.507,0.001 -0.036,0.023 -0.228,0.116 -0.262,0.089 -0.287,0.059 -0.301,0.026 -0.304,-0.008 m 21.195,-0.54 -0.193,0.105 -0.206,0.095 -0.219,0.084 -0.23,0.075 -0.24,0.063 -0.249,0.051 -0.254,0.04 -0.26,0.027 m -19.344,0 -0.26,-0.027 -0.255,-0.04 -0.248,-0.051 -0.24,-0.063 -0.23,-0.075 -0.219,-0.084 -0.207,-0.095 -0.192,-0.105 m 23.647,-0.003 -0.065,-0.03 -0.074,-0.023 -0.08,-0.013 -0.083,-0.004 -0.083,0.005 -0.08,0.014 -0.073,0.024 -0.063,0.03 m -23.046,0 -0.064,-0.03 -0.073,-0.024 -0.079,-0.014 -0.083,-0.005 -0.083,0.004 -0.08,0.013 -0.074,0.023 -0.065,0.03 m 24.501,0.146 -0.031,-0.018 -0.032,-0.019 -0.031,-0.018 -0.032,-0.018 -0.032,-0.019 -0.031,-0.018 -0.032,-0.018 -0.032,-0.018 m -24.248,0 -0.032,0.018 -0.032,0.018 -0.032,0.018 -0.031,0.019 -0.032,0.018 -0.032,0.018 -0.031,0.019 -0.031,0.018 m 24.876,0.172 -0.008,-0.046 -0.023,-0.046 -0.039,-0.042 -0.052,-0.038 m -24.754,0 -0.053,0.038 -0.038,0.042 -0.024,0.046 -0.007,0.046 m -4.644,13.8 -1.332,-1.243 -1.249,-1.614 -0.829,-1.701 -0.391,-1.753 0.056,-1.767 0.501,-1.744 0.935,-1.683 1.35,-1.587 1.736,-1.456 2.085,-1.294 2.389,-1.106 2.642,-0.893 2.84,-0.661 2.976,-0.416 3.05,-0.161 3.058,0.097 3,0.352 2.88,0.601 2.698,0.837 2.458,1.055 2.165,1.25 1.828,1.418 1.45,1.557 1.041,1.662 0.612,1.732 0.168,1.765 -0.279,1.76 -0.72,1.718 -1.146,1.639 -1.547,1.525 -0.137,0.114 m 0,0.049 1.516,-1.377 1.26,-1.593 0.855,-1.68 0.431,-1.732 v -1.751 l -0.432,-1.733 -0.855,-1.68 -1.261,-1.592 -1.64,-1.473 -1.986,-1.323 -2.293,-1.147 -2.552,-0.946 -2.759,-0.728 -2.911,-0.493 -3.002,-0.249 h -3.034 l -3.002,0.249 -2.911,0.493 -2.759,0.728 -2.551,0.946 -2.292,1.147 -1.987,1.323 -1.639,1.473 -1.26,1.592 -0.854,1.68 -0.432,1.733 10e-4,1.751 0.432,1.732 0.854,1.68 1.261,1.593 1.514,1.374 m -4.116,-9.572 0.054,-0.873 0.432,-1.733 0.854,-1.68 1.26,-1.592 1.64,-1.473 1.986,-1.323 2.292,-1.147 2.552,-0.946 2.759,-0.728 2.91,-0.493 3.002,-0.249 h 3.034 l 3.002,0.249 2.911,0.493 2.759,0.728 2.552,0.946 2.293,1.147 1.986,1.323 1.641,1.473 1.26,1.592 0.855,1.68 0.432,1.733 0.054,0.877 m -8.528,-2.008 -0.235,-0.034 m 2.284,-0.149 -0.239,0.065 -0.247,0.053 -0.253,0.042 -0.259,0.029 -0.262,0.018 -0.264,0.004 -0.263,-0.008 -0.262,-0.02 m 2.623,-0.079 -0.046,-0.04 -0.058,-0.035 -0.069,-0.027 -0.077,-0.019 -0.082,-0.009 -0.083,-0.001 -0.082,0.009 -0.077,0.018 m 0.736,0.288 -0.02,-0.023 -0.02,-0.023 -0.02,-0.023 -0.02,-0.023 -0.021,-0.023 -0.02,-0.023 -0.021,-0.023 -0.02,-0.023 m 0.207,0.293 -10e-4,-0.017 -0.014,-0.047 -0.03,-0.045 m 1.076,2.58 -0.261,0.019 -0.264,0.007 -0.263,-0.006 -0.244,-0.016 m 1.522,0.197 -0.021,-0.046 -0.038,-0.043 -0.051,-0.038 -0.062,-0.032 -0.073,-0.024 -0.079,-0.015 -0.083,-0.006 -0.083,0.003 m 0.546,0.405 -0.006,-0.025 -0.007,-0.026 -0.007,-0.025 -0.007,-0.026 -0.007,-0.025 -0.007,-0.026 -0.007,-0.025 -0.008,-0.026 m 0.061,0.24 -0.005,-0.036 m 0.006,2.889 -0.001,-0.012 v -0.003 m -34.284,-2.874 -0.004,0.036 m 0.06,-0.24 -0.007,0.026 -0.008,0.025 -0.007,0.026 -0.007,0.025 -0.007,0.026 -0.007,0.025 -0.006,0.026 -0.007,0.025 m 0.546,-0.405 -0.083,-0.003 -0.083,0.006 -0.079,0.015 -0.072,0.024 -0.063,0.032 -0.051,0.038 -0.037,0.043 -0.022,0.046 m 1.521,-0.197 -0.242,0.016 -0.264,0.006 -0.263,-0.007 -0.262,-0.019 m 1.075,-2.58 -0.029,0.045 -0.014,0.047 -10e-4,0.017 m 0.207,-0.293 -0.021,0.023 -0.02,0.023 -0.021,0.023 -0.02,0.023 -0.021,0.023 -0.02,0.023 -0.02,0.023 -0.02,0.023 m 0.737,-0.288 -0.078,-0.018 -0.082,-0.009 -0.083,0.001 -0.082,0.009 -0.076,0.019 -0.069,0.027 -0.058,0.035 -0.046,0.04 m 2.622,0.079 -0.261,0.02 -0.263,0.008 -0.264,-0.004 -0.262,-0.018 -0.259,-0.029 -0.254,-0.042 -0.247,-0.053 -0.238,-0.065 m 2.282,0.149 -0.234,0.034 m 27.574,-6.781 -1.131,-0.607 -2.458,-1.055 -2.697,-0.836 -2.88,-0.602 -3.001,-0.352 -3.058,-0.097 -3.05,0.161 -2.976,0.416 -2.84,0.661 -2.642,0.893 -2.389,1.106 -0.556,0.31 m 9.568,-29.1 -1.067,-0.794 -0.692,-0.922 -0.272,-0.993 0.163,-1 0.59,-0.945 0.978,-0.831 1.306,-0.665 1.551,-0.456 1.699,-0.219 1.74,0.031 1.672,0.281 1.498,0.511 1.231,0.711 0.886,0.865 0.486,0.964 0.055,1.005 -0.379,0.98 -0.791,0.895 -1.151,0.754 -1.439,0.565 -1.638,0.34 -1.733,0.095 -1.72,-0.157 -1.598,-0.399 -1.375,-0.616 m 12.705,-3.528 -0.002,-0.119 m -15.588,-6.133 0.128,-0.81 0.559,-1.036 0.972,-0.928 1.329,-0.767 1.608,-0.561 1.794,-0.323 1.875,-0.065 1.849,0.195 1.714,0.446 1.479,0.668 1.159,0.854 0.772,0.989 0.339,1.067 0.014,0.273 m -10.713,5.26 3.984,-0.616 m 0,0 2.917,1.683 m -1.067,2.3 1.067,-2.3 m -5.051,2.916 3.984,-0.616 m -3.984,0.616 -2.917,-1.684 m 1.067,-2.299 -1.067,2.299 m 4.909,-1.634 -0.458,0.053 -0.466,0.018 L 67.06,95.599 66.602,95.546 66.16,95.46 65.741,95.34 65.352,95.191 65.001,95.013 m 4.968,0.046 -0.268,0.132 -0.389,0.149 -0.419,0.12 -0.442,0.086 m -3.45,-0.533 -0.242,-0.155 m 5.684,0.475 v 2.915 m -3.984,-2.394 v 3.01 m 0,-3.01 -1.458,-0.841 m 0,0 -0.263,-0.152 m 3.713,0.685 1.863,-0.288 m -3.855,0.596 1.992,-0.308 m 56.661,39.511 -1.067,-0.794 -0.692,-0.922 -0.272,-0.992 0.163,-1.001 0.59,-0.945 0.978,-0.831 1.306,-0.665 1.551,-0.456 1.699,-0.219 1.74,0.032 1.671,0.28 1.499,0.511 1.231,0.711 0.886,0.865 0.486,0.965 0.055,1.004 -0.379,0.981 -0.791,0.895 -1.151,0.753 -1.439,0.565 -1.638,0.341 -1.733,0.094 -1.72,-0.157 -1.598,-0.399 -1.375,-0.616 m 12.705,-3.528 -0.002,-0.118 m -15.588,-6.134 0.128,-0.81 0.559,-1.035 0.972,-0.929 1.328,-0.766 1.609,-0.562 1.794,-0.322 1.875,-0.066 1.849,0.196 1.714,0.445 1.479,0.669 1.159,0.854 0.772,0.989 0.339,1.067 0.014,0.272 m -10.713,5.26 3.984,-0.616 m 0,0 2.917,1.684 m -1.067,2.299 1.067,-2.299 m -5.051,2.915 3.984,-0.616 m -3.984,0.616 -2.917,-1.683 m 1.067,-2.3 -1.067,2.3 m 4.909,-1.634 -0.458,0.052 -0.466,0.018 -0.467,-0.018 -0.458,-0.052 -0.442,-0.087 -0.419,-0.119 -0.389,-0.15 -0.351,-0.178 m 4.968,0.047 -0.268,0.131 -0.389,0.15 -0.419,0.119 -0.442,0.087 m -3.45,-0.534 -0.242,-0.155 m 5.684,0.475 v 2.915 m -3.984,-2.393 v 3.009 m 0,-3.009 -1.458,-0.842 m 0,0 -0.263,-0.151 m 3.713,0.685 1.863,-0.288 m -3.855,0.596 1.992,-0.308 m -130.106,4.261 -1.067,-0.794 -0.691,-0.922 -0.273,-0.992 0.164,-1.001 0.589,-0.945 0.979,-0.831 1.305,-0.665 1.551,-0.456 1.699,-0.219 1.74,0.032 1.672,0.28 1.498,0.511 1.232,0.711 0.886,0.865 0.486,0.965 0.055,1.004 -0.38,0.981 -0.79,0.895 -1.151,0.753 -1.44,0.565 -1.638,0.341 -1.733,0.094 -1.719,-0.157 -1.598,-0.399 -1.376,-0.616 m 12.706,-3.528 -0.003,-0.118 m -15.587,-6.133 0.127,-0.811 0.559,-1.035 0.972,-0.929 1.329,-0.766 1.608,-0.562 1.794,-0.322 1.876,-0.066 1.848,0.196 1.714,0.445 1.48,0.669 1.159,0.854 0.771,0.989 0.339,1.067 0.014,0.272 m -10.712,5.261 3.983,-0.617 m 0,0 2.917,1.684 m -1.067,2.299 1.067,-2.299 m -5.051,2.915 3.984,-0.616 m -3.984,0.616 -2.916,-1.683 m 1.067,-2.299 -1.067,2.299 m 4.908,-1.634 -0.458,0.052 -0.466,0.018 -0.466,-0.018 -0.458,-0.052 -0.443,-0.087 -0.419,-0.119 -0.388,-0.15 -0.352,-0.178 m 4.968,0.047 -0.268,0.131 -0.388,0.15 -0.419,0.119 -0.443,0.087 m -3.45,-0.534 -0.242,-0.155 m 5.684,0.475 v 2.915 m -3.983,-2.393 -10e-4,3.009 m 10e-4,-3.009 -1.459,-0.842 m 0,0 -0.262,-0.151 m 3.712,0.685 1.863,-0.288 m -3.854,0.596 1.991,-0.308 m -8.72,-2.385 -0.524,-0.423 -0.942,-1.067 -0.537,-1.156 -0.109,-1.195 0.325,-1.183 0.743,-1.117 1.129,-1.004 1.467,-0.847 1.739,-0.652 1.936,-0.429 2.049,-0.187 2.071,0.062 2.004,0.31 1.848,0.544 1.612,0.753 1.305,0.93 0.942,1.067 0.537,1.156 0.109,1.196 -0.324,1.182 -0.744,1.118 -1.045,0.943 m -17.716,-4.701 0.013,-0.299 0.325,-1.182 0.743,-1.118 1.129,-1.004 1.467,-0.846 1.739,-0.652 1.936,-0.429 2.049,-0.188 2.071,0.063 2.004,0.31 1.848,0.543 1.612,0.754 1.305,0.93 0.942,1.067 0.537,1.156 0.122,0.897 m 104.428,-0.411 0.014,-0.299 0.324,-1.182 0.743,-1.118 1.13,-1.004 1.466,-0.846 1.74,-0.652 1.936,-0.429 2.048,-0.188 2.072,0.063 2.003,0.31 1.848,0.543 1.612,0.754 1.306,0.93 0.942,1.067 0.537,1.156 0.122,0.897 m -17.717,4.698 -0.525,-0.423 -0.941,-1.067 -0.537,-1.156 -0.109,-1.195 0.324,-1.183 0.743,-1.117 1.13,-1.004 1.466,-0.847 1.74,-0.652 1.936,-0.429 2.048,-0.187 2.072,0.062 2.003,0.31 1.848,0.544 1.612,0.753 1.306,0.93 0.942,1.067 0.537,1.156 0.108,1.196 -0.324,1.182 -0.743,1.118 -1.045,0.943 m -78.144,-35.702 -0.467,-0.38 -0.942,-1.067 -0.537,-1.156 -0.109,-1.196 0.324,-1.182 0.743,-1.118 1.13,-1.004 1.466,-0.846 1.74,-0.652 1.936,-0.429 2.048,-0.188 2.072,0.063 2.003,0.31 1.848,0.543 1.612,0.754 1.306,0.93 0.942,1.067 0.537,1.156 0.108,1.196 -0.324,1.182 -0.743,1.118 -1.045,0.943 m -17.717,-4.701 0.014,-0.299 0.324,-1.183 0.743,-1.117 1.13,-1.004 1.466,-0.847 1.74,-0.652 1.936,-0.429 2.048,-0.187 2.072,0.063 2.003,0.31 1.848,0.543 1.612,0.753 1.306,0.931 0.942,1.066 0.537,1.157 0.122,0.896 m 97.258,-76.153 -1.527,-0.769 -1.513,-1.117 -1.439,-1.419 -1.304,-1.662 -1.116,-1.837 -0.883,-1.938 -0.613,-1.959 -0.319,-1.9 -0.011,-1.763 0.297,-1.554 0.593,-1.281 0.864,-0.955 1.101,-0.592 1.293,-0.202 1.43,0.194 1.51,0.583 1.529,0.948 1.483,1.274 1.378,1.548 1.217,1.759 1.005,1.898 0.752,1.958 0.468,1.939 0.166,1.841 -0.144,1.667 -0.447,1.425 -0.732,1.124 -0.988,0.777 -1.203,0.399 -1.369,0.005 -1.478,-0.391 m -9.803,7.051 -1.626,-0.807 -1.616,-1.157 -1.548,-1.466 -1.423,-1.721 -1.249,-1.913 -1.028,-2.038 -0.77,-2.087 -0.485,-2.062 -0.181,-1.963 0.128,-1.791 0.433,-1.556 0.722,-1.265 0.986,-0.926 0.223,-0.141 m 12.149,20.808 -0.357,0.186 -1.312,0.362 -1.47,-0.034 -1.576,-0.429 m 3.985,-18.089 1.667,-4.07 m 0,0 4.619,1.784 m 2.953,5.852 -2.953,-5.852 m 1.286,9.921 1.667,-4.069 m -1.667,4.069 -4.62,-1.783 m -2.952,-5.852 2.952,5.852 m -0.171,-2.304 0.307,0.672 0.248,0.679 0.184,0.676 0.101,0.535 m -3.415,-5.701 0.369,0.29 0.506,0.468 0.482,0.529 0.449,0.58 0.408,0.621 0.361,0.651 m 1.599,2.855 4.859,-2.837 m -9.165,-3.419 1.231,0.475 m 0,0 4.981,-2.908 m -3.505,5.834 -1.476,-2.926 m 2.878,5.705 -1.402,-2.779 m -107.818,171.603 1.286,-0.562 1.508,-0.33 1.609,-0.072 1.579,0.193 1.421,0.441 1.147,0.655 0.782,0.815 0.352,0.909 -0.106,0.929 -0.555,0.875 -0.959,0.748 -1.287,0.563 -1.508,0.33 -1.609,0.072 -1.579,-0.193 -1.42,-0.441 -1.148,-0.655 -0.782,-0.815 -0.352,-0.909 0.106,-0.929 0.555,-0.875 0.96,-0.749 m 0,0 -1.428,0.546 -1.082,0.029 m -0.499,1.031 v 0.001 l 0.417,0.99 0.829,0.9 0.781,0.537 m 10.027,0.001 0.027,-0.016 1.075,-0.808 0.695,-0.937 0.231,-0.667 m -9.18,-3.289 -0.716,0.797 -1.177,0.885 M 10.049,119.369 9.956,119.163 9.314,118.415 9.286,118.393 M 71.823,83.301 71.731,83.095 71.088,82.348 71.061,82.326 m 63.258,36.634 -0.092,-0.206 -0.643,-0.748 -0.027,-0.022 m -96.92,5.905 -0.635,-1.441 -0.571,-2.163 -0.133,-2.187 0.178,-1.571 m 44.129,-15.546 1.888,0.46 3.347,1.027 3.118,1.245 2.846,1.445 2.537,1.627 2.192,1.785 1.819,1.92 1.42,2.028 1.002,2.11 0.571,2.164 0.133,2.186 -0.309,2.181 -0.745,2.145 -0.237,0.496 m -62.466,-1.183 -0.015,0.548 m 10e-4,-5.093 0.023,-0.694 0.275,-1.786 m 40.018,-14.723 1.985,0.393 3.368,0.878 3.164,1.101 2.916,1.309 2.627,1.499 2.302,1.668 1.944,1.814 1.559,1.933 1.151,2.026 0.729,2.09 0.294,2.126 0.007,0.372 m -62.438,5.338 -0.629,-1.431 -0.571,-2.163 -0.139,-1.518 m 65.192,0.006 -0.006,0.205 -0.309,2.181 -0.745,2.145 -0.236,0.493 m -41.512,-1.29 0.002,0.008 0.572,1.204 0.993,1.109 1.371,0.966 0.187,0.104 m 14.173,0.001 0.992,-0.62 1.168,-1.051 0.763,-1.168 0.209,-0.575 M -33.281,129.864 -55.337,48.262 M 76.32,65.874 -33.281,129.864 M 78.166,-29.684 76.32,65.874 m 1.846,-95.558 -5.373,-3.486 -5.881,-2.786 -6.176,-2.104 -9.375,-2.008 -9.54,-0.919 -9.48,0.005 -12.274,1.192 -11.835,2.387 -11.16,3.427 -10.409,4.39 -9.521,5.272 -8.461,6.055 -7.502,7.003 -6.235,7.784 -4.852,8.51 -2.698,6.9 -1.892,7.415 -1.084,7.968 -0.274,5.367 0.007,5.671 0.248,5.944 0.264,3.959 M 9.315,19.563 7.273,12.731 5.008,6.747 2.312,1.038 -0.859,-4.25 l -2.75,-3.604 -3.127,-3.063 -3.131,-1.977 -1.724,-0.574 -1.766,-0.146 -2.103,0.569 -1.823,1.44 -1.347,2.04 -0.81,2.02 -0.558,2.169 -0.512,3.996 -0.058,4.071 0.796,8.276 1.666,8.063 1.657,5.881 2.751,7.802 3.31,7.399 3.906,6.797 1.88,2.672 3.751,4.154 2.171,1.648 2.371,1.055 1.983,0.163 1.953,-0.708 1.483,-1.395 1.426,-2.57 0.778,-2.44 0.499,-2.559 0.429,-5.44 -0.158,-5.456 -1.011,-8.345 -1.758,-8.125 m 106.348,-11.112 4.252,-4.567 4.916,-3.594 5.446,-2.518 5.738,-1.263 4.486,0.005 4.391,0.928 3.898,1.787 m 15.93,36.705 0.022,4.04 -0.769,7.173 -1.46,6.239 -2.169,5.653 -2.613,4.535 -3.145,3.795 -3.783,3.084 -4.215,2.143 -4.778,1.153 -5.005,-0.044 -4.763,-1.224 -4.637,-2.359 -3.906,-3.046 -3.573,-3.798 -3.2,-4.478 -2.744,-4.974 -2.453,-5.928 -1.781,-6.222 -1.06,-6.735 -0.121,-6.704 0.849,-6.186 1.784,-5.792 1.994,-4.095 2.469,-3.713 v 0 m -39.343,57.423 92.736,52.912 m 22.071,-84.018 -22.071,84.018 m 22.071,-84.018 -0.806,-7.034 -1.242,-6.609 -1.694,-6.141 -3.255,-8.077 -4.205,-7.356 -5.101,-6.667 -6.215,-6.255 -7.103,-5.597 -7.893,-4.895 -9.928,-4.71 -10.788,-3.679 -11.429,-2.495 -8.965,-1.004 -9.158,-0.112 -9.149,0.946 -8.258,1.991 -7.772,3.242 m 113.518,39.436 -0.111,-3.027 -0.53,-4.236 -0.965,-4.21 -1.396,-4.17 -1.824,-4.115 -2.244,-4.045 -2.656,-3.961 -3.059,-3.863 -3.452,-3.751 -3.832,-3.626 -4.198,-3.489 -4.55,-3.338 -4.885,-3.176 -5.204,-3.004 -5.504,-2.819 -5.784,-2.626 -6.045,-2.422 -6.283,-2.212 -6.499,-1.991 -6.693,-1.766 -6.863,-1.532 -7.009,-1.295 -7.129,-1.052 -7.226,-0.806 -7.295,-0.556 -7.339,-0.305 -7.358,-0.053 -7.351,0.199 -7.317,0.451 -7.257,0.701 -7.172,0.949 -7.062,1.194 -6.927,1.433 -6.767,1.668 -6.583,1.898 -6.376,2.12 -6.146,2.335 -5.895,2.541 -5.623,2.739 -5.331,2.928 -5.021,3.105 -4.691,3.271 -4.347,3.427 -3.986,3.57 -3.612,3.7 -3.224,3.818 -2.825,3.921 -2.417,4.012 -1.999,4.087 -1.576,4.148 -1.145,4.196 -0.711,4.227 -0.275,4.244 -0.004,0.542 m 245.735,31.929 0.783,-1.835 0.745,-2.41 0.308,-2.126 -0.079,-0.592 -0.213,-0.167 -0.263,0.239 m -46.631,-26.412 0.162,2.159 0.481,2.275 0.784,2.317 1.062,2.285 1.306,2.179 1.508,2.003 1.662,1.764 1.761,1.467 1.806,1.123 1.791,0.743 1.718,0.34 1.592,-0.075 1.413,-0.488 1.189,-0.884 0.927,-1.253 0.635,-1.58 0.323,-1.858 0.027,-1.616 M 155.041,2.81 155.03,2.803 153.224,1.866 151.463,1.323 149.801,1.19 l -1.508,0.283 -1.307,0.688 -1.062,1.073 -0.784,1.422 -0.481,1.726 -0.163,1.974 m -150.243,118.815 1.622,-0.947 m 12.389,-7.234 1.931,-1.127 m 0,0 1.251,-0.531 1.473,-0.281 1.552,-0.006 1.479,0.272 1.26,0.523 0.92,0.722 0.488,0.85 0.009,0.896 -0.471,0.853 -0.905,0.728 m -1.931,1.127 1.931,-1.127 m -19.24,10.155 -0.977,-0.03 -1.479,-0.272 -1.261,-0.522 -0.92,-0.722 -0.488,-0.85 -0.009,-0.896 0.471,-0.854 0.905,-0.727 m 147.269,-5.691 -1.931,1.127 m -17.31,9.028 -0.977,-0.03 -1.479,-0.272 -1.261,-0.522 -0.919,-0.722 -0.488,-0.85 -0.009,-0.896 0.471,-0.854 0.905,-0.727 m 15.942,-9.308 -1.931,1.127 m -12.39,7.234 -1.621,0.947 m 15.942,-9.308 1.25,-0.531 1.473,-0.281 1.552,-0.006 1.479,0.272 1.261,0.523 0.92,0.721 0.488,0.851 0.009,0.896 -0.471,0.853 -0.905,0.728 m -174.803,8.384 79.904,45.591 m 42.521,-10.012 79.912,-46.657 m -90.03,-32.964 -1.931,1.127 m -17.31,9.027 -0.977,-0.029 -1.479,-0.272 -1.261,-0.523 -0.919,-0.721 -0.488,-0.851 -0.009,-0.895 0.471,-0.854 0.905,-0.728 m 15.942,-9.307 -1.931,1.127 m -12.39,7.234 -1.621,0.946 m 15.942,-9.307 1.25,-0.531 1.473,-0.282 1.552,-0.005 1.479,0.272 1.261,0.523 0.92,0.721 0.488,0.851 0.009,0.895 -0.471,0.854 -0.905,0.728 m 20.016,47.077 -9.896,5.778 m -38.404,8.356 -2.685,-0.529 -3.445,-0.913 -3.238,-1.138 -2.987,-1.347 -2.696,-1.539 -2.369,-1.708 -2.008,-1.856 -1.623,-1.978 -1.213,-2.073 -0.788,-2.14 -0.352,-2.178 0.088,-2.188 0.528,-2.166 0.96,-2.117 1.379,-2.038 1.779,-1.932 2.157,-1.799 2.503,-1.643 m 15.942,-9.308 -15.942,9.308 m 15.942,-9.308 2.818,-1.464 3.092,-1.265 3.327,-1.049 3.514,-0.82 3.656,-0.578 3.748,-0.329 3.788,-0.076 3.779,0.178 3.717,0.43 3.605,0.676 3.445,0.914 3.238,1.138 2.987,1.347 2.696,1.538 2.369,1.709 2.008,1.855 1.622,1.978 1.214,2.073 0.788,2.14 0.352,2.179 -0.088,2.187 -0.528,2.167 -0.96,2.117 -1.379,2.038 -1.78,1.931 -2.156,1.8 -2.504,1.642 m -88.061,-96.498 0.12,4.714 M -15.762,1.078 -15.758,0.431 m 94.228,81.086 -4.467,2.608 m -16.01,7.079 -0.663,-0.159 -0.746,-0.266 m 92.449,-79.835 0.16,1.616 0.474,1.705 0.759,1.696 1.001,1.589 1.183,1.388 1.298,1.108 1.336,0.762 1.298,0.373 1.183,-0.037 1.001,-0.447 0.759,-0.83 0.293,-0.591 m -7.146,-12.239 -0.021,-0.003 -1.183,0.038 -1.001,0.447 -0.759,0.829 -0.474,1.165 -0.161,1.431 m -49.991,121.955 0.001,-4.629 m 9.166,-10.911 -0.387,1.382 -0.96,2.117 -1.379,2.038 -1.78,1.932 -2.156,1.799 -2.504,1.643 m -52.133,13.331 -2.298,-0.64 -3.238,-1.138 -2.987,-1.347 -2.696,-1.538 -2.368,-1.709 -2.009,-1.856 -1.622,-1.977 -1.213,-2.073 -0.788,-2.14 -0.125,-0.522 m 113.4,-9.486 -4.467,2.608 m -124.271,0.409 4.468,-2.608 m 103.793,9.278 -0.663,-0.159 -0.746,-0.266 m -122.862,0.834 -0.663,-0.159 -0.746,-0.266 m 104.234,1.424 -1.722,1.005 M -9.847,-1.915 l -1.359,-0.963 -0.996,-1.1 -0.592,-1.193 -0.163,-1.238 0.271,-1.232 0.696,-1.174 1.09,-1.07 0.877,-0.604 m 9.841,10.244 -1.879,0.125 -2.144,-0.095 -2.068,-0.341 -1.907,-0.575 -1.667,-0.784 m -4.435,-6.374 -0.096,0.877 m 85.149,137.386 -0.001,18.702 m -0.352,-18.734 -0.002,18.708 m -5.065,-18.708 -0.002,18.708 m -0.352,-18.676 -0.001,18.702 m 4.939,-18.527 -0.002,18.47 m -4.099,-18.47 -0.002,18.47 m 3.156,-17.406 -0.002,17.365 m -2.205,-17.365 -0.001,17.365 m 4.671,-17.139 -10e-4,17.299 m -7.132,-17.299 -0.002,17.298 m 11.274,-17.859 -0.001,18.53 m -0.569,-18.419 -10e-4,18.294 m -14.27,-18.294 -0.002,18.294 m -0.568,-18.405 -0.002,18.53 m 15.732,-18.436 -0.001,18.51 m -16.048,-18.51 -0.002,18.51 m 13.692,-17.65 -0.002,17.179 M 62.22,131.832 62.218,149.011 m 15.339,-15.777 -0.001,16.691 m -19.343,-16.691 -0.002,16.691 m 21.197,-17.231 -0.002,17.858 m -23.044,-17.858 -0.001,17.857 m 23.648,-17.86 -0.002,18.098 m -24.246,-18.098 -0.002,18.097 m 24.503,-17.951 -0.002,18.057 m -24.752,-18.057 -0.002,18.056 m 25.112,-15.611 -10e-4,15.765 m -25.465,-15.765 -10e-4,15.764 m 27.516,-15.947 -0.002,16.98 m -29.561,-16.98 -0.002,16.978 m 30.139,-16.874 -0.002,17.211 m -30.709,-17.211 -0.002,17.21 m 30.875,-17.026 -0.001,17.126 m -31.035,-17.126 -10e-4,17.125 m 32.113,-14.545 -0.001,15.263 m -33.186,-15.263 -0.001,15.261 m 33.678,-15.06 -10e-4,15.429 m -34.166,-15.429 -10e-4,15.427 m 34.224,-15.223 -0.001,15.269 m -34.278,-15.269 -0.001,15.267 m 24.574,-57.887 -0.012,-0.154 -0.339,-1.067 -0.771,-0.989 -1.159,-0.853 -1.48,-0.669 -1.714,-0.446 -1.848,-0.195 -1.876,0.065 -1.794,0.323 -1.608,0.561 -1.329,0.767 -0.972,0.928 -0.559,1.036 -0.126,0.744 m 78.083,35.608 -0.012,-0.154 -0.339,-1.067 -0.771,-0.989 -1.159,-0.854 -1.48,-0.669 -1.714,-0.445 -1.848,-0.196 -1.876,0.066 -1.794,0.322 -1.608,0.562 -1.329,0.766 -0.972,0.929 -0.559,1.035 -0.126,0.744 m -108.684,0.359 -0.011,-0.154 -0.339,-1.067 -0.772,-0.989 -1.159,-0.854 -1.479,-0.669 -1.714,-0.445 -1.849,-0.196 -1.875,0.066 -1.795,0.322 -1.608,0.562 -1.328,0.766 -0.972,0.929 -0.559,1.035 -0.127,0.744 M 173.87,14.126 l 1.576,0.428 1.471,0.034 1.311,-0.362 0.464,-0.25 m -12.34,-20.692 -0.139,0.089 -0.985,0.927 -0.723,1.264 -0.433,1.556 -0.128,1.792 0.182,1.962 0.484,2.062 0.77,2.088 1.028,2.037 1.249,1.914 1.424,1.72 1.548,1.466 1.615,1.157 1.626,0.808 M 46.685,136.38 l -2.12,-1.383 -2.059,-1.701 -1.689,-1.831 -1.294,-1.936 -0.88,-2.011 -0.454,-2.058 -0.021,-2.074 0.413,-2.061 0.839,-2.017 1.255,-1.944 1.652,-1.842 2.025,-1.714 2.367,-1.561 2.677,-1.384 2.946,-1.188 3.173,-0.975 3.353,-0.746 3.485,-0.508 3.565,-0.262 3.594,-0.012 3.57,0.238 3.495,0.485 3.368,0.725 3.192,0.954 2.97,1.168 2.704,1.367 2.399,1.545 2.059,1.7 1.689,1.832 1.294,1.935 0.88,2.011 0.454,2.058 0.021,2.075 -0.413,2.06 -0.84,2.017 -1.255,1.944 -1.651,1.843 -2.025,1.714 -2.335,1.541 m 9.98,-13.111 -0.006,-0.474 -0.295,-2.126 -0.728,-2.09 -1.152,-2.027 -1.559,-1.933 -1.943,-1.813 -2.302,-1.668 -2.628,-1.499 -2.916,-1.31 -3.164,-1.101 -3.367,-0.877 -3.524,-0.641 -3.63,-0.397 -3.685,-0.145 -3.69,0.107 -3.642,0.358 -3.543,0.604 -3.394,0.842 -3.198,1.067 -2.956,1.278 -2.674,1.472 -2.354,1.643 -2,1.793 -1.619,1.916 -1.215,2.014 -0.793,2.083 -0.361,2.122 -0.009,0.146 m 42.158,4.129 0.559,-1.134 0.213,-1.325 -0.239,-1.324 -0.683,-1.272 -1.098,-1.17 -1.474,-1.024 -1.791,-0.839 -2.04,-0.62 -2.211,-0.379 -2.296,-0.123 -2.294,0.138 -2.202,0.393 -2.028,0.634 -1.774,0.851 -1.453,1.033 -1.075,1.178 -0.656,1.276 -0.213,1.325 0.239,1.324 0.533,1.056 m 1.997,-0.625 -0.643,-0.779 -0.572,-1.204 -0.137,-1.002 m 20.691,0.136 -0.009,0.176 -0.326,1.235 -0.764,1.168 -0.251,0.271 M 79.026,85.822 V 81.796 M 11.101,41.115 11.129,42.22 10.586,48.057 9.767,51.275 8.607,53.596 7.395,54.802 6.106,55.298 5.798,55.327 4.175,55.026 2.202,53.834 0.455,52.136 -2.62,47.933 l -3.928,-7.425 -3.203,-8.152 -2.594,-8.594 -1.369,-5.664 -1.379,-7.664 -0.681,-7.881 0.012,-1.475 M 141.522,121.48 v -4.026 m -124.271,4.435 10e-4,-4.025"
       style="fill:none;stroke:#000000;stroke-width:0.283465;stroke-linecap:round;stroke-linejoin:round;stroke-miterlimit:10;stroke-dasharray:none;stroke-opacity:1"
       transform="matrix(1.3333333,0,0,-1.3333333,272.2984,609.93307)" /></g></svg>
