<?xml version="1.0" encoding="UTF-8" standalone="no"?>
<!-- Created with Inkscape (http://www.inkscape.org/) -->

<svg
   width="419.9996mm"
   height="297.00009mm"
   viewBox="0 0 419.9996 297.00009"
   version="1.1"
   id="svg1"
   xml:space="preserve"
   inkscape:version="1.3 (0e150ed6c4, 2023-07-21)"
   sodipodi:docname="sketch_stages.svg"
   xmlns:inkscape="http://www.inkscape.org/namespaces/inkscape"
   xmlns:sodipodi="http://sodipodi.sourceforge.net/DTD/sodipodi-0.dtd"
   xmlns="http://www.w3.org/2000/svg"
   xmlns:svg="http://www.w3.org/2000/svg"><sodipodi:namedview
     id="namedview1"
     pagecolor="#ffffff"
     bordercolor="#000000"
     borderopacity="0.25"
     inkscape:showpageshadow="2"
     inkscape:pageopacity="0.0"
     inkscape:pagecheckerboard="0"
     inkscape:deskcolor="#d1d1d1"
     inkscape:document-units="mm"
     inkscape:zoom="1.5349307"
     inkscape:cx="-628.04139"
     inkscape:cy="283.72617"
     inkscape:window-width="2560"
     inkscape:window-height="1351"
     inkscape:window-x="2551"
     inkscape:window-y="-9"
     inkscape:window-maximized="1"
     inkscape:current-layer="g1"><inkscape:page
       x="-238.43521"
       y="-7.2273145"
       width="160.16736"
       height="167.66678"
       id="page2"
       margin="0"
       bleed="0" /></sodipodi:namedview><defs
     id="defs1"><rect
       x="-522.49914"
       y="89.906336"
       width="171.99473"
       height="65.149519"
       id="rect23" /><rect
       x="-724.65211"
       y="652.5818"
       width="198.93379"
       height="98.726446"
       id="rect4" /><rect
       x="-729.58843"
       y="687.13606"
       width="189.06114"
       height="108.59909"
       id="rect3" /><rect
       x="-710.66722"
       y="471.91654"
       width="67.017733"
       height="79.583559"
       id="rect2" /><inkscape:path-effect
       effect="bspline"
       id="path-effect2"
       is_visible="true"
       lpeversion="1.3"
       weight="33.333333"
       steps="2"
       helper_size="0"
       apply_no_weight="true"
       apply_with_weight="true"
       only_selected="false"
       uniform="false" /><inkscape:path-effect
       effect="bspline"
       id="path-effect3"
       is_visible="true"
       lpeversion="1.3"
       weight="33.333333"
       steps="2"
       helper_size="0"
       apply_no_weight="true"
       apply_with_weight="true"
       only_selected="false"
       uniform="false" /><inkscape:path-effect
       effect="bspline"
       id="path-effect5"
       is_visible="true"
       lpeversion="1.3"
       weight="33.333333"
       steps="2"
       helper_size="0"
       apply_no_weight="true"
       apply_with_weight="true"
       only_selected="false"
       uniform="false" /><inkscape:path-effect
       effect="bspline"
       id="path-effect6"
       is_visible="true"
       lpeversion="1.3"
       weight="33.333333"
       steps="2"
       helper_size="0"
       apply_no_weight="true"
       apply_with_weight="true"
       only_selected="false"
       uniform="false" /><inkscape:path-effect
       effect="bspline"
       id="path-effect6-5"
       is_visible="true"
       lpeversion="1.3"
       weight="33.333333"
       steps="2"
       helper_size="0"
       apply_no_weight="true"
       apply_with_weight="true"
       only_selected="false"
       uniform="false" /><inkscape:path-effect
       effect="bspline"
       id="path-effect6-4"
       is_visible="true"
       lpeversion="1.3"
       weight="33.333333"
       steps="2"
       helper_size="0"
       apply_no_weight="true"
       apply_with_weight="true"
       only_selected="false"
       uniform="false" /><inkscape:path-effect
       effect="bspline"
       id="path-effect6-4-5"
       is_visible="true"
       lpeversion="1.3"
       weight="33.333333"
       steps="2"
       helper_size="0"
       apply_no_weight="true"
       apply_with_weight="true"
       only_selected="false"
       uniform="false" /><inkscape:path-effect
       effect="spiro"
       id="path-effect87"
       is_visible="true"
       lpeversion="1" /><marker
       style="overflow:visible"
       id="Triangle"
       refX="0"
       refY="0"
       orient="auto-start-reverse"
       inkscape:stockid="Triangle arrow"
       markerWidth="1"
       markerHeight="1"
       viewBox="0 0 1 1"
       inkscape:isstock="true"
       inkscape:collect="always"
       preserveAspectRatio="xMidYMid"><path
         transform="scale(0.5)"
         style="fill:context-stroke;fill-rule:evenodd;stroke:context-stroke;stroke-width:1pt"
         d="M 5.77,0 -2.88,5 V -5 Z"
         id="path135" /></marker><inkscape:path-effect
       effect="spiro"
       id="path-effect86"
       is_visible="true"
       lpeversion="1" /><rect
       x="-724.6521"
       y="652.58179"
       width="198.93379"
       height="98.726448"
       id="rect4-7" /><rect
       x="-724.6521"
       y="652.58179"
       width="198.93379"
       height="98.726448"
       id="rect4-76" /><rect
       x="-724.6521"
       y="652.58179"
       width="198.93379"
       height="98.726448"
       id="rect4-7-2" /></defs><g
     inkscape:label="Layer 1"
     inkscape:groupmode="layer"
     id="layer1"
     transform="translate(-220.00001)" /><g
     id="g1"
     inkscape:groupmode="layer"
     inkscape:label="1"
     transform="matrix(0.26458333,0,0,0.26458335,4.9379573e-6,0)"><path
       style="fill:none;stroke:#000000;stroke-width:3.2126;stroke-linecap:butt;stroke-linejoin:miter;stroke-miterlimit:10;stroke-dasharray:none;stroke-opacity:1"
       d="m -529.3773,217.06861 -0.78945,-2.46572 -0.85373,-2.44397 -0.91708,-2.42128 -0.98042,-2.39669 -1.04283,-2.37023 -1.10522,-2.34186 -1.16478,-2.31255 -1.22624,-2.28041 -1.28486,-2.24826 -1.34253,-2.21328 -1.40115,-2.17735 -1.45692,-2.14049 -1.51271,-2.10172 -1.56754,-2.06106 -1.62049,-2.01947 -1.67344,-1.97597 -1.72353,-1.93154 -1.7746,-1.88615 -1.82282,-1.83889 -1.87008,-1.79067 -1.91736,-1.74056 -1.96084,-1.69045 -2.00529,-1.63845 -2.04782,-1.58456 -2.08754,-1.53162 -2.12725,-1.47583 -2.16601,-1.41912 -2.20193,-1.36238 -2.23598,-1.30471 -2.27,-1.24515 -2.30216,-1.18558 -2.3324,-1.12508 -2.36077,-1.06362 -2.38724,-1.00123 -2.41372,-0.93882 -2.4364,-0.87453 -2.4591,-0.81119 -2.47989,-0.74596 -2.49786,-0.68072 -2.51488,-0.61548 -2.53095,-0.55025 -2.54324,-0.48217 -2.55553,-0.416 -2.56593,-0.34981 -2.5735,-0.28174 -2.58105,-0.21462 -2.58484,-0.14654 -2.58768,-0.0794 -2.58957,-0.0113 -2.58862,0.0567 -2.58673,0.1248 -2.582,0.19098 -2.57633,0.25999 -2.56783,0.32618 -2.55931,0.39425 -2.54796,0.46044 -2.53568,0.52755 -2.51961,0.59374 -2.50447,0.65897 -2.48557,0.72516 -2.46571,0.7885 -2.44492,0.85373 -2.42128,0.91803 -2.39669,0.98042 -2.36928,1.04282 -2.34186,1.10428 -2.31255,1.16573 -2.28041,1.22529 -2.24826,1.28486 -2.21423,1.34347 -2.17735,1.40021 -2.14049,1.45692 -2.10077,1.51365 -2.06106,1.5666 -2.01947,1.62049 -1.97597,1.67344 -1.93249,1.72448 -1.88521,1.77365 -1.83888,1.82282 -1.79068,1.87008 -1.7415,1.91736 -1.6895,1.96084 -1.63846,2.00529 -1.5855,2.04782 -1.53068,2.08754 -1.47583,2.1282 -1.42006,2.16506 -1.36238,2.20193 -1.30471,2.23598 -1.24515,2.27094 -1.18558,2.30122 -1.12507,2.3324 -1.06268,2.36077 -1.00217,2.38819 -0.93788,2.41277 -0.87548,2.43735 -0.81024,2.45909 -0.74691,2.47895 -0.68072,2.49786 -0.61548,2.51583 -0.5493,2.53 -0.48312,2.54324 -0.41599,2.55648 -0.34887,2.56498 -0.28175,2.57444 -0.21461,2.58011 -0.14654,2.58484 -0.0794,2.58862 -0.0113,2.58863 0.0567,2.58862 0.12386,2.58673 0.19192,2.582 0.25905,2.57633 0.32712,2.56877 0.39425,2.55837 0.46043,2.54796 0.52756,2.53568 0.59279,2.51961 0.65992,2.50447 0.72421,2.48557 0.78945,2.46571 0.85373,2.44492 0.91708,2.42128 0.98042,2.39669 1.04282,2.37023 1.10428,2.34186 1.16573,2.3116 1.2253,2.28136 1.28485,2.24731 1.34347,2.21423 1.40115,2.17735 1.45693,2.14049 1.5127,2.10077 1.56755,2.06106 1.62049,2.01947 1.67343,1.97692 1.72354,1.93154 1.77459,1.88615 1.82282,1.83794 1.87008,1.79067 1.91642,1.74151 1.96179,1.6895 2.00529,1.63846 2.04687,1.5855 2.08849,1.53067 2.12725,1.47584 2.16506,1.42005 2.20193,1.36239 2.23692,1.30471 2.27,1.24515 2.30216,1.18558 2.3324,1.12507 2.36078,1.06363 2.38724,1.00122 2.41371,0.93788 2.43641,0.87548 2.45909,0.81024 2.4799,0.74691 2.49786,0.68072 2.51488,0.61548 2.53,0.5493 2.54419,0.48312 2.55553,0.41599 2.56593,0.34887 2.57349,0.28269 2.58012,0.21367 2.58578,0.14749 2.58768,0.0785 2.58957,0.0113 2.58861,-0.0567 2.58579,-0.12386 2.582,-0.19192 2.57633,-0.25905 2.56877,-0.32712 2.55931,-0.39425 2.54797,-0.46043 2.53473,-0.52756 2.52055,-0.59279 2.50353,-0.65992 2.48651,-0.72421 2.46572,-0.78945 2.44492,-0.85373 2.42127,-0.91708 2.39575,-0.98042 2.37023,-1.04282 2.34186,-1.10428 2.31255,-1.16573 2.28041,-1.2253 2.24826,-1.28485 2.21328,-1.34347 2.1783,-1.40021 2.13954,-1.45787 2.10172,-1.5127 2.06106,-1.56755 2.01947,-1.62049 1.97597,-1.67249 1.93154,-1.72448 1.88615,-1.77365 1.83889,-1.82376 1.79067,-1.87009 1.74056,-1.91641 1.69045,-1.96179 1.63845,-2.00529 1.58456,-2.04687 1.53162,-2.08849 1.47583,-2.12725 1.41912,-2.16506 1.36332,-2.20193 1.30377,-2.23692 1.24609,-2.27 1.18464,-2.30216 1.12508,-2.33146 1.06362,-2.36077 1.00123,-2.38819 0.93882,-2.41277 0.87453,-2.43735 0.81119,-2.45909 0.74596,-2.47895 0.68166,-2.49881 0.61548,-2.51488 0.54931,-2.53 0.48217,-2.54419 0.41694,-2.55553 0.34887,-2.56593 0.28174,-2.57349 0.21462,-2.58012 0.14654,-2.58578 0.0794,-2.58768 0.0114,-2.58957 -0.0567,-2.58861 -0.12386,-2.58579 -0.19192,-2.582 -0.25999,-2.57634 -0.32618,-2.56876 -0.39425,-2.55932 -0.46044,-2.54796 -0.52755,-2.53473 -0.59374,-2.52055 -0.65897,-2.50353 -0.72421,-2.48651"
       id="path17" /><path
       style="fill:none;stroke:#000000;stroke-width:3.21259835;stroke-linecap:butt;stroke-linejoin:miter;stroke-miterlimit:10;stroke-dasharray:none;stroke-opacity:1"
       d="m -376.17834,170.23134 -2.06752,-6.46005 -2.23694,-6.40453 -2.4035,-6.34232 -2.56812,-6.27818 -2.73182,-6.20926 -2.89357,-6.13461 -3.05343,-6.05707 -3.2104,-5.97572 -3.36546,-5.8886 -3.51862,-5.79959 -3.66985,-5.70483 -3.81725,-5.606241 -3.96372,-5.505734 -4.10536,-5.399487 -4.24608,-5.28941 -4.38295,-5.177419 -4.51601,-5.060642 -4.64809,-4.940995 -4.7754,-4.81656 -4.89984,-4.691168 -5.0214,-4.560992 -5.13818,-4.427942 -5.25303,-4.291065 -5.36312,-4.15323 -5.47031,-4.01061 -5.5737,-3.866074 -5.67228,-3.719625 -5.76801,-3.569346 -5.85988,-3.417155 -5.947,-3.26209 -6.03027,-3.106069 -6.10972,-2.947175 -6.18438,-2.7854117 -6.25521,-2.6236464 -6.32221,-2.4580538 -6.38444,-2.29246035 -6.44186,-2.12399605 -6.49546,-1.9555283 -6.54428,-1.7841995 -6.58831,-1.6118989 -6.62852,-1.4396055 -6.66489,-1.2644475 -6.69455,-1.091192 -6.72137,-0.91411 -6.74242,-0.738946 -6.75964,-0.560915 -6.77305,-0.384789 -6.77975,-0.207707 -6.78262,-0.02965 -6.78166,0.148359 -6.77592,0.325448 -6.76443,0.502523 -6.74912,0.679597 -6.72806,0.855724 -6.70509,1.0318517 -6.67446,1.207964 -6.64095,1.3812195 -6.60268,1.5544749 -6.55959,1.7267612 -6.51174,1.8980992 -6.46101,2.06847957 -6.40356,2.23598613 -6.34328,2.4034942 -6.27818,2.5681299 -6.20831,2.7318097 -6.13556,2.893573 -6.05708,3.053423 -5.97475,3.210402 -5.88957,3.365466 -5.79863,3.519573 -5.70483,3.668894 -5.6072,3.818215 -5.50477,3.962751 -5.39949,4.10537 -5.29037,4.246078 -5.17742,4.382954 -5.06064,4.516961 -4.94003,4.647138 -4.81752,4.775401 -4.69021,4.899836 -4.56099,5.021397 -4.42794,5.138175 -4.29203,5.253037 -4.15227,5.363113 -4.01061,5.470318 -3.86703,5.5737 -3.71867,5.67228 -3.56934,5.768 -3.41716,5.8599 -3.26305,5.94699 -3.10606,6.03027 -2.94622,6.10972 -2.78638,6.18438 -2.62268,6.25617 -2.45901,6.32125 -2.29151,6.38444 -2.12495,6.44186 -1.95458,6.49546 -1.78419,6.54428 -1.6119,6.58831 -1.43961,6.62948 -1.2654,6.66393 -1.09023,6.69455 -0.91507,6.72137 -0.73799,6.74241 -0.56188,6.76061 -0.38478,6.77209 -0.20676,6.77975 -0.0296,6.78357 0.14836,6.78071 0.32544,6.77592 0.50252,6.76443 0.67961,6.74912 0.85572,6.72902 1.03185,6.70413 1.20701,6.67446 1.38122,6.64095 1.55447,6.60268 1.72772,6.55959 1.8981,6.5127 2.06752,6.46004 2.23694,6.40357 2.40254,6.34328 2.56909,6.27818 2.73181,6.20831 2.89357,6.13556 3.05247,6.05708 3.2104,5.97475 3.36642,5.88957 3.51862,5.79863 3.66985,5.70483 3.81726,5.6072 3.96275,5.50477 4.10633,5.39949 4.24607,5.29036 4.382,5.17742 4.51696,5.06065 4.6481,4.94003 4.7754,4.81752 4.89983,4.69021 5.02044,4.56099 5.13914,4.42794 5.25303,4.29203 5.36312,4.15227 5.47031,4.01157 5.5737,3.86607 5.67228,3.71867 5.76801,3.56934 5.85989,3.41716 5.947,3.26305 6.03027,3.10606 6.10971,2.94719 6.18439,2.78541 6.2552,2.62364 6.32222,2.45805 6.38347,2.29247 6.44282,2.12399 6.49451,1.95458 6.54428,1.78419 6.58927,1.61286 6.62851,1.43865 6.66393,1.2654 6.69551,1.09023 6.72137,0.91507 6.74242,0.73799 6.75964,0.56188 6.77209,0.38478 6.78071,0.20676 6.78262,0.0296 6.78166,-0.1474 6.77496,-0.32545 6.76444,-0.50347 6.74912,-0.67961 6.72902,-0.85572 6.70412,-1.03185 6.67542,-1.20701 6.64096,-1.38122 6.60267,-1.55447 6.55959,-1.72772 6.51174,-1.8981 6.46005,-2.06752 6.40453,-2.23599 6.34327,-2.40349 6.27723,-2.56813 6.20926,-2.73181 6.13461,-2.89357 6.05803,-3.05343 5.97476,-3.2104 5.8886,-3.36642 5.79959,-3.51862 5.70483,-3.66985 5.6072,-3.81726 5.50477,-3.96275 5.39949,-4.10633 5.28941,-4.24512 5.17742,-4.38295 5.06064,-4.51696 4.941,-4.6481 4.81751,-4.7754 4.69022,-4.89983 4.56099,-5.02045 4.42794,-5.13913 4.29106,-5.25303 4.15323,-5.36312 4.01061,-5.47031 3.86608,-5.57274 3.71963,-5.67324 3.56934,-5.76801 3.41716,-5.85989 3.26304,-5.94604 3.10511,-6.03123 2.94718,-6.10876 2.78637,-6.18534 2.62268,-6.2552 2.45902,-6.32222 2.2915,-6.38347 2.12399,-6.44186 1.95554,-6.49547 1.7842,-6.54428 1.61189,-6.58927 1.43961,-6.62851 1.2654,-6.66393 1.09024,-6.69551 0.91411,-6.72041 0.73894,-6.74338 0.56188,-6.75964 0.38383,-6.77209 0.20771,-6.77975 0.0296,-6.78358 -0.14835,-6.78166 -0.32545,-6.77497 -0.50252,-6.76443 -0.6796,-6.74912 -0.85573,-6.72902 -1.03185,-6.70412 -1.20701,-6.67542 -1.38217,-6.64096 -1.55448,-6.60267 -1.72676,-6.55959 -1.8981,-6.51174"
       id="path1" /><path
       id="path2"
       d="M -624.06227,190.27924 V -27.315833"
       style="fill:none;stroke:#000000;stroke-width:0.86551179;stroke-linecap:butt;stroke-linejoin:miter;stroke-miterlimit:10;stroke-dasharray:73.31385685,6.1094855,6.1094855,6.1094855;stroke-dashoffset:-3.74037231;stroke-opacity:1" /><path
       id="path4"
       d="M -623.8427,328.39812 V 520.59157"
       style="fill:none;stroke:#000000;stroke-width:0.86551179;stroke-linecap:butt;stroke-linejoin:miter;stroke-miterlimit:10;stroke-dasharray:73.31375762,6.10951443,6.10951443,6.10951443;stroke-dashoffset:-3.74037307;stroke-opacity:1" /><path
       id="path4-1"
       d="m -623.98652,249.45553 v 32.56899"
       style="fill:none;stroke:#000000;stroke-width:0.86551179;stroke-linecap:butt;stroke-linejoin:miter;stroke-miterlimit:10;stroke-dasharray:73.31403348,6.10954439,6.10954439,6.10954439;stroke-dashoffset:-3.74038375;stroke-opacity:1" /><path
       id="path3"
       d="M -730.24083,245.98631 H -901.17249"
       style="fill:none;stroke:#000000;stroke-width:0.697669;stroke-linecap:butt;stroke-linejoin:miter;stroke-miterlimit:10;stroke-dasharray:59.0966, 4.92472, 4.92472, 4.92472;stroke-dashoffset:0;stroke-opacity:1" /><path
       id="path5"
       d="m -518.49629,245.98631 h 171.74602"
       style="fill:none;stroke:#000000;stroke-width:0.699329;stroke-linecap:butt;stroke-linejoin:miter;stroke-miterlimit:10;stroke-dasharray:59.2372, 4.93644, 4.93644, 4.93644;stroke-dashoffset:0;stroke-opacity:1" /><g
       id="g6"
       transform="matrix(-1.8259575,3.3091853,-3.3091854,-1.8259573,139.20844,493.40503)"
       style="stroke-width:0.85;stroke-dasharray:none"><path
         style="fill:none;stroke:#000000;stroke-width:0.85;stroke-linecap:round;stroke-linejoin:round;stroke-dasharray:none"
         d="m 61.319921,128.77836 c 3.134564,3.87467 6.269064,7.74926 10.590061,9.34923 4.320997,1.59996 9.828145,0.92517 15.335399,0.25037"
         id="path2-3"
         inkscape:path-effect="#path-effect2"
         inkscape:original-d="m 61.319921,128.77836 c 3.134564,3.87467 6.269065,7.74926 9.403692,11.62401 5.507366,-0.67482 11.014514,-1.34961 16.521768,-2.02441"
         sodipodi:nodetypes="ccc" /><path
         style="fill:#000000;fill-opacity:1;stroke:#000000;stroke-width:0.85;stroke-linecap:round;stroke-linejoin:round;stroke-dasharray:none"
         d="m 79.425344,138.76748 c 0.56404,-0.87871 -2.240283,-3.14824 -5.661602,-4.61224 -3.421319,-1.46401 -7.459251,-2.12233 -8.023303,-1.24361 -0.564053,0.87873 2.345848,3.2944 5.767162,4.7584 3.421314,1.464 7.353702,1.97616 7.917743,1.09745 z"
         id="path3-0"
         inkscape:path-effect="#path-effect3"
         inkscape:original-d="m 82.793778,140.15836 c -2.804393,-2.26959 -5.608718,-4.53912 -8.413171,-6.80876 -4.038184,-0.65837 -8.076116,-1.31669 -12.114302,-1.97506 2.910082,2.41582 5.819983,4.83149 8.730061,7.24731 3.932549,0.51218 7.864937,1.02434 11.797412,1.53651 z"
         sodipodi:nodetypes="ccccc" /><path
         style="fill:none;fill-opacity:1;stroke:#000000;stroke-width:0.85;stroke-linecap:round;stroke-linejoin:round;stroke-dasharray:none"
         d="m 58.320916,129.98684 c 5.356476,-2.69363 10.712836,-5.3872 15.322884,-9.35846 4.610048,-3.97126 8.473404,-9.21988 12.336838,-14.46861 -1.523824,6.17226 -3.047617,12.34439 -2.616627,18.21662 0.43099,5.87223 2.816726,11.44408 5.202513,17.01605"
         id="path4-4"
         inkscape:path-effect="#path-effect5"
         inkscape:original-d="m 58.320916,129.98684 c 5.356477,-2.69363 10.712838,-5.3872 16.069421,-8.08089 3.863513,-5.24883 11.590301,-15.74618 11.590301,-15.74618 0,0 -3.047617,12.34439 -4.571471,18.51677 2.385833,5.57208 4.771573,11.14393 7.157357,16.7159"
         sodipodi:nodetypes="ccccc" /><path
         style="fill:none;fill-opacity:1;stroke:#000000;stroke-width:0.85;stroke-linecap:round;stroke-linejoin:round;stroke-dasharray:none"
         d="m 59.613858,121.69816 c 0.261666,0.76191 0.523328,1.52381 1.050518,1.99713 0.527191,0.47332 1.319875,0.65802 2.112572,0.84273"
         id="path5-2"
         inkscape:path-effect="#path-effect6"
         inkscape:original-d="m 59.613858,121.69816 c 0.261667,0.76191 0.52333,1.52381 0.785,2.28574 0.792709,0.18471 1.585394,0.36941 2.37809,0.55412"
         transform="translate(-1.200589,3.6941199)"
         sodipodi:nodetypes="ccc" /><path
         style="fill:none;fill-opacity:1;stroke:#000000;stroke-width:0.85;stroke-linecap:round;stroke-linejoin:round;stroke-dasharray:none"
         d="m 59.613858,121.69816 c 0.261666,0.76191 0.523328,1.52381 1.050518,1.99713 0.527191,0.47332 1.319875,0.65802 2.112572,0.84273"
         id="path5-8"
         inkscape:path-effect="#path-effect6-5"
         inkscape:original-d="m 59.613858,121.69816 c 0.261667,0.76191 0.52333,1.52381 0.785,2.28574 0.792709,0.18471 1.585394,0.36941 2.37809,0.55412"
         transform="translate(1.9686163,1.8716681)"
         sodipodi:nodetypes="ccc" /><path
         style="fill:none;fill-opacity:1;stroke:#000000;stroke-width:0.85;stroke-linecap:round;stroke-linejoin:round;stroke-dasharray:none"
         d="m 59.613858,121.69816 c 0.261666,0.76191 0.523328,1.52381 1.050518,1.99713 0.527191,0.47332 1.319875,0.65802 2.112572,0.84273"
         id="path5-7"
         inkscape:path-effect="#path-effect6-4"
         inkscape:original-d="m 59.613858,121.69816 c 0.261667,0.76191 0.52333,1.52381 0.785,2.28574 0.792709,0.18471 1.585394,0.36941 2.37809,0.55412"
         transform="rotate(-57.133487,87.500062,104.26161)"
         sodipodi:nodetypes="ccc" /><path
         style="fill:none;fill-opacity:1;stroke:#000000;stroke-width:0.85;stroke-linecap:round;stroke-linejoin:round;stroke-dasharray:none"
         d="m 59.613858,121.69816 c 0.261666,0.76191 0.523328,1.52381 1.050518,1.99713 0.527191,0.47332 1.319875,0.65802 2.112572,0.84273"
         id="path5-7-3"
         inkscape:path-effect="#path-effect6-4-5"
         inkscape:original-d="m 59.613858,121.69816 c 0.261667,0.76191 0.52333,1.52381 0.785,2.28574 0.792709,0.18471 1.585394,0.36941 2.37809,0.55412"
         transform="rotate(-57.133487,83.97554,103.67826)"
         sodipodi:nodetypes="ccc" /></g><g
       id="g89"
       transform="matrix(0.53500617,0,0,0.53500617,-902.65677,69.812527)"
       style="stroke-width:6.00479;stroke-dasharray:none"><path
         style="fill:#000000;fill-opacity:1;stroke:#000000;stroke-width:4.50359;stroke-linecap:butt;stroke-linejoin:miter;stroke-miterlimit:10;stroke-dasharray:none;stroke-opacity:1"
         d="m -706.706,-408.215 0.955,-0.822 0.993,-0.775 1.029,-0.728 1.062,-0.678 1.093,-0.627 1.121,-0.574 1.148,-0.521 1.17,-0.466 1.192,-0.41 1.209,-0.353 1.225,-0.296 1.238,-0.237 1.247,-0.178 1.255,-0.12 1.258,-0.059 h 1.26 l 1.259,0.059 1.254,0.12 1.248,0.178 1.237,0.237 1.225,0.296 1.21,0.353 1.191,0.41 1.171,0.466 1.147,0.521 1.122,0.574 1.092,0.627 1.063,0.678 1.028,0.728 0.993,0.775 0.956,0.822"
         transform="matrix(1.3333333,0,0,-1.3333333,1103.3637,446.51387)"
         id="path27" /><path
         style="fill:none;stroke:#000000;stroke-width:4.50359;stroke-linecap:round;stroke-linejoin:round;stroke-miterlimit:10;stroke-dasharray:none;stroke-opacity:1"
         d="m -719.549,-358.672 0.034,-1.235 0.101,-1.232 0.167,-1.224 0.235,-1.213 0.3,-1.199 0.364,-1.18 0.429,-1.159 0.491,-1.134 0.552,-1.105 0.612,-1.074"
         transform="matrix(1.3333333,0,0,-1.3333333,1103.3637,446.51387)"
         id="path24" /><path
         style="fill:none;stroke:#000000;stroke-width:4.50359;stroke-linecap:round;stroke-linejoin:round;stroke-miterlimit:10;stroke-dasharray:none;stroke-opacity:1"
         d="m -658.213,-358.672 -0.033,-1.235 -0.101,-1.232 -0.168,-1.224 -0.234,-1.213 -0.3,-1.199 -0.365,-1.18 -0.429,-1.159 -0.49,-1.134 -0.553,-1.105 -0.611,-1.074"
         transform="matrix(1.3333333,0,0,-1.3333333,1103.3637,446.51387)"
         id="path21" /><path
         style="fill:none;stroke:#000000;stroke-width:4.50359;stroke-linecap:round;stroke-linejoin:round;stroke-miterlimit:10;stroke-dasharray:none;stroke-opacity:1"
         d="m -644.936,-307.63 -1.199,-1.763 -1.147,-1.796 -1.095,-1.829 -1.04,-1.861 -0.986,-1.889 -0.931,-1.918 -0.874,-1.944 -0.817,-1.969 -0.76,-1.992 -0.701,-2.012 -0.642,-2.033 -0.583,-2.05 -0.523,-2.067 -0.462,-2.081 -0.401,-2.093 -0.34,-2.104 -0.279,-2.114 -0.217,-2.12 -0.155,-2.126 -0.094,-2.13 -0.031,-2.131"
         transform="matrix(1.3333333,0,0,-1.3333333,1103.3637,446.51387)"
         id="path18" /><path
         style="fill:none;stroke:#000000;stroke-width:4.50359;stroke-linecap:round;stroke-linejoin:round;stroke-miterlimit:10;stroke-dasharray:none;stroke-opacity:1"
         d="m -732.826,-307.63 1.2,-1.763 1.147,-1.796 1.094,-1.829 1.041,-1.861 0.986,-1.889 0.93,-1.918 0.875,-1.944 0.817,-1.969 0.759,-1.992 0.701,-2.012 0.643,-2.033 0.582,-2.05 0.523,-2.067 0.462,-2.081 0.402,-2.093 0.34,-2.104 0.279,-2.114 0.217,-2.12 0.155,-2.126 0.093,-2.13 0.031,-2.131"
         transform="matrix(1.3333333,0,0,-1.3333333,1103.3637,446.51387)"
         id="path15" /><path
         style="fill:none;stroke:#000000;stroke-width:4.50359;stroke-linecap:round;stroke-linejoin:round;stroke-miterlimit:10;stroke-dasharray:none;stroke-opacity:1"
         d="m -732.826,-307.63 -0.981,1.448 -0.934,1.479 -0.885,1.508 -0.836,1.537 -0.785,1.563 -0.733,1.588 -0.682,1.611 -0.629,1.632 -0.575,1.652 -0.521,1.67 -0.467,1.685 -0.411,1.701 -0.356,1.712 -0.3,1.724 -0.243,1.732 -0.187,1.739 -0.13,1.744 -0.073,1.748 -0.017,1.749 0.041,1.749 0.098,1.746 0.154,1.742 0.211,1.737 0.268,1.728 0.324,1.719 0.379,1.708 0.435,1.694 0.49,1.679 0.544,1.662 0.599,1.644 0.651,1.623 0.704,1.602 0.756,1.577 0.807,1.552 0.856,1.525 0.907,1.496 0.954,1.466 1.002,1.434 1.047,1.401 1.093,1.365 1.137,1.33 1.179,1.292 1.221,1.252 1.261,1.212 1.3,1.171 1.338,1.127 1.373,1.084 1.408,1.038 1.441,0.991 1.472,0.944 1.503,0.896 1.531,0.846 1.557,0.796 1.583,0.745 1.606,0.693 1.628,0.64 1.648,0.587 1.666,0.532 1.682,0.479 1.697,0.423 1.71,0.367 1.722,0.312 1.73,0.256 1.738,0.199 1.743,0.142 1.747,0.085 1.749,0.029 1.749,-0.029 1.747,-0.085 1.744,-0.142 1.737,-0.199 1.731,-0.256 1.721,-0.312 1.71,-0.367 1.697,-0.423 1.683,-0.479 1.666,-0.532 1.648,-0.587 1.628,-0.64 1.606,-0.693 1.582,-0.745 1.558,-0.796 1.531,-0.846 1.502,-0.896 1.473,-0.944 1.441,-0.991 1.408,-1.038 1.373,-1.084 1.337,-1.127 1.3,-1.171 1.261,-1.212 1.221,-1.252 1.18,-1.292 1.136,-1.33 1.093,-1.365 1.048,-1.401 1.002,-1.434 0.954,-1.466 0.906,-1.496 0.857,-1.525 0.807,-1.552 0.755,-1.577 0.704,-1.602 0.652,-1.623 0.598,-1.644 0.545,-1.662 0.489,-1.679 0.435,-1.694 0.38,-1.708 0.324,-1.719 0.267,-1.728 0.211,-1.737 0.155,-1.742 0.098,-1.746 0.04,-1.749 -0.016,-1.749 -0.073,-1.748 -0.131,-1.744 -0.186,-1.739 -0.244,-1.732 -0.3,-1.724 -0.355,-1.712 -0.412,-1.701 -0.466,-1.685 -0.521,-1.67 -0.576,-1.652 -0.628,-1.632 -0.682,-1.611 -0.734,-1.588 -0.785,-1.563 -0.835,-1.537 -0.886,-1.508 -0.933,-1.479 -0.982,-1.448"
         transform="matrix(1.3333333,0,0,-1.3333333,1103.3637,446.51387)"
         id="path12" /><path
         id="path3-4"
         d="M 0,0 V 0 M 87.89,0 V 0 M 13.277,-42.022 v 0 m 9.007,-35.886 v 0 m 52.329,26.866 v 0 m 0,9.02 v 0 m -9.007,-30.216 v 0 m 0,-5.67 v 0 m 5.723,15.111 v 0 m -49.045,-20.78 v 0 m 43.322,0 v 0 m -43.322,-5.669 v 0 m 0,17.008 v 0 m 43.322,-17.008 v 0 m -43.322,-5.669 v 0 m 43.322,0 v 0 m -52.329,43.873 v 0 m 3.284,-11.755 v 0 m 9.558,-37.788 v 0 m 35.651,0 v 0 m 0,0 v 0"
         style="fill:none;stroke:#000000;stroke-width:4.50359;stroke-linecap:round;stroke-linejoin:miter;stroke-miterlimit:10;stroke-dasharray:none;stroke-opacity:1"
         transform="matrix(1.3333333,0,0,-1.3333333,126.26293,856.6876)" /><path
         style="fill:none;stroke:#000000;stroke-width:4.50359;stroke-linecap:round;stroke-linejoin:round;stroke-miterlimit:10;stroke-dasharray:none;stroke-opacity:1"
         d="M 12.843,-58.563 H 48.494"
         transform="matrix(1.3333333,0,0,-1.3333333,143.9652,912.71667)"
         id="path70" /><path
         style="fill:none;stroke:#000000;stroke-width:4.50359;stroke-linecap:round;stroke-linejoin:round;stroke-miterlimit:10;stroke-dasharray:none;stroke-opacity:1"
         d="M 9.007,-52.894 H 52.329"
         transform="matrix(1.3333333,0,0,-1.3333333,143.9652,912.71667)"
         id="path69" /><path
         style="fill:none;stroke:#000000;stroke-width:4.50359;stroke-linecap:round;stroke-linejoin:round;stroke-miterlimit:10;stroke-dasharray:none;stroke-opacity:1"
         d="M 9.007,-47.224 H 52.329"
         transform="matrix(1.3333333,0,0,-1.3333333,143.9652,912.71667)"
         id="path68" /><path
         style="fill:none;stroke:#000000;stroke-width:4.50359;stroke-linecap:round;stroke-linejoin:round;stroke-miterlimit:10;stroke-dasharray:none;stroke-opacity:1"
         d="M 9.007,-41.555 H 52.329"
         transform="matrix(1.3333333,0,0,-1.3333333,143.9652,912.71667)"
         id="path67" /><path
         style="fill:none;stroke:#000000;stroke-width:4.50359;stroke-linecap:round;stroke-linejoin:round;stroke-miterlimit:10;stroke-dasharray:none;stroke-opacity:1"
         d="M 9.007,-35.886 H 52.329"
         transform="matrix(1.3333333,0,0,-1.3333333,143.9652,912.71667)"
         id="path66" /><path
         style="fill:none;stroke:#000000;stroke-width:4.50359;stroke-linecap:round;stroke-linejoin:round;stroke-miterlimit:10;stroke-dasharray:none;stroke-opacity:1"
         d="m 52.329,-30.216 5.723,9.441"
         transform="matrix(1.3333333,0,0,-1.3333333,143.9652,912.71667)"
         id="path65" /><path
         style="fill:none;stroke:#000000;stroke-width:4.50359;stroke-linecap:round;stroke-linejoin:round;stroke-miterlimit:10;stroke-dasharray:none;stroke-opacity:1"
         d="M 9.007,-30.216 H 52.329"
         transform="matrix(1.3333333,0,0,-1.3333333,143.9652,912.71667)"
         id="path64" /><path
         style="fill:none;stroke:#000000;stroke-width:4.50359;stroke-linecap:round;stroke-linejoin:round;stroke-miterlimit:10;stroke-dasharray:none;stroke-opacity:1"
         d="m 3.284,-20.775 5.723,-9.441"
         transform="matrix(1.3333333,0,0,-1.3333333,143.9652,912.71667)"
         id="path63" /><path
         style="fill:none;stroke:#000000;stroke-width:4.50359;stroke-linecap:round;stroke-linejoin:round;stroke-miterlimit:10;stroke-dasharray:none;stroke-opacity:1"
         d="M 61.336,0 V -9.02"
         transform="matrix(1.3333333,0,0,-1.3333333,143.9652,912.71667)"
         id="path62" /><path
         style="fill:none;stroke:#000000;stroke-width:4.50359;stroke-linecap:round;stroke-linejoin:round;stroke-miterlimit:10;stroke-dasharray:none;stroke-opacity:1"
         d="M 0,0 V -9.02"
         transform="matrix(1.3333333,0,0,-1.3333333,143.9652,912.71667)"
         id="path10" /><path
         style="fill:#000000;fill-opacity:1;stroke:#000000;stroke-width:6.00479;stroke-linecap:round;stroke-linejoin:round;stroke-dasharray:none"
         d="m 75.743821,716.60107 29.320259,25.13166"
         id="path79"
         sodipodi:nodetypes="cc" /><path
         style="fill:#000000;fill-opacity:1;stroke:#000000;stroke-width:6.00479;stroke-linecap:round;stroke-linejoin:round;stroke-dasharray:none"
         d="m 150.09162,683.09221 8.92921,33.89707"
         id="path80"
         sodipodi:nodetypes="cc" /><path
         style="fill:#000000;fill-opacity:1;stroke:#000000;stroke-width:6.00479;stroke-linecap:round;stroke-linejoin:round;stroke-dasharray:none"
         d="m 248.17487,690.07322 -23.3864,35.25413"
         id="path81"
         sodipodi:nodetypes="cc" /><path
         style="fill:#000000;fill-opacity:1;stroke:#000000;stroke-width:6.00479;stroke-linecap:round;stroke-linejoin:round;stroke-dasharray:none"
         d="m 314.84355,755.69476 -34.20697,18.49968"
         id="path82"
         sodipodi:nodetypes="cc" /><path
         style="fill:#000000;fill-opacity:1;stroke:#000000;stroke-width:6.00479;stroke-linecap:round;stroke-linejoin:round;stroke-dasharray:none"
         d="m 275.05177,831.43876 34.55601,14.31107"
         id="path83"
         sodipodi:nodetypes="cc" /><path
         style="fill:#000000;fill-opacity:1;stroke:#000000;stroke-width:6.00479;stroke-linecap:round;stroke-linejoin:round;stroke-dasharray:none"
         d="m 47.819766,783.61881 39.442728,9.42437"
         id="path84"
         sodipodi:nodetypes="cc" /><path
         style="fill:#000000;fill-opacity:1;stroke:#000000;stroke-width:6.00479;stroke-linecap:round;stroke-linejoin:round;stroke-dasharray:none"
         d="M 64.225148,858.66471 94.941609,843.30648"
         id="path85"
         sodipodi:nodetypes="cc" /><path
         style="fill:none;fill-opacity:1;stroke:#000000;stroke-width:10.008;stroke-linecap:round;stroke-linejoin:round;stroke-dasharray:none"
         d="m -347.97165,641.29632 c -0.50495,-2.98495 0.17365,-6.15375 1.8567,-8.67014 1.68305,-2.51639 4.35262,-4.35356 7.3042,-5.02667 2.95157,-0.67311 6.15371,-0.17498 8.76134,1.36292 2.60763,1.53791 4.59297,4.0992 5.43208,7.00794 0.65172,2.25916 0.62484,4.67437 0.21062,6.98889 -0.41422,2.31451 -1.20452,4.54433 -2.06554,6.7323 -1.72204,4.37593 -3.7761,8.80241 -3.72989,13.50476 0.0426,4.33103 1.9683,8.58554 5.09907,11.57851 3.13078,2.99297 7.41018,4.71659 11.73865,4.87134 4.32848,0.15476 8.67421,-1.23271 12.19802,-3.75112 3.52381,-2.51841 6.22302,-6.13806 7.76881,-10.18406 1.5458,-4.04601 1.9509,-8.50142 1.30584,-12.78435 -0.64507,-4.28294 -2.32587,-8.38982 -4.74643,-11.98155 -4.84111,-7.18346 -12.5315,-12.15945 -20.79813,-14.74814 -2.91124,-0.91165 -5.93118,-1.55206 -8.98178,-1.56918 -3.05059,-0.0171 -6.14225,0.6117 -8.8003,2.10876 -2.65805,1.49706 -4.85307,3.90479 -5.80875,6.80187 -0.47784,1.44854 -0.64307,3.00398 -0.4397,4.51568 0.20338,1.5117 0.77881,2.97691 1.69128,4.1992 1.20674,1.61648 2.97459,2.7704 4.88919,3.40563 1.91461,0.63523 3.97133,0.77173 5.98008,0.58688 4.01749,-0.3697 7.7969,-1.97911 11.62038,-3.26672 3.82347,-1.28761 7.93896,-2.27117 11.8669,-1.35018 1.96396,0.4605 3.83685,1.41175 5.23725,2.86369 1.40039,1.45194 2.2981,3.42259 2.29229,5.43981 -0.005,1.63088 -0.58432,3.21696 -1.39292,4.63328 -0.80861,1.41632 -1.84326,2.68782 -2.84537,3.97451 -1.00211,1.28669 -1.98377,2.60773 -2.66614,4.08901 -0.68237,1.48127 -1.05265,3.14871 -0.77469,4.75574 0.23612,1.36515 0.93982,2.63683 1.93435,3.60134 0.99453,0.96452 2.27121,1.62404 3.62233,1.93039 1.35112,0.30635 2.77326,0.26458 4.11837,-0.0672 1.34511,-0.33175 2.61351,-0.94944 3.73762,-1.75922 2.24824,-1.61956 3.88784,-3.97295 5.03945,-6.49313 1.15161,-2.52018 1.84836,-5.22045 2.50709,-7.91184 0.65874,-2.69139 1.28895,-5.40239 2.3187,-7.97476 1.02976,-2.57238 2.48684,-5.02427 4.57005,-6.85122 2.0832,-1.82696 4.84514,-2.97953 7.60724,-2.75967 1.38104,0.10993 2.74036,0.56228 3.88174,1.34754 1.14138,0.78526 2.05765,1.90699 2.54914,3.2023 0.75685,1.99467 0.47461,4.24795 -0.20509,6.27022 -0.67969,2.02227 -1.73394,3.89593 -2.55143,5.86652 -0.81749,1.9706 -1.40312,4.11929 -1.07236,6.22693 0.16538,1.05382 0.56515,2.07975 1.22071,2.92125 0.65556,0.84151 1.57417,1.49025 2.60817,1.75243 1.32948,0.3371 2.78094,0.0121 3.93016,-0.73658 1.14921,-0.74863 2.00899,-1.8913 2.56044,-3.14711 1.10288,-2.51162 1.00498,-5.36051 0.98477,-8.10354 -0.0101,-1.37151 0.005,-2.74883 0.21109,-4.10474 0.20652,-1.35591 0.61174,-2.69699 1.33532,-3.86214 0.72359,-1.16515 1.783,-2.14728 3.06447,-2.63612 0.64074,-0.24442 1.33126,-0.36339 2.01607,-0.32695 0.6848,0.0364 1.36312,0.22991 1.95402,0.57793 0.7598,0.4475 1.36079,1.1432 1.74776,1.93555 0.38698,0.79234 0.56552,1.67799 0.57687,2.55971 0.0227,1.76343 -0.60527,3.47061 -1.35919,5.06492 -0.75392,1.59431 -1.64547,3.13179 -2.209,4.80292 -0.56353,1.67112 -0.77771,3.53464 -0.15265,5.18374 0.48239,1.27269 1.44983,2.34125 2.63259,3.01469 1.18276,0.67344 2.56978,0.95979 3.9289,0.88749 1.35912,-0.0723 2.68934,-0.49488 3.88132,-1.15187 1.19197,-0.65699 2.2487,-1.54439 3.16301,-2.55259 1.82862,-2.01641 3.07578,-4.48325 4.22571,-6.95052 1.14993,-2.46726 2.23626,-4.98791 3.80962,-7.20923 2.10751,-2.97545 5.07083,-5.33735 8.44136,-6.72817"
         id="path87"
         inkscape:path-effect="#path-effect87"
         inkscape:original-d="m -347.97165,641.29632 c 10.00612,11.63502 13.3482,-16.96098 23.35432,-5.32595 10.00612,11.63502 -3.7232,18.15063 -5.58481,27.22595 -1.8616,9.07532 8.37722,-24.66625 12.56583,-36.99937 4.18861,-12.33313 -14.89283,10.70422 -22.33925,16.05633 -7.44641,5.35211 27.92406,5.11941 41.88609,7.67911 13.96202,2.55971 -5.11941,11.63503 -7.67912,17.45254 -2.5597,5.81751 27.92406,-15.82363 41.88608,-23.73545 13.96203,-7.91181 0,15.35823 0,23.03735 0,7.67911 10.70423,-14.89283 16.05634,-22.33925 5.35211,-7.44641 -0.93081,13.03123 -1.39621,19.54684 -0.4654,6.51562 14.42743,-9.30802 21.64115,-13.96203 7.21371,-4.654 10.07026,-11.14948 8.44136,-6.72817"
         sodipodi:nodetypes="csssssssssssc"
         transform="matrix(0.6,0,0,0.6,353.42803,425.34052)" /><path
         style="fill:none;fill-opacity:1;stroke:#000000;stroke-width:6.00479;stroke-linecap:round;stroke-linejoin:round;stroke-dasharray:none"
         d="m 144.57317,810.02103 28.39554,120.32603"
         id="path88"
         sodipodi:nodetypes="cc" /><path
         style="fill:none;fill-opacity:1;stroke:#000000;stroke-width:6.00479;stroke-linecap:round;stroke-linejoin:round;stroke-dasharray:none"
         d="M 222.18947,811.23764 194.29723,930.14712"
         id="path89"
         sodipodi:nodetypes="cc" /></g><path
       style="fill:none;fill-opacity:1;stroke:#000000;stroke-width:5.94314;stroke-linecap:round;stroke-linejoin:round;stroke-dasharray:none;marker-end:url(#Triangle)"
       d="m -284.47649,532.30231 c 9.38417,-1.78676 17.77674,-8.1811 21.99019,-16.75443 3.38959,-6.89698 4.09026,-14.74775 5.23705,-22.34659 0.57339,-3.79943 1.27504,-7.59567 2.50067,-11.23741 1.22563,-3.64174 2.99414,-7.14001 5.52319,-10.03281 4.60367,-5.26581 11.29772,-8.11996 17.73243,-10.86169 6.43471,-2.74172 13.10073,-5.72537 17.5247,-11.14303 3.51786,-4.30803 5.28649,-9.78982 6.30433,-15.25777 1.01785,-5.46795 1.35978,-11.04634 2.42194,-16.50585 2.40081,-12.34015 8.56175,-23.92273 17.45253,-32.81077"
       id="path86"
       inkscape:path-effect="#path-effect86"
       inkscape:original-d="m -284.47649,532.30231 c 2.5597,-0.93081 20.19663,-14.70465 21.99019,-16.75443 8.14452,-9.30802 4.4183,-23.60457 13.26091,-43.61681 8.84262,-20.01224 55.0908,-16.53926 35.25713,-22.00472 -24.68585,-6.80256 2.67606,-15.70728 8.72627,-31.76362 6.05021,-16.05633 16.05633,-14.42743 17.45253,-32.81077"
       transform="matrix(0.54055598,0,0,0.54055598,-602.12973,151.56347)"
       sodipodi:nodetypes="cssssc" /><text
       xml:space="preserve"
       transform="matrix(0.90273183,0,0,0.90273183,-48.781521,-225.37089)"
       id="text3"
       style="font-style:normal;font-variant:normal;font-weight:normal;font-stretch:normal;font-size:41.3559px;font-family:Cambria;-inkscape-font-specification:Cambria;white-space:pre;shape-inside:url(#rect4);display:inline;fill:#000000;fill-opacity:1;stroke:#000000;stroke-width:0;stroke-linecap:round;stroke-linejoin:round;stroke-dasharray:none"><tspan
         x="-724.65234"
         y="689.91946"
         id="tspan4">γ</tspan></text><text
       xml:space="preserve"
       transform="matrix(0.90273183,0,0,0.90273183,-33.165573,-337.84833)"
       id="text3-2"
       style="font-style:normal;font-variant:normal;font-weight:normal;font-stretch:normal;font-size:41.3559px;font-family:Cambria;-inkscape-font-specification:Cambria;white-space:pre;shape-inside:url(#rect4-7);display:inline;fill:#000000;fill-opacity:1;stroke:#000000;stroke-width:0;stroke-linecap:round;stroke-linejoin:round;stroke-dasharray:none"><tspan
         x="-724.65234"
         y="689.91946"
         id="tspan6"><tspan
           style="font-style:italic;-inkscape-font-specification:'Cambria Italic'"
           id="tspan5">θ</tspan></tspan></text><text
       xml:space="preserve"
       transform="matrix(0.90273183,0,0,0.90273183,182.39559,-423.05159)"
       id="text3-2-6"
       style="font-style:normal;font-variant:normal;font-weight:normal;font-stretch:normal;font-size:41.3559px;font-family:Cambria;-inkscape-font-specification:Cambria;white-space:pre;shape-inside:url(#rect4-7-2);display:inline;fill:#000000;fill-opacity:1;stroke:#000000;stroke-width:0;stroke-linecap:round;stroke-linejoin:round;stroke-dasharray:none"><tspan
         x="-724.65234"
         y="689.91946"
         id="tspan8"><tspan
           style="font-style:italic;-inkscape-font-specification:'Cambria Italic'"
           id="tspan7">φ</tspan></tspan></text><path
       style="fill:none;fill-opacity:1;stroke:#000000;stroke-width:3.2126;stroke-linecap:round;stroke-linejoin:round;stroke-dasharray:3.21259999,6.42519999;stroke-dashoffset:0;marker-start:url(#Triangle);marker-end:url(#Triangle)"
       d="m -357.93931,480.61989 c 5.68762,-3.95137 44.49645,-34.34588 53.53482,-79.87852"
       id="path11"
       sodipodi:nodetypes="cc" /><rect
       style="fill:#000000;fill-opacity:1;stroke:#000000;stroke-width:3.2126;stroke-linecap:round;stroke-linejoin:round;stroke-dasharray:none;stroke-dashoffset:0"
       id="rect13"
       width="158.96483"
       height="18.241865"
       x="-703.6972"
       y="226.65144" /><text
       xml:space="preserve"
       transform="translate(-158.31335,76.55068)"
       id="text23"
       style="font-style:normal;font-variant:normal;font-weight:normal;font-stretch:normal;font-size:53.3333px;font-family:Cambria;-inkscape-font-specification:Cambria;white-space:pre;shape-inside:url(#rect23);display:inline;fill:#000000;fill-opacity:1;stroke:#000000;stroke-width:1.13386;stroke-linecap:round;stroke-linejoin:round;stroke-dasharray:none;stroke-dashoffset:0"><tspan
         x="-522.5"
         y="138.05726"
         id="tspan10"><tspan
           style="font-size:26.6667px"
           id="tspan9">Specimen</tspan></tspan></text><path
       style="fill:none;stroke:#000000;stroke-width:3.21259835;stroke-linecap:round;stroke-linejoin:round;stroke-dasharray:3.21259835,6.42519669;stroke-dashoffset:0;marker-start:url(#Triangle);marker-end:url(#Triangle)"
       id="path16"
       sodipodi:type="arc"
       sodipodi:cx="-624.21692"
       sodipodi:cy="246.46202"
       sodipodi:rx="123.46135"
       sodipodi:ry="123.46135"
       sodipodi:start="3.686519"
       sodipodi:end="4.5389968"
       sodipodi:arc-type="arc"
       d="m -729.7968,182.4652 a 123.46135,123.46135 0 0 1 84.27975,-57.61325"
       sodipodi:open="true" /><path
       style="fill:none;stroke:#000000;stroke-width:0.865512;stroke-linecap:round;stroke-linejoin:round;stroke-dasharray:none;stroke-dashoffset:0"
       id="path19"
       sodipodi:type="arc"
       sodipodi:cx="-623.96954"
       sodipodi:cy="246.2652"
       sodipodi:rx="87.463234"
       sodipodi:ry="87.463234"
       sodipodi:start="2.2755146"
       sodipodi:end="3.1033698"
       sodipodi:open="true"
       sodipodi:arc-type="arc"
       d="m -680.62991,312.89417 a 87.463234,87.463234 0 0 1 -30.73898,-63.28669" /><path
       style="fill:none;stroke:#000000;stroke-width:0.865512;stroke-linecap:round;stroke-linejoin:round;stroke-dasharray:none;stroke-dashoffset:0"
       id="path20"
       sodipodi:type="arc"
       sodipodi:cx="-624.78394"
       sodipodi:cy="246.2652"
       sodipodi:rx="203.26651"
       sodipodi:ry="203.26651"
       sodipodi:start="5.330342"
       sodipodi:end="0.8534637"
       sodipodi:open="true"
       sodipodi:arc-type="arc"
       d="m -507.01783,80.589552 a 203.26651,203.26651 0 0 1 85.24952,155.579528 203.26651,203.26651 0 0 1 -69.3929,163.27001" /><path
       style="fill:none;fill-opacity:1;stroke:#000000;stroke-width:1.88976;stroke-linecap:round;stroke-linejoin:round;stroke-dasharray:15.1181, 15.1181;stroke-dashoffset:0"
       d="m -689.00671,340.96554 62.37198,-95.54263 m 2.65091,0.78847 165.45261,223.49679"
       id="path22"
       sodipodi:nodetypes="cccc" /><path
       style="fill:none;stroke:#000000;stroke-width:1.88976373;stroke-linecap:round;stroke-linejoin:round;stroke-dasharray:15.11810986,15.11810986;stroke-dashoffset:0"
       d="M -592.89091,193.02353 -462.51941,-4.8371052"
       id="path25" /></g></svg>
