<?xml version="1.0" encoding="UTF-8" standalone="no"?>
<!-- Created with Inkscape (http://www.inkscape.org/) -->

<svg
   width="419.9996mm"
   height="297.00009mm"
   viewBox="0 0 419.9996 297.00009"
   version="1.1"
   id="svg1"
   xml:space="preserve"
   inkscape:version="1.3 (0e150ed6c4, 2023-07-21)"
   sodipodi:docname="source_exploded.svg"
   xmlns:inkscape="http://www.inkscape.org/namespaces/inkscape"
   xmlns:sodipodi="http://sodipodi.sourceforge.net/DTD/sodipodi-0.dtd"
   xmlns="http://www.w3.org/2000/svg"
   xmlns:svg="http://www.w3.org/2000/svg"><sodipodi:namedview
     id="namedview1"
     pagecolor="#ffffff"
     bordercolor="#000000"
     borderopacity="0.25"
     inkscape:showpageshadow="2"
     inkscape:pageopacity="0.0"
     inkscape:pagecheckerboard="0"
     inkscape:deskcolor="#d1d1d1"
     inkscape:document-units="mm"
     inkscape:zoom="0.35811417"
     inkscape:cx="1108.585"
     inkscape:cy="545.91529"
     inkscape:window-width="2560"
     inkscape:window-height="1351"
     inkscape:window-x="2551"
     inkscape:window-y="-9"
     inkscape:window-maximized="1"
     inkscape:current-layer="g1"><inkscape:page
       x="87.953781"
       y="9.1526136"
       width="240.14313"
       height="284.88184"
       id="page2"
       margin="0"
       bleed="0" /></sodipodi:namedview><defs
     id="defs1" /><g
     inkscape:label="Layer 1"
     inkscape:groupmode="layer"
     id="layer1"
     transform="translate(-220.00001)" /><g
     id="g1"
     inkscape:groupmode="layer"
     inkscape:label="1"
     transform="matrix(0.26458333,0,0,0.26458335,4.9379573e-6,0)"><g
       id="g2"
       transform="translate(16.754479,8.3772116)"><path
         id="path1"
         d="M 0,0 -0.604,-0.136 M 4.155,-0.446 2.495,0.087 0.038,0.009 0,0 m -0.604,-0.136 -1.451,-0.506 -2.544,-1.511 -2.294,-2.184 -1.871,-2.694 -1.309,-3.004 -0.644,-3.104 0.093,-2.989 0.863,-2.649 1.58,-2.05 1.308,-0.776 m -0.263,0.021 8.019,-4.656 m 12.098,20.837 -8.019,4.656 m 4.198,-24.563 14.805,-8.596 m 7.117,12.257 -14.806,8.596 m 14.055,-19.044 0.294,0.309 m 1.919,3.306 0.123,0.407 m 266.453,-63.536 -0.293,-0.308 m -1.92,-3.306 -0.122,-0.408 m 28.936,-5.917 -20.235,11.749 m -6.364,-12.694 19.483,-11.312 m 17.983,11.684 -8.02,4.656 m -12.098,-20.837 8.02,-4.656 m -0.177,0.24 1.235,-0.733 2.4,-0.403 2.537,0.41 2.564,1.199 2.413,1.928 2.061,2.511 1.55,2.904 0.922,3.09 0.21,3.061 -0.553,2.816 -1.307,2.322 -1.923,1.585 -0.168,0.054 M 108.068,28.425 107.464,28.289 m 4.759,-0.311 -1.66,0.534 -2.456,-0.079 -0.039,-0.008 m -0.604,-0.136 -1.451,-0.506 -2.543,-1.511 -2.294,-2.185 -1.872,-2.693 -1.309,-3.005 -0.644,-3.103 0.093,-2.99 0.863,-2.648 1.581,-2.051 1.308,-0.776 m -0.264,0.021 8.019,-4.656 m 12.098,20.837 -8.019,4.656 m 4.198,-24.562 14.806,-8.597 m 7.116,12.257 -14.806,8.597 M 138.4,-3.67 l 0.293,0.308 m 1.919,3.306 0.123,0.408 m 87.785,-130.898 -1.787,1.038 m -14.786,-19.277 4.474,-2.598 m -0.176,0.24 1.235,-0.732 2.4,-0.403 2.537,0.41 2.564,1.198 2.413,1.928 2.061,2.512 1.55,2.903 0.921,3.09 0.21,3.061 -0.552,2.816 -1.307,2.322 -1.923,1.585 -0.168,0.054 m -138.472,-309.066 0.021,-0.009 -0.217,0.116 -0.573,0.346 -1.305,0.869 -2.288,1.557 -3.579,2.11 -2.356,1.122 -1.542,0.731 -0.864,0.514 -0.627,0.527 -0.567,0.609 -0.698,0.893 -0.934,1.446 -0.762,1.488 -0.381,0.957 -0.173,0.571 -0.066,0.301 -0.007,0.045 m -0.002,-0.025 -2.449,13.519 -2.157,13.669 -1.572,13.095 -0.854,11.863 -0.15,10.162 m -90.057,14.405 -34.281,-95.11 m 69.252,87.112 -0.688,-1.487 -1.749,-2.868 -2.158,-2.578 -2.382,-2.086 -2.381,-1.46 -2.137,-0.793 -1.68,-0.207 -1.125,0.188 -0.391,0.233 m 15.024,20.193 0.098,-0.09 0.523,-1.103 0.288,-1.641 -0.114,-2.348 -0.68,-2.763 -0.511,-1.188 m 117.986,-108.98 -19.366,96.728 m 113.674,464.496 0.659,0.693 m 2.802,4.827 0.276,0.916 m 85.434,-51.174 0.398,1.562 m -49.552,-17.922 15.938,4.192 M 43.165,55.557 51.873,50.502 m -32.817,48.795 2.342,-2.274 m -2.199,17.856 -1.169,-13.391 m 3.369,15.921 -0.81,-0.55 m 460.798,77.327 4.898,20.98 m -6.055,23.022 -14.586,15.855 m -93.842,-105.073 93.243,24.525 m -23.809,90.521 -93.243,-24.525 m -260.938,-479.724 1.503,-0.123 3.136,0.126 2.827,0.522 2.357,0.936 1.561,1.238 0.777,1.451 -0.015,0.662 m -23.796,1.931 -0.06,-0.826 0.663,-1.539 1.313,-1.337 2.131,-1.258 2.768,-0.997 3.107,-0.643 1.728,-0.143 m 12.253,4.682 1.012,11.589 m -24.003,2.095 -1.012,-11.589 m 20.421,13.907 0.901,10.324 m -14.119,1.232 -0.902,-10.323 m 14.38,10.46 -1.043,1.012 m -10.365,0.905 -1.202,-0.816 m -13.628,-180.379 1.042,-1.012 m 10.366,-0.905 1.202,0.816 m -12.047,16.26 -1.204,-13.79 m 14.119,-1.233 1.204,13.791 m -18.004,13.767 -1.012,-11.588 m 24.003,-2.096 1.012,11.589 m -12.542,6.842 -0.711,0.059 -3.136,-0.126 -2.827,-0.523 -2.357,-0.936 -1.561,-1.237 -0.777,-1.451 0.013,-0.575 m 23.798,-2.014 0.06,0.822 -0.663,1.538 -1.313,1.337 -2.131,1.259 -2.768,0.997 -3.107,0.643 -2.52,0.207 m -117.733,34.262 -0.604,-0.136 m 4.759,-0.31 -1.66,0.534 -2.456,-0.079 -0.039,-0.009 m -0.604,-0.136 -1.451,-0.506 -2.543,-1.511 -2.294,-2.184 -1.872,-2.694 -1.309,-3.004 -0.644,-3.104 0.093,-2.989 0.863,-2.649 1.581,-2.05 1.308,-0.776 m -0.264,0.021 8.019,-4.656 m 12.098,20.837 -8.019,4.656 m 4.198,-24.562 4.113,-2.389 m 7.117,12.257 -4.114,2.389 m 3.363,-12.837 0.294,0.309 m 1.919,3.306 0.123,0.408 m 140.567,81.369 1.503,-0.124 3.135,0.126 2.828,0.522 2.356,0.936 1.562,1.238 0.777,1.451 -0.015,0.662 m -23.796,1.931 -0.06,-0.826 0.663,-1.538 1.313,-1.338 2.131,-1.258 2.767,-0.997 3.108,-0.643 1.728,-0.142 m 12.253,4.681 1.012,11.589 m -24.003,2.096 -1.012,-11.589 m 20.421,13.907 0.901,10.323 m -14.12,1.233 -0.901,-10.324 m 14.38,10.46 -1.043,1.012 m -10.365,0.905 -1.202,-0.816 m 175.892,112.083 1.32,0.554 1.581,1.573 1.128,2.208 0.616,2.779 0.027,3.131 -0.562,3.217 -1.108,3.073 -1.584,2.709 -1.975,2.148 -1.307,0.926 m 0,0 -1.253,0.584 -2.118,0.357 -1.338,-0.315 m 0.09,0.142 -9.868,-2.595 m 6.129,-23.302 9.868,2.595 m -20.389,14.422 -6.528,-1.717 m 3.605,-13.707 6.528,1.717 m -12.608,8.857 -0.214,-0.919 m 1.96,-7.45 0.638,-0.695 m -147.567,-301.754 -1.457,0.846 m 12.323,-1.419 -8.019,4.656 m 0.302,-26.24 1.615,0.261 2.564,1.199 2.412,1.928 2.062,2.511 1.55,2.904 0.921,3.09 0.21,3.061 -0.552,2.816 -1.307,2.322 -1.923,1.585 -0.168,0.054 m 128.755,322.582 1.32,0.554 1.581,1.572 1.129,2.208 0.615,2.779 0.028,3.131 -0.563,3.218 -1.108,3.072 -1.584,2.709 -1.975,2.149 -1.307,0.926 m 0,0 -1.253,0.584 -2.118,0.357 -1.338,-0.316 m 0.09,0.143 -9.868,-2.596 m 6.129,-23.302 9.868,2.596 m -20.389,14.422 -6.528,-1.717 m 3.605,-13.707 6.528,1.717 m -12.608,8.857 -0.214,-0.919 m 1.96,-7.451 0.638,-0.694 m 24.374,141.461 0.607,6.954 m -15.532,1.355 -0.607,-6.953 m 12.842,8.576 1.053,12.059 m -8.472,0.739 -1.053,-12.058 m 9.14,12.14 -0.657,0.638 m -6.151,0.537 -0.758,-0.514 M 38.431,23.195 39.038,30.148 M 23.507,31.504 22.9,24.551 m 12.842,8.576 1.052,12.059 M 28.323,45.925 27.27,33.867 m 9.14,12.14 -0.657,0.638 m -6.151,0.537 -0.758,-0.514 m -24.717,-375.199 1.635,-0.95 m 0.558,1.526 -2.193,-0.576 m -1.371,2.646 3.564,-2.07 m 9.593,5.53 -13.157,-3.46 m 16.721,1.391 -3.564,2.069 m 5.757,-1.492 -2.193,-0.577 m 3.839,-0.379 -1.646,0.956 m -5.757,1.492 1.799,20.603 m -14.956,-24.063 1.798,20.602 m 13.158,3.461 -13.158,-3.461 m 0.197,-10.013 0.203,-2.354 1.006,-1.776 1.656,-0.928 2.056,0.062 2.141,1.042 1.9,1.863 1.371,2.402 0.632,2.573 -0.202,2.354 -1.006,1.776 -1.657,0.928 -2.055,-0.062 -2.141,-1.042 -1.9,-1.863 -1.371,-2.401 -0.633,-2.574 m 14.726,-9.198 1.799,20.602 m 0,0 -3.564,2.07 m 3.958,-22.095 1.799,20.602 m 0,0 -2.193,-0.577 m 3.138,-20.766 1.728,19.791 m 0,0 -2.673,1.552 m 1.62,-21.244 1.533,17.563 m 0,0 -0.48,2.129 m -22.015,-23.664 0.154,1.76 m 75.802,-11.265 -1.075,-12.321 m 1.075,12.321 4.866,-0.975 m 0,0 -1.21,-13.861 m -16.813,11.375 -0.188,-2.155 m 0.188,2.155 13.157,3.461 m -11.013,-8.573 0.056,0.074 1.901,1.864 2.14,1.041 2.056,0.062 1.656,-0.928 1.006,-1.776 0.203,-2.354 -0.228,-1.336 m 7.089,10.951 2.673,-1.552 m 0,0 -1.21,-13.861 m 1.057,12.1 1.525,-0.886 m 0,0 -1.057,-12.1 m 7.684,265.57 1.782,-1.035 m 0,0 4.386,1.154 m 0,0 10.692,-6.208 m 0,0 -4.386,-1.154 m 0,0 1.782,-1.034 m 0,0 -3.289,-0.866 m 0,0 -5.072,0.17 m 0,0 -10.692,6.208 m 0,0 1.508,1.9 m 0,0 3.289,0.865 m 3.58,19.567 -1.798,-20.602 m 1.798,20.602 4.386,1.154 m 0,0 -1.798,-20.602 m 1.798,20.602 10.693,-6.208 m 0,0 -1.799,-20.602 m 0.008,10.818 -0.124,2.661 -0.783,2.649 -1.324,2.235 -1.662,1.48 -1.747,0.5 -1.568,-0.557 -1.148,-1.528 -0.554,-2.266 0.124,-2.661 0.784,-2.649 1.323,-2.235 1.662,-1.48 1.748,-0.5 1.567,0.556 1.148,1.528 0.554,2.267 m -15.07,15.873 -1.798,-20.602 m 1.798,20.602 1.782,-1.035 m -5.071,0.17 -1.798,-20.602 m 1.798,20.602 3.289,0.865 m -4.796,-2.765 -1.799,-20.602 m 1.799,20.602 1.507,1.9 m 15.882,-26.476 -0.135,-1.538 m -49.897,28.971 1.782,-1.035 m 0,0 4.386,1.153 m 0,0 10.692,-6.208 m 0,0 -4.386,-1.153 m 0,0 1.782,-1.035 m 0,0 -3.289,-0.865 m 0,0 -5.071,0.169 m 0,0 -10.693,6.208 m 0,0 1.508,1.9 m 0,0 3.289,0.866 m 3.581,19.567 -1.799,-20.602 m 1.799,20.602 4.386,1.154 m 0,0 -1.799,-20.603 m 1.799,20.603 10.692,-6.209 m 0,0 -1.799,-20.602 m 0.008,10.819 -0.124,2.66 -0.783,2.65 -1.323,2.235 -1.663,1.48 -1.747,0.499 -1.567,-0.556 -1.149,-1.528 -0.554,-2.267 0.124,-2.661 0.784,-2.649 1.323,-2.235 1.662,-1.48 1.748,-0.5 1.567,0.557 1.148,1.528 0.554,2.267 M 61.779,-48.444 59.98,-69.046 m 1.799,20.602 1.782,-1.035 m -5.072,0.169 -1.798,-20.602 m 1.798,20.602 3.29,0.866 m -4.797,-2.765 -1.799,-20.603 m 1.799,20.603 1.507,1.899 m 15.882,-26.475 -0.135,-1.539 m 291.258,98.803 -0.225,-2.575 m 0,0 3.564,-2.07 m 0,0 -1.349,-15.451 m 0,0 -2.645,1.536 m -6.056,6.023 1.14,13.066 m 0,0 2.898,1.023 m 0,0 2.673,-1.552 m -23.838,-12.378 0.724,8.292 m 0,0 17.543,4.615 m -14.957,-12.036 0.029,0.561 0.632,2.573 1.371,2.402 1.9,1.863 2.141,1.042 2.055,0.062 1.657,-0.928 1.006,-1.776 0.202,-2.354 -0.598,-2.488 m 10.011,-10.102 2.112,0.556 m -25.104,16.01 2.898,1.024 m 0,0 17.543,4.614 m -9.567,-10.879 -2.119,-2.828 m 12.811,-3.38 -10.692,6.208 m 12.137,-11.106 -1.445,4.898 m 1.108,-8.761 0.337,3.863 m -2.119,-2.828 1.782,-1.035 m -2.232,-4.116 0.45,5.151 m -11.142,1.057 10.692,-6.208 M 352.58,4.426 352.13,-0.725 m -1.332,6.186 1.782,-1.035 m -1.445,4.898 -0.337,-3.863 m 1.332,-6.186 -17.544,-4.614 m 28.236,-1.594 -17.543,-4.614 m -10.693,6.208 10.693,-6.208 m 7.88,2.825 1.759,0.748 0.813,1.029 -0.257,1.152 -1.287,1.099 -2.122,0.88 -2.634,0.527 -2.745,0.093 -2.437,-0.355 -1.759,-0.749 -0.812,-1.028 0.256,-1.152 1.288,-1.1 2.122,-0.88 2.634,-0.526 2.744,-0.093 2.437,0.355 M 352.58,4.426 335.036,-0.188 m 0,0 -0.45,-5.151 m 16.212,10.8 -17.544,-4.615 m 0,0 1.782,-1.034 m 16.099,9.512 -17.544,-4.615 m 0,0 -0.337,-3.863 m 20,11.306 -17.543,-4.615 m 0,0 -2.12,-2.828 m 31.463,-7.526 -1.916,-0.504 m 110.424,53.224 -0.224,-2.575 m 0,0 3.564,-2.069 m 0,0 -1.349,-15.452 m 0,0 -3.564,2.07 m 0,0 -0.225,-2.576 m 0,0 -2.673,1.552 m 0,0 -2.449,4.128 m 0,0 1.349,15.451 m 0,0 2.898,1.024 m 0,0 2.673,-1.553 m -22.015,-23.664 17.544,4.614 m -17.544,-4.614 -2.448,4.127 m 0,0 17.543,4.615 m -17.543,-4.615 1.349,15.452 m 0,0 17.543,4.614 m -10.008,-16.471 -2.055,-0.062 -1.657,0.928 -1.006,1.776 -0.202,2.354 0.632,2.574 1.371,2.401 1.9,1.864 2.141,1.041 2.055,0.062 1.657,-0.928 1.006,-1.776 0.202,-2.354 -0.632,-2.573 -1.371,-2.402 -1.9,-1.863 -2.141,-1.042 m -3.763,-9.274 17.544,4.614 m -17.544,-4.614 -2.673,1.552 m 6.462,-1.046 17.544,4.614 m -17.544,-4.614 -0.581,0.338 m -6.98,20.287 2.898,1.023 m 0,0 17.543,4.615 M 414.53,81.473 412.082,85.6 m 1.099,-19.579 1.349,15.452 m -4.247,-16.475 2.898,1.023 m -5.571,0.529 2.673,-1.552 m -2.448,4.127 -0.225,-2.575 m -3.339,4.644 3.564,-2.069 m -2.215,17.521 -1.349,-15.452 m 4.913,13.383 -3.564,2.069 m 3.789,0.506 -0.225,-2.575 m 2.898,1.023 -2.673,1.552 M 404.271,71.194 386.727,66.58 m 21.108,2.545 -17.543,-4.614 m -3.565,2.069 3.565,-2.069 m 15.328,22.135 -17.544,-4.614 m 0,0 -1.349,-15.452 m 8.885,3.595 2.14,1.042 1.901,1.863 1.371,2.402 0.632,2.573 -0.202,2.354 -1.006,1.776 -1.657,0.928 -2.055,-0.062 -2.141,-1.042 -1.901,-1.863 -1.37,-2.401 -0.633,-2.574 0.202,-2.354 1.007,-1.776 1.656,-0.928 2.056,0.062 M 407.61,66.55 390.067,61.935 m 20.216,3.063 -17.543,-4.615 m -2.673,1.552 2.673,-1.552 m -2.448,4.128 -0.225,-2.576 m 19.342,25.217 -3.208,-0.844 m -88.588,-53.463 -2.119,-2.828 m 12.811,-3.38 -10.692,6.208 m 12.137,-11.105 -1.445,4.897 m 1.108,-8.76 0.337,3.863 m -2.119,-2.829 1.782,-1.034 m -2.232,-4.116 0.45,5.15 m -11.142,1.058 10.692,-6.208 m -10.242,11.359 -0.45,-5.151 m -1.332,6.185 1.782,-1.034 m -1.445,4.897 -0.337,-3.863 m 1.332,-6.185 -17.543,-4.614 m 28.235,-1.594 -17.543,-4.614 m -10.692,6.208 10.692,-6.208 m 7.881,2.824 1.758,0.749 0.813,1.028 -0.257,1.152 -1.287,1.1 -2.122,0.88 -2.634,0.527 -2.744,0.092 -2.438,-0.354 -1.758,-0.749 -0.813,-1.029 0.257,-1.152 1.287,-1.099 2.122,-0.88 2.634,-0.527 2.744,-0.093 2.438,0.355 m -0.58,13.149 -17.544,-4.615 m 0,0 -0.449,-5.15 m 16.211,10.799 -17.544,-4.614 m 0,0 1.782,-1.035 m 16.099,9.512 -17.544,-4.614 m 0,0 -0.337,-3.863 m 20,11.305 -17.543,-4.614 m 0,0 -2.12,-2.828 m 31.463,-7.526 -1.916,-0.504 m -21.035,35.675 -2.448,4.127 m 1.099,-19.579 1.349,15.452 m -4.247,-16.475 2.898,1.023 m -5.571,0.529 2.673,-1.552 m -2.448,4.128 -0.225,-2.576 m -3.339,4.645 3.564,-2.069 m -2.215,17.52 -1.349,-15.451 m 4.913,13.382 -3.564,2.069 m 3.789,0.506 -0.225,-2.575 m 2.898,1.023 -2.673,1.552 M 296.203,42.77 278.659,38.156 m 21.108,2.545 -17.544,-4.615 m -3.564,2.07 3.564,-2.07 m 15.329,22.135 -17.544,-4.614 m 0,0 -1.349,-15.451 m 8.884,3.594 2.141,1.042 1.901,1.864 1.37,2.401 0.633,2.573 -0.202,2.354 -1.006,1.777 -1.657,0.927 -2.056,-0.061 -2.14,-1.042 -1.901,-1.864 -1.371,-2.401 -0.632,-2.573 0.202,-2.354 1.006,-1.777 1.657,-0.927 2.055,0.061 m 11.999,-3.625 -17.543,-4.614 m 20.216,3.062 -17.543,-4.614 m -2.673,1.552 2.673,-1.552 m -2.449,4.127 -0.224,-2.575 m 19.342,25.216 -3.208,-0.843 m -81.621,-131.276 -0.225,-2.575 m -67.697,-88.258 67.697,88.258 m -67.697,-88.258 -2.193,-0.577 m 71.036,83.613 11.701,-6.793 m 11.39,-6.614 5.422,-3.148 m -91.374,-65.398 62.861,81.953 m -34.349,-98.508 -28.512,16.555 m 28.512,-16.555 62.862,81.953 m -15.93,13.805 -13.729,7.972 m -32.056,-108.951 67.635,88.176 m -67.635,-88.176 -35.641,20.693 m 83.183,81.972 -15.261,8.861 m 29.434,-24.352 -51.627,-13.579 m 7.585,9.888 9.467,2.49 m 0,0 1.935,0.824 0.894,1.131 -0.282,1.267 -1.417,1.21 -2.334,0.968 -1.879,0.433 m -19.911,-25.958 -5.293,-60.627 m -1.046,-5.798 -35.641,20.693 m 37.834,-20.116 -2.193,-0.577 m 43.966,106.592 2.384,0.627 m 0,0 -0.167,-1.915 m 0.167,1.915 5.757,-3.342 m -56.86,-51.913 -0.971,-11.119 m 0,0 -0.61,-2.493 -1.263,-1.681 -1.724,-0.612 -1.922,0.55 -1.828,1.628 -1.02,1.554 m -0.492,-32.16 0.99,0.261 m -11.683,5.947 10.693,-6.208 m -10.693,6.208 0.991,0.261 m -0.921,0.535 -0.07,-0.796 m 15.166,25.853 4.386,1.153 m -4.386,-1.153 -0.61,-2.494 -0.363,-0.678 m 35.784,53.844 4.554,1.198 m -38.844,-45.902 -0.521,-5.968 m -54.877,73.802 -6.295,-72.107 m 8.712,75.259 -2.417,-3.152 m 63.82,19.302 -61.403,-16.15 m 61.403,16.15 -0.225,-2.575 m -67.697,-88.257 67.697,88.257 m -67.697,-88.257 -2.193,-0.577 m 71.036,83.613 28.513,-16.555 m -91.374,-65.399 62.861,81.954 m -34.349,-98.509 -28.512,16.555 m 28.512,-16.555 62.862,81.954 m 5.982,1.083 -35.641,20.693 m -32.056,-108.951 67.697,88.258 m -67.697,-88.258 -35.641,20.694 m 103.563,70.139 -35.641,20.693 m 35.641,-20.693 -0.225,-2.575 m -5.982,-1.083 -51.627,-13.579 m 7.585,9.888 9.467,2.49 m 0,0 1.935,0.823 0.894,1.132 -0.282,1.267 -1.417,1.209 -2.334,0.969 -1.879,0.433 m -19.911,-25.958 -5.293,-60.628 m -1.046,-5.798 -35.641,20.694 m 37.834,-20.117 -2.193,-0.577 m 46.351,107.22 10.692,-6.208 m 0,0 -0.167,-1.915 m -10.525,8.123 -0.168,-1.915 m -2.217,1.287 2.385,0.628 m -51.104,-55.255 -0.971,-11.119 m 0,0 -0.61,-2.493 -1.263,-1.681 -1.723,-0.612 -1.923,0.549 -1.828,1.628 -1.02,1.554 m -0.492,-32.159 0.99,0.26 m -11.682,5.948 10.692,-6.208 m -10.692,6.208 0.99,0.26 m -0.921,0.535 -0.069,-0.795 m 15.165,25.852 4.386,1.154 m -4.386,-1.154 -0.61,-2.493 -0.363,-0.678 m 35.784,53.844 4.554,1.197 m -38.844,-45.902 -0.521,-5.968 M -1.135,-0.989 -3.717,-2.13 -6.13,-4.105 -8.135,-6.72 l -1.404,-2.999 -0.663,-3.09 0.142,-2.879 0.933,-2.385 1.633,-1.658 2.173,-0.768 2.5,0.195 2.582,1.141 2.413,1.975 2.005,2.615 1.404,2.999 0.663,3.091 -0.142,2.878 -0.933,2.385 -1.633,1.658 -2.173,0.768 -2.5,-0.195 m 5.418,0.58 0.67,-0.331 0.009,-0.005 m -11.915,-20.939 -0.183,0.102 m 8.019,-4.656 1.145,-0.506 2.57,-0.264 2.778,0.731 2.739,1.66 2.456,2.441 1.955,3.007 1.28,3.304 0.492,3.308 -0.341,3.018 -1.142,2.46 -1.834,1.678 m -20.049,-6.584 2.093,-4.507 m 0,0 5.09,1.339 m 2.997,5.845 -2.997,-5.845 m 0.904,10.352 2.093,-4.507 m -2.093,4.507 -5.09,-1.339 m -2.997,-5.845 2.997,5.845 m 2.957,-5.509 -0.308,-0.674 -0.242,-0.69 -0.17,-0.694 -0.097,-0.686 -0.021,-0.665 0.053,-0.625 M 2.581,-8.164 2.35,-8.253 1.773,-8.533 1.208,-8.895 0.665,-9.33 0.152,-9.832 l -0.472,-0.561 -0.425,-0.609 -0.369,-0.647 m -1.499,-2.923 -4.455,2.587 m 4.455,-2.587 0.538,-1.157 m 4.649,7.579 -2.19,-0.576 m 0,0 -4.455,2.586 m 2.957,-5.509 1.498,2.923 m -2.997,-5.846 1.499,2.923 m 25.079,-22.255 0.941,-0.371 2.056,0.061 2.14,1.042 1.901,1.864 1.371,2.401 0.632,2.573 -0.202,2.354 -1.006,1.777 -0.716,0.556 m -0.457,-10.139 0.552,0.646 1.126,1.974 0.241,0.686 m 269.053,-61.695 1.689,0.05 1.362,-0.762 0.827,-1.46 0.166,-1.935 -0.519,-2.116 -1.127,-1.974 -1.562,-1.531 -1.76,-0.857 -1.69,-0.05 -0.449,0.144 m -1.915,3.889 0.009,0.124 0.52,2.116 1.127,1.973 1.562,1.532 1.76,0.857 m 0.893,0.685 2.055,0.062 1.657,-0.928 1.006,-1.776 0.202,-2.354 -0.632,-2.574 -1.371,-2.401 -1.9,-1.863 -2.141,-1.042 -2.055,-0.062 -0.227,0.061 m -2.527,5.805 0.228,0.931 m 2.335,4.022 1.229,1.077 2.141,1.042 m 19.111,-24.625 2.141,1.042 1.9,1.863 1.371,2.402 0.632,2.573 -0.202,2.354 -1.006,1.776 -0.716,0.557 m -7.116,-12.257 0.941,-0.372 2.055,0.062 m 1.874,17.176 2.705,0.237 2.379,-0.758 1.843,-1.683 1.142,-2.46 0.341,-3.018 -0.492,-3.308 -1.28,-3.304 -1.955,-3.006 -2.456,-2.442 -2.738,-1.66 -2.778,-0.731 -2.571,0.264 -2.135,1.234 -1.51,2.095 -0.75,2.77 -0.044,2.056 m 7.116,12.257 0.393,0.248 2.79,1.209 m -216.542,124.374 -2.582,-1.141 -2.412,-1.974 -2.006,-2.615 -1.403,-3 -0.663,-3.09 0.142,-2.878 0.933,-2.385 1.632,-1.658 2.173,-0.769 2.5,0.196 2.583,1.141 2.412,1.975 2.006,2.615 1.403,2.999 0.663,3.09 -0.142,2.878 -0.933,2.385 -1.633,1.658 -2.173,0.769 -2.5,-0.196 m 5.419,0.58 0.669,-0.33 0.009,-0.006 M 101.115,6.74 100.932,6.842 m 8.019,-4.656 1.145,-0.506 2.571,-0.263 2.778,0.73 2.738,1.66 2.456,2.442 1.955,3.006 1.28,3.304 0.492,3.308 -0.341,3.018 -1.142,2.46 -1.834,1.678 M 101,16.439 l 2.093,-4.507 m 0,0 5.09,1.339 m 2.997,5.846 -2.997,-5.846 m 0.904,10.353 2.093,-4.507 m -2.093,4.507 -5.09,-1.339 M 101,16.439 l 2.997,5.846 m 2.957,-5.51 -0.308,-0.674 -0.241,-0.69 -0.171,-0.693 -0.097,-0.686 -0.021,-0.666 0.053,-0.625 m 4.48,7.519 -0.231,-0.088 -0.577,-0.281 -0.565,-0.361 -0.543,-0.436 -0.513,-0.502 -0.472,-0.56 -0.425,-0.609 -0.369,-0.648 M 105.456,13.853 101,16.439 m 4.456,-2.586 0.537,-1.158 m 4.649,7.579 -2.19,-0.576 m 0,0 -4.455,2.587 m 2.957,-5.51 1.498,2.923 m -2.996,-5.845 1.498,2.922 m 25.08,-22.255 0.941,-0.371 2.055,0.062 2.141,1.042 1.9,1.863 1.371,2.401 0.632,2.574 -0.202,2.354 -1.006,1.776 -0.716,0.556 m -0.457,-10.139 0.552,0.647 1.127,1.973 0.24,0.686 m 83.195,-133.266 -0.482,-3.032 -1.28,-3.304 -1.955,-3.006 -2.456,-2.442 -2.738,-1.659 -1.857,-0.595 M 36.137,-90.767 19.275,-283.912 m 16.862,193.145 15.35,4.037 m 0,0 -16.861,-193.144 m -15.351,-4.038 15.351,4.038 m 71.282,-41.387 -15.351,-4.038 m 0,0 -3.564,2.07 m 0,0 2.193,0.576 m 0,0 -5.346,3.105 m 0,0 -3.975,0.457 m 0,0 -13.158,-3.46 m 0,0 -0.411,-1.612 m 0,0 5.347,-3.104 m 0,0 2.192,0.577 m 0,0 3.565,-2.069 m 0,0 -15.351,-4.038 m 0,0 -12.474,7.243 m 0,0 4.386,1.153 m 0,0 1.782,-1.034 m 0,0 6.578,1.73 m 0,0 0.411,1.611 m 0,0 -10.692,6.209 m 0,0 -3.975,0.457 m 0,0 -6.579,-1.73 m 0,0 1.782,-1.035 m 0,0 -4.386,-1.153 m 0,0 -12.695,7.371 m -2.077,8.288 2.571,0.676 m 0,0 0.41,1.611 m 0,0 -10.692,6.208 m 0,0 -3.975,0.458 m 0,0 -6.579,-1.73 m 0,0 1.782,-1.035 m 0,0 -4.385,-1.154 m 0,0 -12.475,7.243 m 0,0 15.351,4.038 m 0,0 3.564,-2.07 m 0,0 -2.193,-0.576 m 0,0 5.346,-3.105 m 0,0 3.975,-0.457 m 0,0 13.158,3.46 m 0,0 0.411,1.612 m 0,0 -5.347,3.104 m 0,0 -2.192,-0.577 m 0,0 -3.565,2.069 m 15.351,4.038 12.474,-7.243 m 0,0 -4.386,-1.153 m 0,0 -1.782,1.034 m 0,0 -6.578,-1.73 m 0,0 -0.411,-1.612 m 0,0 10.692,-6.208 m 0,0 3.975,-0.457 m 0,0 6.579,1.73 m 0,0 -1.782,1.035 m 0,0 4.386,1.153 m 0,0 24.948,-14.485 m 0,0 -4.386,-1.154 m 0,0 -1.782,1.035 m 0,0 -6.579,-1.731 m 0,0 -0.41,-1.611 m 0,0 10.692,-6.208 m 0,0 3.975,-0.458 m 0,0 6.579,1.73 m 0,0 -1.782,1.035 m 0,0 4.385,1.154 m 0,0 12.475,-7.243 M 51.487,-86.73 63.962,-93.972 m 0,0 L 47.1,-287.117 m -16.979,-1.242 -0.153,-1.761 M 22.979,-94.228 6.118,-287.372 m 16.861,193.144 3.564,-2.069 m 0,0 L 9.682,-289.442 M 7.628,-98.265 -9.233,-291.41 m 16.861,193.145 15.351,4.037 M 33.671,-100.436 16.81,-293.58 m 16.861,193.144 1.66,0.436 m 10.11,-187.553 -0.806,-9.233 m 25.633,195.452 -16.861,-193.144 m 16.861,193.144 4.386,1.154 m 0,0 -16.861,-193.145 m 16.861,193.145 24.948,-14.486 m 0,0 -7.917,-90.695 m -3.055,-34.992 -5.889,-67.457 m -56.352,209.752 3.307,-1.92 m 0,0 -16.861,-193.145 M 65.471,-104.099 48.61,-297.243 m 16.861,193.144 4.663,1.226 m -40.438,2.895 3.975,-0.458 m 29.43,-3.39 2.37,-0.273 M 7.762,-295.96 7.627,-297.499 m 19.207,-3.752 -0.153,-1.76 m -5.964,5.312 -0.488,-5.585 m -1.294,6.62 -0.488,-5.585 m -3.653,7.242 -0.678,-7.761 m 66.966,-5.479 -0.806,-9.232 m 25.633,195.451 -8.578,-98.263 m -1.655,-18.958 -6.628,-75.923 m 16.861,193.144 4.386,1.154 m 0,0 -16.862,-193.144 m 16.862,193.144 2.369,-1.376 m 8.197,-27.725 -7.933,-90.874 m -1.355,-15.522 -5.665,-64.89 m -4.796,196.468 -7.105,-81.391 m -2.975,-34.073 -6.781,-77.68 m 16.861,193.144 4.663,1.227 m -7.033,-0.954 2.37,-0.273 m -57.709,-191.861 -0.135,-1.539 m 43.879,-3.276 -0.154,-1.76 m -24.518,1.285 -0.154,-1.761 m -5.964,5.313 -0.614,-7.043 m 16.437,4.323 -0.537,-6.155 m -17.068,9.909 -0.614,-7.043 m -3.526,8.7 -0.86,-9.853 m 24.798,5.019 -0.538,-6.155 m 4.371,7.163 -0.806,-9.232 M 295.982,15.286 294.408,-2.741 m 0,0 -3.564,2.069 m 0,0 0.225,2.575 m 0,0 -5.346,3.104 m 0,0 -2.007,-1.54 m 0,0 -1.349,-15.452 m 0,0 1.557,-3.61 m 0,0 5.346,-3.104 m 0,0 0.225,2.575 m 0,0 3.564,-2.069 m 0,0 -1.573,-18.027 m 0,0 -12.475,7.243 m 0,0 0.45,5.151 m 0,0 1.782,-1.035 m 0,0 0.674,7.726 m 0,0 -1.557,3.61 m 0,0 -10.692,6.208 m 0,0 -2.007,-1.541 m 0,0 -0.674,-7.726 m 0,0 1.782,-1.034 m 0,0 -0.45,-5.151 m 0,0 -24.949,14.486 m 0,0 0.45,5.15 m 0,0 1.782,-1.035 m 0,0 0.675,7.726 m 0,0 -1.558,3.61 m 0,0 -10.692,6.208 m 0,0 -2.007,-1.54 m 0,0 -0.674,-7.726 m 0,0 1.782,-1.035 m 0,0 -0.45,-5.15 m 0,0 -12.474,7.242 m 0,0 1.574,18.027 m 0,0 3.564,-2.069 m 0,0 -0.225,-2.575 m 0,0 5.346,-3.104 m 0,0 2.007,1.54 m 0,0 1.349,15.452 m 0,0 -1.557,3.61 m 0,0 -5.347,3.104 m 0,0 -0.224,-2.575 m 0,0 -3.564,2.069 m 0,0 1.573,18.027 m 0,0 12.474,-7.243 m 0,0 -0.449,-5.151 m 0,0 -1.782,1.035 m 0,0 -0.675,-7.726 m 0,0 1.558,-3.61 m 0,0 10.692,-6.208 m 0,0 2.007,1.541 m 0,0 0.674,7.726 m 0,0 -1.782,1.034 m 0,0 0.45,5.151 m 0,0 24.948,-14.486 m 0,0 -0.449,-5.15 m 0,0 -1.782,1.034 m 0,0 -0.675,-7.725 m 0,0 1.557,-3.61 m 0,0 10.693,-6.208 m 0,0 2.007,1.54 m 0,0 0.674,7.726 m 0,0 -1.782,1.035 m 0,0 0.45,5.15 m 0,0 12.474,-7.242 M 24.349,-56.871 232.678,-2.075 M 24.349,-56.871 11.874,-49.628 m 0,0 208.33,54.795 m -208.33,-54.795 1.574,18.027 m 0,0 4.509,1.186 m 15.037,3.955 93.031,24.469 m 15.037,3.955 80.716,21.23 M 19.489,-14.916 101.331,6.611 m 26.226,6.898 95.57,25.137 M 15.488,-8.238 16.371,1.877 m 0,0 84.943,22.342 m 12.165,3.2 L 224.7,56.673 M 23.053,-16.985 104.895,4.541 m 26.226,6.898 95.57,25.138 m 2.572,-20.434 3.207,0.843 M 30.181,-21.124 118.823,2.191 m 19.426,5.11 95.57,25.137 M 25.416,-18.358 107.259,3.169 m 26.226,6.898 98.777,25.981 M 231.89,3.794 244.719,7.168 m -209.678,-70.247 21.396,5.628 m 18.738,4.928 168.195,44.24 m -208.329,-54.796 0.45,5.15 m 0,0 21.396,5.628 m 12.324,3.242 174.609,45.926 m -183.83,-74.432 3.511,0.924 m 13.518,3.556 191.3,50.316 M 59.99,-77.565 35.041,-63.079 m 2.366,5.655 0.356,4.081 M 232.862,0.03 246.277,3.558 m -11.468,40.217 1.916,0.504 m 8.592,-15.812 3.208,0.844 m -12.155,4.351 12.829,3.375 m -13.778,-2.121 11.996,3.155 m -12.965,1.622 13.415,3.529 m 19.664,-60.122 12.829,3.375 m -197.204,-77.49 7.981,2.099 m 22.463,5.908 2.548,0.67 m 82.062,21.584 93.276,24.534 m -208.33,-54.795 -12.474,7.242 m 0,0 21.396,5.628 m 18.738,4.929 6.642,1.747 m 65.892,17.331 95.661,25.161 m -208.329,-54.796 0.45,5.151 m 0,0 21.395,5.628 m 12.324,3.241 174.61,45.927 m -206.413,-54.292 0.043,0.493 m 195.412,56.961 13.414,3.529 m -11.468,40.217 1.917,0.504 m 8.592,-15.812 3.208,0.843 m 2.122,-25.584 3.207,0.843 m -17.484,29.093 12.829,3.374 m -1.436,-16.456 7.665,2.016 m -20.007,12.319 11.996,3.156 M 270.093,19 l 13.415,3.528 m -0.598,-28.294 11.498,3.025 m -11.229,0.053 7.665,2.016 m -215.12,-449.765 -2.51,-0.381 -2.832,0.055 -2.773,0.483 -2.339,0.846 -1.588,1.095 -0.625,1.196 0.425,1.135 1.416,0.922 2.216,0.582 2.717,0.166 2.851,-0.273 2.6,-0.677 1.998,-0.987 1.126,-1.165 0.101,-1.186 -0.936,-1.046 -1.847,-0.765 m -71.271,-18.746 -2.509,-0.381 -2.833,0.055 -2.773,0.483 -2.338,0.846 -1.589,1.095 -0.624,1.196 0.424,1.135 1.416,0.922 2.216,0.583 2.718,0.165 2.851,-0.273 2.6,-0.677 1.997,-0.987 1.126,-1.165 0.102,-1.186 -0.936,-1.046 -1.848,-0.765 m 26.052,-26.689 1.549,-0.153 1.556,-0.065 1.532,0.025 m -4.637,0.193 -89.317,51.859 m 1.288,1.751 -0.636,-0.545 -0.432,-0.588 -0.22,-0.618 m 94.046,26.149 -92.758,-24.398 m 97.394,24.205 -1.549,0.153 -1.555,0.064 -1.532,-0.024 m 93.954,-52.052 -89.318,51.859 m 88.03,-53.611 0.635,0.546 0.432,0.587 0.221,0.619 m -1.288,-1.752 -92.758,-24.397 m 3.561,169.341 7.393,-84.125 m 0,0 -1.393,0.103 -1.537,-1.2 -1.629,-2.465 -1.667,-3.646 m -4.636,0.193 -1.479,3.979 -1.338,2.801 -1.184,1.594 -1.018,0.37 m 0,0 -7.393,84.126 m 0,0 1.876,0.38 2.066,0.21 2.179,0.029 2.211,-0.15 2.159,-0.325 2.027,-0.488 1.82,-0.633 1.543,-0.753 m 90.485,-143.192 -0.9,5.137 -1.063,4.027 -1.189,2.783 -1.276,1.446 m -78.664,45.674 25.038,-14.538 m 28.588,-16.598 -1.158,0.287 -1.079,-0.116 -4.429,0.064 -3.892,2.074 -6.496,3.964 -3.324,1.673 -3.188,2.489 -2.489,3.149 -1.702,2.3 -0.831,0.714 m 28.588,-16.598 25.038,-14.538 m -175.468,26.118 -1.131,-0.935 -1.525,-2.306 -1.902,-3.654 -2.258,-4.962 m 6.816,11.857 80.923,21.285 m -46.65,73.8 39.257,10.326 m -10.575,-31.274 -1.415,-2.897 -1.772,-2.754 -2.072,-2.525 -2.308,-2.215 -2.47,-1.836 -2.555,-1.4 -2.559,-0.918 -2.483,-0.408 -2.328,0.115 -2.1,0.634 -1.805,1.134 -1.454,1.597 -1.057,2.01 -0.627,2.361 m 0,0 -0.152,1.429 0.534,5.255 2.094,5.499 3.422,5.098 0.024,0.028 4.416,4.15 4.864,2.674 4.735,0.896 4.066,-0.957 2.962,-2.674 1.549,-4.087 -0.031,-5.06 -1.478,-5.149 m 26.456,29.544 25.705,-14.925 m 5.987,-81.045 -1.468,8.105 -1.326,8.136 -1.168,8.077 -0.999,7.934 -0.818,7.704 -0.63,7.393 -0.434,7 -0.233,6.535 -0.03,5.998 0.173,5.397 0.374,4.738 0.572,4.028 m 6.726,-83.738 -0.572,1.918 -0.167,0.775 m 29.344,-17.038 -0.017,-2.253 m -33.454,88.886 -0.071,-0.835 -0.412,-5.842 -0.218,-4.164 m -1.159,22.291 2.181,-1.758 0.683,-1.127 m -86.175,8.263 0.859,0.415 1.609,0.536 m 91.642,-13.821 -1.491,0.395 -1.388,0.464 -1.263,0.526 -1.118,0.579 -0.952,0.622 -0.771,0.656 -0.578,0.677 -0.374,0.688 m -82.03,-18.836 0.908,0.467 1.005,0.358 1.065,0.234 1.084,0.103 1.064,-0.033 1.004,-0.167 0.907,-0.296 0.776,-0.413 m 82.152,13.976 4.195,-1.342 1.567,-0.781 m -87.914,-11.853 -0.225,3.18 0.612,3.434 1.397,3.396 2.064,3.071 2.557,2.487 2.833,1.693 2.87,0.755 2.664,-0.247 2.233,-1.228 0.813,-0.849 m 113.887,-109.098 -18.086,90.334 m -25.705,14.925 25.705,-14.925 m -110.352,-1.786 -0.169,0.101 -1.958,1.947 -1.14,2.81 m 10.29,13.255 2.137,0.095 1.765,-0.875 1.154,-1.726 0.388,-2.343 -0.431,-2.646 -1.191,-2.589 -1.791,-2.184 -2.148,-1.484 -2.217,-0.583 -1.984,0.397 -1.485,1.322 -0.784,2.07 0.021,2.538 0.825,2.663 1.517,2.428 2.004,1.866 2.22,1.051 m 5.415,-4.113 -3.327,1.931 m 1.031,0.371 1.508,0.171 m -7.371,-12.695 -0.725,1.978 0.022,2.538 0.825,2.663 1.517,2.428 2.004,1.866 2.22,1.051 m 100.21,-14.516 1.204,-0.842 0.814,-0.897 0.391,-0.904 m -103.13,17 2.733,-1.587 m 207.257,464.742 -3.975,0.458 m 3.975,-0.458 -0.241,-2.114 -0.364,-2.24 -0.472,-2.281 -0.562,-2.234 -1.306,-3.988 -1.38,-2.855 m 0,0 -0.141,3.03 0.016,4.137 0.068,2.291 0.105,2.323 0.137,2.266 0.165,2.123 M 38.112,66.052 38.2,63.996 l 0.611,-2.069 1.111,-2.004 1.569,-1.86 4.252,-3.014 5.177,-1.706 M 38.112,66.052 211.968,111.781 M 211.618,95.611 50.92,53.343 m 166.445,38.931 1.729,0.648 1.697,1.019 1.599,1.351 1.441,1.63 1.228,1.848 0.966,1.994 0.667,2.064 0.344,2.054 m -9.671,-12.608 -5.747,3.337 m 4.325,15.712 11.093,-6.441 m -15.068,6.899 4.991,57.171 m 3.975,-0.458 -3.975,0.458 m 3.975,-0.458 -4.991,-57.171 M 40.81,96.955 38.112,66.052 m -7.143,40.896 2.118,0.315 1.992,-0.192 1.792,-0.691 1.522,-1.164 1.193,-1.593 0.819,-1.96 0.413,-2.251 -0.008,-2.457 m -18.613,7.686 8.772,2.307 m -7.603,11.084 -1.169,-13.391 m 194.762,64.311 -193.593,-50.92 m 54.91,-26.319 -0.619,-2.617 -1.335,-2.474 -1.871,-1.996 -2.154,-1.25 -2.146,-0.334 -1.849,0.627 -1.301,1.502 -0.578,2.176 0.223,2.556 0.994,2.589 1.631,2.274 2.047,1.651 2.188,0.806 2.031,-0.149 1.602,-1.083 0.956,-1.871 0.181,-2.407 m 108.068,28.425 -0.619,-2.617 -1.335,-2.474 -1.871,-1.997 -2.154,-1.249 -2.146,-0.335 -1.849,0.627 -1.301,1.503 -0.578,2.176 0.223,2.555 0.994,2.59 1.631,2.274 2.048,1.651 2.187,0.806 2.032,-0.149 1.602,-1.083 0.955,-1.872 0.181,-2.406 m 115.538,-58.713 11.094,-6.44 m -7.497,47.645 -3.597,-41.205 m 3.597,41.205 -74.845,43.456 m -3.598,-41.204 3.598,41.204 m 87.332,-33.931 -97.032,56.339 m 92.042,-113.509 4.99,57.17 m -91.748,-10.971 -0.351,-1.002 -0.725,-1.495 -0.92,-1.386 -0.806,-0.944 M 56.667,50.006 217.365,92.274 M 50.92,53.343 56.667,50.006 m 191.653,69.161 2.225,-0.958 2.751,-0.633 2.943,-0.232 2.782,0.196 2.285,0.601 1.512,0.933 0.557,1.153 -0.466,1.234 -1.431,1.167 -2.226,0.957 -2.75,0.633 -2.944,0.233 -2.782,-0.197 -2.284,-0.6 -1.513,-0.934 -0.556,-1.153 0.465,-1.234 1.432,-1.166 M 22.522,96.196 39.607,86.276 m 48.311,-28.05 20.944,-12.16 m -85.108,54.965 -1.18,-0.398 -0.93,-0.501 L 21,99.546 20.668,98.898 20.66,98.212 l 0.317,-0.696 0.628,-0.681 0.917,-0.639 m 10.004,7.142 -8.772,-2.307 m 13.698,-0.553 -4.926,2.86 m 4.926,-2.86 -3.015,0.052 -2.678,-0.401 -1.997,-0.802 -1.059,-1.101 0.016,-1.257 1.088,-1.252 2.021,-1.085 2.693,-0.779 3.019,-0.372 2.701,0.056 m 261.263,9.551 3.975,-0.458 m -3.975,0.458 -178.046,-46.831 m -3.156,-2.453 0.889,0.454 2.267,1.999 m -3.156,-2.453 -2.89,0.6 -3.039,0.165 -2.795,-0.293 -2.192,-0.711 -1.307,-1.04 -0.254,-1.233 0.833,-1.268 1.812,-1.14 2.557,-0.865 2.974,-0.479 3.007,-0.031 2.655,0.421 1.958,0.818 1.012,1.111 m -3.846,-5.167 5.537,1.457 m -17.462,-0.083 1.169,-0.572 1.377,-0.484 1.533,-0.377 1.628,-0.255 1.662,-0.124 1.631,0.012 1.539,0.148 1.386,0.278 m 96.502,124.65 3.276,-0.377 m 0.369,-0.471 -0.369,0.471 m -3.276,0.377 -0.33,-0.39 M 23.968,118.494 23.366,118.032 m 0.602,0.462 193.321,50.848 m 100.677,-57.187 -0.811,0.728 m -96.59,56.082 96.59,-56.082 m -15.273,-51.458 -0.344,-2.053 -0.177,-0.656 m -4.554,-0.69 0.341,0.769 0.501,1.548 0.258,1.54 m 3.975,-0.458 -3.975,0.458 m 8.026,-14.888 2.272,0.939 1.892,1.462 1.46,1.707 0.972,1.887 0.447,1.995 M 152.35,37.643 l -0.008,0.423 0.423,2.597 1.17,2.543 1.758,2.144 2.11,1.457 2.176,0.572 1.948,-0.389 1.458,-1.299 0.77,-2.032 -0.021,-2.491 -0.085,-0.448 m 101.706,21.01 -2.098,-0.093 -1.732,0.858 -1.134,1.695 -0.381,2.301 0.423,2.597 1.17,2.542 1.758,2.145 2.11,1.457 2.176,0.572 1.948,-0.389 1.458,-1.299 0.77,-2.032 -0.021,-2.492 -0.81,-2.614 -1.49,-2.384 -1.967,-1.832 -2.18,-1.032 m 32.152,0.153 3.597,41.205 m -51.209,-61.276 29.358,7.722 M 126.761,47.197 125.306,30.53 m -1.848,25.727 1.583,-1.587 1.11,-2.113 0.584,-2.539 0.026,-2.821 M 279.293,45.419 255.06,39.045 m 56.823,11.905 -0.706,-1.336 -1.422,-1.558 -1.841,-1.261 -2.054,-0.643 m -268.159,18.289 0.411,1.611 m 12.808,-12.709 -5.335,1.089 -4.385,2.492 -1.619,1.66 -1.15,1.854 -0.634,1.978 -0.096,2.025 m 14.172,-13.939 0.072,-0.042 1.433,-0.553 1.595,-0.153 1.694,0.252 m -18.966,14.435 2.698,30.903 m 0.411,1.611 -0.411,-1.611 m 0,0 0.007,1.965 -0.331,1.801 -0.655,1.568 -0.955,1.274 -1.217,0.932 -1.433,0.553 -1.595,0.153 -1.694,-0.252 m -1.557,3.61 1.557,-3.61 m 7.166,-3.193 -0.945,0.172 -1.295,0.161 m -15.255,4.163 1.557,-3.61 m -4.698,-1.734 -0.562,0.657 -0.422,0.929 0.01,0.914 0.443,0.864 0.858,0.782 1.24,0.668 1.574,0.53 m 1.169,13.391 -1.574,-0.53 -1.24,-0.668 -0.858,-0.781 -0.443,-0.865 -0.052,-0.309 m 2.2,2.53 1.113,0.595 1.456,0.49 m 101.061,-88.037 1.321,15.129 m 0,0 0.411,1.611 m -0.411,-1.611 -0.156,3.324 -1.165,2.669 -2.045,1.699 -2.682,0.526 m 4.331,-3.945 0.107,0.53 -0.095,0.544 -0.293,0.546 -0.485,0.536 -0.665,0.511 -0.829,0.477 -0.975,0.429 -1.096,0.372 m 124.586,144.364 -1.977,4.585 m 5.048,-0.582 -5.048,0.582 m 1.977,-4.585 3.071,4.003 m -5.048,0.582 7.138,81.764 m 0,0 5.048,-0.581 m 0,0 -7.138,-81.765 M 244.888,198.168 5.375,135.171 m 0,0 -1.977,4.584 m 0,0 239.513,62.998 m 5.048,-0.582 61.106,-35.479 m 57.939,-37.076 -2.166,-1.092 m 0,0 -119.95,69.644 M 10.536,221.52 3.398,139.755 M 250.049,284.517 10.536,221.52 m 305.667,26.937 -61.106,35.479 m 5.093,-134.595 1.056,0.449 0.488,0.617 -0.155,0.692 -0.772,0.659 -1.273,0.528 -1.581,0.316 -1.646,0.056 -1.463,-0.213 -1.055,-0.449 -0.488,-0.617 0.154,-0.691 0.773,-0.66 1.273,-0.528 1.581,-0.316 1.646,-0.056 1.462,0.213 m -217.848,-23.886 1.056,0.449 0.487,0.617 -0.154,0.691 -0.772,0.66 -1.274,0.528 -1.58,0.316 -1.647,0.056 -1.462,-0.213 -1.055,-0.449 -0.488,-0.618 0.154,-0.691 0.773,-0.659 1.273,-0.528 1.58,-0.316 1.647,-0.056 1.462,0.213 m 271.14,-10.439 51.356,13.508 M 5.375,135.171 30.939,120.328 m 219.11,164.189 2.548,1.957 m 2.5,-2.538 -2.5,2.538 M 10.536,221.52 l 2.548,1.956 m 0,0 239.513,62.998 m 0,0 63.696,-36.983 M 2.876,137.709 l 0.522,2.046 m -0.522,-2.046 2.499,-2.538 m -2.499,2.538 7.138,81.764 m 0.522,2.047 -0.522,-2.047 m 476.723,-1.428 0.013,4.105 -0.646,4.248 -1.266,4.144 -1.814,3.799 -2.256,3.235 -2.566,2.481 -2.728,1.584 -2.731,0.595 -2.576,-0.43 -2.27,-1.429 -1.833,-2.344 -1.289,-3.125 -0.67,-3.722 -0.013,-4.105 0.646,-4.247 1.266,-4.145 1.814,-3.799 2.255,-3.235 2.567,-2.481 2.728,-1.584 2.731,-0.595 2.575,0.43 2.27,1.429 1.833,2.344 1.289,3.125 0.671,3.722 m -5.35,-23.859 -1.142,-4.038 -2.04,-4.907 -2.575,-4.192 -3.054,-3.389 -3.468,-2.513 -3.809,-1.583 -4.068,-0.621 -4.24,0.356 -4.322,1.326 -4.312,2.265 -4.211,3.158 -4.018,3.983 -3.741,4.723 -3.384,5.362 -2.955,5.887 -2.463,6.287 -1.918,6.553 -1.333,6.679 -0.718,6.663 -0.09,6.504 0.542,6.207 1.162,5.778 1.756,5.225 2.314,4.562 2.822,3.801 3.27,2.958 3.648,2.054 3.949,1.105 4.165,0.132 4.292,-0.843 4.329,-1.8 4.273,-2.719 4.125,-3.579 1.471,-1.527 m -117.651,-14.552 -2.196,-0.742 -3.648,-2.054 -3.27,-2.958 -2.822,-3.801 -2.314,-4.562 -1.756,-5.225 -1.162,-5.778 -0.541,-6.207 0.089,-6.505 0.718,-6.662 1.333,-6.679 1.918,-6.553 2.463,-6.287 2.955,-5.887 3.384,-5.363 3.741,-4.723 4.019,-3.982 4.21,-3.158 4.312,-2.266 4.322,-1.325 4.24,-0.356 3.814,0.552 m 105.332,74.651 -0.048,1.023 -0.301,1.019 -0.509,0.859 -0.639,0.569 -0.672,0.192 -0.603,-0.214 -0.441,-0.587 -0.213,-0.872 0.047,-1.023 0.302,-1.019 0.509,-0.859 0.639,-0.569 0.672,-0.192 0.602,0.214 0.442,0.587 0.213,0.872 m -143.935,32.502 -7.709,-88.306 m -16.71,-4.395 16.71,4.395 m -9.001,83.91 -7.709,-88.305 m 7.709,88.305 16.71,4.396 m 55.231,-102.78 -1.834,-21.005 m -61.106,35.479 61.106,-35.479 m -53.397,123.785 24.327,-14.125 m 29.07,-109.66 -16.71,-4.395 m 0,0 -61.106,35.479 m -38.305,147.035 -2.855,-32.705 m 2.855,32.705 89.904,-52.199 m 0,0 -1.386,-15.874 m -91.373,35.368 48.673,-28.261 m -276.976,0.166 -1.723,-19.734 m 1.723,19.734 231.158,60.8 m -176.613,-543.331 -2.872,0.893 -3.243,0.519 -3.297,0.096 -3.028,-0.337 -2.464,-0.738 -1.657,-1.065 -0.689,-1.289 0.347,-1.387 1.349,-1.348 2.219,-1.178 2.871,-0.893 3.243,-0.519 3.298,-0.096 3.028,0.337 2.463,0.738 1.658,1.065 0.688,1.289 -0.347,1.387 -1.349,1.348 -2.218,1.178 m 2.013,13.266 -3.087,0.972 -3.484,0.592 -3.572,0.159 -3.342,-0.287 -2.815,-0.709 -2.038,-1.068 -1.08,-1.331 -0.14,-0.587 m 24.003,-2.095 0.007,0.14 -0.507,1.5 -1.53,1.448 -2.415,1.266 m -13.778,-14.109 -1.025,-2.601 m 0,0 5.097,-2.073 m 6.123,0.527 -6.123,-0.527 m 7.148,3.127 -1.025,-2.6 m 1.025,2.6 -5.098,2.073 m -6.122,-0.526 6.122,0.526 m 5.793,26.527 -2.439,0.706 -2.745,0.303 -2.632,-0.146 -2.119,-0.575 -1.283,-0.914 -0.286,-0.703 m 14.119,-1.232 -0.034,0.412 -0.818,1.146 -1.763,1.003 m -1.466,-28.287 -0.254,-2.913 m -5.681,4.535 -0.442,-5.062 m 7.152,32.527 -2.005,0.58 -2.257,0.249 -2.163,-0.12 -1.742,-0.472 -0.576,-0.312 m 10.365,-0.905 -0.173,0.155 -1.449,0.825 m -20.908,-183.262 -1.449,0.824 -0.672,0.942 0.207,0.917 1.054,0.751 1.742,0.472 2.164,0.121 2.256,-0.249 2.005,-0.581 1.449,-0.824 0.673,-0.942 -0.207,-0.917 -1.055,-0.751 -1.742,-0.472 -2.164,-0.121 -2.256,0.249 -2.005,0.581 m -2.665,1.992 -0.607,0.957 0.252,1.115 1.283,0.914 2.119,0.574 2.632,0.147 2.745,-0.303 2.439,-0.707 1.763,-1.002 0.818,-1.147 -0.252,-1.115 -0.582,-0.534 m -0.543,17.589 -2.439,0.706 -2.745,0.303 -2.632,-0.146 -2.119,-0.575 -1.283,-0.914 -0.286,-0.703 m 14.119,-1.232 -0.034,0.412 -0.818,1.146 -1.763,1.003 m -11.956,-4.736 -2.415,1.266 -1.53,1.447 -0.508,1.5 0.56,1.419 1.577,1.213 2.454,0.898 3.113,0.504 3.496,0.065 3.567,-0.38 3.323,-0.791 2.782,-1.132 1.995,-1.372 1.03,-1.49 -0.026,-1.476 -1.08,-1.331 -2.038,-1.067 -2.031,-0.565 m -1.912,6.698 1.818,-1.013 0.924,-1.16 0.001,-0.003 m -125.94,50.732 -2.582,-1.141 -2.412,-1.975 -2.006,-2.615 -1.403,-2.999 -0.663,-3.09 0.142,-2.879 0.933,-2.384 1.632,-1.658 2.173,-0.769 2.5,0.196 2.583,1.141 2.412,1.974 2.006,2.615 1.403,3 0.663,3.09 -0.142,2.878 -0.933,2.385 -1.633,1.658 -2.173,0.769 -2.5,-0.196 m 5.418,0.58 0.67,-0.331 0.009,-0.005 m -11.915,-20.939 -0.183,0.102 m 8.019,-4.656 1.145,-0.506 2.571,-0.264 2.778,0.731 2.738,1.66 2.456,2.442 1.955,3.006 1.28,3.304 0.492,3.308 -0.341,3.018 -1.142,2.46 -1.834,1.678 m -20.049,-6.584 2.093,-4.507 m 0,0 5.09,1.339 m 2.997,5.846 -2.997,-5.846 m 0.904,10.352 2.093,-4.506 m -2.093,4.506 -5.09,-1.338 m -2.997,-5.846 2.997,5.846 m 2.957,-5.51 -0.308,-0.674 -0.241,-0.69 -0.171,-0.694 -0.097,-0.685 -0.021,-0.666 0.053,-0.625 m 4.48,7.519 -0.231,-0.088 -0.577,-0.281 -0.565,-0.361 -0.543,-0.436 -0.513,-0.502 -0.472,-0.561 -0.425,-0.609 -0.369,-0.647 m -1.498,-2.923 -4.456,2.587 m 4.456,-2.587 0.537,-1.157 m 4.649,7.579 -2.19,-0.576 m 0,0 -4.455,2.587 m 2.957,-5.51 1.498,2.923 m -2.996,-5.846 1.498,2.923 m 14.387,-16.047 0.941,-0.371 2.056,0.062 2.14,1.041 1.901,1.864 1.371,2.401 0.632,2.574 -0.202,2.354 -1.006,1.776 -0.716,0.556 m -0.457,-10.139 0.552,0.646 1.126,1.974 0.241,0.686 m 147.496,89.136 -2.871,0.892 -3.243,0.52 -3.297,0.095 -3.028,-0.337 -2.464,-0.737 -1.657,-1.066 -0.689,-1.289 0.347,-1.386 1.349,-1.349 2.219,-1.178 2.871,-0.892 3.243,-0.52 3.297,-0.096 3.029,0.338 2.463,0.737 1.657,1.066 0.689,1.289 -0.347,1.386 -1.349,1.349 -2.219,1.178 m 2.014,13.265 -3.087,0.972 -3.485,0.592 -3.571,0.16 -3.342,-0.288 -2.815,-0.709 -2.038,-1.067 -1.08,-1.331 -0.14,-0.587 m 24.003,-2.096 0.007,0.141 -0.507,1.5 -1.53,1.447 -2.415,1.266 m -13.778,-14.109 -1.025,-2.6 m 0,0 5.097,-2.074 m 6.123,0.527 -6.123,-0.527 m 7.148,3.127 -1.025,-2.6 m 1.025,2.6 -5.098,2.074 m -6.122,-0.527 6.122,0.527 m 5.793,26.526 -2.44,0.707 -2.744,0.303 -2.633,-0.147 -2.119,-0.574 -1.283,-0.915 -0.286,-0.702 m 14.12,-1.233 -0.034,0.412 -0.818,1.146 -1.763,1.003 m -1.466,-28.286 -0.254,-2.914 m -5.681,4.535 -0.442,-5.062 m 7.152,32.527 -2.005,0.581 -2.257,0.249 -2.163,-0.121 -1.742,-0.472 -0.576,-0.312 m 10.365,-0.905 -0.173,0.156 -1.449,0.824 m 164.468,132.573 -2.106,0.726 -1.983,-0.29 -1.665,-1.278 -1.184,-2.141 -0.588,-2.794 0.067,-3.174 0.714,-3.244 1.292,-2.994 1.743,-2.454 2.024,-1.671 2.106,-0.727 1.983,0.29 1.665,1.278 1.184,2.141 0.588,2.795 -0.067,3.174 -0.714,3.243 -1.292,2.995 -1.743,2.453 -2.024,1.672 m 1.445,-21.499 -0.32,-0.098 m -15.997,20.707 -0.413,-0.131 -1.848,-1.258 -1.376,-2.17 -0.78,-2.889 -0.115,-3.352 0.56,-3.515 1.185,-3.368 1.704,-2.921 2.074,-2.214 2.257,-1.311 2.242,-0.291 0.639,0.118 m 3.764,16.936 1.616,-6.377 m 0,0 4.136,-2.401 m 2.52,3.975 -2.52,-3.975 m 0.904,10.352 1.616,-6.377 m -1.616,6.377 -4.136,2.402 m -2.52,-3.976 2.52,3.976 m -0.538,-7.032 -0.212,0.714 -0.264,0.688 -0.313,0.651 -0.357,0.603 -0.394,0.543 -0.201,0.238 m 1.887,-7.055 0.018,0.093 0.09,0.658 0.028,0.694 -0.033,0.717 -0.095,0.728 -0.154,0.728 m 0.808,-3.189 -0.377,-0.594 m 0.377,0.594 5.482,1.442 m -7.098,4.935 5.482,1.442 m -5.482,-1.442 -0.797,0.463 m -21.19,-2.231 -0.95,-0.472 -1.148,-1.528 -0.555,-2.267 0.124,-2.66 0.784,-2.65 1.323,-2.234 1.663,-1.48 1.747,-0.5 0.617,0.084 m 19.19,12.287 0.808,-3.189 m -1.616,6.377 0.808,-3.188 m -25.484,-2.632 -0.146,-0.932 0.102,-2.187 0.644,-2.178 1.087,-1.837 0.273,-0.316 m -146.445,-311.297 0.808,1.588 0.632,2.573 -0.202,2.354 -1.006,1.776 -0.716,0.557 m -2.246,4.609 2.704,0.237 2.38,-0.758 1.842,-1.683 1.143,-2.46 0.34,-3.018 -0.491,-3.308 -1.28,-3.304 -1.955,-3.006 -0.965,-1.091 m 136.337,357.319 -2.106,0.726 -1.983,-0.29 -1.665,-1.278 -1.184,-2.141 -0.587,-2.795 0.066,-3.174 0.714,-3.243 1.292,-2.995 1.743,-2.453 2.024,-1.672 2.106,-0.726 1.983,0.29 1.665,1.278 1.184,2.141 0.588,2.794 -0.067,3.174 -0.714,3.244 -1.292,2.995 -1.743,2.453 -2.024,1.672 m 1.445,-21.5 -0.32,-0.097 m -15.997,20.706 -0.412,-0.13 -1.849,-1.259 -1.376,-2.17 -0.78,-2.889 -0.115,-3.351 0.56,-3.516 1.185,-3.368 1.705,-2.921 2.073,-2.214 2.258,-1.311 2.241,-0.291 0.639,0.118 m 3.764,16.937 1.616,-6.377 m 0,0 4.136,-2.402 m 2.52,3.976 -2.52,-3.976 m 0.904,10.353 1.616,-6.377 m -1.616,6.377 -4.136,2.401 m -2.52,-3.975 2.52,3.975 m -0.538,-7.032 -0.211,0.715 -0.265,0.688 -0.313,0.651 -0.357,0.602 -0.394,0.544 -0.201,0.237 m 1.887,-7.054 0.018,0.093 0.09,0.658 0.028,0.693 -0.033,0.717 -0.095,0.729 -0.154,0.727 m 0.808,-3.188 -0.377,-0.595 m 0.377,0.595 5.482,1.442 m -7.098,4.935 5.482,1.442 m -5.482,-1.442 -0.797,0.462 m -21.19,-2.23 -0.95,-0.472 -1.148,-1.528 -0.554,-2.267 0.124,-2.661 0.783,-2.649 1.324,-2.235 1.662,-1.48 1.747,-0.5 0.617,0.085 m 19.19,12.286 0.808,-3.188 m -1.616,6.377 0.808,-3.189 m -25.484,-2.631 -0.146,-0.932 0.102,-2.187 0.644,-2.178 1.088,-1.837 0.272,-0.317 m 21.534,142.579 -2.39,0.692 -2.69,0.297 -2.58,-0.144 -2.076,-0.563 -1.258,-0.896 -0.246,-1.092 0.801,-1.124 1.728,-0.982 2.39,-0.693 2.69,-0.297 2.58,0.144 2.076,0.563 1.258,0.896 0.246,1.093 -0.801,1.123 -1.728,0.983 m 2.735,-0.269 0.659,-0.939 0.084,-0.604 m -15.532,1.356 0.619,1.1 0.632,0.444 m 12.011,6.871 -2.512,0.743 -2.833,0.354 -2.771,-0.084 -2.336,-0.509 -1.584,-0.866 -0.619,-1.1 m 15.532,-1.355 -0.084,0.603 -0.941,1.182 -1.852,1.032 m -8.759,-8.566 -0.642,-1.63 m 0,0 3.195,-1.299 m 3.838,0.33 -3.838,-0.33 m 4.48,1.96 -0.642,-1.63 m 0.642,1.63 -3.195,1.3 m -3.838,-0.331 3.838,0.331 m 3.985,21.992 -1.464,0.424 -1.647,0.181 -1.579,-0.088 -1.272,-0.344 -0.769,-0.549 -0.172,-0.422 m 8.472,-0.739 -0.021,0.247 -0.491,0.688 -1.057,0.602 m -1.273,-23.096 -0.159,-1.826 m -3.561,2.843 -0.277,-3.173 m 4.834,25.756 -1.19,0.344 -1.339,0.148 -1.284,-0.071 -1.033,-0.281 -0.342,-0.185 m 6.151,-0.537 -0.103,0.093 -0.86,0.489 M 34.954,25.006 l -2.39,0.693 -2.69,0.297 -2.58,-0.144 -2.077,-0.563 -1.257,-0.896 -0.247,-1.093 0.802,-1.123 1.727,-0.983 2.391,-0.692 2.69,-0.297 2.58,0.144 2.076,0.563 1.258,0.896 0.246,1.092 -0.801,1.124 -1.728,0.982 m 2.735,-0.269 0.659,-0.938 0.083,-0.604 m -15.531,1.356 0.619,1.1 0.632,0.443 m 12.011,6.871 -2.512,0.743 -2.833,0.354 -2.771,-0.083 -2.336,-0.509 -1.584,-0.866 -0.619,-1.1 m 15.531,-1.356 -0.083,0.604 -0.941,1.182 -1.852,1.031 M 27.403,24.4 26.76,22.77 m 0,0 3.196,-1.3 m 3.838,0.331 -3.838,-0.331 m 4.48,1.961 -0.642,-1.63 m 0.642,1.63 -3.195,1.299 m -3.838,-0.33 3.838,0.33 m 3.984,21.992 -1.463,0.424 -1.647,0.182 -1.579,-0.088 -1.272,-0.345 -0.77,-0.548 -0.171,-0.422 m 8.471,-0.739 -0.02,0.247 -0.491,0.688 -1.058,0.601 M 33.953,23.627 33.794,21.801 m -3.561,2.843 -0.277,-3.174 m 4.834,25.756 -1.19,0.345 -1.339,0.148 -1.284,-0.072 -1.034,-0.28 -0.341,-0.185 m 6.151,-0.537 -0.103,0.092 -0.86,0.489 m 177,-141.372 -0.419,-4.799 m -35.222,25.492 -0.419,-4.798 M 4.962,-0.745 l 1.833,-1.678 1.143,-2.46 0.34,-3.018 -0.491,-3.308 -1.28,-3.304 -1.955,-3.007 -2.456,-2.441 -2.739,-1.66 -2.778,-0.731 -2.571,0.264 -0.961,0.404 m 331.443,-101.274 1.144,-0.506 2.571,-0.264 2.778,0.731 2.739,1.66 2.455,2.441 1.955,3.007 1.28,3.304 0.492,3.308 -0.341,3.018 -1.142,2.46 -1.833,1.678 m -14.676,-12.716 -2.097,-0.093 -1.733,0.859 -0.838,1.056 m 7.117,12.257 1.791,-0.394 1.458,-1.299 0.77,-2.032 -0.021,-2.492 -0.81,-2.614 -1.489,-2.384 -1.968,-1.832 -2.18,-1.032 M 113.03,27.679 l 1.834,-1.678 1.142,-2.46 0.34,-3.018 -0.491,-3.308 -1.28,-3.304 -1.955,-3.006 -2.456,-2.442 -2.739,-1.66 -2.778,-0.73 -2.57,0.263 -0.962,0.404 m 115.306,-158.123 1.145,-0.506 2.571,-0.263 2.778,0.73 2.738,1.66 2.456,2.442 1.955,3.006 1.28,3.304 0.492,3.308 -0.341,3.018 -1.142,2.46 -1.833,1.678 m -244.955,-204.774 -1.193,-3.31 m -2.88,-7.991 -30.2,-83.784 m 123.502,5.105 -0.203,0.574 -0.84,1.117 -1.356,0.915 m 17.57,-15.594 0.228,0.051 2.531,0.375 2.548,0.031 2.432,-0.314 2.193,-0.645 1.842,-0.942 m -32.467,95.198 -0.578,-4.3 -0.426,-4.265 m 15.598,-81.494 -0.033,1.901 -0.207,8.652 -0.303,8.74 -0.396,8.723 -0.482,8.605 -0.563,8.36 m -3.766,35.18 -0.022,0.141 -0.887,5.15 m -82.152,-13.976 0.386,-1.606 0.688,-1.366 0.969,-1.084 0.648,-0.466 m 14.78,11.057 0.149,0.178 0.355,0.138 0.53,0.047 0.687,-0.049 m 68.722,5.004 1.368,-3.768 m 5.954,-19.936 0.404,-1.575 1.809,-7.45 1.72,-7.748 1.613,-7.963 1.489,-8.094 1.348,-8.136 1.193,-8.092 1.025,-7.961 0.847,-7.745 m 26.43,488.699 -1.536,0.892 m 136.174,-14.15 18.053,4.748 m -241.408,60.021 1.694,0.252 0.243,0.003 m 85.244,-50.874 1.178,0.218 m -30.948,-281.274 2.416,-1.266 1.529,-1.447 0.508,-1.5 -0.002,-0.062 m -24.01,2.003 0.141,0.601 1.08,1.331 2.038,1.067 2.815,0.709 3.342,0.287 3.572,-0.159 3.484,-0.592 3.087,-0.972 m -4.434,-130.338 -0.114,0.889 -1.03,1.49 -1.995,1.372 -2.782,1.132 -3.323,0.791 -3.568,0.38 -3.495,-0.065 -3.114,-0.504 -2.454,-0.898 -1.576,-1.213 -0.552,-1.279 m 18.533,-12.712 -0.096,-1.147 -0.491,-0.575 m -14.119,1.233 -0.041,0.049 -0.422,1.175 0.608,1.086 1.556,0.851 2.293,0.499 2.721,0.082 2.782,-0.347 2.466,-0.73 m -117.1,48.8 1.834,-1.678 1.142,-2.46 0.341,-3.018 -0.492,-3.308 -1.28,-3.304 -1.955,-3.006 -2.456,-2.442 -2.739,-1.66 -2.778,-0.731 -2.57,0.264 -0.962,0.404 m 177.303,90.224 2.415,-1.266 1.53,-1.447 0.508,-1.5 -0.002,-0.061 m -24.01,2.002 0.141,0.601 1.08,1.331 2.038,1.067 2.815,0.709 3.342,0.288 3.572,-0.159 3.484,-0.592 3.087,-0.973 m 164.051,136.309 -0.639,-0.118 -2.241,0.291 -2.258,1.311 -2.073,2.214 -1.705,2.921 -1.185,3.368 -0.56,3.516 0.115,3.351 0.781,2.889 1.375,2.17 1.849,1.259 0.315,0.104 m -165.213,-346.617 2.126,0.646 2.738,1.66 2.456,2.442 1.955,3.006 1.28,3.304 0.492,3.308 -0.341,3.018 -1.142,2.46 -1.834,1.678 m -12.226,1.363 1.791,-0.394 1.458,-1.299 0.77,-2.032 -0.021,-2.491 -0.81,-2.615 -1.123,-1.911 m 138.229,331.892 -0.639,-0.118 -2.241,0.291 -2.258,1.311 -2.073,2.214 -1.705,2.921 -1.185,3.368 -0.56,3.516 0.116,3.351 0.78,2.889 1.375,2.17 1.849,1.258 0.315,0.104 m 0.715,121.512 1.852,-1.032 0.282,-0.243 m -13.538,1.357 0.952,0.422 2.336,0.509 2.771,0.083 2.833,-0.353 2.512,-0.743 M 35.555,26.012 37.407,24.98 37.689,24.737 m -13.538,1.357 0.952,0.423 2.336,0.509 2.771,0.083 2.833,-0.354 2.512,-0.743"
         style="fill:none;stroke:#000000;stroke-width:0.992;stroke-linecap:round;stroke-linejoin:round;stroke-miterlimit:10;stroke-dasharray:none;stroke-opacity:1"
         transform="matrix(1.3333333,0,0,-1.3333333,480.97293,440.81933)" /><path
         id="path2"
         d="M 0,0 -1.694,-19.402"
         style="fill:none;stroke:#000000;stroke-width:0.51;stroke-linecap:round;stroke-linejoin:round;stroke-miterlimit:10;stroke-dasharray:18, 3.6, 3.6, 3.6, 3.6, 3.6;stroke-dashoffset:9.738;stroke-opacity:1"
         transform="matrix(1.3333333,0,0,-1.3333333,587.62533,866.29267)" /><path
         id="path3"
         d="M 0,0 -0.314,-3.597"
         style="fill:none;stroke:#000000;stroke-width:0.51;stroke-linecap:round;stroke-linejoin:round;stroke-miterlimit:10;stroke-dasharray:18, 3.6, 3.6, 3.6, 3.6, 3.6;stroke-dashoffset:0;stroke-opacity:1"
         transform="matrix(1.3333333,0,0,-1.3333333,584.46947,902.44107)" /><path
         id="path4"
         d="M 0,0 -6.634,-75.986"
         style="fill:none;stroke:#000000;stroke-width:0.51;stroke-linecap:round;stroke-linejoin:round;stroke-miterlimit:10;stroke-dasharray:18, 3.6, 3.6, 3.6, 3.6, 3.6;stroke-dashoffset:6.862;stroke-opacity:1"
         transform="matrix(1.3333333,0,0,-1.3333333,511.0496,742.56147)" /><path
         id="path5"
         d="M 0,0 -0.499,-5.721"
         style="fill:none;stroke:#000000;stroke-width:0.51;stroke-linecap:round;stroke-linejoin:round;stroke-miterlimit:10;stroke-dasharray:18, 3.6, 3.6, 3.6, 3.6, 3.6;stroke-dashoffset:0;stroke-opacity:1"
         transform="matrix(1.3333333,0,0,-1.3333333,501.30747,854.156)" /><path
         id="path6"
         d="M 0,0 5.334,61.098"
         style="fill:none;stroke:#000000;stroke-width:0.51;stroke-linecap:round;stroke-linejoin:round;stroke-miterlimit:10;stroke-dasharray:18, 3.6, 3.6, 3.6, 3.6, 3.6;stroke-dashoffset:14.335;stroke-opacity:1"
         transform="matrix(1.3333333,0,0,-1.3333333,561.87693,620.24867)" /><path
         id="path7"
         d="M 0,0 5.334,61.098"
         style="fill:none;stroke:#000000;stroke-width:0.51;stroke-linecap:round;stroke-linejoin:round;stroke-miterlimit:10;stroke-dasharray:18, 3.6, 3.6, 3.6, 3.6, 3.6;stroke-dashoffset:14.335;stroke-opacity:1"
         transform="matrix(1.3333333,0,0,-1.3333333,609.39813,647.84013)" /><path
         id="path8"
         d="M 0,0 0.278,3.179"
         style="fill:none;stroke:#000000;stroke-width:0.51;stroke-linecap:round;stroke-linejoin:round;stroke-miterlimit:10;stroke-dasharray:18, 3.6, 3.6, 3.6, 3.6, 3.6;stroke-dashoffset:0;stroke-opacity:1"
         transform="matrix(1.3333333,0,0,-1.3333333,812.0496,380.29333)" /><path
         id="path9"
         d="M 0,0 0.202,2.312"
         style="fill:none;stroke:#000000;stroke-width:0.51;stroke-linecap:round;stroke-linejoin:round;stroke-miterlimit:10;stroke-dasharray:18, 3.6, 3.6, 3.6, 3.6, 3.6;stroke-dashoffset:0;stroke-opacity:1"
         transform="matrix(1.3333333,0,0,-1.3333333,811.78053,383.37533)" /><path
         id="path10"
         d="M 0,0 1.373,15.733"
         style="fill:none;stroke:#000000;stroke-width:0.51;stroke-linecap:round;stroke-linejoin:round;stroke-miterlimit:10;stroke-dasharray:18, 3.6, 3.6, 3.6, 3.6, 3.6;stroke-dashoffset:0;stroke-opacity:1"
         transform="matrix(1.3333333,0,0,-1.3333333,811.14987,296.67587)" /><path
         id="path11"
         d="M 0,0 4.246,48.637"
         style="fill:none;stroke:#000000;stroke-width:0.51;stroke-linecap:round;stroke-linejoin:round;stroke-miterlimit:10;stroke-dasharray:18, 3.6, 3.6, 3.6, 3.6, 3.6;stroke-dashoffset:2.589;stroke-opacity:1"
         transform="matrix(1.3333333,0,0,-1.3333333,805.48867,361.52547)" /><path
         id="path12"
         d="M 0,0 0.278,3.179"
         style="fill:none;stroke:#000000;stroke-width:0.51;stroke-linecap:round;stroke-linejoin:round;stroke-miterlimit:10;stroke-dasharray:18, 3.6, 3.6, 3.6, 3.6, 3.6;stroke-dashoffset:0;stroke-opacity:1"
         transform="matrix(1.3333333,0,0,-1.3333333,521.58533,412.1416)" /><path
         id="path13"
         d="M 0,0 3.556,40.729"
         style="fill:none;stroke:#000000;stroke-width:0.51;stroke-linecap:round;stroke-linejoin:round;stroke-miterlimit:10;stroke-dasharray:18, 3.6, 3.6, 3.6, 3.6, 3.6;stroke-dashoffset:6.558;stroke-opacity:1"
         transform="matrix(1.3333333,0,0,-1.3333333,516.84467,466.44747)" /><path
         id="path14"
         d="M 0,0 3.353,38.412"
         style="fill:none;stroke:#000000;stroke-width:0.51;stroke-linecap:round;stroke-linejoin:round;stroke-miterlimit:10;stroke-dasharray:18, 3.6, 3.6, 3.6, 3.6, 3.6;stroke-dashoffset:7.721;stroke-opacity:1"
         transform="matrix(1.3333333,0,0,-1.3333333,695.3056,387.68333)" /><path
         id="path15"
         d="M 0,0 1.267,14.516"
         style="fill:none;stroke:#000000;stroke-width:0.51;stroke-linecap:round;stroke-linejoin:round;stroke-miterlimit:10;stroke-dasharray:18, 3.6, 3.6, 3.6, 3.6, 3.6;stroke-dashoffset:0;stroke-opacity:1"
         transform="matrix(1.3333333,0,0,-1.3333333,684.0388,516.744)" /><path
         id="path16"
         d="M 0,0 50.936,13.398"
         style="fill:none;stroke:#000000;stroke-width:0.51;stroke-linecap:round;stroke-linejoin:round;stroke-miterlimit:10;stroke-dasharray:18, 3.6, 3.6, 3.6, 3.6, 3.6;stroke-dashoffset:0.666;stroke-opacity:1"
         transform="matrix(1.3333333,0,0,-1.3333333,857.7348,453.6788)" /><path
         id="path17"
         d="M 0,0 85.734,22.55"
         style="fill:none;stroke:#000000;stroke-width:0.51;stroke-linecap:round;stroke-linejoin:round;stroke-miterlimit:10;stroke-dasharray:18, 3.6, 3.6, 3.6, 3.6, 3.6;stroke-dashoffset:0.675;stroke-opacity:1"
         transform="matrix(1.3333333,0,0,-1.3333333,965.91147,425.22573)" /><path
         id="path18"
         d="M 0,0 5.088,1.338"
         style="fill:none;stroke:#000000;stroke-width:0.51;stroke-linecap:round;stroke-linejoin:round;stroke-miterlimit:10;stroke-dasharray:18, 3.6, 3.6, 3.6, 3.6, 3.6;stroke-dashoffset:0;stroke-opacity:1"
         transform="matrix(1.3333333,0,0,-1.3333333,1090.9968,392.3252)" /><path
         id="path19"
         d="M 0,0 1.998,22.885"
         style="fill:none;stroke:#000000;stroke-width:0.51;stroke-linecap:round;stroke-linejoin:round;stroke-miterlimit:10;stroke-dasharray:18, 3.6, 3.6, 3.6, 3.6, 3.6;stroke-dashoffset:15.514;stroke-opacity:1"
         transform="matrix(1.3333333,0,0,-1.3333333,814.23387,528.4812)" /><path
         id="path20"
         d="M 0,0 50.936,13.398"
         style="fill:none;stroke:#000000;stroke-width:0.51;stroke-linecap:round;stroke-linejoin:round;stroke-miterlimit:10;stroke-dasharray:18, 3.6, 3.6, 3.6, 3.6, 3.6;stroke-dashoffset:0.666;stroke-opacity:1"
         transform="matrix(1.3333333,0,0,-1.3333333,857.7348,453.6788)" /><path
         id="path21"
         d="M 0,0 37.781,9.937"
         style="fill:none;stroke:#000000;stroke-width:0.51;stroke-linecap:round;stroke-linejoin:round;stroke-miterlimit:10;stroke-dasharray:18, 3.6, 3.6, 3.6, 3.6, 3.6;stroke-dashoffset:7.467;stroke-opacity:1"
         transform="matrix(1.3333333,0,0,-1.3333333,592.64227,453.246)" /><path
         id="path22"
         d="M 0,0 138.624,36.461"
         style="fill:none;stroke:#000000;stroke-width:0.51;stroke-linecap:round;stroke-linejoin:round;stroke-miterlimit:10;stroke-dasharray:18, 3.6, 3.6, 3.6, 3.6, 3.6;stroke-dashoffset:9.331;stroke-opacity:1"
         transform="matrix(1.3333333,0,0,-1.3333333,668.1388,433.38853)" /><path
         id="path23"
         d="M 0,0 5.088,1.338"
         style="fill:none;stroke:#000000;stroke-width:0.51;stroke-linecap:round;stroke-linejoin:round;stroke-miterlimit:10;stroke-dasharray:18, 3.6, 3.6, 3.6, 3.6, 3.6;stroke-dashoffset:0;stroke-opacity:1"
         transform="matrix(1.3333333,0,0,-1.3333333,863.74387,381.93973)" /><path
         id="path24"
         d="M 0,0 1.998,22.885"
         style="fill:none;stroke:#000000;stroke-width:0.51;stroke-linecap:round;stroke-linejoin:round;stroke-miterlimit:10;stroke-dasharray:18, 3.6, 3.6, 3.6, 3.6, 3.6;stroke-dashoffset:15.514;stroke-opacity:1"
         transform="matrix(1.3333333,0,0,-1.3333333,586.98093,518.0956)" /><path
         id="path25"
         d="M 0,0 0.339,3.879"
         style="fill:none;stroke:#000000;stroke-width:0.51;stroke-linecap:round;stroke-linejoin:round;stroke-miterlimit:10;stroke-dasharray:18, 3.6, 3.6, 3.6, 3.6, 3.6;stroke-dashoffset:0;stroke-opacity:1"
         transform="matrix(1.3333333,0,0,-1.3333333,592.19067,458.41787)" /><path
         id="path26"
         d="M 0,0 87.178,22.93"
         style="fill:none;stroke:#000000;stroke-width:0.51;stroke-linecap:round;stroke-linejoin:round;stroke-miterlimit:10;stroke-dasharray:18, 3.6, 3.6, 3.6, 3.6, 3.6;stroke-dashoffset:-0.071;stroke-opacity:1"
         transform="matrix(1.3333333,0,0,-1.3333333,736.7332,415.34653)" /><path
         id="path27"
         d="M 0,0 5.088,1.338"
         style="fill:none;stroke:#000000;stroke-width:0.51;stroke-linecap:round;stroke-linejoin:round;stroke-miterlimit:10;stroke-dasharray:18, 3.6, 3.6, 3.6, 3.6, 3.6;stroke-dashoffset:0;stroke-opacity:1"
         transform="matrix(1.3333333,0,0,-1.3333333,863.74387,381.93973)" /><path
         id="path28"
         d="M 0,0 85.734,22.55"
         style="fill:none;stroke:#000000;stroke-width:0.51;stroke-linecap:round;stroke-linejoin:round;stroke-miterlimit:10;stroke-dasharray:18, 3.6, 3.6, 3.6, 3.6, 3.6;stroke-dashoffset:0.675;stroke-opacity:1"
         transform="matrix(1.3333333,0,0,-1.3333333,882.74947,376.9408)" /><path
         id="path29"
         d="M 0,0 5.088,1.338"
         style="fill:none;stroke:#000000;stroke-width:0.51;stroke-linecap:round;stroke-linejoin:round;stroke-miterlimit:10;stroke-dasharray:18, 3.6, 3.6, 3.6, 3.6, 3.6;stroke-dashoffset:0;stroke-opacity:1"
         transform="matrix(1.3333333,0,0,-1.3333333,1007.8347,344.04027)" /><path
         id="path30"
         d="M 0,0 1.998,22.885"
         style="fill:none;stroke:#000000;stroke-width:0.51;stroke-linecap:round;stroke-linejoin:round;stroke-miterlimit:10;stroke-dasharray:18, 3.6, 3.6, 3.6, 3.6, 3.6;stroke-dashoffset:15.514;stroke-opacity:1"
         transform="matrix(1.3333333,0,0,-1.3333333,731.07173,480.19627)" /><path
         id="path31"
         d="M 0,0 0.339,3.879"
         style="fill:none;stroke:#000000;stroke-width:0.51;stroke-linecap:round;stroke-linejoin:round;stroke-miterlimit:10;stroke-dasharray:18, 3.6, 3.6, 3.6, 3.6, 3.6;stroke-dashoffset:0;stroke-opacity:1"
         transform="matrix(1.3333333,0,0,-1.3333333,736.2816,420.51853)" /><path
         id="path32"
         d="M 0,0 1.559,17.863"
         style="fill:none;stroke:#000000;stroke-width:0.51;stroke-linecap:round;stroke-linejoin:round;stroke-miterlimit:10;stroke-dasharray:18, 3.6, 3.6, 3.6, 3.6, 3.6;stroke-dashoffset:0;stroke-opacity:1"
         transform="matrix(1.3333333,0,0,-1.3333333,681.13387,521.86813)" /><path
         id="path33"
         d="M 0,0 66.267,17.43"
         style="fill:none;stroke:#000000;stroke-width:0.51;stroke-linecap:round;stroke-linejoin:round;stroke-miterlimit:10;stroke-dasharray:18, 3.6, 3.6, 3.6, 3.6, 3.6;stroke-dashoffset:10.739;stroke-opacity:1"
         transform="matrix(1.3333333,0,0,-1.3333333,791.42267,441.15707)" /><path
         id="path34"
         d="M 0,0 4.087,46.815"
         style="fill:none;stroke:#000000;stroke-width:0.51;stroke-linecap:round;stroke-linejoin:round;stroke-miterlimit:10;stroke-dasharray:18, 3.6, 3.6, 3.6, 3.6, 3.6;stroke-dashoffset:3.503;stroke-opacity:1"
         transform="matrix(1.3333333,0,0,-1.3333333,615.0676,550.90333)" /><path
         id="path35"
         d="M 0,0 66.267,17.43"
         style="fill:none;stroke:#000000;stroke-width:0.51;stroke-linecap:round;stroke-linejoin:round;stroke-miterlimit:10;stroke-dasharray:18, 3.6, 3.6, 3.6, 3.6, 3.6;stroke-dashoffset:10.739;stroke-opacity:1"
         transform="matrix(1.3333333,0,0,-1.3333333,838.94373,468.74853)" /><path
         id="path36"
         d="M 0,0 0.619,7.091"
         style="fill:none;stroke:#000000;stroke-width:0.51;stroke-linecap:round;stroke-linejoin:round;stroke-miterlimit:10;stroke-dasharray:18, 3.6, 3.6, 3.6, 3.6, 3.6;stroke-dashoffset:0;stroke-opacity:1"
         transform="matrix(1.3333333,0,0,-1.3333333,667.21253,525.52973)" /><path
         id="path37"
         d="M 0,0 -34.855,20.237"
         style="fill:none;stroke:#000000;stroke-width:0.51;stroke-linecap:round;stroke-linejoin:round;stroke-miterlimit:10;stroke-dasharray:18, 3.6, 3.6, 3.6, 3.6, 3.6;stroke-dashoffset:6.848;stroke-opacity:1"
         transform="matrix(1.3333333,0,0,-1.3333333,713.9048,470.2288)" /><path
         id="path38"
         d="M 0,0 -34.855,20.237"
         style="fill:none;stroke:#000000;stroke-width:0.51;stroke-linecap:round;stroke-linejoin:round;stroke-miterlimit:10;stroke-dasharray:18, 3.6, 3.6, 3.6, 3.6, 3.6;stroke-dashoffset:6.848;stroke-opacity:1"
         transform="matrix(1.3333333,0,0,-1.3333333,569.81387,508.12827)" /><path
         id="path39"
         d="M 0,0 38.314,-22.246"
         style="fill:none;stroke:#000000;stroke-width:0.51;stroke-linecap:round;stroke-linejoin:round;stroke-miterlimit:10;stroke-dasharray:18, 3.6, 3.6, 3.6, 3.6, 3.6;stroke-dashoffset:4.848;stroke-opacity:1"
         transform="matrix(1.3333333,0,0,-1.3333333,831.40093,538.44867)" /><path
         id="path40"
         d="M 0,0 21.427,5.636"
         style="fill:none;stroke:#000000;stroke-width:0.51;stroke-linecap:round;stroke-linejoin:round;stroke-miterlimit:10;stroke-dasharray:18, 3.6, 3.6, 3.6, 3.6, 3.6;stroke-dashoffset:15.922;stroke-opacity:1"
         transform="matrix(1.3333333,0,0,-1.3333333,716.79053,619.59333)" /><path
         id="path41"
         d="M 0,0 15.923,4.188"
         style="fill:none;stroke:#000000;stroke-width:0.51;stroke-linecap:round;stroke-linejoin:round;stroke-miterlimit:10;stroke-dasharray:18, 3.6, 3.6, 3.6, 3.6, 3.6;stroke-dashoffset:0;stroke-opacity:1"
         transform="matrix(1.3333333,0,0,-1.3333333,610.1216,607.5592)" /><path
         id="path42"
         d="M 0,0 21.427,5.636"
         style="fill:none;stroke:#000000;stroke-width:0.51;stroke-linecap:round;stroke-linejoin:round;stroke-miterlimit:10;stroke-dasharray:18, 3.6, 3.6, 3.6, 3.6, 3.6;stroke-dashoffset:15.922;stroke-opacity:1"
         transform="matrix(1.3333333,0,0,-1.3333333,669.26933,592.00187)" /><path
         id="path43"
         d="M 0,0 -9.797,-112.218"
         style="fill:none;stroke:#000000;stroke-width:0.51;stroke-linecap:round;stroke-linejoin:round;stroke-miterlimit:10;stroke-dasharray:18, 3.6, 3.6, 3.6, 3.6, 3.6;stroke-dashoffset:6.678;stroke-opacity:1"
         transform="matrix(1.3333333,0,0,-1.3333333,613.86853,564.63813)" /><path
         id="path44"
         d="M 0,0 -0.467,-5.346"
         style="fill:none;stroke:#000000;stroke-width:0.51;stroke-linecap:round;stroke-linejoin:round;stroke-miterlimit:10;stroke-dasharray:18, 3.6, 3.6, 3.6, 3.6, 3.6;stroke-dashoffset:0;stroke-opacity:1"
         transform="matrix(1.3333333,0,0,-1.3333333,660.40013,603.56467)" /><path
         id="path45"
         d="M 0,0 -6.004,-68.776"
         style="fill:none;stroke:#000000;stroke-width:0.51;stroke-linecap:round;stroke-linejoin:round;stroke-miterlimit:10;stroke-dasharray:18, 3.6, 3.6, 3.6, 3.6, 3.6;stroke-dashoffset:10.481;stroke-opacity:1"
         transform="matrix(1.3333333,0,0,-1.3333333,656.33307,650.15213)" /><path
         id="path46"
         d="M 0,0 43.335,11.398"
         style="fill:none;stroke:#000000;stroke-width:0.51;stroke-linecap:round;stroke-linejoin:round;stroke-miterlimit:10;stroke-dasharray:18, 3.6, 3.6, 3.6, 3.6, 3.6;stroke-dashoffset:4.596;stroke-opacity:1"
         transform="matrix(1.3333333,0,0,-1.3333333,573.57253,617.1724)" /><path
         id="path47"
         d="M 0,0 88.221,23.204"
         style="fill:none;stroke:#000000;stroke-width:0.51;stroke-linecap:round;stroke-linejoin:round;stroke-miterlimit:10;stroke-dasharray:18, 3.6, 3.6, 3.6, 3.6, 3.6;stroke-dashoffset:-0.611;stroke-opacity:1"
         transform="matrix(1.3333333,0,0,-1.3333333,669.26933,592.00187)" /><path
         id="path48"
         d="M 0,0 14.389,3.785"
         style="fill:none;stroke:#000000;stroke-width:0.51;stroke-linecap:round;stroke-linejoin:round;stroke-miterlimit:10;stroke-dasharray:18, 3.6, 3.6, 3.6, 3.6, 3.6;stroke-dashoffset:0;stroke-opacity:1"
         transform="matrix(1.3333333,0,0,-1.3333333,621.09373,644.76387)" /><path
         id="path49"
         d="M 0,0 88.221,23.204"
         style="fill:none;stroke:#000000;stroke-width:0.51;stroke-linecap:round;stroke-linejoin:round;stroke-miterlimit:10;stroke-dasharray:18, 3.6, 3.6, 3.6, 3.6, 3.6;stroke-dashoffset:-0.611;stroke-opacity:1"
         transform="matrix(1.3333333,0,0,-1.3333333,716.79053,619.59333)" /><path
         id="path50"
         d="M 0,0 3.289,37.68"
         style="fill:none;stroke:#000000;stroke-width:0.51;stroke-linecap:round;stroke-linejoin:round;stroke-miterlimit:10;stroke-dasharray:18, 3.6, 3.6, 3.6, 3.6, 3.6;stroke-dashoffset:8.089;stroke-opacity:1"
         transform="matrix(1.3333333,0,0,-1.3333333,578.0092,1007.7621)" /><path
         id="path51"
         d="M 0,0 -4.495,-51.493"
         style="fill:none;stroke:#000000;stroke-width:0.51;stroke-linecap:round;stroke-linejoin:round;stroke-miterlimit:10;stroke-dasharray:18, 3.6, 3.6, 3.6, 3.6, 3.6;stroke-dashoffset:1.155;stroke-opacity:1"
         transform="matrix(1.3333333,0,0,-1.3333333,592.2008,845.1992)" /><path
         id="path52"
         d="M 0,0 -3.289,-37.68"
         style="fill:none;stroke:#000000;stroke-width:0.51;stroke-linecap:round;stroke-linejoin:round;stroke-miterlimit:10;stroke-dasharray:18, 3.6, 3.6, 3.6, 3.6, 3.6;stroke-dashoffset:8.089;stroke-opacity:1"
         transform="matrix(1.3333333,0,0,-1.3333333,582.39507,957.5228)" /><path
         id="path53"
         d="M 0,0 -2.159,-24.729"
         style="fill:none;stroke:#000000;stroke-width:0.51;stroke-linecap:round;stroke-linejoin:round;stroke-miterlimit:10;stroke-dasharray:18, 3.6, 3.6, 3.6, 3.6, 3.6;stroke-dashoffset:14.589;stroke-opacity:1"
         transform="matrix(1.3333333,0,0,-1.3333333,545.42293,849.2668)" /><path
         id="path54"
         d="M 0,0 -22.38,12.994"
         style="fill:none;stroke:#000000;stroke-width:0.51;stroke-linecap:round;stroke-linejoin:round;stroke-miterlimit:10;stroke-dasharray:18, 3.6, 3.6, 3.6, 3.6, 3.6;stroke-dashoffset:14.06;stroke-opacity:1"
         transform="matrix(1.3333333,0,0,-1.3333333,485.79733,917.4348)" /><text
         id="text54"
         xml:space="preserve"
         transform="matrix(1.3333333,0,0,1.3333333,1196.4891,302.33347)"><tspan
           style="font-variant:normal;font-weight:normal;font-stretch:normal;font-size:18.8976px;font-family:'Century Gothic';writing-mode:lr-tb;fill:#000000;fill-opacity:1;fill-rule:nonzero;stroke:none"
           x="0 10.472422"
           y="0"
           sodipodi:role="line"
           id="tspan54">36</tspan><tspan
           style="font-variant:normal;font-weight:normal;font-stretch:normal;font-size:18.8976px;font-family:'Century Gothic';writing-mode:lr-tb;fill:#000000;fill-opacity:1;fill-rule:nonzero;stroke:none"
           x="-616.09955 -605.62714"
           y="118.46905"
           sodipodi:role="line"
           id="tspan55">12</tspan><tspan
           style="font-variant:normal;font-weight:normal;font-stretch:normal;font-size:18.8976px;font-family:'Century Gothic';writing-mode:lr-tb;fill:#000000;fill-opacity:1;fill-rule:nonzero;stroke:none"
           x="-111.66592 -101.1935"
           y="167.18707"
           sodipodi:role="line"
           id="tspan56">47</tspan><tspan
           style="font-variant:normal;font-weight:normal;font-stretch:normal;font-size:18.8976px;font-family:'Century Gothic';writing-mode:lr-tb;fill:#000000;fill-opacity:1;fill-rule:nonzero;stroke:none"
           x="-113.53678 -103.06436"
           y="244.40266"
           sodipodi:role="line"
           id="tspan57">42</tspan><tspan
           style="font-variant:normal;font-weight:normal;font-stretch:normal;font-size:18.8976px;font-family:'Century Gothic';writing-mode:lr-tb;fill:#000000;fill-opacity:1;fill-rule:nonzero;stroke:none"
           x="-639.66486 -629.19244"
           y="466.37387"
           sodipodi:role="line"
           id="tspan58">38</tspan><tspan
           style="font-variant:normal;font-weight:normal;font-stretch:normal;font-size:18.8976px;font-family:'Century Gothic';writing-mode:lr-tb;fill:#000000;fill-opacity:1;fill-rule:nonzero;stroke:none"
           x="-661.09473 -650.62231"
           y="363.51422"
           sodipodi:role="line"
           id="tspan59">41</tspan><tspan
           style="font-variant:normal;font-weight:normal;font-stretch:normal;font-size:18.8976px;font-family:'Century Gothic';writing-mode:lr-tb;fill:#000000;fill-opacity:1;fill-rule:nonzero;stroke:none"
           x="-354.02765 -343.55521"
           y="416.55981"
           sodipodi:role="line"
           id="tspan60">18</tspan><tspan
           style="font-variant:normal;font-weight:normal;font-stretch:normal;font-size:18.8976px;font-family:'Century Gothic';writing-mode:lr-tb;fill:#000000;fill-opacity:1;fill-rule:nonzero;stroke:none"
           x="-286.31754 -275.84512"
           y="337.62451"
           sodipodi:role="line"
           id="tspan61">48</tspan><tspan
           style="font-variant:normal;font-weight:normal;font-stretch:normal;font-size:18.8976px;font-family:'Century Gothic';writing-mode:lr-tb;fill:#000000;fill-opacity:1;fill-rule:nonzero;stroke:none"
           x="-638.92786 -628.45544"
           y="1.8141696"
           sodipodi:role="line"
           id="tspan62">37</tspan></text><path
         id="path162"
         d="M 0,0 6.484,-7.663 3.88,-9.258 0,0 m 0,0 5.508,-8.833 5.007,-7.149 4.811,-5.353 4.839,-3.592 5.01,-2.006 4.885,-0.725 5.072,0.002 5.182,0.244 4.06,-0.022 3.949,-0.572 3.719,-1.501 2.58,-2.01 2.296,-2.98 1.935,-4.163 1.488,-5.571 0.946,-7.219 0.302,-9.119 m -507.215,-77.343 -10.038,-0.059 0.446,3.02 9.592,-2.961 m -0.001,0 -11.123,1.577 -9.386,0.943 -7.866,0.039 -6.592,-1.046 -5.587,-2.224 -4.882,-3.408 -4.503,-4.51 -3.502,-4.208 -3.667,-4.664 -4.028,-4.966 -4.592,-5.081 -5.369,-4.975 -6.372,-4.614 -7.609,-3.965 m 420.166,-5.017 9.407,-3.504 -1.488,-2.665 -7.919,6.169 m 0,0 8.454,-4.629 7.407,-3.58 6.866,-2.574 6.651,-1.754 6.586,-1.267 6.49,-1.255 4.138,-1.119 3.907,-1.594 3.54,-2.311 3.003,-3.295 1.851,-3.472 1.281,-4.417 0.584,-5.528 -0.253,-6.815 m -84.379,-65.795 8.561,-5.241 -1.971,-2.331 -6.59,7.572 m 0,0 7.86,-6.575 6.824,-5.307 6.086,-3.983 5.618,-2.678 5.393,-1.463 5.385,-0.411 5.566,0.405 5.4,0.825 5.795,0.961 6.276,0.754 6.824,0.154 7.42,-0.892 8.045,-2.434 m -463.151,-260.593 -7.914,6.175 2.222,2.093 5.692,-8.268 m 0,0 -6.066,6.352 -5.101,4.872 -4.44,3.445 -4.015,2.194 -3.755,1.248 -4.466,0.894 -4.237,1.21 -1.996,1.156 -1.874,1.793 -1.709,2.655 -1.489,3.763 m 74.148,105.471 -9.103,-4.231 -0.85,2.932 9.953,1.299 m 0,0 -10.947,-3.137 -9.315,-2.441 -7.756,-1.592 -5.084,-0.596 -4.291,-0.004 -3.613,0.573 -4.083,1.638 -3.49,2.457 -3.393,3.008 -3.868,3.2 -4.996,2.945 -3.529,1.331 -4.238,0.984 -5.09,0.524 -6.094,-0.058 -7.258,-0.77 -8.586,-1.62 m 237.722,4.764 7.966,-6.106 -2.204,-2.113 -5.762,8.219 m 0,0 7.289,-7.489 6.221,-5.773 5.488,-4.073 4.998,-2.583 3.746,-1.256 3.557,-0.849 3.36,-0.814 3.116,-1.231 2.784,-2.178 1.511,-2.098 1.298,-2.86 1.039,-3.797 0.827,-5.93 0.307,-7.815 m 9.912,122.479 7.171,-7.024 -2.443,-1.831 -4.728,8.855 m 0,0 6.039,-7.89 5.356,-6.084 5.105,-4.281 5.162,-2.662 5.399,-1.41 5.695,-0.708 5.922,-0.74 5.957,-1.686 3.086,-1.658 2.945,-2.425 2.731,-3.393 2.434,-4.58 2.044,-5.998 m -230.37,322.242 -9.108,-4.219 -0.847,2.933 9.955,1.286 m 0,0 -12.329,-3.502 -10.472,-2.648 -8.904,-1.637 -7.632,-0.556 -6.666,0.505 -6.015,1.459 -5.687,2.218 -4.456,2.092 -4.625,2.213 -4.962,2.122 -5.473,1.79 -6.157,1.181 -7.023,0.262 -8.07,-1.001"
         style="fill:none;stroke:#000000;stroke-width:0.51;stroke-linecap:butt;stroke-linejoin:miter;stroke-miterlimit:10;stroke-dasharray:none;stroke-opacity:1"
         transform="matrix(1.3333333,0,0,-1.3333333,1112.2879,202.77427)" /><path
         id="path164"
         d="M 0,0 6.484,-7.663 3.88,-9.258 m -449.506,-128.654 -10.038,-0.059 0.446,3.02 m 344.679,-49.08 9.407,-3.504 -1.488,-2.665 m -31.793,-103.236 8.561,-5.241 -1.971,-2.331 m -387.249,-273.665 -7.914,6.175 2.222,2.093 m 40.692,126.785 -9.103,-4.231 -0.85,2.932 m 152.044,12.505 7.966,-6.106 -2.204,-2.113 m 49.691,81.952 7.171,-7.024 -2.443,-1.831 m -177.223,287.582 -9.108,-4.219 -0.847,2.933"
         style="fill:#000000;fill-opacity:1;fill-rule:nonzero;stroke:none"
         transform="matrix(1.3333333,0,0,-1.3333333,1112.2879,202.77427)" /></g></g></svg>
