<?xml version="1.0" encoding="UTF-8" standalone="no"?>
<!-- Created with Inkscape (http://www.inkscape.org/) -->

<svg
   width="172.1373mm"
   height="66.258575mm"
   viewBox="0 0 172.1373 66.258575"
   version="1.1"
   id="svg1"
   xml:space="preserve"
   inkscape:version="1.3 (0e150ed6c4, 2023-07-21)"
   sodipodi:docname="tlv5618_timing_req.svg"
   xmlns:inkscape="http://www.inkscape.org/namespaces/inkscape"
   xmlns:sodipodi="http://sodipodi.sourceforge.net/DTD/sodipodi-0.dtd"
   xmlns="http://www.w3.org/2000/svg"
   xmlns:svg="http://www.w3.org/2000/svg"><sodipodi:namedview
     id="namedview1"
     pagecolor="#ffffff"
     bordercolor="#000000"
     borderopacity="0.25"
     inkscape:showpageshadow="2"
     inkscape:pageopacity="0.0"
     inkscape:pagecheckerboard="0"
     inkscape:deskcolor="#d1d1d1"
     inkscape:document-units="mm"
     inkscape:zoom="2.0257997"
     inkscape:cx="351.46615"
     inkscape:cy="144.88106"
     inkscape:window-width="2560"
     inkscape:window-height="1351"
     inkscape:window-x="2551"
     inkscape:window-y="-9"
     inkscape:window-maximized="1"
     inkscape:current-layer="g1" /><defs
     id="defs1"><clipPath
       clipPathUnits="userSpaceOnUse"
       id="clipPath51"><path
         d="m 303.931,677.991 h 62.872 v -5.329 h -62.872 z"
         transform="matrix(1,0,0,-1,-307.27561,668.63621)"
         id="path51" /></clipPath><clipPath
       clipPathUnits="userSpaceOnUse"
       id="clipPath63"><path
         d="m 511.2,677.991 h 34.98 v -5.329 H 511.2 Z"
         transform="matrix(1,0,0,-1,-524.23942,668.63621)"
         id="path63" /></clipPath><clipPath
       clipPathUnits="userSpaceOnUse"
       id="clipPath69"><path
         d="M 45.524,671.244 H 99.722 V 659.225 H 45.524 Z"
         transform="matrix(1,0,0,-1,-59.527501,659.90552)"
         id="path69" /></clipPath><clipPath
       clipPathUnits="userSpaceOnUse"
       id="clipPath72"><path
         d="M 45.524,671.244 H 99.722 V 659.225 H 45.524 Z"
         transform="matrix(1,0,0,-1,-87.080305,659.90552)"
         id="path72" /></clipPath><clipPath
       clipPathUnits="userSpaceOnUse"
       id="clipPath90"><path
         d="M 45.524,662.57 H 99.722 V 645.789 H 45.524 Z"
         transform="matrix(1,0,0,-1,-48.869301,661.88981)"
         id="path90" /></clipPath><clipPath
       clipPathUnits="userSpaceOnUse"
       id="clipPath93"><path
         d="M 45.524,662.57 H 99.722 V 645.789 H 45.524 Z"
         transform="matrix(1,0,0,-1,-75.968499,659.90552)"
         id="path93" /></clipPath><clipPath
       clipPathUnits="userSpaceOnUse"
       id="clipPath96"><path
         d="m 100.573,662.57 h 202.11 v -16.781 h -202.11 z"
         transform="matrix(1,0,0,-1,-103.91811,661.88981)"
         id="path96" /></clipPath><clipPath
       clipPathUnits="userSpaceOnUse"
       id="clipPath98"><path
         d="m 100.573,662.57 h 202.11 v -16.781 h -202.11 z"
         transform="matrix(1,0,0,-1,-126.93351,661.88981)"
         id="path98" /></clipPath><clipPath
       clipPathUnits="userSpaceOnUse"
       id="clipPath100"><path
         d="m 100.573,662.57 h 202.11 v -16.781 h -202.11 z"
         transform="matrix(1,0,0,-1,-146.3811,661.88981)"
         id="path100" /></clipPath><clipPath
       clipPathUnits="userSpaceOnUse"
       id="clipPath102"><path
         d="m 100.573,662.57 h 202.11 v -16.781 h -202.11 z"
         transform="matrix(1,0,0,-1,-159.62991,661.88981)"
         id="path102" /></clipPath><clipPath
       clipPathUnits="userSpaceOnUse"
       id="clipPath104"><path
         d="m 100.573,662.57 h 202.11 v -16.781 h -202.11 z"
         transform="matrix(1,0,0,-1,-173.76681,661.88981)"
         id="path104" /></clipPath><clipPath
       clipPathUnits="userSpaceOnUse"
       id="clipPath106"><path
         d="m 100.573,662.57 h 202.11 v -16.781 h -202.11 z"
         transform="matrix(1,0,0,-1,-198.5835,661.88981)"
         id="path106" /></clipPath><clipPath
       clipPathUnits="userSpaceOnUse"
       id="clipPath108"><path
         d="m 100.573,662.57 h 202.11 v -16.781 h -202.11 z"
         transform="matrix(1,0,0,-1,-213.60841,661.88981)"
         id="path108" /></clipPath><clipPath
       clipPathUnits="userSpaceOnUse"
       id="clipPath110"><path
         d="m 100.573,662.57 h 202.11 v -16.781 h -202.11 z"
         transform="matrix(1,0,0,-1,-245.98501,661.88981)"
         id="path110" /></clipPath><clipPath
       clipPathUnits="userSpaceOnUse"
       id="clipPath112"><path
         d="m 100.573,662.57 h 202.11 v -16.781 h -202.11 z"
         transform="matrix(1,0,0,-1,-269.01771,661.88981)"
         id="path112" /></clipPath><clipPath
       clipPathUnits="userSpaceOnUse"
       id="clipPath173"><path
         d="m 303.931,596.976 h 62.872 v -5.329 h -62.872 z"
         transform="matrix(1,0,0,-1,-307.27561,587.62211)"
         id="path173" /></clipPath><clipPath
       clipPathUnits="userSpaceOnUse"
       id="clipPath189"><path
         d="M 45.524,590.23 H 99.722 V 578.211 H 45.524 Z"
         transform="matrix(1,0,0,-1,-59.527501,578.89141)"
         id="path189" /></clipPath><clipPath
       clipPathUnits="userSpaceOnUse"
       id="clipPath192"><path
         d="M 45.524,590.23 H 99.722 V 578.211 H 45.524 Z"
         transform="matrix(1,0,0,-1,-67.974802,578.89141)"
         id="path192" /></clipPath><clipPath
       clipPathUnits="userSpaceOnUse"
       id="clipPath208"><path
         d="M 45.524,581.556 H 99.722 V 564.775 H 45.524 Z"
         transform="matrix(1,0,0,-1,-48.869301,580.87561)"
         id="path208" /></clipPath><clipPath
       clipPathUnits="userSpaceOnUse"
       id="clipPath211"><path
         d="m 100.573,581.556 h 202.11 v -16.781 h -202.11 z"
         transform="matrix(1,0,0,-1,-103.91811,580.87561)"
         id="path211" /></clipPath><clipPath
       clipPathUnits="userSpaceOnUse"
       id="clipPath213"><path
         d="m 100.573,581.556 h 202.11 v -16.781 h -202.11 z"
         transform="matrix(1,0,0,-1,-126.92721,580.87561)"
         id="path213" /></clipPath><clipPath
       clipPathUnits="userSpaceOnUse"
       id="clipPath215"><path
         d="m 100.573,581.556 h 202.11 v -16.781 h -202.11 z"
         transform="matrix(1,0,0,-1,-146.36841,580.87561)"
         id="path215" /></clipPath><clipPath
       clipPathUnits="userSpaceOnUse"
       id="clipPath217"><path
         d="m 100.573,581.556 h 202.11 v -16.781 h -202.11 z"
         transform="matrix(1,0,0,-1,-164.0416,580.87561)"
         id="path217" /></clipPath><clipPath
       clipPathUnits="userSpaceOnUse"
       id="clipPath219"><path
         d="m 100.573,581.556 h 202.11 v -16.781 h -202.11 z"
         transform="matrix(1,0,0,-1,-186.1548,580.87561)"
         id="path219" /></clipPath><clipPath
       clipPathUnits="userSpaceOnUse"
       id="clipPath221"><path
         d="m 100.573,581.556 h 202.11 v -16.781 h -202.11 z"
         transform="matrix(1,0,0,-1,-210.93981,580.87561)"
         id="path221" /></clipPath><clipPath
       clipPathUnits="userSpaceOnUse"
       id="clipPath223"><path
         d="m 100.573,581.556 h 202.11 v -16.781 h -202.11 z"
         transform="matrix(1,0,0,-1,-233.941,580.87561)"
         id="path223" /></clipPath><clipPath
       clipPathUnits="userSpaceOnUse"
       id="clipPath225"><path
         d="m 100.573,581.556 h 202.11 v -16.781 h -202.11 z"
         transform="matrix(1,0,0,-1,-256.94211,580.87561)"
         id="path225" /></clipPath><clipPath
       clipPathUnits="userSpaceOnUse"
       id="clipPath235"><path
         d="m 511.2,581.556 h 34.98 V 564.775 H 511.2 Z"
         transform="matrix(1,0,0,-1,-524.23942,580.87561)"
         id="path235" /></clipPath><clipPath
       clipPathUnits="userSpaceOnUse"
       id="clipPath242"><path
         d="m 303.931,556.611 h 62.872 v -6.236 h -62.872 z"
         transform="matrix(1,0,0,-1,-307.27561,547.25671)"
         id="path242" /></clipPath><clipPath
       clipPathUnits="userSpaceOnUse"
       id="clipPath272"><path
         d="M 45.524,539.32 H 99.722 V 521.575 H 45.524 Z"
         transform="matrix(1,0,0,-1,-51.080302,538.58272)"
         id="path272" /></clipPath><clipPath
       clipPathUnits="userSpaceOnUse"
       id="clipPath275"><path
         d="m 100.573,539.32 h 202.11 v -17.745 h -202.11 z"
         transform="matrix(1,0,0,-1,-252.98781,540.56692)"
         id="path275" /></clipPath><clipPath
       clipPathUnits="userSpaceOnUse"
       id="clipPath287"><path
         d="m 45.524,512.447 h 54.198 v -6.236 H 45.524 Z"
         transform="matrix(1,0,0,-1,-48.869301,503.09291)"
         id="path287" /></clipPath><clipPath
       clipPathUnits="userSpaceOnUse"
       id="clipPath291"><path
         d="m 100.573,512.447 h 202.11 v -6.236 h -202.11 z"
         transform="matrix(1,0,0,-1,-103.91811,502.35592)"
         id="path291" /></clipPath><clipPath
       clipPathUnits="userSpaceOnUse"
       id="clipPath294"><path
         d="m 100.573,512.447 h 202.11 v -6.236 h -202.11 z"
         transform="matrix(1,0,0,-1,-155.22351,502.35592)"
         id="path294" /></clipPath><clipPath
       clipPathUnits="userSpaceOnUse"
       id="clipPath306"><path
         d="m 511.2,512.447 h 34.98 v -6.236 H 511.2 Z"
         transform="matrix(1,0,0,-1,-524.23942,503.09291)"
         id="path306" /></clipPath><clipPath
       clipPathUnits="userSpaceOnUse"
       id="clipPath315"><path
         d="m 100.573,509.556 h 202.11 v -18.935 h -202.11 z"
         id="path315" /></clipPath><clipPath
       clipPathUnits="userSpaceOnUse"
       id="clipPath378"><path
         d="M 0,792.06 H 612 V 0.06 H 0 Z"
         id="path378" /></clipPath></defs><g
     inkscape:label="Layer 1"
     inkscape:groupmode="layer"
     id="layer1"
     transform="translate(-23.832499,-100.44809)" /><g
     id="g1"
     inkscape:groupmode="layer"
     inkscape:label="6"
     transform="matrix(0.26458333,0,0,0.26458334,196.16751,-100.44809)"><g
       id="g2"><path
         id="path335"
         d="m -737.09234,382.53693 v 1.60937 h -1.375 v 3.0625 c 0,0.625 0.008,0.99219 0.0312,1.09375 0.0312,0.0937 0.0937,0.17969 0.1875,0.25 0.0937,0.0625 0.20313,0.0937 0.32813,0.0937 0.1875,0 0.45703,-0.0625 0.8125,-0.1875 l 0.17187,1.5625 c -0.46875,0.19531 -1,0.29688 -1.59375,0.29688 -0.35547,0 -0.67969,-0.0586 -0.96875,-0.17188 -0.29297,-0.125 -0.50781,-0.28516 -0.64062,-0.48437 -0.13672,-0.19532 -0.23438,-0.45704 -0.29688,-0.78125 -0.043,-0.23829 -0.0625,-0.71094 -0.0625,-1.42188 v -3.3125 h -0.92187 v -1.60937 h 0.92187 v -1.51563 l 2.03125,-1.17187 v 2.6875 z m 1.38672,-1.03125 v -1.85938 h 2.01563 v 1.85938 z m 0,8.64062 v -7.60937 h 2.01563 v 7.60937 z m 3.94141,-7.60937 h 1.85937 v 1.04687 c 0.65625,-0.8125 1.44141,-1.21875 2.35938,-1.21875 0.48828,0 0.91015,0.10547 1.26562,0.3125 0.36328,0.19922 0.66016,0.5 0.89063,0.90625 0.33203,-0.40625 0.6914,-0.70703 1.07812,-0.90625 0.38282,-0.20703 0.79688,-0.3125 1.23438,-0.3125 0.5625,0 1.03515,0.11719 1.42187,0.34375 0.38281,0.23047 0.67578,0.5625 0.875,1 0.13282,0.32422 0.20313,0.85156 0.20313,1.57813 v 4.85937 h -2.01563 v -4.34375 c 0,-0.75781 -0.0703,-1.25 -0.20312,-1.46875 -0.1875,-0.28125 -0.47657,-0.42187 -0.85938,-0.42187 -0.28125,0 -0.54687,0.0898 -0.79687,0.26562 -0.25,0.16797 -0.4336,0.41797 -0.54688,0.75 -0.10546,0.32422 -0.15625,0.84375 -0.15625,1.5625 v 3.65625 h -2.01562 v -4.17187 c 0,-0.73829 -0.0391,-1.21094 -0.10938,-1.42188 -0.0742,-0.21875 -0.1875,-0.37891 -0.34375,-0.48437 -0.14843,-0.10157 -0.34375,-0.15625 -0.59375,-0.15625 -0.3125,0 -0.59375,0.0859 -0.84375,0.25 -0.25,0.16796 -0.42968,0.40625 -0.53125,0.71875 -0.10547,0.3125 -0.15625,0.83593 -0.15625,1.5625 v 3.70312 h -2.01562 z m 13.18359,-1.03125 v -1.85938 h 2.01563 v 1.85938 z m 0,8.64062 v -7.60937 h 2.01563 v 7.60937 z m 11.00391,0 h -2.01563 v -3.89062 c 0,-0.8125 -0.043,-1.33594 -0.125,-1.57813 -0.0859,-0.25 -0.22656,-0.4375 -0.42187,-0.5625 -0.1875,-0.13281 -0.41797,-0.20312 -0.6875,-0.20312 -0.35547,0 -0.67188,0.0937 -0.95313,0.28125 -0.27343,0.1875 -0.46093,0.44531 -0.5625,0.76562 -0.10546,0.3125 -0.15625,0.89063 -0.15625,1.73438 v 3.45312 h -2.01562 v -7.60937 h 1.875 v 1.125 c 0.66406,-0.86329 1.5039,-1.29688 2.51562,-1.29688 0.4375,0 0.83594,0.0859 1.20313,0.25 0.375,0.15625 0.65625,0.35938 0.84375,0.60938 0.1875,0.24218 0.3164,0.52343 0.39062,0.84375 0.0703,0.3125 0.10938,0.76171 0.10938,1.34375 z m 1.85547,0.5 2.3125,0.28125 c 0.0312,0.26953 0.11718,0.45313 0.26562,0.54688 0.1875,0.14453 0.48438,0.21875 0.89063,0.21875 0.53125,0 0.92578,-0.0781 1.1875,-0.23438 0.17578,-0.10547 0.3125,-0.27734 0.40625,-0.51562 0.0625,-0.16797 0.0937,-0.47657 0.0937,-0.92188 v -1.10937 c -0.60547,0.82421 -1.36719,1.23437 -2.28125,1.23437 -1.02344,0 -1.83594,-0.42969 -2.4375,-1.29687 -0.46094,-0.6875 -0.6875,-1.53516 -0.6875,-2.54688 0,-1.28125 0.30078,-2.25391 0.90625,-2.92187 0.61328,-0.67579 1.37891,-1.01563 2.29688,-1.01563 0.9375,0 1.71093,0.41406 2.32812,1.23438 v -1.0625 h 1.89063 v 6.82812 c 0,0.89453 -0.0781,1.56641 -0.23438,2.01563 -0.14844,0.44531 -0.35547,0.79687 -0.625,1.04687 -0.26172,0.25 -0.61719,0.44531 -1.0625,0.59375 -0.44922,0.14453 -1.01562,0.21875 -1.70312,0.21875 -1.28125,0 -2.19532,-0.22656 -2.73438,-0.67187 -0.54297,-0.4375 -0.8125,-0.9961 -0.8125,-1.67188 0,-0.0742 0,-0.15625 0,-0.25 z m 1.8125,-4.46875 c 0,0.8125 0.15625,1.40625 0.46875,1.78125 0.3125,0.375 0.69531,0.5625 1.15625,0.5625 0.48828,0 0.89843,-0.19141 1.23437,-0.57812 0.34375,-0.38282 0.51563,-0.95313 0.51563,-1.70313 0,-0.78906 -0.16407,-1.375 -0.48438,-1.75 -0.32422,-0.38281 -0.73437,-0.57812 -1.23437,-0.57812 -0.48047,0 -0.875,0.1875 -1.1875,0.5625 -0.3125,0.375 -0.46875,0.94531 -0.46875,1.70312 z m 13.43359,3.96875 h -2.01563 v -7.60937 h 1.875 v 1.07812 c 0.3125,-0.50781 0.59375,-0.84375 0.84375,-1 0.25782,-0.16406 0.55469,-0.25 0.89063,-0.25 0.45703,0 0.89453,0.125 1.3125,0.375 l -0.625,1.76563 c -0.33594,-0.21875 -0.64844,-0.32813 -0.9375,-0.32813 -0.28125,0 -0.52344,0.0781 -0.71875,0.23438 -0.19922,0.14843 -0.35547,0.42187 -0.46875,0.82812 -0.10547,0.40625 -0.15625,1.26172 -0.15625,2.5625 z m 8.17578,-2.42187 2.01563,0.34375 c -0.26172,0.73046 -0.67188,1.28906 -1.23438,1.67187 -0.55469,0.38672 -1.24609,0.57813 -2.07812,0.57813 -1.32422,0 -2.30469,-0.42969 -2.9375,-1.29688 -0.5,-0.6875 -0.75,-1.5625 -0.75,-2.625 0,-1.25781 0.32812,-2.24219 0.98437,-2.95312 0.65625,-0.71875 1.48828,-1.07813 2.5,-1.07813 1.13281,0 2.02344,0.375 2.67188,1.125 0.65625,0.75 0.97265,1.89844 0.95312,3.4375 h -5.04687 c 0.008,0.59375 0.17187,1.05859 0.48437,1.39063 0.3125,0.33593 0.69531,0.5 1.15625,0.5 0.32031,0 0.58594,-0.082 0.79688,-0.25 0.21875,-0.17579 0.3789,-0.45704 0.48437,-0.84375 z m 0.125,-2.03125 c -0.0234,-0.58204 -0.17969,-1.02344 -0.46875,-1.32813 -0.28125,-0.30078 -0.625,-0.45312 -1.03125,-0.45312 -0.4375,0 -0.80469,0.15625 -1.09375,0.46875 -0.28125,0.32421 -0.42187,0.76171 -0.42187,1.3125 z m 8.61328,7.34375 v -3.82813 c -0.27344,0.34375 -0.60547,0.61719 -1,0.8125 -0.38672,0.19531 -0.80469,0.29688 -1.25,0.29688 -0.86719,0 -1.57812,-0.32032 -2.14062,-0.96875 -0.65625,-0.75782 -0.98438,-1.78907 -0.98438,-3.09375 0,-1.21875 0.30469,-2.17188 0.92188,-2.85938 0.61328,-0.6875 1.38281,-1.03125 2.3125,-1.03125 0.5,0 0.92968,0.10938 1.29687,0.32813 0.375,0.21093 0.70703,0.53125 1,0.96875 v -1.125 h 1.84375 v 10.5 z m 0.0625,-6.78125 c 0,-0.78125 -0.16406,-1.35938 -0.48437,-1.73438 -0.3125,-0.38281 -0.71094,-0.57812 -1.1875,-0.57812 -0.49219,0 -0.90234,0.19531 -1.23437,0.57812 -0.32422,0.38672 -0.48438,1 -0.48438,1.84375 0,0.83594 0.15625,1.4375 0.46875,1.8125 0.32031,0.36719 0.71094,0.54688 1.17187,0.54688 0.46875,0 0.875,-0.20704 1.21875,-0.625 0.35157,-0.41407 0.53125,-1.03125 0.53125,-1.84375 z m 8.9336,3.89062 v -1.14062 c -0.28125,0.40625 -0.64844,0.73046 -1.09375,0.96875 -0.44922,0.22656 -0.92969,0.34375 -1.4375,0.34375 -0.51172,0 -0.96875,-0.10938 -1.375,-0.32813 -0.40625,-0.22656 -0.69922,-0.54687 -0.875,-0.95312 -0.17968,-0.40625 -0.26562,-0.96875 -0.26562,-1.6875 v -4.8125 h 2 v 3.5 c 0,1.07421 0.0352,1.73046 0.10937,1.96875 0.082,0.24218 0.21875,0.43359 0.40625,0.57812 0.19531,0.13672 0.44531,0.20313 0.75,0.20313 0.34375,0 0.64844,-0.0937 0.92188,-0.28125 0.26953,-0.1875 0.45703,-0.42188 0.5625,-0.70313 0.10156,-0.28125 0.15625,-0.96875 0.15625,-2.0625 v -3.20312 h 2.01562 v 7.60937 z m 3.94922,-8.64062 v -1.85938 h 2.01562 v 1.85938 z m 0,8.64062 v -7.60937 h 2.01562 v 7.60937 z m 6.01953,0 h -2.01562 v -7.60937 h 1.875 v 1.07812 c 0.3125,-0.50781 0.59375,-0.84375 0.84375,-1 0.25781,-0.16406 0.55469,-0.25 0.89063,-0.25 0.45703,0 0.89453,0.125 1.3125,0.375 l -0.625,1.76563 c -0.33594,-0.21875 -0.64844,-0.32813 -0.9375,-0.32813 -0.28126,0 -0.52344,0.0781 -0.71876,0.23438 -0.19921,0.14843 -0.35546,0.42187 -0.46874,0.82812 -0.10547,0.40625 -0.15626,1.26172 -0.15626,2.5625 z m 8.17969,-2.42187 2.01562,0.34375 c -0.26172,0.73046 -0.67188,1.28906 -1.23438,1.67187 -0.55468,0.38672 -1.24609,0.57813 -2.07812,0.57813 -1.32422,0 -2.30469,-0.42969 -2.9375,-1.29688 -0.5,-0.6875 -0.75,-1.5625 -0.75,-2.625 0,-1.25781 0.32813,-2.24219 0.98438,-2.95312 0.65625,-0.71875 1.48828,-1.07813 2.5,-1.07813 1.13281,0 2.02343,0.375 2.67187,1.125 0.65625,0.75 0.97266,1.89844 0.95313,3.4375 h -5.04688 c 0.008,0.59375 0.17188,1.05859 0.48438,1.39063 0.3125,0.33593 0.69531,0.5 1.15624,0.5 0.32032,0 0.58594,-0.082 0.79688,-0.25 0.21875,-0.17579 0.37891,-0.45704 0.48438,-0.84375 z m 0.125,-2.03125 c -0.0234,-0.58204 -0.17969,-1.02344 -0.46876,-1.32813 -0.28124,-0.30078 -0.625,-0.45312 -1.03124,-0.45312 -0.4375,0 -0.80469,0.15625 -1.09375,0.46875 -0.28125,0.32421 -0.42188,0.76171 -0.42188,1.3125 z m 3.48828,-3.15625 h 1.85937 v 1.04687 c 0.65625,-0.8125 1.44141,-1.21875 2.35938,-1.21875 0.48828,0 0.91015,0.10547 1.26562,0.3125 0.36328,0.19922 0.66016,0.5 0.89063,0.90625 0.33203,-0.40625 0.6914,-0.70703 1.07812,-0.90625 0.38281,-0.20703 0.79688,-0.3125 1.23438,-0.3125 0.5625,0 1.03515,0.11719 1.42187,0.34375 0.38281,0.23047 0.67578,0.5625 0.875,1 0.13281,0.32422 0.20313,0.85156 0.20313,1.57813 v 4.85937 h -2.01562 v -4.34375 c 0,-0.75781 -0.0703,-1.25 -0.20313,-1.46875 -0.1875,-0.28125 -0.47656,-0.42187 -0.85937,-0.42187 -0.28125,0 -0.54688,0.0898 -0.79688,0.26562 -0.25,0.16797 -0.43359,0.41797 -0.54687,0.75 -0.10547,0.32422 -0.15625,0.84375 -0.15625,1.5625 v 3.65625 h -2.01563 v -4.17187 c 0,-0.73829 -0.0391,-1.21094 -0.10937,-1.42188 -0.0742,-0.21875 -0.1875,-0.37891 -0.34375,-0.48437 -0.14844,-0.10157 -0.34375,-0.15625 -0.59375,-0.15625 -0.3125,0 -0.59375,0.0859 -0.84375,0.25 -0.25,0.16796 -0.42969,0.40625 -0.53125,0.71875 -0.10547,0.3125 -0.15625,0.83593 -0.15625,1.5625 v 3.70312 h -2.01563 z m 17.58984,5.1875 2.01562,0.34375 c -0.26171,0.73046 -0.67187,1.28906 -1.23437,1.67187 -0.55469,0.38672 -1.24609,0.57813 -2.07813,0.57813 -1.32421,0 -2.30468,-0.42969 -2.9375,-1.29688 -0.5,-0.6875 -0.75,-1.5625 -0.75,-2.625 0,-1.25781 0.32813,-2.24219 0.98438,-2.95312 0.65625,-0.71875 1.48828,-1.07813 2.5,-1.07813 1.13281,0 2.02344,0.375 2.67188,1.125 0.65624,0.75 0.97265,1.89844 0.95312,3.4375 h -5.04688 c 0.008,0.59375 0.17188,1.05859 0.48438,1.39063 0.3125,0.33593 0.69531,0.5 1.15625,0.5 0.32031,0 0.58594,-0.082 0.79687,-0.25 0.21876,-0.17579 0.37891,-0.45704 0.48438,-0.84375 z m 0.125,-2.03125 c -0.0234,-0.58204 -0.17969,-1.02344 -0.46875,-1.32813 -0.28125,-0.30078 -0.625,-0.45312 -1.03125,-0.45312 -0.4375,0 -0.80469,0.15625 -1.09375,0.46875 -0.28125,0.32421 -0.42187,0.76171 -0.42187,1.3125 z m 10.55078,4.45312 h -2.01562 v -3.89062 c 0,-0.8125 -0.043,-1.33594 -0.125,-1.57813 -0.0859,-0.25 -0.22656,-0.4375 -0.42187,-0.5625 -0.1875,-0.13281 -0.41797,-0.20312 -0.6875,-0.20312 -0.35547,0 -0.67188,0.0937 -0.95313,0.28125 -0.27344,0.1875 -0.46094,0.44531 -0.5625,0.76562 -0.10546,0.3125 -0.15625,0.89063 -0.15625,1.73438 v 3.45312 h -2.01562 v -7.60937 h 1.875 v 1.125 c 0.66406,-0.86329 1.5039,-1.29688 2.51562,-1.29688 0.4375,0 0.83594,0.0859 1.20313,0.25 0.375,0.15625 0.65625,0.35938 0.84375,0.60938 0.1875,0.24218 0.3164,0.52343 0.39062,0.84375 0.0703,0.3125 0.10938,0.76171 0.10938,1.34375 z m 5.54297,-7.60937 v 1.60937 h -1.375 v 3.0625 c 0,0.625 0.008,0.99219 0.0312,1.09375 0.0313,0.0937 0.0937,0.17969 0.1875,0.25 0.0937,0.0625 0.20313,0.0937 0.32813,0.0937 0.1875,0 0.45703,-0.0625 0.8125,-0.1875 l 0.17187,1.5625 c -0.46875,0.19531 -1,0.29688 -1.59375,0.29688 -0.35547,0 -0.67968,-0.0586 -0.96875,-0.17188 -0.29297,-0.125 -0.50781,-0.28516 -0.64062,-0.48437 -0.13672,-0.19532 -0.23438,-0.45704 -0.29688,-0.78125 -0.043,-0.23829 -0.0625,-0.71094 -0.0625,-1.42188 v -3.3125 h -0.92188 v -1.60937 h 0.92188 v -1.51563 l 2.03125,-1.17187 v 2.6875 z m 0.68359,5.4375 2.01563,-0.3125 c 0.0937,0.39843 0.26954,0.69921 0.53126,0.90625 0.2578,0.19921 0.625,0.29687 1.09374,0.29687 0.51954,0 0.91407,-0.0937 1.18751,-0.28125 0.17577,-0.13281 0.26561,-0.31641 0.26561,-0.54687 0,-0.14454 -0.0547,-0.26954 -0.15625,-0.375 -0.0937,-0.0937 -0.32032,-0.17969 -0.67188,-0.26563 -1.625,-0.35156 -2.65235,-0.67969 -3.07812,-0.98437 -0.60545,-0.40625 -0.90624,-0.97266 -0.90624,-1.70313 0,-0.66406 0.25781,-1.22266 0.78124,-1.67187 0.51955,-0.44532 1.32812,-0.67188 2.42187,-0.67188 1.03908,0 1.81252,0.17188 2.31252,0.51563 0.5078,0.33593 0.85937,0.83593 1.04686,1.5 l -1.89061,0.34375 c -0.086,-0.28907 -0.24219,-0.51563 -0.46876,-0.67188 -0.23047,-0.15625 -0.55468,-0.23437 -0.96875,-0.23437 -0.53125,0 -0.91406,0.0742 -1.14062,0.21875 -0.14844,0.10546 -0.21875,0.24218 -0.21875,0.40625 0,0.14843 0.0625,0.26562 0.18749,0.35937 0.18751,0.13672 0.8164,0.32813 1.89062,0.57813 1.07032,0.24218 1.81641,0.53906 2.23438,0.89062 0.42578,0.35547 0.64062,0.85547 0.64062,1.5 0,0.69922 -0.29295,1.29688 -0.875,1.79688 -0.58592,0.5 -1.44922,0.75 -2.59375,0.75 -1.03125,0 -1.85156,-0.20704 -2.45312,-0.625 -0.60545,-0.42579 -1,-1 -1.1875,-1.71875 z m 0,0"
         style="fill:#000000;fill-opacity:1;fill-rule:nonzero;stroke:none;stroke-width:1.33333"
         aria-label="timing requirements" /><path
         id="path336"
         d="m -487.83452,412.05645 v 1.17188 h -1 v 2.21875 c 0,0.46094 0.008,0.72656 0.0312,0.79687 0.0195,0.0742 0.0625,0.13672 0.125,0.1875 0.0703,0.043 0.15625,0.0625 0.25,0.0625 0.13281,0 0.33203,-0.0469 0.59375,-0.14062 l 0.125,1.14062 c -0.34375,0.14453 -0.73047,0.21875 -1.15625,0.21875 -0.26172,0 -0.5,-0.043 -0.71875,-0.125 -0.21094,-0.0937 -0.36719,-0.20703 -0.46875,-0.34375 -0.0937,-0.14453 -0.16406,-0.33593 -0.20313,-0.57812 -0.0312,-0.16406 -0.0469,-0.50781 -0.0469,-1.03125 v -2.40625 h -0.67188 v -1.17188 h 0.67188 v -1.10937 l 1.46875,-0.84375 v 1.95312 z m 2.05078,8.17578 -1.75,-5.53124 h 1.42187 l 1.03125,3.62499 0.95313,-3.62499 h 1.42187 l 0.92188,3.62499 1.0625,-3.62499 h 1.4375 l -1.78125,5.53124 h -1.40625 l -0.95313,-3.56249 -0.9375,3.56249 z m 9.6875,2.25 h -1 c -0.53125,-0.80468 -0.9375,-1.63671 -1.21875,-2.5 -0.27344,-0.86328 -0.40625,-1.70312 -0.40625,-2.51562 0,-1 0.17187,-1.95313 0.51562,-2.85937 0.28907,-0.76954 0.66407,-1.48438 1.125,-2.14063 h 1 c -0.46875,1.05469 -0.79687,1.94922 -0.98437,2.6875 -0.17969,0.74219 -0.26563,1.52344 -0.26563,2.34375 0,0.57422 0.0508,1.15625 0.15625,1.75 0.11328,0.59375 0.25782,1.16016 0.4375,1.70312 0.125,0.35157 0.33594,0.86329 0.64063,1.53125 z m 1.17187,-2.25 v -7.57812 h 1.54688 v 6.29687 h 3.84375 v 1.28125 z m 6.0586,2.25 c 0.28906,-0.625 0.49219,-1.10546 0.60937,-1.4375 0.11328,-0.32421 0.22266,-0.69921 0.32813,-1.125 0.10156,-0.4375 0.17578,-0.84765 0.21875,-1.23437 0.0508,-0.38281 0.0781,-0.78125 0.0781,-1.1875 0,-0.82031 -0.0898,-1.60156 -0.26563,-2.34375 -0.17969,-0.73828 -0.50781,-1.63281 -0.98437,-2.6875 h 1 c 0.51953,0.74219 0.92578,1.53125 1.21875,2.375 0.28906,0.83594 0.4375,1.68359 0.4375,2.54688 0,0.73046 -0.11719,1.50781 -0.34375,2.32812 -0.26172,0.9375 -0.6875,1.85937 -1.28125,2.76562 z m 0,0"
         style="fill:#000000;fill-opacity:1;fill-rule:nonzero;stroke:none;stroke-width:1.33333"
         aria-label="t&#10;w(L)" /><path
         id="path337"
         d="m -495.29075,427.48975 h 76.57333"
         style="fill:none;stroke:#000000;stroke-width:0.605333;stroke-linecap:round;stroke-linejoin:round;stroke-miterlimit:10;stroke-dasharray:none;stroke-opacity:1" /><path
         id="path338"
         d="m -615.93341,492.04441 v 40.96934"
         style="fill:none;stroke:#000000;stroke-width:0.605333;stroke-linecap:round;stroke-linejoin:round;stroke-miterlimit:10;stroke-dasharray:10.8853, 4.08133;stroke-dashoffset:0;stroke-opacity:1" /><path
         id="path339"
         d="m -130.26409,443.28841 h 38.098666 m -586.355986,29.404 h 53.82 l 18.97333,-29.404 m 19.04933,0 18.97334,29.404 m -111.648,-29.404 h 92.67466 m 18.97334,29.404 h 19.048 l 18.97333,-29.404 m 19.04933,0 18.97334,29.404 m -38.02267,-29.404 h 19.04933 m 18.97334,29.404 h 19.048 l 19.04933,-29.404 m 19.048,0 18.97333,29.404 m -38.02133,-29.404 h 19.048 m 18.97333,29.404 h 19.04933 l 18.97334,-29.404 m 19.04933,0 18.972,29.404 m -38.02133,-29.404 h 19.04933 m 18.972,29.404 h 19.04933 l 18.97333,-29.404 m 19.04934,0 19.048,29.404 m -38.09734,-29.404 h 19.04934 m 19.048,29.404 h 19.04933 l 18.97333,-29.404 m 19.048,0 18.97333,29.404 m -38.02133,-29.404 h 19.048 m 18.97333,29.404 h 19.04934 l 18.97333,-29.404 m 19.048,0 18.97333,29.404 m -38.02133,-29.404 h 19.048 m 18.97333,29.404 h 19.049336 m -583.861316,75.13733 h 51.40133 m -52.83733,-29.47999 h 52.83733 m 232.28933,29.47999 9.072,-14.81599 -9.072,-14.664 m 77.40533,29.47999 9.07066,-14.81599 -9.07066,-14.664 m -59.33867,29.47999 -8.99466,-14.81599 8.99466,-14.664 m 77.48,29.47999 -9.07067,-14.81599 9.07067,-14.664 m 54.42533,29.47999 9.524,-14.81599 -9.524,-14.664 m 81.184,29.47999 9.44933,-14.81599 -9.44933,-14.664 m -62.21066,29.47999 -9.44934,-14.81599 9.44934,-14.664 m 0,29.47999 h 62.21066 m -62.21066,-29.47999 h 62.21066 m 18.97333,29.47999 -9.524,-14.81599 9.524,-14.664 m 0,29.47999 h 50.117336 m -50.117336,-29.47999 h 50.117336 m -587.187986,75.96799 h 19.04933 l 18.97334,29.40534 h 520.21332 m 19.04933,-29.40534 h 9.902666 m -28.951996,29.40534 19.04933,-29.40534 m -195.1,-46.488 h 54.728 m -54.728,-29.47999 h 54.728 m -131.90533,29.47999 h 59.33867 m -59.33867,-29.47999 h 59.33867 m -154.80933,29.47999 8.99466,-14.81599 -8.99466,-14.664 m 18.06533,29.47999 -9.07067,-14.81599 9.07067,-14.664 m 0,29.47999 h 59.33867 m -59.33867,-29.47999 h 59.33867 m -154.884,29.47999 9.07067,-14.81599 -9.07067,-14.664 m 18.14133,29.47999 -9.07066,-14.81599 9.07066,-14.664 m 0,29.47999 h 59.33867 m -59.33867,-29.47999 h 59.33867 m -154.88533,29.47999 9.07067,-14.81599 -9.07067,-14.664"
         style="fill:none;stroke:#000000;stroke-width:1.88933;stroke-linecap:round;stroke-linejoin:round;stroke-miterlimit:10;stroke-dasharray:none;stroke-opacity:1" /><path
         id="path340"
         d="m -606.56008,547.82974 -9.07066,-14.81599 9.07066,-14.664 m 0,29.47999 h 59.264 m -59.264,-29.47999 h 59.264"
         style="fill:none;stroke:#000000;stroke-width:1.88933;stroke-linecap:round;stroke-linejoin:round;stroke-miterlimit:10;stroke-dasharray:none;stroke-opacity:1" /><path
         id="path341"
         d="m -294.97475,521.82708 h 3.78 v -5.51867 h -3.78 z"
         style="fill:#ffffff;fill-opacity:1;fill-rule:evenodd;stroke:none;stroke-width:1.33333" /><path
         id="path342"
         d="m -290.89342,524.39641 c 0.69467,-0.57866 1.088,-1.944 0.98933,-3.43066 -0.092,-1.38267 -0.59333,-2.61467 -1.288,-3.16534 m 0.22267,-5.49866 v 0 c -0.60133,0.576 -1.00133,1.492 -1.08533,2.48933 -0.0973,1.15067 0.24,2.252 0.88533,2.90267 m -4.184,6.70266 v 0 c 0.69467,-0.57866 1.088,-1.944 0.98933,-3.42933 -0.092,-1.38267 -0.59333,-2.61467 -1.288,-3.16667 m 0.22267,-5.49866 v 0 c -0.60267,0.576 -1.00133,1.492 -1.08533,2.49066 -0.0973,1.15067 0.23866,2.252 0.88533,2.90267 m 4.43333,0.65467 z"
         style="fill:none;stroke:#000000;stroke-width:0.605333;stroke-linecap:round;stroke-linejoin:round;stroke-miterlimit:10;stroke-dasharray:none;stroke-opacity:1" /><path
         id="path343"
         d="m -295.12675,446.76575 h 3.93066 v -5.59334 h -3.93066 z"
         style="fill:#ffffff;fill-opacity:1;fill-rule:evenodd;stroke:none;stroke-width:1.33333" /><path
         id="path344"
         d="m -290.89342,449.33508 c 0.73067,-0.58133 1.144,-1.95467 1.036,-3.448 -0.1,-1.376 -0.624,-2.59867 -1.34933,-3.148 m 0.23733,-5.49867 v 0 c -0.62133,0.568 -1.03867,1.46534 -1.13467,2.448 -0.11333,1.168 0.24134,2.29334 0.932,2.952 m -4.408,6.69467 v 0 c 0.73067,-0.58133 1.144,-1.95467 1.036,-3.44667 -0.1,-1.376 -0.624,-2.6 -1.34933,-3.148 m 0.23733,-5.5 v 0 c -0.62133,0.56667 -1.03866,1.46534 -1.13466,2.448 -0.11334,1.168 0.24133,2.29334 0.932,2.952 m 4.66266,0.648 z"
         style="fill:none;stroke:#000000;stroke-width:0.605333;stroke-linecap:round;stroke-linejoin:round;stroke-miterlimit:10;stroke-dasharray:none;stroke-opacity:1" /><path
         id="path345"
         d="m -294.97475,551.30708 h 3.78 v -5.59333 h -3.78 z"
         style="fill:#ffffff;fill-opacity:1;fill-rule:evenodd;stroke:none;stroke-width:1.33333" /><path
         id="path346"
         d="m -290.89342,553.87641 c 0.69467,-0.57867 1.088,-1.94267 0.98933,-3.42933 -0.092,-1.392 -0.59866,-2.62934 -1.3,-3.176 m 0.23467,-5.488 v 0 c -0.60133,0.57467 -1.00133,1.49067 -1.08533,2.488 -0.0973,1.15067 0.24,2.25333 0.88533,2.904 m -4.184,6.70133 v 0 c 0.69467,-0.57867 1.088,-1.94267 0.98933,-3.42933 -0.092,-1.392 -0.59866,-2.62934 -1.3,-3.176 m 0.23467,-5.488 v 0 c -0.60267,0.57467 -1.00133,1.492 -1.08533,2.48933 -0.0973,1.15067 0.23866,2.252 0.88533,2.904 m 4.43333,0.65333 z"
         style="fill:none;stroke:#000000;stroke-width:0.605333;stroke-linecap:round;stroke-linejoin:round;stroke-miterlimit:10;stroke-dasharray:none;stroke-opacity:1" /><path
         id="path347"
         d="m -295.12675,627.20041 h 3.93066 v -5.51867 h -3.93066 z"
         style="fill:#ffffff;fill-opacity:1;fill-rule:evenodd;stroke:none;stroke-width:1.33333" /><path
         id="path348"
         d="m -290.89342,629.76974 c 0.73067,-0.58133 1.144,-1.95466 1.036,-3.448 -0.0987,-1.36666 -0.61733,-2.584 -1.336,-3.13866 m 0.224,-5.432 v 0 c -0.62133,0.56666 -1.03867,1.46533 -1.13467,2.44666 -0.112,1.15334 0.23067,2.264 0.904,2.92667 m -4.38,6.64533 v 0 c 0.73067,-0.58133 1.144,-1.95466 1.036,-3.448 -0.0987,-1.36666 -0.61733,-2.584 -1.336,-3.13733 m 0.224,-5.43333 v 0 c -0.62133,0.56666 -1.03866,1.46533 -1.13466,2.44666 -0.112,1.152 0.232,2.264 0.90533,2.92534 m 4.68933,0.6 z"
         style="fill:none;stroke:#000000;stroke-width:0.605333;stroke-linecap:round;stroke-linejoin:round;stroke-miterlimit:10;stroke-dasharray:none;stroke-opacity:1" /><path
         id="path349"
         d="m -715.92827,458.64239 1.5,-0.14063 c 0.082,0.5 0.25781,0.8711 0.53125,1.10938 0.28125,0.23047 0.65625,0.34375 1.125,0.34375 0.5,0 0.875,-0.10156 1.125,-0.3125 0.25,-0.20703 0.375,-0.45313 0.375,-0.73438 0,-0.17578 -0.0547,-0.32812 -0.15625,-0.45312 -0.10547,-0.13281 -0.28907,-0.25 -0.54688,-0.34375 -0.1875,-0.0625 -0.60156,-0.17188 -1.23437,-0.32813 -0.83594,-0.20703 -1.41797,-0.45703 -1.75,-0.75 -0.46875,-0.42578 -0.70313,-0.9414 -0.70313,-1.54687 0,-0.38281 0.10938,-0.74219 0.32813,-1.07813 0.22656,-0.34375 0.54687,-0.60156 0.95312,-0.78125 0.41406,-0.17578 0.92188,-0.26562 1.51563,-0.26562 0.95703,0 1.67578,0.21094 2.15625,0.625 0.48828,0.41797 0.74218,0.98047 0.76562,1.6875 l -1.54687,0.0625 c -0.0625,-0.39453 -0.20313,-0.67578 -0.42188,-0.84375 -0.21875,-0.17578 -0.54297,-0.26563 -0.96875,-0.26563 -0.44922,0 -0.80469,0.0937 -1.0625,0.28125 -0.15625,0.11719 -0.23437,0.27344 -0.23437,0.46875 0,0.1875 0.0703,0.34375 0.21875,0.46875 0.19531,0.16797 0.67187,0.33985 1.42187,0.51563 0.75,0.17969 1.30078,0.35937 1.65625,0.54687 0.36328,0.1875 0.64453,0.44922 0.84375,0.78125 0.20703,0.32422 0.3125,0.73047 0.3125,1.21875 0,0.4375 -0.12109,0.85157 -0.35937,1.23438 -0.24219,0.375 -0.58594,0.65625 -1.03125,0.84375 -0.44922,0.1875 -1.00782,0.28125 -1.67188,0.28125 -0.96094,0 -1.69922,-0.22266 -2.21875,-0.67188 -0.52344,-0.44531 -0.82812,-1.09765 -0.92187,-1.95312 z m 12.39843,-0.32813 1.48438,0.48438 c -0.23047,0.83594 -0.60938,1.45312 -1.14063,1.85937 -0.53125,0.39844 -1.21093,0.59375 -2.03125,0.59375 -1.01172,0 -1.84375,-0.34375 -2.5,-1.03125 -0.65625,-0.69531 -0.98437,-1.64453 -0.98437,-2.84375 0,-1.26953 0.32812,-2.2539 0.98437,-2.95312 0.65625,-0.70703 1.51953,-1.0625 2.59375,-1.0625 0.9375,0 1.69532,0.27734 2.28125,0.82812 0.34375,0.32422 0.60157,0.79297 0.78125,1.40625 l -1.53125,0.35938 c -0.0859,-0.39453 -0.27343,-0.70703 -0.5625,-0.9375 -0.29297,-0.22656 -0.64062,-0.34375 -1.04687,-0.34375 -0.5625,0 -1.02344,0.20312 -1.375,0.60937 -0.35547,0.40625 -0.53125,1.07032 -0.53125,1.98438 0,0.96094 0.17187,1.64844 0.51562,2.0625 0.35157,0.40625 0.80469,0.60937 1.35938,0.60937 0.40625,0 0.7539,-0.1289 1.04687,-0.39062 0.30078,-0.25781 0.51953,-0.67188 0.65625,-1.23438 z m 2.83985,2.8125 v -7.57812 h 1.54687 v 6.29687 h 3.84375 v 1.28125 z m 6.5039,0 v -7.64062 h 1.54688 v 3.39062 l 3.10937,-3.39062 h 2.07813 l -2.875,2.98437 3.03125,4.65625 h -2 l -2.09375,-3.57812 -1.25,1.26562 v 2.3125 z m -2.24609,152.52734 1.48437,0.48437 c -0.23046,0.83595 -0.60937,1.45314 -1.14062,1.85939 -0.53125,0.39843 -1.21094,0.59375 -2.03125,0.59375 -1.01172,0 -1.84375,-0.34375 -2.5,-1.03126 -0.65625,-0.6953 -0.98438,-1.64453 -0.98438,-2.84374 0,-1.26954 0.32813,-2.25391 0.98438,-2.95314 0.65625,-0.70702 1.51953,-1.06249 2.59375,-1.06249 0.9375,0 1.69531,0.27735 2.28125,0.82812 0.34375,0.32423 0.60156,0.79297 0.78125,1.40625 l -1.53125,0.35938 c -0.0859,-0.39454 -0.27344,-0.70703 -0.5625,-0.9375 -0.29297,-0.22657 -0.64063,-0.34376 -1.04688,-0.34376 -0.5625,0 -1.02343,0.20314 -1.375,0.60939 -0.35547,0.40624 -0.53125,1.07031 -0.53125,1.98437 0,0.96094 0.17188,1.64843 0.51563,2.0625 0.35156,0.40625 0.80469,0.60937 1.35937,0.60937 0.40625,0 0.75391,-0.12893 1.04688,-0.39063 0.30078,-0.25781 0.51953,-0.67186 0.65625,-1.23437 z m 2.41797,0.32813 1.5,-0.14062 c 0.082,0.5 0.25781,0.87109 0.53125,1.10937 0.28125,0.23047 0.65625,0.34375 1.125,0.34375 0.5,0 0.875,-0.1016 1.125,-0.3125 0.25,-0.20704 0.375,-0.45313 0.375,-0.73437 0,-0.17579 -0.0547,-0.32813 -0.15625,-0.45313 -0.10547,-0.1328 -0.28906,-0.25 -0.54688,-0.34375 -0.1875,-0.0625 -0.60156,-0.17188 -1.23437,-0.32812 -0.83594,-0.20704 -1.41797,-0.45704 -1.75,-0.75 -0.46875,-0.42579 -0.70313,-0.94141 -0.70313,-1.54688 0,-0.38281 0.10938,-0.74219 0.32813,-1.07812 0.22656,-0.34376 0.54687,-0.60157 0.95312,-0.78125 0.41407,-0.17579 0.92188,-0.26563 1.51563,-0.26563 0.95703,0 1.67578,0.21093 2.15625,0.625 0.48828,0.41797 0.74219,0.98047 0.76562,1.68749 l -1.54687,0.0625 c -0.0625,-0.39454 -0.20313,-0.67579 -0.42188,-0.84375 -0.21875,-0.17579 -0.54297,-0.26563 -0.96875,-0.26563 -0.44922,0 -0.80469,0.0937 -1.0625,0.28126 -0.15625,0.1172 -0.23437,0.27342 -0.23437,0.46874 0,0.1875 0.0703,0.34375 0.21875,0.46875 0.19531,0.16797 0.67187,0.33984 1.42187,0.51563 0.75,0.17968 1.30078,0.35937 1.65625,0.54688 0.36328,0.18749 0.64453,0.44921 0.84375,0.78124 0.20703,0.32422 0.3125,0.73046 0.3125,1.21876 0,0.43749 -0.12109,0.85156 -0.35937,1.23437 -0.24219,0.375 -0.58594,0.65624 -1.03125,0.84375 -0.44922,0.18749 -1.00782,0.28125 -1.67188,0.28125 -0.96094,0 -1.69922,-0.22267 -2.21875,-0.67188 -0.52343,-0.44531 -0.82812,-1.09765 -0.92187,-1.95312 z m 0,0"
         style="fill:#000000;fill-opacity:1;fill-rule:nonzero;stroke:none;stroke-width:1.33333"
         aria-label="SCLK&#10;CS" /><path
         id="path350"
         d="m -702.10541,605.65641 h 14.816 v 1.36 h -14.816 z"
         style="fill:#000000;fill-opacity:1;fill-rule:evenodd;stroke:none;stroke-width:1.33333" /><path
         id="path351"
         d="m -704.89312,530.28692 h 2.82813 c 0.63281,0 1.11719,0.0469 1.45312,0.14062 0.44532,0.13672 0.82813,0.375 1.14063,0.71875 0.32031,0.33594 0.56641,0.7461 0.73437,1.23438 0.16407,0.49219 0.25,1.08984 0.25,1.79687 0,0.63672 -0.0781,1.17969 -0.23437,1.625 -0.1875,0.5625 -0.46094,1.01563 -0.8125,1.35938 -0.27344,0.26172 -0.63672,0.46484 -1.09375,0.60937 -0.33594,0.10547 -0.78906,0.15625 -1.35938,0.15625 h -2.90625 z m 1.54688,1.29687 v 5.0625 h 1.15625 c 0.42578,0 0.73437,-0.0234 0.92187,-0.0781 0.25,-0.0625 0.45704,-0.16406 0.625,-0.3125 0.16407,-0.15625 0.30079,-0.39844 0.40625,-0.73438 0.10157,-0.34375 0.15625,-0.8125 0.15625,-1.40625 0,-0.59375 -0.0547,-1.04687 -0.15625,-1.35937 -0.10546,-0.32031 -0.25,-0.57031 -0.4375,-0.75 -0.1875,-0.17578 -0.42968,-0.29688 -0.71875,-0.35938 -0.21093,-0.0391 -0.63281,-0.0625 -1.26562,-0.0625 z m 6.125,6.34375 v -7.64062 h 1.53125 v 7.64062 z m 3.02734,0 v -7.64062 h 1.5 l 3.125,5.10937 v -5.10937 h 1.4375 v 7.64062 h -1.5625 l -3.07812,-4.98437 v 4.98437 z m 0,0"
         style="fill:#000000;fill-opacity:1;fill-rule:nonzero;stroke:none;stroke-width:1.33333"
         aria-label="DIN" /><path
         id="path352"
         d="m -577.30541,457.80175 0.37733,60.548"
         style="fill:none;stroke:#000000;stroke-width:0.605333;stroke-linecap:round;stroke-linejoin:round;stroke-miterlimit:10;stroke-dasharray:9.29733, 3.47733;stroke-dashoffset:0;stroke-opacity:1" /><path
         id="path353"
         d="m -576.09608,547.82974 v 57.676"
         style="fill:none;stroke:#000000;stroke-width:0.605333;stroke-linecap:round;stroke-linejoin:round;stroke-miterlimit:10;stroke-dasharray:11.188, 4.15733;stroke-dashoffset:0;stroke-opacity:1" /><path
         id="path354"
         d="m -643.52274,575.11774 v 48.60534"
         style="fill:none;stroke:#000000;stroke-width:0.605333;stroke-linecap:round;stroke-linejoin:round;stroke-miterlimit:10;stroke-dasharray:9.44933, 3.55333;stroke-dashoffset:0;stroke-opacity:1" /><path
         id="path355"
         d="m -191.18942,466.72041 v 51.62934"
         style="fill:none;stroke:#000000;stroke-width:0.605333;stroke-linecap:round;stroke-linejoin:round;stroke-miterlimit:10;stroke-dasharray:10.0533, 3.704;stroke-dashoffset:0;stroke-opacity:1" /><path
         id="path356"
         d="m -105.09209,567.40708 v 31.59733"
         style="fill:none;stroke:#000000;stroke-width:0.605333;stroke-linecap:round;stroke-linejoin:round;stroke-miterlimit:10;stroke-dasharray:8.39067, 3.09867;stroke-dashoffset:0;stroke-opacity:1" /><path
         id="path357"
         d="m -191.18942,547.82974 v 42.25467"
         style="fill:none;stroke:#000000;stroke-width:0.605333;stroke-linecap:round;stroke-linejoin:round;stroke-miterlimit:10;stroke-dasharray:11.2627, 4.15733;stroke-dashoffset:0;stroke-opacity:1" /><path
         id="path358"
         d="m -495.29075,417.58708 v 49.512 m 76.57333,-49.512 v 49.512"
         style="fill:none;stroke:#000000;stroke-width:0.605333;stroke-linecap:round;stroke-linejoin:round;stroke-miterlimit:10;stroke-dasharray:9.6, 3.55333;stroke-dashoffset:0;stroke-opacity:1" /><path
         id="path359"
         d="m -456.28542,417.58708 v 31.068"
         style="fill:none;stroke:#000000;stroke-width:0.605333;stroke-linecap:round;stroke-linejoin:round;stroke-miterlimit:10;stroke-dasharray:8.24, 3.09867;stroke-dashoffset:0;stroke-opacity:1" /><path
         id="path360"
         d="m -538.22541,492.04441 v 40.96934"
         style="fill:none;stroke:#000000;stroke-width:0.605333;stroke-linecap:round;stroke-linejoin:round;stroke-miterlimit:10;stroke-dasharray:10.8853, 4.08133;stroke-dashoffset:0;stroke-opacity:1" /><path
         id="path361"
         d="m -586.74468,528.32208 h 2.82813 c 0.63281,0 1.11718,0.0469 1.45312,0.14062 0.44531,0.13672 0.82813,0.375 1.14063,0.71875 0.32031,0.33594 0.5664,0.7461 0.73437,1.23438 0.16406,0.49219 0.25,1.08984 0.25,1.79687 0,0.63672 -0.0781,1.17969 -0.23437,1.625 -0.1875,0.5625 -0.46094,1.01563 -0.8125,1.35938 -0.27344,0.26172 -0.63672,0.46484 -1.09375,0.60937 -0.33594,0.10547 -0.78907,0.15625 -1.35938,0.15625 h -2.90625 z m 1.54688,1.29687 v 5.0625 h 1.15625 c 0.42578,0 0.73437,-0.0234 0.92187,-0.0781 0.25,-0.0625 0.45703,-0.16406 0.625,-0.3125 0.16406,-0.15625 0.30078,-0.39844 0.40625,-0.73438 0.10157,-0.34375 0.15625,-0.8125 0.15625,-1.40625 0,-0.59375 -0.0547,-1.04687 -0.15625,-1.35937 -0.10547,-0.32031 -0.25,-0.57031 -0.4375,-0.75 -0.1875,-0.17578 -0.42969,-0.29688 -0.71875,-0.35938 -0.21094,-0.0391 -0.63281,-0.0625 -1.26562,-0.0625 z m 9.58984,6.34375 h -1.46875 v -5.51562 c -0.53125,0.5 -1.16406,0.87109 -1.89062,1.10937 v -1.32812 c 0.38281,-0.125 0.80078,-0.35938 1.25,-0.70313 0.44531,-0.35156 0.7539,-0.76562 0.92187,-1.23437 h 1.1875 z m 2.19922,-1.96875 1.46875,-0.14062 c 0.0391,0.32422 0.16016,0.58594 0.35937,0.78125 0.20704,0.1875 0.44532,0.28125 0.71875,0.28125 0.30079,0 0.55469,-0.11719 0.76563,-0.35938 0.21875,-0.25 0.32812,-0.625 0.32812,-1.125 0,-0.46875 -0.10937,-0.8164 -0.32812,-1.04687 -0.21094,-0.23828 -0.48047,-0.35938 -0.8125,-0.35938 -0.41797,0 -0.79297,0.1836 -1.125,0.54688 l -1.1875,-0.17188 0.75,-3.96875 h 3.85937 v 1.35938 h -2.75 l -0.23437,1.3125 c 0.32031,-0.16406 0.65625,-0.25 1,-0.25 0.64453,0 1.19141,0.24219 1.64062,0.71875 0.45704,0.46875 0.6875,1.07812 0.6875,1.82812 0,0.625 -0.18359,1.1875 -0.54687,1.6875 -0.5,0.66797 -1.1875,1 -2.0625,1 -0.71094,0 -1.28906,-0.1875 -1.73438,-0.5625 -0.4375,-0.375 -0.70312,-0.88281 -0.79687,-1.53125 z m 64.37109,-5.67187 h 2.82813 c 0.63281,0 1.11718,0.0469 1.45312,0.14062 0.44531,0.13672 0.82813,0.375 1.14063,0.71875 0.32031,0.33594 0.5664,0.7461 0.73437,1.23438 0.16406,0.49219 0.25,1.08984 0.25,1.79687 0,0.63672 -0.0781,1.17969 -0.23437,1.625 -0.1875,0.5625 -0.46094,1.01563 -0.8125,1.35938 -0.27344,0.26172 -0.63672,0.46484 -1.09375,0.60937 -0.33594,0.10547 -0.78907,0.15625 -1.35938,0.15625 h -2.90625 z m 1.54688,1.29687 v 5.0625 h 1.15625 c 0.42578,0 0.73437,-0.0234 0.92187,-0.0781 0.25,-0.0625 0.45703,-0.16406 0.625,-0.3125 0.16406,-0.15625 0.30078,-0.39844 0.40625,-0.73438 0.10156,-0.34375 0.15625,-0.8125 0.15625,-1.40625 0,-0.59375 -0.0547,-1.04687 -0.15625,-1.35937 -0.10546,-0.32031 -0.25,-0.57031 -0.4375,-0.75 -0.1875,-0.17578 -0.42969,-0.29688 -0.71875,-0.35938 -0.21094,-0.0391 -0.63281,-0.0625 -1.26562,-0.0625 z m 9.59375,6.34375 h -1.46875 v -5.51562 c -0.53125,0.5 -1.16407,0.87109 -1.89063,1.10937 v -1.32812 c 0.38281,-0.125 0.80078,-0.35938 1.25,-0.70313 0.44531,-0.35156 0.75391,-0.76562 0.92188,-1.23437 h 1.1875 z m 5.05468,0 v -1.53125 h -3.125 v -1.28125 l 3.3125,-4.85937 h 1.21875 v 4.84375 h 0.95313 v 1.29687 h -0.95313 v 1.53125 z m 0,-2.82812 v -2.60938 l -1.76562,2.60938 z m 62.41797,-4.8125 h 2.82813 c 0.6328,0 1.11719,0.0469 1.45312,0.14062 0.44531,0.13672 0.82812,0.375 1.14063,0.71875 0.32031,0.33594 0.5664,0.7461 0.73437,1.23438 0.16407,0.49219 0.25,1.08984 0.25,1.79687 0,0.63672 -0.0781,1.17969 -0.23437,1.625 -0.18751,0.5625 -0.46095,1.01563 -0.81251,1.35938 -0.27344,0.26172 -0.63672,0.46484 -1.09374,0.60937 -0.33594,0.10547 -0.78907,0.15625 -1.35938,0.15625 h -2.90625 z m 1.54688,1.29687 v 5.0625 h 1.15625 c 0.42578,0 0.73438,-0.0234 0.92187,-0.0781 0.25,-0.0625 0.45703,-0.16406 0.625,-0.3125 0.16407,-0.15625 0.30079,-0.39844 0.40625,-0.73438 0.1016,-0.34375 0.15626,-0.8125 0.15626,-1.40625 0,-0.59375 -0.0547,-1.04687 -0.15626,-1.35937 -0.10546,-0.32031 -0.25,-0.57031 -0.4375,-0.75 -0.1875,-0.17578 -0.42968,-0.29688 -0.71875,-0.35938 -0.21093,-0.0391 -0.63281,-0.0625 -1.26563,-0.0625 z m 9.59375,6.34375 h -1.46875 v -5.51562 c -0.53125,0.5 -1.16407,0.87109 -1.89063,1.10937 v -1.32812 c 0.38282,-0.125 0.80078,-0.35938 1.25,-0.70313 0.44531,-0.35156 0.75391,-0.76562 0.92188,-1.23437 h 1.1875 z m 2.13281,-2.03125 1.40625,-0.17187 c 0.0508,0.36719 0.17578,0.64844 0.375,0.84375 0.19531,0.1875 0.4375,0.28125 0.71875,0.28125 0.30079,0 0.55079,-0.11328 0.75,-0.34375 0.20703,-0.22656 0.31249,-0.53906 0.31249,-0.9375 0,-0.36328 -0.1016,-0.64844 -0.29686,-0.85938 -0.19923,-0.21875 -0.43751,-0.32812 -0.71875,-0.32812 -0.18751,0 -0.41407,0.0391 -0.67188,0.10937 l 0.15625,-1.20312 c 0.39454,0.0117 0.69531,-0.0703 0.90624,-0.25 0.20704,-0.1875 0.31251,-0.42969 0.31251,-0.73438 0,-0.25781 -0.0781,-0.46093 -0.23437,-0.60937 -0.14844,-0.15625 -0.34375,-0.23438 -0.59375,-0.23438 -0.25,0 -0.46485,0.0898 -0.64063,0.26563 -0.17969,0.16797 -0.28906,0.41797 -0.32813,0.75 l -1.34375,-0.21875 c 0.0937,-0.46875 0.23438,-0.83594 0.42188,-1.10938 0.1875,-0.28125 0.44531,-0.5 0.78124,-0.65625 0.34376,-0.15625 0.72267,-0.23437 1.14063,-0.23437 0.71876,0 1.29688,0.23047 1.73437,0.6875 0.35158,0.375 0.53126,0.79687 0.53126,1.26562 0,0.67969 -0.36719,1.21485 -1.09375,1.60938 0.43749,0.0937 0.78516,0.30859 1.04688,0.64062 0.26952,0.32422 0.40624,0.71485 0.40624,1.17188 0,0.67969 -0.25,1.25 -0.75,1.71875 -0.49219,0.46875 -1.10156,0.70312 -1.82812,0.70312 -0.68751,0 -1.26172,-0.19531 -1.71875,-0.59375 -0.44922,-0.39453 -0.71094,-0.91406 -0.78125,-1.5625 z m 64.43749,-5.60937 h 2.82813 c 0.63282,0 1.11719,0.0469 1.45312,0.14062 0.44532,0.13672 0.82814,0.375 1.14063,0.71875 0.32031,0.33594 0.56641,0.7461 0.73437,1.23438 0.16407,0.49219 0.25,1.08984 0.25,1.79687 0,0.63672 -0.0781,1.17969 -0.23437,1.625 -0.18749,0.5625 -0.46093,1.01563 -0.81249,1.35938 -0.27344,0.26172 -0.63672,0.46484 -1.09376,0.60937 -0.33594,0.10547 -0.78906,0.15625 -1.35938,0.15625 h -2.90625 z m 1.54688,1.29687 v 5.0625 h 1.15625 c 0.42578,0 0.73438,-0.0234 0.92187,-0.0781 0.25,-0.0625 0.45704,-0.16406 0.625,-0.3125 0.16407,-0.15625 0.30079,-0.39844 0.40625,-0.73438 0.1016,-0.34375 0.15626,-0.8125 0.15626,-1.40625 0,-0.59375 -0.0547,-1.04687 -0.15626,-1.35937 -0.10546,-0.32031 -0.25,-0.57031 -0.43749,-0.75 -0.18751,-0.17578 -0.42969,-0.29688 -0.71876,-0.35938 -0.21093,-0.0391 -0.63281,-0.0625 -1.26561,-0.0625 z m 9.58984,6.34375 h -1.46875 v -5.51562 c -0.53125,0.5 -1.16406,0.87109 -1.89062,1.10937 v -1.32812 c 0.38281,-0.125 0.80078,-0.35938 1.25,-0.70313 0.44532,-0.35156 0.7539,-0.76562 0.92188,-1.23437 h 1.18749 z m 7.13281,-1.35937 v 1.35937 h -5.14062 c 0.0508,-0.50781 0.21876,-0.99218 0.5,-1.45312 0.28125,-0.46875 0.82813,-1.08203 1.64062,-1.84375 0.66407,-0.61328 1.07032,-1.03125 1.21876,-1.25 0.19531,-0.30078 0.29687,-0.59766 0.29687,-0.89063 0,-0.33203 -0.0899,-0.58203 -0.26563,-0.75 -0.16796,-0.17578 -0.40624,-0.26562 -0.71874,-0.26562 -0.3047,0 -0.54688,0.0937 -0.73438,0.28125 -0.17969,0.17969 -0.28125,0.48047 -0.3125,0.90625 l -1.45312,-0.14063 c 0.082,-0.8125 0.35156,-1.39062 0.8125,-1.73437 0.45703,-0.35156 1.03124,-0.53125 1.71875,-0.53125 0.75781,0 1.35156,0.20312 1.78125,0.60937 0.4375,0.40625 0.65624,0.91407 0.65624,1.51563 0,0.34375 -0.0625,0.67187 -0.18749,0.98437 -0.12493,0.3125 -0.32423,0.64063 -0.59375,0.98438 -0.17969,0.21875 -0.5,0.54297 -0.96876,0.96875 -0.46093,0.42969 -0.75,0.71094 -0.875,0.84375 -0.1172,0.13672 -0.21484,0.27344 -0.29686,0.40625 z m 59.35938,-6.28125 h 2.82813 c 0.63281,0 1.11719,0.0469 1.45312,0.14062 0.44532,0.13672 0.82813,0.375 1.14063,0.71875 0.3203,0.33594 0.5664,0.7461 0.73437,1.23438 0.16407,0.49219 0.25,1.08984 0.25,1.79687 0,0.63672 -0.0781,1.17969 -0.23437,1.625 -0.1875,0.5625 -0.46094,1.01563 -0.8125,1.35938 -0.27344,0.26172 -0.63672,0.46484 -1.09376,0.60937 -0.33593,0.10547 -0.78905,0.15625 -1.35937,0.15625 h -2.90625 z m 1.54688,1.29687 v 5.0625 h 1.15625 c 0.42577,0 0.73437,-0.0234 0.92187,-0.0781 0.25,-0.0625 0.45704,-0.16406 0.625,-0.3125 0.16406,-0.15625 0.30078,-0.39844 0.40625,-0.73438 0.1016,-0.34375 0.15625,-0.8125 0.15625,-1.40625 0,-0.59375 -0.0547,-1.04687 -0.15625,-1.35937 -0.10547,-0.32031 -0.25,-0.57031 -0.43749,-0.75 -0.18751,-0.17578 -0.4297,-0.29688 -0.71876,-0.35938 -0.21094,-0.0391 -0.63282,-0.0625 -1.26562,-0.0625 z m 9.59374,6.34375 h -1.46874 v -5.51562 c -0.53126,0.5 -1.16407,0.87109 -1.89063,1.10937 v -1.32812 c 0.38281,-0.125 0.80079,-0.35938 1.25,-0.70313 0.44532,-0.35156 0.75391,-0.76562 0.92188,-1.23437 h 1.18749 z m 66.49219,-7.64062 h 2.82813 c 0.63281,0 1.11719,0.0469 1.45312,0.14062 0.44532,0.13672 0.82812,0.375 1.14063,0.71875 0.3203,0.33594 0.5664,0.7461 0.73437,1.23438 0.16407,0.49219 0.25,1.08984 0.25,1.79687 0,0.63672 -0.0781,1.17969 -0.23437,1.625 -0.18751,0.5625 -0.46094,1.01563 -0.81251,1.35938 -0.27343,0.26172 -0.63671,0.46484 -1.09375,0.60937 -0.33593,0.10547 -0.78905,0.15625 -1.35937,0.15625 h -2.90625 z m 1.54688,1.29687 v 5.0625 h 1.15625 c 0.42577,0 0.73437,-0.0234 0.92187,-0.0781 0.25,-0.0625 0.45704,-0.16406 0.625,-0.3125 0.16406,-0.15625 0.30078,-0.39844 0.40625,-0.73438 0.1016,-0.34375 0.15625,-0.8125 0.15625,-1.40625 0,-0.59375 -0.0547,-1.04687 -0.15625,-1.35937 -0.10547,-0.32031 -0.25,-0.57031 -0.43749,-0.75 -0.18751,-0.17578 -0.4297,-0.29688 -0.71876,-0.35938 -0.21094,-0.0391 -0.63282,-0.0625 -1.26563,-0.0625 z m 8.31249,-1.32812 c 0.73829,0 1.31641,0.26562 1.73439,0.79687 0.5,0.625 0.75,1.66407 0.75,3.10938 0,1.44922 -0.25,2.48437 -0.75,3.10937 -0.41798,0.52344 -0.9961,0.78125 -1.73439,0.78125 -0.74219,0 -1.33984,-0.28125 -1.79687,-0.84375 -0.44922,-0.57031 -0.67188,-1.59375 -0.67188,-3.0625 0,-1.4375 0.25,-2.47265 0.75,-3.10937 0.40626,-0.51953 0.97656,-0.78125 1.71875,-0.78125 z m 0,1.21875 c -0.17968,0 -0.33593,0.0586 -0.46875,0.17187 -0.13672,0.10547 -0.24609,0.30469 -0.32812,0.59375 -0.0937,0.38672 -0.14062,1.02735 -0.14062,1.92188 0,0.89844 0.0391,1.51172 0.12493,1.84375 0.0937,0.33594 0.20703,0.55859 0.34375,0.67187 0.1328,0.11719 0.28906,0.17188 0.46874,0.17188 0.17579,0 0.33204,-0.0547 0.46876,-0.17188 0.14454,-0.11328 0.25391,-0.3164 0.32812,-0.60937 0.1016,-0.375 0.15626,-1.00781 0.15626,-1.90625 0,-0.89453 -0.0469,-1.50781 -0.14063,-1.84375 -0.086,-0.34375 -0.19921,-0.56641 -0.34375,-0.67188 -0.13672,-0.11328 -0.29297,-0.17187 -0.46876,-0.17187 z m 64.28516,6.45312 2.60937,-3.98437 -2.35937,-3.65625 h 1.79688 l 1.53125,2.45312 1.5,-2.45312 h 1.79687 l -2.39063,3.71875 2.625,3.92187 h -1.875 l -1.68749,-2.64062 -1.70313,2.64062 z m -533.67186,0 2.60937,-3.98437 -2.35937,-3.65625 h 1.79687 l 1.53125,2.45312 1.5,-2.45312 h 1.79688 l -2.39063,3.71875 2.625,3.92187 h -1.875 l -1.6875,-2.64062 -1.70312,2.64062 z m 61.65234,-71.43359 h -1.46875 v -5.51562 c -0.53125,0.5 -1.16406,0.87109 -1.89062,1.10937 v -1.32812 c 0.38281,-0.125 0.80078,-0.35938 1.25,-0.70313 0.44531,-0.35156 0.7539,-0.76562 0.92187,-1.23437 h 1.1875 z m -61.12109,-3.40234 2.60937,-3.98438 -2.35937,-3.65625 h 1.79687 l 1.53125,2.45313 1.5,-2.45313 h 1.79688 l -2.39063,3.71875 2.625,3.92188 h -1.875 l -1.6875,-2.64063 -1.70312,2.64063 z m 139.125,2.04297 v 1.35937 h -5.14063 c 0.0508,-0.50781 0.21875,-0.99219 0.5,-1.45312 0.28125,-0.46875 0.82813,-1.08203 1.64063,-1.84375 0.66406,-0.61328 1.07031,-1.03125 1.21875,-1.25 0.19531,-0.30078 0.29687,-0.59766 0.29687,-0.89063 0,-0.33203 -0.0898,-0.58203 -0.26562,-0.75 -0.16797,-0.17578 -0.40625,-0.26562 -0.71875,-0.26562 -0.30469,0 -0.54688,0.0937 -0.73438,0.28125 -0.17969,0.17968 -0.28125,0.48047 -0.3125,0.90625 l -1.45312,-0.14063 c 0.082,-0.8125 0.35156,-1.39062 0.8125,-1.73437 0.45703,-0.35157 1.03125,-0.53125 1.71875,-0.53125 0.75781,0 1.35156,0.20312 1.78125,0.60937 0.4375,0.40625 0.65625,0.91406 0.65625,1.51563 0,0.34375 -0.0625,0.67187 -0.1875,0.98437 -0.125,0.3125 -0.32422,0.64063 -0.59375,0.98438 -0.17969,0.21875 -0.5,0.54297 -0.96875,0.96875 -0.46094,0.42968 -0.75,0.71093 -0.875,0.84375 -0.11719,0.13672 -0.21485,0.27343 -0.29688,0.40625 z m 71.80078,-0.67188 1.40625,-0.17187 c 0.0508,0.36718 0.17577,0.64843 0.375,0.84375 0.19531,0.1875 0.43749,0.28125 0.71875,0.28125 0.30078,0 0.55078,-0.11328 0.75,-0.34375 0.20702,-0.22657 0.31249,-0.53907 0.31249,-0.9375 0,-0.36328 -0.1016,-0.64844 -0.29687,-0.85938 -0.19922,-0.21875 -0.4375,-0.32812 -0.71874,-0.32812 -0.18751,0 -0.41407,0.0391 -0.67188,0.10937 l 0.15625,-1.20313 c 0.39453,0.0117 0.69531,-0.0703 0.90624,-0.25 0.20704,-0.1875 0.31251,-0.42968 0.31251,-0.73437 0,-0.25781 -0.0781,-0.46094 -0.23438,-0.60938 -0.14844,-0.15625 -0.34374,-0.23437 -0.59374,-0.23437 -0.25,0 -0.46486,0.0898 -0.64063,0.26562 -0.17969,0.16797 -0.28907,0.41797 -0.32813,0.75 l -1.34375,-0.21875 c 0.0937,-0.46875 0.23437,-0.83593 0.42188,-1.10937 0.18749,-0.28125 0.44531,-0.5 0.78124,-0.65625 0.34376,-0.15625 0.72267,-0.23438 1.14063,-0.23438 0.71876,0 1.29688,0.23047 1.73437,0.6875 0.35157,0.375 0.53125,0.79688 0.53125,1.26563 0,0.67969 -0.36718,1.21484 -1.09374,1.60937 0.43749,0.0937 0.78516,0.3086 1.04688,0.64063 0.26952,0.32422 0.40624,0.71484 0.40624,1.17187 0,0.67969 -0.25,1.25 -0.75,1.71875 -0.49219,0.46875 -1.10156,0.70313 -1.82812,0.70313 -0.68751,0 -1.26172,-0.19531 -1.71875,-0.59375 -0.44923,-0.39453 -0.71095,-0.91406 -0.78125,-1.5625 z m 78.05858,2.03125 v -1.53125 h -3.125 v -1.28125 l 3.31251,-4.85937 h 1.21874 v 4.84375 h 0.95314 v 1.29687 h -0.95314 v 1.53125 z m 0,-2.82812 v -2.60938 l -1.76561,2.60938 z m 63.66016,0.85937 1.46875,-0.14062 c 0.0391,0.32422 0.16016,0.58593 0.35938,0.78125 0.20703,0.1875 0.44531,0.28125 0.71875,0.28125 0.30077,0 0.55468,-0.11719 0.76563,-0.35938 0.21874,-0.25 0.32812,-0.625 0.32812,-1.125 0,-0.46875 -0.10934,-0.8164 -0.32812,-1.04687 -0.21095,-0.23828 -0.48048,-0.35938 -0.81251,-0.35938 -0.41797,0 -0.79297,0.1836 -1.125,0.54688 l -1.18749,-0.17188 0.75,-3.96875 h 3.85937 v 1.35938 h -2.75 l -0.23437,1.3125 c 0.3203,-0.16407 0.65624,-0.25 1,-0.25 0.64452,0 1.1914,0.24218 1.64062,0.71875 0.45703,0.46875 0.6875,1.07812 0.6875,1.82812 0,0.625 -0.1836,1.1875 -0.54688,1.6875 -0.5,0.66797 -1.1875,1 -2.0625,1 -0.71093,0 -1.28906,-0.1875 -1.73437,-0.5625 -0.43751,-0.375 -0.70313,-0.88281 -0.79688,-1.53125 z m 17.86719,1.96875 h -1.46875 v -5.51562 c -0.53125,0.5 -1.16407,0.87109 -1.89063,1.10937 v -1.32812 c 0.38282,-0.125 0.80079,-0.35938 1.25,-0.70313 0.44532,-0.35156 0.75391,-0.76562 0.92188,-1.23437 h 1.1875 z m 2.19922,-1.96875 1.46875,-0.14062 c 0.0391,0.32422 0.16016,0.58593 0.35937,0.78125 0.20703,0.1875 0.44531,0.28125 0.71875,0.28125 0.30079,0 0.55469,-0.11719 0.76563,-0.35938 0.21874,-0.25 0.32812,-0.625 0.32812,-1.125 0,-0.46875 -0.10934,-0.8164 -0.32812,-1.04687 -0.21094,-0.23828 -0.48047,-0.35938 -0.8125,-0.35938 -0.41797,0 -0.79297,0.1836 -1.125,0.54688 l -1.1875,-0.17188 0.75,-3.96875 h 3.85937 v 1.35938 h -2.75 l -0.23437,1.3125 c 0.32032,-0.16407 0.65625,-0.25 1,-0.25 0.64453,0 1.19141,0.24218 1.64062,0.71875 0.45703,0.46875 0.6875,1.07812 0.6875,1.82812 0,0.625 -0.18359,1.1875 -0.54687,1.6875 -0.5,0.66797 -1.18751,1 -2.06251,1 -0.71093,0 -1.28905,-0.1875 -1.73437,-0.5625 -0.43749,-0.375 -0.70312,-0.88281 -0.79687,-1.53125 z m 66.89061,1.96875 h -1.46874 v -5.51562 c -0.53126,0.5 -1.16406,0.87109 -1.89063,1.10937 v -1.32812 c 0.38281,-0.125 0.80079,-0.35938 1.25,-0.70313 0.44532,-0.35156 0.75391,-0.76562 0.92188,-1.23437 h 1.18749 z m 7.15235,-5.76562 -1.42187,0.15625 c -0.0429,-0.28907 -0.13672,-0.50391 -0.28125,-0.64063 -0.14844,-0.14453 -0.33593,-0.21875 -0.56251,-0.21875 -0.31249,0 -0.57812,0.14063 -0.79686,0.42188 -0.21095,0.27343 -0.33986,0.85156 -0.39063,1.73437 0.36328,-0.42578 0.8164,-0.64062 1.35937,-0.64062 0.61328,0 1.14063,0.23437 1.57812,0.70312 0.43751,0.46094 0.65626,1.0586 0.65626,1.79688 0,0.78125 -0.23438,1.40625 -0.70312,1.875 -0.46095,0.46875 -1.04688,0.70312 -1.76563,0.70312 -0.77344,0 -1.40625,-0.29687 -1.90625,-0.89062 -0.49219,-0.60157 -0.73438,-1.58594 -0.73438,-2.95313 0,-1.39453 0.25391,-2.39844 0.76563,-3.01562 0.51953,-0.625 1.19531,-0.9375 2.03125,-0.9375 0.57031,0 1.04687,0.16406 1.42187,0.48437 0.38281,0.32422 0.63281,0.79688 0.75,1.42188 z m -3.32812,3.1875 c 0,0.48047 0.10933,0.85156 0.32812,1.10937 0.21876,0.26172 0.46876,0.39063 0.75,0.39063 0.26953,0 0.49219,-0.10156 0.67188,-0.3125 0.18749,-0.21875 0.28125,-0.56641 0.28125,-1.04688 0,-0.5 -0.1016,-0.86328 -0.29688,-1.09375 -0.19921,-0.22656 -0.4453,-0.34375 -0.73437,-0.34375 -0.28125,0 -0.52344,0.10938 -0.71875,0.32813 -0.1875,0.21875 -0.28125,0.54297 -0.28125,0.96875 z m 103.3203,-0.82422 2.60938,-3.98438 -2.35938,-3.65625 h 1.79688 l 1.53126,2.45313 1.5,-2.45313 h 1.79686 l -2.39062,3.71875 2.625,3.92188 h -1.875 l -1.6875,-2.64063 -1.70312,2.64063 z m 0,0"
         style="fill:#000000;fill-opacity:1;fill-rule:nonzero;stroke:none;stroke-width:1.33333"
         aria-label="D15D14D13D12D1D0XX&#10;1&#10;X&#10;23451516&#10;X" /><path
         id="path362"
         d="m -615.93341,499.14975 h 77.708 m -99.024,84.50933 h 61.15333 m 384.90666,-5.97067 h 86.09733"
         style="fill:none;stroke:#000000;stroke-width:0.605333;stroke-linecap:round;stroke-linejoin:round;stroke-miterlimit:10;stroke-dasharray:none;stroke-opacity:1" /><path
         id="path363"
         d="m -424.99075,431.11775 v -7.256 l 6.27333,3.628 z"
         style="fill:#000000;fill-opacity:1;fill-rule:evenodd;stroke:#000000;stroke-width:1.28533;stroke-linecap:round;stroke-linejoin:round;stroke-miterlimit:10;stroke-dasharray:none;stroke-opacity:1" /><path
         id="path364"
         d="m -462.56008,431.11775 v -7.256 l 6.27466,3.628 z"
         style="fill:#000000;fill-opacity:1;fill-rule:evenodd;stroke:#000000;stroke-width:1.28533;stroke-linecap:round;stroke-linejoin:round;stroke-miterlimit:10;stroke-dasharray:none;stroke-opacity:1" /><path
         id="path365"
         d="m -450.01208,431.11775 v -7.256 l -6.27334,3.628 z"
         style="fill:#000000;fill-opacity:1;fill-rule:evenodd;stroke:#000000;stroke-width:1.28533;stroke-linecap:round;stroke-linejoin:round;stroke-miterlimit:10;stroke-dasharray:none;stroke-opacity:1" /><path
         id="path366"
         d="m -488.94008,431.11775 v -7.256 l -6.35067,3.628 z"
         style="fill:#000000;fill-opacity:1;fill-rule:evenodd;stroke:#000000;stroke-width:1.28533;stroke-linecap:round;stroke-linejoin:round;stroke-miterlimit:10;stroke-dasharray:none;stroke-opacity:1" /><path
         id="path367"
         d="m -609.65874,502.77775 v -7.25734 l -6.27467,3.62934 z"
         style="fill:#000000;fill-opacity:1;fill-rule:evenodd;stroke:#000000;stroke-width:1.28533;stroke-linecap:round;stroke-linejoin:round;stroke-miterlimit:10;stroke-dasharray:none;stroke-opacity:1" /><path
         id="path368"
         d="m -570.80541,502.77775 v -7.25734 l -6.27334,3.62934 z"
         style="fill:#000000;fill-opacity:1;fill-rule:evenodd;stroke:#000000;stroke-width:1.28533;stroke-linecap:round;stroke-linejoin:round;stroke-miterlimit:10;stroke-dasharray:none;stroke-opacity:1" /><path
         id="path369"
         d="m -583.35341,502.77775 v -7.25734 l 6.27466,3.62934 z"
         style="fill:#000000;fill-opacity:1;fill-rule:evenodd;stroke:#000000;stroke-width:1.28533;stroke-linecap:round;stroke-linejoin:round;stroke-miterlimit:10;stroke-dasharray:none;stroke-opacity:1" /><path
         id="path370"
         d="m -544.50008,502.77775 v -7.25734 l 6.27467,3.62934 z"
         style="fill:#000000;fill-opacity:1;fill-rule:evenodd;stroke:#000000;stroke-width:1.28533;stroke-linecap:round;stroke-linejoin:round;stroke-miterlimit:10;stroke-dasharray:none;stroke-opacity:1" /><path
         id="path371"
         d="m -637.24941,587.28841 v -7.25733 l -6.27333,3.628 z"
         style="fill:#000000;fill-opacity:1;fill-rule:evenodd;stroke:#000000;stroke-width:1.28533;stroke-linecap:round;stroke-linejoin:round;stroke-miterlimit:10;stroke-dasharray:none;stroke-opacity:1" /><path
         id="path372"
         d="m -111.36542,581.31641 v -7.25733 l 6.27333,3.62933 z"
         style="fill:#000000;fill-opacity:1;fill-rule:evenodd;stroke:#000000;stroke-width:1.28533;stroke-linecap:round;stroke-linejoin:round;stroke-miterlimit:10;stroke-dasharray:none;stroke-opacity:1" /><path
         id="path373"
         d="m -451.62749,409.86505 v 1.17188 h -1 v 2.21875 c 0,0.46093 0.008,0.72656 0.0312,0.79687 0.0195,0.0742 0.0625,0.13672 0.125,0.1875 0.0703,0.043 0.15625,0.0625 0.25,0.0625 0.13281,0 0.33203,-0.0469 0.59375,-0.14062 l 0.125,1.14062 c -0.34375,0.14453 -0.73047,0.21875 -1.15625,0.21875 -0.26172,0 -0.5,-0.043 -0.71875,-0.125 -0.21093,-0.0937 -0.36718,-0.20703 -0.46875,-0.34375 -0.0937,-0.14453 -0.16406,-0.33594 -0.20312,-0.57812 -0.0312,-0.16407 -0.0469,-0.50782 -0.0469,-1.03125 v -2.40625 h -0.67187 v -1.17188 h 0.67187 v -1.10937 l 1.46875,-0.84375 v 1.95312 z m 2.05078,8.17578 -1.75,-5.53125 h 1.42188 l 1.03125,3.625 0.95312,-3.625 h 1.42188 l 0.92187,3.625 1.0625,-3.625 h 1.4375 l -1.78125,5.53125 h -1.40625 l -0.95312,-3.5625 -0.9375,3.5625 z m 9.69922,2.25 h -1 c -0.53125,-0.80469 -0.9375,-1.63672 -1.21875,-2.5 -0.27343,-0.86328 -0.40625,-1.70312 -0.40625,-2.51562 0,-1 0.17188,-1.95313 0.51563,-2.85938 0.28906,-0.76953 0.66406,-1.48437 1.125,-2.14062 h 1 c -0.46875,1.05468 -0.79688,1.94922 -0.98438,2.6875 -0.17969,0.74218 -0.26562,1.52343 -0.26562,2.34375 0,0.57422 0.0508,1.15625 0.15625,1.75 0.11328,0.59375 0.25781,1.16015 0.4375,1.70312 0.125,0.35156 0.33594,0.86328 0.64062,1.53125 z m 1.15625,-2.25 v -7.64062 h 1.54688 v 3.01562 h 3.01562 v -3.01562 h 1.54688 v 7.64062 h -1.54688 v -3.34375 h -3.01562 v 3.34375 z m 7.28516,2.25 c 0.28906,-0.625 0.49219,-1.10547 0.60937,-1.4375 0.11328,-0.32422 0.22266,-0.69922 0.32813,-1.125 0.10156,-0.4375 0.17578,-0.84765 0.21875,-1.23437 0.0508,-0.38282 0.0781,-0.78125 0.0781,-1.1875 0,-0.82032 -0.0898,-1.60157 -0.26562,-2.34375 -0.17969,-0.73828 -0.50782,-1.63282 -0.98438,-2.6875 h 1 c 0.51953,0.74218 0.92578,1.53125 1.21875,2.375 0.28906,0.83593 0.4375,1.68359 0.4375,2.54687 0,0.73047 -0.11719,1.50781 -0.34375,2.32813 -0.26172,0.9375 -0.6875,1.85937 -1.28125,2.76562 z m -177.57031,62.59375 v 1.17187 h -1 v 2.21876 c 0,0.46093 0.008,0.72656 0.0312,0.79687 0.0195,0.0742 0.0625,0.13672 0.12494,0.1875 0.0703,0.043 0.15624,0.0625 0.25,0.0625 0.1328,0 0.33202,-0.0469 0.59374,-0.14062 l 0.12494,1.14062 c -0.34375,0.14454 -0.73047,0.21875 -1.15626,0.21875 -0.26172,0 -0.5,-0.043 -0.71874,-0.125 -0.21095,-0.0937 -0.36719,-0.20703 -0.46875,-0.34375 -0.0937,-0.14453 -0.16407,-0.33593 -0.20313,-0.57812 -0.0312,-0.16406 -0.0469,-0.50781 -0.0469,-1.03125 v -2.40625 h -0.67188 v -1.17187 h 0.67188 v -1.10937 l 1.46875,-0.84375 v 1.95312 z m 0.50391,6.59766 1.46875,-0.21875 c 0.0625,0.28125 0.18749,0.49609 0.375,0.64062 0.1953,0.14844 0.46874,0.21875 0.81249,0.21875 0.375,0 0.65625,-0.0664 0.84376,-0.20312 0.1328,-0.0937 0.20312,-0.22266 0.20312,-0.39063 0,-0.11328 -0.0391,-0.20703 -0.10933,-0.28125 -0.0743,-0.0625 -0.23438,-0.125 -0.48438,-0.1875 -1.1875,-0.25781 -1.9375,-0.5 -2.25,-0.71875 -0.4375,-0.28906 -0.65625,-0.70312 -0.65625,-1.23437 0,-0.47657 0.18751,-0.87891 0.56251,-1.20313 0.38281,-0.33203 0.97265,-0.5 1.76561,-0.5 0.75781,0 1.32032,0.125 1.68751,0.375 0.36328,0.24219 0.61718,0.60547 0.76562,1.09375 l -1.39062,0.25 c -0.0547,-0.21875 -0.16407,-0.38281 -0.32812,-0.5 -0.16798,-0.11328 -0.40235,-0.17187 -0.70314,-0.17187 -0.38672,0 -0.66405,0.0586 -0.82812,0.17187 -0.1172,0.0742 -0.17188,0.17188 -0.17188,0.29688 0,0.10546 0.0469,0.19531 0.14063,0.26562 0.1328,0.0937 0.59375,0.23047 1.375,0.40625 0.78125,0.17969 1.32032,0.39844 1.625,0.65625 0.31251,0.26172 0.46875,0.62109 0.46875,1.07813 0,0.51172 -0.21484,0.94922 -0.64063,1.3125 -0.42968,0.36718 -1.05468,0.54687 -1.875,0.54687 -0.76171,0 -1.35937,-0.14844 -1.79687,-0.45312 -0.4375,-0.3125 -0.72656,-0.72657 -0.85937,-1.25 z m 10.07812,1.57812 v -0.82812 c -0.19921,0.29297 -0.46484,0.52734 -0.79688,0.70312 -0.32421,0.16406 -0.66796,0.25 -1.03124,0.25 -0.375,0 -0.71485,-0.0781 -1.01563,-0.23437 -0.29297,-0.16407 -0.50781,-0.39454 -0.64062,-0.6875 -0.12494,-0.30078 -0.18751,-0.71094 -0.18751,-1.23438 v -3.5 h 1.46876 v 2.54688 c 0,0.77343 0.0235,1.24609 0.0781,1.42187 0.0508,0.17969 0.14454,0.32031 0.28126,0.42188 0.14453,0.10546 0.32812,0.15625 0.54686,0.15625 0.25,0 0.47267,-0.0664 0.67188,-0.20313 0.19532,-0.14453 0.33203,-0.31641 0.40626,-0.51562 0.0703,-0.20703 0.10933,-0.70703 0.10933,-1.5 v -2.32813 h 1.46875 v 5.53125 z m 5.28907,2.25 h -1 c -0.53126,-0.80469 -0.93751,-1.63672 -1.21875,-2.5 -0.27344,-0.86328 -0.40625,-1.70312 -0.40625,-2.51562 0,-1 0.17186,-1.95313 0.51562,-2.85938 0.28906,-0.76953 0.66406,-1.48437 1.125,-2.14062 h 1 c -0.46876,1.05468 -0.79688,1.94921 -0.98437,2.6875 -0.17969,0.74218 -0.26563,1.52343 -0.26563,2.34375 0,0.57422 0.0508,1.15625 0.15624,1.75 0.11334,0.59375 0.25782,1.16015 0.43751,1.70312 0.12493,0.35156 0.33593,0.86328 0.64063,1.53125 z m 1.11718,-9.89062 h 2.82812 c 0.63282,0 1.11719,0.0469 1.45313,0.14062 0.44531,0.13672 0.82813,0.375 1.14063,0.71875 0.32031,0.33594 0.5664,0.7461 0.73437,1.23438 0.16406,0.49218 0.25,1.08984 0.25,1.79687 0,0.63672 -0.0781,1.17969 -0.23437,1.625 -0.1875,0.5625 -0.46094,1.01563 -0.8125,1.35938 -0.27344,0.26171 -0.63672,0.46484 -1.09375,0.60937 -0.33594,0.10547 -0.78907,0.15625 -1.35937,0.15625 h -2.90626 z m 1.54687,1.29687 v 5.0625 h 1.15625 c 0.42579,0 0.73438,-0.0234 0.92188,-0.0781 0.25,-0.0625 0.45703,-0.16406 0.625,-0.3125 0.16406,-0.15625 0.30078,-0.39844 0.40625,-0.73437 0.10156,-0.34375 0.15625,-0.8125 0.15625,-1.40625 0,-0.59375 -0.0547,-1.04688 -0.15625,-1.35938 -0.10547,-0.32031 -0.25,-0.57031 -0.4375,-0.75 -0.1875,-0.17578 -0.42969,-0.29687 -0.71875,-0.35937 -0.21093,-0.0391 -0.63281,-0.0625 -1.26562,-0.0625 z m 5.73829,8.59375 c 0.28906,-0.625 0.49219,-1.10547 0.60937,-1.4375 0.11328,-0.32422 0.22266,-0.69922 0.32813,-1.125 0.10156,-0.4375 0.17578,-0.84765 0.21875,-1.23437 0.0508,-0.38282 0.0781,-0.78125 0.0781,-1.1875 0,-0.82032 -0.0898,-1.60157 -0.26563,-2.34375 -0.17968,-0.73829 -0.50781,-1.63282 -0.98437,-2.6875 h 1 c 0.51953,0.74218 0.92578,1.53125 1.21875,2.375 0.28906,0.83593 0.4375,1.68359 0.4375,2.54687 0,0.73047 -0.11719,1.50781 -0.34375,2.32813 -0.26172,0.9375 -0.6875,1.85937 -1.28125,2.76562 z m 18.28515,-10.42578 v 1.17187 h -1 v 2.21876 c 0,0.46093 0.008,0.72656 0.0313,0.79687 0.0195,0.0742 0.0625,0.13672 0.125,0.1875 0.0703,0.043 0.15625,0.0625 0.25,0.0625 0.13281,0 0.33203,-0.0469 0.59375,-0.14062 l 0.125,1.14062 c -0.34375,0.14454 -0.73047,0.21875 -1.15625,0.21875 -0.26172,0 -0.5,-0.043 -0.71875,-0.125 -0.21094,-0.0937 -0.36719,-0.20703 -0.46875,-0.34375 -0.0937,-0.14453 -0.16407,-0.33593 -0.20313,-0.57812 -0.0312,-0.16406 -0.0469,-0.50781 -0.0469,-1.03125 v -2.40625 h -0.67187 v -1.17187 h 0.67187 v -1.10937 l 1.46875,-0.84375 v 1.95312 z m 2.47266,0.53516 v 2.8125 c 0.47656,-0.55079 1.04688,-0.82813 1.70312,-0.82813 0.33204,0 0.63282,0.0625 0.90626,0.1875 0.26953,0.125 0.47265,0.28906 0.60937,0.48438 0.14453,0.1875 0.23828,0.40234 0.28125,0.64062 0.0508,0.24219 0.0781,0.60547 0.0781,1.09375 v 3.25 h -1.46875 v -2.92187 c 0,-0.58204 -0.0273,-0.95313 -0.0781,-1.10938 -0.0547,-0.15625 -0.15234,-0.27344 -0.29687,-0.35937 -0.13672,-0.0937 -0.3125,-0.14063 -0.53126,-0.14063 -0.24218,0 -0.46093,0.0586 -0.65624,0.17188 -0.1875,0.11718 -0.32813,0.29296 -0.42188,0.53125 -0.0859,0.24218 -0.125,0.59375 -0.125,1.0625 v 2.76562 h -1.45312 v -7.64062 z m 7.48828,9.89062 h -1 c -0.53125,-0.80469 -0.9375,-1.63672 -1.21875,-2.5 -0.27344,-0.86328 -0.40625,-1.70312 -0.40625,-2.51562 0,-1 0.17188,-1.95313 0.51563,-2.85938 0.28906,-0.76953 0.66406,-1.48437 1.125,-2.14062 h 1 c -0.46875,1.05468 -0.79688,1.94921 -0.98438,2.6875 -0.17969,0.74218 -0.26562,1.52343 -0.26562,2.34375 0,0.57422 0.0508,1.15625 0.15625,1.75 0.11328,0.59375 0.25781,1.16015 0.4375,1.70312 0.125,0.35156 0.33593,0.86328 0.64062,1.53125 z m 1.12891,-9.89062 h 2.82812 c 0.63281,0 1.11719,0.0469 1.45313,0.14062 0.44531,0.13672 0.82812,0.375 1.14062,0.71875 0.32032,0.33594 0.56641,0.7461 0.73438,1.23438 0.16406,0.49218 0.25,1.08984 0.25,1.79687 0,0.63672 -0.0781,1.17969 -0.23438,1.625 -0.1875,0.5625 -0.46094,1.01563 -0.8125,1.35938 -0.27344,0.26171 -0.63672,0.46484 -1.09375,0.60937 -0.33593,0.10547 -0.78906,0.15625 -1.35937,0.15625 h -2.90625 z m 1.54687,1.29687 v 5.0625 h 1.15625 c 0.42578,0 0.73438,-0.0234 0.92188,-0.0781 0.25,-0.0625 0.45703,-0.16406 0.625,-0.3125 0.16406,-0.15625 0.30078,-0.39844 0.40625,-0.73437 0.10156,-0.34375 0.15625,-0.8125 0.15625,-1.40625 0,-0.59375 -0.0547,-1.04688 -0.15625,-1.35938 -0.10547,-0.32031 -0.25,-0.57031 -0.4375,-0.75 -0.1875,-0.17578 -0.42969,-0.29687 -0.71875,-0.35937 -0.21094,-0.0391 -0.63281,-0.0625 -1.26563,-0.0625 z m 5.74609,8.59375 c 0.28907,-0.625 0.49219,-1.10547 0.60938,-1.4375 0.11328,-0.32422 0.22266,-0.69922 0.32812,-1.125 0.10156,-0.4375 0.17579,-0.84765 0.21876,-1.23437 0.0508,-0.38282 0.0781,-0.78125 0.0781,-1.1875 0,-0.82032 -0.0898,-1.60157 -0.26563,-2.34375 -0.17969,-0.73829 -0.50781,-1.63282 -0.98437,-2.6875 h 1 c 0.51953,0.74218 0.92578,1.53125 1.21874,2.375 0.28907,0.83593 0.4375,1.68359 0.4375,2.54687 0,0.73047 -0.11718,1.50781 -0.34374,2.32813 -0.26172,0.9375 -0.6875,1.85937 -1.28126,2.76562 z m -86.9453,75.74609 v 1.17188 h -1 v 2.21875 c 0,0.46093 0.008,0.72656 0.0312,0.79688 0.0195,0.0743 0.0625,0.13671 0.12493,0.18749 0.0703,0.0429 0.15624,0.0625 0.25,0.0625 0.1328,0 0.33203,-0.0469 0.59375,-0.14063 l 0.12493,1.14063 c -0.34375,0.14452 -0.73047,0.21874 -1.15625,0.21874 -0.26172,0 -0.5,-0.0429 -0.71875,-0.12493 -0.21095,-0.0937 -0.36719,-0.20704 -0.46875,-0.34375 -0.0937,-0.14453 -0.16406,-0.33594 -0.20313,-0.57813 -0.0312,-0.16407 -0.0468,-0.50781 -0.0468,-1.03125 v -2.40624 h -0.67188 v -1.17188 h 0.67188 v -1.10938 l 1.46875,-0.84374 v 1.95312 z m 0.50781,6.59766 1.46875,-0.21875 c 0.0625,0.28125 0.18749,0.49609 0.375,0.64063 0.1953,0.14844 0.46874,0.21874 0.81249,0.21874 0.375,0 0.65625,-0.0664 0.84376,-0.20312 0.1328,-0.0937 0.20312,-0.22265 0.20312,-0.39062 0,-0.11334 -0.0391,-0.20703 -0.10933,-0.28126 -0.0743,-0.0625 -0.23438,-0.12493 -0.48438,-0.18749 -1.1875,-0.25781 -1.9375,-0.5 -2.25,-0.71876 -0.4375,-0.28905 -0.65625,-0.70312 -0.65625,-1.23437 0,-0.47656 0.18751,-0.87891 0.56251,-1.20312 0.38281,-0.33203 0.97265,-0.5 1.76561,-0.5 0.75781,0 1.32032,0.12493 1.68751,0.375 0.36328,0.24218 0.61718,0.60546 0.76562,1.09374 l -1.39062,0.25 c -0.0547,-0.21874 -0.16407,-0.38281 -0.32812,-0.5 -0.16798,-0.11333 -0.40235,-0.17186 -0.70314,-0.17186 -0.38672,0 -0.66405,0.0585 -0.82812,0.17186 -0.1172,0.0743 -0.17188,0.17188 -0.17188,0.29688 0,0.10547 0.0469,0.19531 0.14063,0.26563 0.1328,0.0937 0.59375,0.23047 1.375,0.40624 0.78125,0.17969 1.32032,0.39844 1.625,0.65625 0.31251,0.26172 0.46875,0.6211 0.46875,1.07814 0,0.5117 -0.21484,0.94921 -0.64063,1.31249 -0.42968,0.36719 -1.05468,0.54688 -1.875,0.54688 -0.76171,0 -1.35937,-0.14844 -1.79687,-0.45313 -0.4375,-0.3125 -0.72656,-0.72656 -0.85937,-1.25 z m 10.08203,1.57813 v -0.82813 c -0.19922,0.29297 -0.46484,0.52734 -0.79688,0.70313 -0.32422,0.16405 -0.66796,0.25 -1.03124,0.25 -0.375,0 -0.71486,-0.0781 -1.01563,-0.23437 -0.29297,-0.16407 -0.50781,-0.39454 -0.64063,-0.68751 -0.12493,-0.30079 -0.1875,-0.71093 -0.1875,-1.23437 v -3.5 h 1.46876 v 2.54688 c 0,0.77342 0.0235,1.24609 0.0781,1.42186 0.0508,0.1797 0.14453,0.32032 0.28125,0.42188 0.14454,0.10547 0.32812,0.15626 0.54687,0.15626 0.25,0 0.47267,-0.0664 0.67188,-0.20314 0.19532,-0.14453 0.33203,-0.3164 0.40625,-0.51562 0.0703,-0.20703 0.10934,-0.70703 0.10934,-1.5 v -2.32812 h 1.46874 v 5.53125 z m 5.29688,2.25 h -1 c -0.53126,-0.80469 -0.93751,-1.63672 -1.21876,-2.5 -0.27343,-0.86328 -0.40624,-1.70313 -0.40624,-2.51563 0,-1 0.17186,-1.95313 0.51562,-2.85937 0.28906,-0.76953 0.66406,-1.48437 1.125,-2.14063 h 1 c -0.46876,1.05468 -0.79688,1.94922 -0.98438,2.6875 -0.17968,0.74218 -0.26562,1.52344 -0.26562,2.34376 0,0.57421 0.0508,1.15624 0.15624,1.75 0.11334,0.59374 0.25782,1.16014 0.43751,1.70312 0.12493,0.35156 0.33593,0.86328 0.64063,1.53125 z m 6.03124,-5.06251 1.48438,0.48438 c -0.23048,0.83594 -0.60938,1.45313 -1.14062,1.85937 -0.53126,0.39844 -1.21095,0.59376 -2.03126,0.59376 -1.01172,0 -1.84374,-0.34376 -2.5,-1.03125 -0.65625,-0.69532 -0.98437,-1.64454 -0.98437,-2.84375 0,-1.26953 0.32812,-2.25391 0.98437,-2.95313 0.65626,-0.70703 1.51954,-1.0625 2.59375,-1.0625 0.93751,0 1.69532,0.27735 2.28125,0.82812 0.34375,0.32423 0.60156,0.79298 0.78126,1.40626 l -1.53126,0.35937 c -0.0859,-0.39453 -0.27344,-0.70703 -0.5625,-0.93749 -0.29296,-0.22658 -0.64062,-0.34376 -1.04687,-0.34376 -0.56251,0 -1.02344,0.20313 -1.375,0.60937 -0.35547,0.40625 -0.53125,1.07032 -0.53125,1.98439 0,0.96093 0.17188,1.64842 0.51562,2.06249 0.35156,0.40625 0.8047,0.60937 1.35938,0.60937 0.40625,0 0.7539,-0.12893 1.04688,-0.39062 0.30077,-0.25782 0.51953,-0.67187 0.65624,-1.23438 z m 2.41797,0.32814 1.5,-0.14063 c 0.082,0.5 0.25781,0.87109 0.53125,1.10937 0.28126,0.23047 0.65626,0.34375 1.125,0.34375 0.5,0 0.875,-0.1016 1.125,-0.31249 0.25,-0.20704 0.375,-0.45314 0.375,-0.73439 0,-0.17577 -0.0547,-0.32812 -0.15625,-0.45312 -0.10547,-0.1328 -0.28907,-0.25 -0.54688,-0.34375 -0.18749,-0.0625 -0.60156,-0.17188 -1.23437,-0.32813 -0.83594,-0.20703 -1.41796,-0.45703 -1.75,-0.75 -0.46875,-0.42577 -0.70312,-0.9414 -0.70312,-1.54687 0,-0.38281 0.10933,-0.74218 0.32812,-1.07813 0.22657,-0.34375 0.54688,-0.60156 0.95313,-0.78124 0.41405,-0.17579 0.92187,-0.26563 1.51563,-0.26563 0.95702,0 1.67577,0.21094 2.15624,0.625 0.48828,0.41796 0.74218,0.98047 0.76562,1.6875 l -1.54686,0.0625 c -0.0625,-0.39453 -0.20314,-0.67579 -0.42188,-0.84375 -0.21875,-0.17578 -0.54298,-0.26562 -0.96875,-0.26562 -0.44923,0 -0.80469,0.0937 -1.06251,0.28124 -0.15625,0.1172 -0.23437,0.27344 -0.23437,0.46876 0,0.18749 0.0703,0.34374 0.21875,0.46874 0.19532,0.16798 0.67188,0.33984 1.42188,0.51563 0.75,0.17968 1.30078,0.35937 1.65625,0.54687 0.36328,0.1875 0.64453,0.44922 0.84375,0.78125 0.20702,0.32423 0.31249,0.73047 0.31249,1.21875 0,0.4375 -0.12107,0.85157 -0.35937,1.23438 -0.24219,0.375 -0.58594,0.65624 -1.03124,0.84375 -0.44923,0.18749 -1.00782,0.28125 -1.67188,0.28125 -0.96094,0 -1.69922,-0.22266 -2.21875,-0.67188 -0.52344,-0.44532 -0.82813,-1.09765 -0.92188,-1.95312 z m 7.31641,0.45312 v -1.46875 h 2.875 v 1.46875 z m 8.625,-0.78126 1.48438,0.48438 c -0.23047,0.83594 -0.60938,1.45313 -1.14063,1.85937 -0.53125,0.39844 -1.21093,0.59376 -2.03125,0.59376 -1.01172,0 -1.84375,-0.34376 -2.5,-1.03125 -0.65626,-0.69532 -0.98438,-1.64454 -0.98438,-2.84375 0,-1.26953 0.32812,-2.25391 0.98438,-2.95313 0.65625,-0.70703 1.51953,-1.0625 2.59374,-1.0625 0.93751,0 1.69532,0.27735 2.28126,0.82812 0.34374,0.32423 0.60156,0.79298 0.78125,1.40626 l -1.53125,0.35937 c -0.0859,-0.39453 -0.27344,-0.70703 -0.5625,-0.93749 -0.29297,-0.22658 -0.64062,-0.34376 -1.04688,-0.34376 -0.5625,0 -1.02344,0.20313 -1.375,0.60937 -0.35546,0.40625 -0.53125,1.07032 -0.53125,1.98439 0,0.96093 0.17188,1.64842 0.51563,2.06249 0.35156,0.40625 0.80469,0.60937 1.35937,0.60937 0.40625,0 0.75391,-0.12893 1.04688,-0.39062 0.30077,-0.25782 0.51953,-0.67187 0.65625,-1.23438 z m 2.82422,2.81251 v -7.64063 h 1.54688 v 3.39063 l 3.10937,-3.39063 h 2.07812 l -2.875,2.98438 3.03125,4.65625 h -2 l -2.09374,-3.57813 -1.25,1.26562 v 2.31251 z m 7.26172,2.25 c 0.28906,-0.625 0.49218,-1.10548 0.60937,-1.43751 0.11328,-0.32421 0.22266,-0.69921 0.32813,-1.125 0.10156,-0.43749 0.17578,-0.84765 0.21875,-1.23437 0.0508,-0.38281 0.0781,-0.78125 0.0781,-1.18749 0,-0.82032 -0.0898,-1.60158 -0.26563,-2.34376 -0.17969,-0.73828 -0.50781,-1.63282 -0.98437,-2.6875 h 1 c 0.51953,0.74219 0.92578,1.53126 1.21875,2.375 0.28906,0.83594 0.4375,1.68359 0.4375,2.54687 0,0.73048 -0.11719,1.50781 -0.34375,2.32813 -0.26172,0.9375 -0.6875,1.85938 -1.28125,2.76563 z m 436.74217,-26.60157 v 1.17188 h -1 v 2.21874 c 0,0.46095 0.008,0.72658 0.0312,0.79688 0.0196,0.0743 0.0625,0.13672 0.12494,0.1875 0.0703,0.0429 0.15624,0.0625 0.25,0.0625 0.1328,0 0.33202,-0.0469 0.59374,-0.14063 l 0.12494,1.14063 c -0.34375,0.14453 -0.73047,0.21875 -1.15626,0.21875 -0.26172,0 -0.5,-0.0429 -0.71874,-0.12494 -0.21094,-0.0937 -0.36719,-0.20702 -0.46875,-0.34374 -0.0937,-0.14454 -0.16407,-0.33594 -0.20313,-0.57812 -0.0312,-0.16407 -0.0469,-0.50782 -0.0469,-1.03126 v -2.40625 h -0.67188 v -1.17188 h 0.67188 v -1.10937 l 1.46875,-0.84375 v 1.95312 z m 0.50782,6.59766 1.46874,-0.21876 c 0.0625,0.28126 0.18751,0.4961 0.375,0.64063 0.19532,0.14844 0.46875,0.21876 0.81251,0.21876 0.375,0 0.65624,-0.0664 0.84375,-0.20313 0.1328,-0.0937 0.20312,-0.22266 0.20312,-0.39063 0,-0.11333 -0.0391,-0.20703 -0.10934,-0.28124 -0.0743,-0.0625 -0.23437,-0.12493 -0.48437,-0.18751 -1.18749,-0.25781 -1.93749,-0.5 -2.25,-0.71874 -0.43749,-0.28907 -0.65625,-0.70314 -0.65625,-1.23438 0,-0.47657 0.1875,-0.8789 0.5625,-1.20313 0.38282,-0.33203 0.97266,-0.5 1.76563,-0.5 0.75781,0 1.32031,0.12493 1.68749,0.375 0.36328,0.24219 0.61719,0.60547 0.76563,1.09376 l -1.39063,0.25 c -0.0547,-0.21876 -0.16406,-0.38281 -0.32812,-0.5 -0.16797,-0.11333 -0.40234,-0.17188 -0.70313,-0.17188 -0.38672,0 -0.66405,0.0585 -0.82812,0.17188 -0.1172,0.0743 -0.17188,0.17187 -0.17188,0.29687 0,0.10546 0.0469,0.19532 0.14063,0.26562 0.1328,0.0937 0.59376,0.23047 1.375,0.40626 0.78125,0.17968 1.32032,0.39844 1.625,0.65625 0.3125,0.26171 0.46876,0.62109 0.46876,1.07812 0,0.51172 -0.21486,0.94921 -0.64063,1.31249 -0.42969,0.36719 -1.05469,0.54688 -1.875,0.54688 -0.76172,0 -1.35937,-0.14844 -1.79688,-0.45312 -0.43749,-0.3125 -0.72656,-0.72657 -0.85937,-1.25 z m 10.07421,1.57812 v -0.82812 c -0.19921,0.29296 -0.46484,0.52734 -0.79687,0.70312 -0.32422,0.16407 -0.66797,0.25 -1.03125,0.25 -0.375,0 -0.71484,-0.0781 -1.01563,-0.23437 -0.29297,-0.16407 -0.50781,-0.39453 -0.64062,-0.68751 -0.12494,-0.30077 -0.1875,-0.71093 -0.1875,-1.23437 v -3.5 h 1.46875 v 2.54688 c 0,0.77344 0.0235,1.24609 0.0781,1.42188 0.0508,0.17968 0.14454,0.32031 0.28126,0.42187 0.14453,0.10546 0.32812,0.15625 0.54688,0.15625 0.25,0 0.47265,-0.0664 0.67186,-0.20312 0.19532,-0.14453 0.33204,-0.31641 0.40626,-0.51563 0.0703,-0.20704 0.10933,-0.70704 0.10933,-1.5 v -2.32813 h 1.46875 v 5.53125 z m 5.28907,2.25 h -1 c -0.53126,-0.80469 -0.93751,-1.63672 -1.21875,-2.5 -0.27344,-0.86328 -0.40625,-1.70312 -0.40625,-2.51562 0,-1 0.17188,-1.95312 0.51562,-2.85938 0.28907,-0.76953 0.66407,-1.48437 1.125,-2.14062 h 1 c -0.46874,1.05469 -0.79688,1.94922 -0.98437,2.6875 -0.17969,0.74219 -0.26563,1.52343 -0.26563,2.34375 0,0.57421 0.0508,1.15625 0.15626,1.75 0.11333,0.59375 0.25781,1.16016 0.43749,1.70312 0.12493,0.35156 0.33593,0.86328 0.64063,1.53125 z m 6.02344,-5.06249 1.48437,0.48437 c -0.23047,0.83594 -0.60937,1.45312 -1.14063,1.85938 -0.53125,0.39844 -1.21093,0.59374 -2.03125,0.59374 -1.01172,0 -1.84375,-0.34374 -2.5,-1.03125 -0.65624,-0.69531 -0.98437,-1.64453 -0.98437,-2.84375 0,-1.26953 0.32813,-2.2539 0.98437,-2.95312 0.65625,-0.70704 1.51953,-1.0625 2.59376,-1.0625 0.93749,0 1.69531,0.27734 2.28124,0.82813 0.34376,0.32421 0.60156,0.79296 0.78125,1.40624 l -1.53125,0.35937 c -0.0859,-0.39452 -0.27344,-0.70702 -0.56249,-0.93749 -0.29298,-0.22656 -0.64063,-0.34375 -1.04688,-0.34375 -0.5625,0 -1.02344,0.20312 -1.375,0.60938 -0.35547,0.40625 -0.53126,1.0703 -0.53126,1.98437 0,0.96093 0.17188,1.64844 0.51563,2.06249 0.35156,0.40626 0.80469,0.60939 1.35937,0.60939 0.40626,0 0.75391,-0.12893 1.04688,-0.39063 0.30079,-0.25781 0.51954,-0.67188 0.65626,-1.23437 z m 6.22265,2.81249 h -1.46875 v -5.51562 c -0.53125,0.5 -1.16406,0.87109 -1.89062,1.10937 v -1.32812 c 0.38281,-0.12493 0.80077,-0.35937 1.25,-0.70312 0.4453,-0.35157 0.7539,-0.76563 0.92187,-1.23439 h 1.1875 z m 7.13672,-5.76562 -1.42188,0.15625 c -0.0429,-0.28907 -0.13672,-0.50391 -0.28124,-0.64063 -0.14844,-0.14453 -0.33595,-0.21874 -0.56251,-0.21874 -0.31249,0 -0.57812,0.14062 -0.79688,0.42186 -0.21093,0.27344 -0.33984,0.85158 -0.39061,1.73439 0.36328,-0.42579 0.8164,-0.64063 1.35937,-0.64063 0.61328,0 1.14063,0.23438 1.57812,0.70312 0.43751,0.46094 0.65625,1.0586 0.65625,1.79688 0,0.78124 -0.23437,1.40624 -0.70313,1.875 -0.46093,0.46875 -1.04687,0.70312 -1.76561,0.70312 -0.77344,0 -1.40626,-0.29688 -1.90626,-0.89062 -0.49218,-0.60156 -0.73437,-1.58594 -0.73437,-2.95312 0,-1.39454 0.25391,-2.39844 0.76563,-3.01563 0.51952,-0.625 1.1953,-0.93751 2.03124,-0.93751 0.57032,0 1.04688,0.16407 1.42188,0.48439 0.38281,0.32421 0.63281,0.79687 0.75,1.42187 z m -3.32812,3.1875 c 0,0.48047 0.10933,0.85156 0.32812,1.10938 0.21874,0.26172 0.46874,0.39062 0.75,0.39062 0.26953,0 0.49218,-0.1016 0.67188,-0.3125 0.18749,-0.21875 0.28124,-0.5664 0.28124,-1.04687 0,-0.5 -0.1016,-0.86329 -0.29687,-1.09376 -0.19923,-0.22656 -0.44532,-0.34375 -0.73437,-0.34375 -0.28126,0 -0.52344,0.10934 -0.71876,0.32812 -0.1875,0.21876 -0.28124,0.54298 -0.28124,0.96876 z m 4.41796,0.54687 v -1.46875 h 2.875 v 1.46875 z m 8.61718,-0.78124 1.48438,0.48437 c -0.23047,0.83594 -0.60938,1.45312 -1.14062,1.85938 -0.53125,0.39844 -1.21094,0.59374 -2.03125,0.59374 -1.01172,0 -1.84375,-0.34374 -2.5,-1.03125 -0.65625,-0.69531 -0.98437,-1.64453 -0.98437,-2.84375 0,-1.26953 0.32812,-2.2539 0.98437,-2.95312 0.65625,-0.70704 1.51953,-1.0625 2.59375,-1.0625 0.9375,0 1.6953,0.27734 2.28125,0.82813 0.34375,0.32421 0.60156,0.79296 0.78125,1.40624 l -1.53125,0.35937 c -0.086,-0.39452 -0.27344,-0.70702 -0.56251,-0.93749 -0.29296,-0.22656 -0.64062,-0.34375 -1.04686,-0.34375 -0.56251,0 -1.02344,0.20312 -1.375,0.60938 -0.35548,0.40625 -0.53126,1.0703 -0.53126,1.98437 0,0.96093 0.17188,1.64844 0.51563,2.06249 0.35156,0.40626 0.80468,0.60939 1.35937,0.60939 0.40626,0 0.75391,-0.12893 1.04688,-0.39063 0.30078,-0.25781 0.51952,-0.67188 0.65624,-1.23437 z m 2.41016,0.32812 1.500004,-0.14063 c 0.082,0.5 0.257814,0.8711 0.531254,1.10938 0.28124,0.23046 0.65624,0.34374 1.125,0.34374 0.5,0 0.875,-0.1016 1.125,-0.31249 0.25,-0.20703 0.375,-0.45312 0.375,-0.73437 0,-0.17579 -0.05467,-0.32814 -0.156254,-0.45314 -0.105466,-0.1328 -0.289066,-0.25 -0.54688,-0.34374 -0.187493,-0.0625 -0.60156,-0.17187 -1.234373,-0.32812 -0.835933,-0.20704 -1.41796,-0.45704 -1.75,-0.75 -0.468751,-0.42579 -0.703121,-0.94142 -0.703121,-1.54688 0,-0.38282 0.10933,-0.74219 0.328121,-1.07812 0.22656,-0.34375 0.54688,-0.60156 0.953133,-0.78126 0.414054,-0.17578 0.921867,-0.26562 1.515614,-0.26562 0.95704,0 1.675786,0.21093 2.156253,0.625 0.48828,0.41797 0.742187,0.98046 0.765627,1.6875 l -1.54688,0.0625 c -0.06253,-0.39454 -0.20312,-0.67578 -0.421867,-0.84375 -0.218747,-0.17579 -0.542973,-0.26563 -0.968747,-0.26563 -0.449226,0 -0.804693,0.0937 -1.062506,0.28126 -0.156254,0.1172 -0.234374,0.27344 -0.234374,0.46874 0,0.18751 0.07027,0.34375 0.218747,0.46875 0.19532,0.16797 0.67188,0.33985 1.42188,0.51563 0.75,0.17969 1.300773,0.35937 1.656253,0.54688 0.36328,0.18749 0.64452,0.44921 0.843747,0.78125 0.207027,0.32421 0.312493,0.73047 0.312493,1.21875 0,0.43749 -0.121066,0.85156 -0.359373,1.23437 -0.242187,0.375 -0.585933,0.65625 -1.031253,0.84375 -0.449214,0.1875 -1.0078,0.28125 -1.671867,0.28125 -0.960933,0 -1.699227,-0.22265 -2.218747,-0.67188 -0.523444,-0.44531 -0.828134,-1.09765 -0.921884,-1.95312 z m 7.070311,4.73437 c 0.289067,-0.625 0.492187,-1.10546 0.609387,-1.43749 0.113333,-0.32423 0.222653,-0.69923 0.32812,-1.125 0.1016,-0.43751 0.175786,-0.84767 0.218746,-1.23439 0.0508,-0.38281 0.07813,-0.78124 0.07813,-1.18749 0,-0.82032 -0.08987,-1.60156 -0.265627,-2.34375 -0.179693,-0.73828 -0.507813,-1.63281 -0.984373,-2.6875 h 1 c 0.51952,0.74218 0.925773,1.53125 1.218746,2.375 0.289054,0.83593 0.437494,1.6836 0.437494,2.54688 0,0.73046 -0.1172,1.50781 -0.343747,2.32812 -0.26172,0.9375 -0.687493,1.85937 -1.281253,2.76562 z m 0,0"
         style="fill:#000000;fill-opacity:1;fill-rule:nonzero;stroke:none;stroke-width:1.33333"
         aria-label="t&#10;w(H)&#10;t&#10;su(D)&#10;t&#10;h(D)&#10;t&#10;su(CS-CK)&#10;t&#10;su(C16-CS)" /><path
         id="path374"
         d="m -184.91609,581.31641 v -7.25733 l -6.27333,3.62933 z"
         style="fill:#000000;fill-opacity:1;fill-rule:evenodd;stroke:#000000;stroke-width:1.28533;stroke-linecap:round;stroke-linejoin:round;stroke-miterlimit:10;stroke-dasharray:none;stroke-opacity:1" /><path
         id="path375"
         d="m -582.37075,587.28841 v -7.25733 l 6.27467,3.628 z"
         style="fill:#000000;fill-opacity:1;fill-rule:evenodd;stroke:#000000;stroke-width:1.28533;stroke-linecap:round;stroke-linejoin:round;stroke-miterlimit:10;stroke-dasharray:none;stroke-opacity:1" /></g></g></svg>
